<?xml version="1.0" encoding="utf-8"?>
<!-- Generator: Adobe Illustrator 24.2.1, SVG Export Plug-In . SVG Version: 6.00 Build 0)  -->
<svg version="1.1" xmlns="http://www.w3.org/2000/svg" xmlns:xlink="http://www.w3.org/1999/xlink" x="0px" y="0px"
	 viewBox="0 0 1336.9 1389.3" style="enable-background:new 0 0 1336.9 1389.3;" xml:space="preserve">
<style type="text/css">
	.st0{fill:#B8C1CA;}
	.st1{fill:#DDDDDD;}
	.st2{fill:#2FB279;}
	.st3{fill:#F4F4F4;}
	.st4{fill:#8A96AB;}
	.st5{fill:#253C4F;}
	.st6{fill:#377475;}
	.st7{fill:#654E91;}
	.st8{clip-path:url(#SVGID_1_);fill:#7F5CA1;}
	.st9{clip-path:url(#SVGID_1_);fill:#C5E6F9;}
	.st10{clip-path:url(#SVGID_1_);fill:none;stroke:#324F6B;stroke-width:17.0021;stroke-miterlimit:10;}
	.st11{clip-path:url(#SVGID_1_);fill:#654E91;}
	.st12{clip-path:url(#SVGID_1_);fill:none;stroke:#2FB279;stroke-width:4.2505;stroke-miterlimit:10;}
	.st13{clip-path:url(#SVGID_1_);fill:none;stroke:#654E91;stroke-width:8.5011;stroke-miterlimit:10;}
	.st14{clip-path:url(#SVGID_1_);fill:#DDDDDD;}
	.st15{clip-path:url(#SVGID_1_);}
	.st16{fill:#324F6B;}
	.st17{fill:none;stroke:#324F6B;stroke-width:12.7516;stroke-miterlimit:10;}
	.st18{clip-path:url(#SVGID_2_);fill:#7F5CA1;}
	.st19{clip-path:url(#SVGID_2_);fill:none;stroke:#2FB279;stroke-width:4.2505;stroke-miterlimit:10;}
	.st20{fill:#4C3A7F;}
	.st21{fill:#D43D40;}
	.st22{fill:none;stroke:#EF8B8F;stroke-width:12.7516;stroke-miterlimit:10;}
</style>
<g id="Sergeant">
</g>
<g id="Elton">
</g>
<g id="Fred">
</g>
<g id="Bubbles">
</g>
<g id="Dolores">
</g>
<g id="Dolly">
</g>
<g id="Cosmo">
</g>
<g id="Belle">
	<g>
		<g>
			<g>
				<g>
					<g>
						<path class="st0" d="M166.9,259.3c0.2-1.6,0.7-3.2,1.2-4.6c0.5-1.5,1.2-2.9,2-4.2c0.8-1.3,1.7-2.5,2.6-3.7c1-1.1,2-2.1,3.1-3
							c2.2-1.8,4.7-3.1,7.3-3.8c2.6-0.7,5.2-0.8,7.9-0.2c2.6,0.6,5,1.7,7.2,3.2c2.1,1.5,4,3.3,5.6,5.4c1.6,2.1,2.9,4.5,3.7,7.1
							c0.4,1.3,0.8,2.6,1,3.9c0.2,1.3,0.3,2.7,0.3,4.1L166.9,259.3z"/>
					</g>
					<g>
						<g>
							<path class="st0" d="M164.8,355.6c-0.4-4.1-0.9-8.1-1.2-12.1l-0.4-6.1c-0.1-2-0.3-4-0.4-6.1c-0.2-4-0.4-8.1-0.4-12.1l-0.1-6
								l0.1-6c0-4,0.3-8,0.5-12c0.1-2,0.3-4,0.4-6c0.1-2,0.3-4,0.5-6c0.7-8,1.7-15.9,3-23.9l42,4.2c-0.2,6.9-0.1,13.9,0.2,20.8
								c0.1,1.7,0.2,3.5,0.3,5.2c0.1,1.7,0.2,3.5,0.4,5.2c0.3,3.5,0.6,6.9,1.1,10.4l0.6,5.2l0.8,5.1c0.5,3.4,1.1,6.8,1.7,10.2
								c0.3,1.7,0.6,3.4,1,5.1l1.1,5c0.8,3.3,1.6,6.7,2.4,10L164.8,355.6z"/>
						</g>
						<g>
							<path class="st1" d="M208.8,273.5c0.3,2.9,0.3,5.9,0.2,8.8c0,1.5-0.1,2.9-0.2,4.4c-0.1,1.5-0.2,2.9-0.4,4.3
								c-0.4,2.8-0.9,5.5-1.6,8c-0.3,1.3-0.8,2.5-1.2,3.6c-0.4,1.2-0.9,2.3-1.4,3.3c-1,2.1-2.1,4-3.4,5.7c-1.2,1.7-2.5,3.1-4,4.3
								c-2.9,2.4-6.1,3.8-9.4,4.2c-3.3,0.2-6.7-0.6-9.9-2.7c-1.6-1-3.1-2.4-4.6-4c-1.5-1.7-2.7-3.6-3.9-5.9
								c-0.6-1.1-1.2-2.3-1.7-3.6c-0.5-1.3-0.9-2.6-1.3-4c-0.8-2.8-1.4-5.9-1.8-9.1c-0.2-1.6-0.3-3.3-0.3-5c0-1.7,0-3.4,0.1-5.1
								c0.1-3.4,0.6-6.8,1.1-10.1c-0.5,6.7-0.2,12.9,0.8,18.4c1,5.4,2.8,10.1,4.9,13.6c2.2,3.5,4.8,6.1,7.5,7.8
								c2.7,1.7,5.6,2.4,8.5,2.2c2.8-0.2,5.6-1.2,8.2-3.1c2.6-1.8,4.9-4.5,6.9-7.8c2-3.3,3.5-7.5,4.7-12.2
								C207.8,284.7,208.5,279.3,208.8,273.5z"/>
						</g>
					</g>
					<g>
						<g>
							<path class="st0" d="M191.4,450.8l-2.6-5.7c-0.9-1.9-1.6-3.9-2.4-5.8l-2.3-5.8l-1.2-2.9l-1-2.9l-2.1-5.9
								c-0.7-2-1.4-3.9-2-5.9c-1.2-4-2.4-7.9-3.6-11.9l-3.1-12l-2.6-12l-2.1-12.1c-0.6-4-1.2-8.1-1.7-12.1l53.7-9.9l2.8,9.8l3.1,9.7
								l3.5,9.5l3.8,9.3c1.3,3.1,2.8,6.1,4.2,9.1c0.7,1.5,1.5,3,2.2,4.5l2.3,4.4l1.1,2.2l1.2,2.2l2.5,4.3c0.8,1.4,1.6,2.9,2.5,4.3
								l2.7,4.2L191.4,450.8z"/>
						</g>
						<g>
							<path class="st1" d="M221.1,355.1c1.1,2.7,2,5.4,2.6,8.2c0.2,0.7,0.3,1.4,0.5,2.1c0.2,0.7,0.3,1.4,0.4,2.1
								c0.3,1.4,0.5,2.8,0.6,4.2c0.1,1.4,0.2,2.8,0.2,4.1c0,1.3,0,2.7-0.1,4c-0.2,2.6-0.6,5.2-1.3,7.5c-2.4,9.4-8.5,16.7-16.1,19.8
								c-7.8,3-17,1.7-25.5-5.4c-2-1.8-4-3.9-5.9-6.4c-0.9-1.2-1.8-2.5-2.6-3.9c-0.8-1.4-1.5-2.9-2.2-4.4c-0.7-1.5-1.3-3.1-1.9-4.7
								c-0.3-0.8-0.6-1.6-0.8-2.5c-0.2-0.8-0.5-1.7-0.7-2.5c-0.8-3.4-1.5-6.8-1.8-10.2c1.6,6.7,3.7,12.7,6.7,17.6
								c1.5,2.5,3,4.7,4.7,6.6c1.7,1.9,3.5,3.5,5.3,4.9c1.8,1.3,3.7,2.4,5.6,3.2c1.9,0.8,3.8,1.3,5.7,1.6c3.8,0.6,7.4,0.2,10.7-1.1
								c3.3-1.2,6.4-3.3,8.9-6c1.3-1.4,2.4-2.9,3.5-4.5c1.1-1.7,2-3.5,2.8-5.4c0.8-1.9,1.4-4,1.7-6.2c0.4-2.2,0.7-4.6,0.7-7
								C222.8,366,222.4,360.6,221.1,355.1z"/>
						</g>
					</g>
					<g>
						<g>
							<path class="st0" d="M247.2,534.7l-8.4-9.5c-1.4-1.6-2.7-3.2-4-4.9l-4-5l-3.9-5l-3.7-5.2l-3.7-5.2l-1.8-2.6
								c-0.6-0.9-1.2-1.8-1.7-2.7l-6.8-10.6c-2.2-3.6-4.2-7.3-6.3-10.9l-1.6-2.7l-1.5-2.8l-2.9-5.6c-0.9-1.9-1.9-3.7-2.8-5.6
								l-2.6-5.7l59.1-31.5l2.6,4.2c0.9,1.4,1.9,2.7,2.8,4l2.8,4l1.4,2l1.5,1.9l6,7.7l6.4,7.4c0.5,0.6,1,1.2,1.6,1.8l1.7,1.8
								l3.4,3.5l3.4,3.5l3.6,3.4l3.5,3.4c1.2,1.1,2.3,2.3,3.6,3.3l7.4,6.4L247.2,534.7z"/>
						</g>
						<g>
							<path class="st1" d="M255.6,427.2c1.8,2.1,3.4,4.4,4.8,6.8c1.5,2.4,2.7,4.8,3.7,7.4c0.5,1.3,0.8,2.6,1.2,3.9
								c0.4,1.3,0.7,2.6,0.9,3.9c0.4,2.6,0.5,5.3,0.4,7.9c-0.2,2.7-0.5,5.2-1.1,7.6c-0.6,2.5-1.5,4.8-2.6,7.1
								c-2.2,4.5-5.2,8.6-9,11.8c-3.8,3.1-8.3,5.4-13.3,6.5c-2.5,0.5-5.1,0.7-7.8,0.6c-2.7-0.1-5.6-0.6-8.3-1.5
								c-2.8-0.9-5.6-2.2-8.3-3.9c-1.4-0.8-2.7-1.8-4.1-2.8c-1.3-1-2.5-2.2-3.8-3.4c-2.4-2.5-4.7-5.3-6.7-8.2
								c-1.9-3-3.5-6.2-4.9-9.5c1.8,3,3.8,5.8,5.9,8.3c2.2,2.4,4.4,4.6,6.8,6.5c4.6,3.8,9.6,6.1,14.4,7.2c2.4,0.5,4.8,0.8,7,0.8
								c1.1,0,2.3-0.1,3.4-0.2c1.1-0.1,2.2-0.3,3.3-0.6c4.3-1,8.2-3,11.5-5.7c3.3-2.6,6.1-6,8.2-9.7c0.5-0.9,1-1.9,1.5-2.9
								c0.5-1,0.9-2,1.3-3.1c0.8-2.1,1.3-4.3,1.7-6.5c0.8-4.5,0.5-9.1-0.4-14c-0.5-2.4-1.2-4.8-2.2-7.2
								C258.1,432,257,429.5,255.6,427.2z"/>
						</g>
					</g>
					<g>
						<g>
							<path class="st0" d="M333.2,598.1c-4.4-1.8-8.6-4-12.9-6.1c-2.1-1-4.1-2.2-6.2-3.3c-2-1.1-4.1-2.2-6.1-3.4
								c-7.9-4.8-15.5-9.9-22.5-15.3c-3.5-2.7-7.1-5.4-10.4-8.3c-3.3-2.9-6.7-5.7-9.8-8.7c-6.4-5.9-12.4-12-18.1-18.3l55.1-57
								c5,4.1,10.1,8,15.3,11.6c2.5,1.9,5.2,3.5,7.8,5.1c2.6,1.7,5.3,3.1,7.9,4.7c5.3,3,10.6,5.5,15.9,7.7c1.3,0.6,2.7,1,4,1.5
								c1.3,0.5,2.6,1.1,4,1.5c2.7,0.8,5.3,1.8,7.9,2.4L333.2,598.1z"/>
						</g>
						<g>
							<path class="st1" d="M309.5,483.5c1.2,0.7,2.3,1.5,3.4,2.3c1.1,0.8,2.1,1.6,3.1,2.5c2,1.8,3.7,3.9,5.3,6
								c1.5,2.2,2.7,4.6,3.7,7.1c1,2.4,1.7,5.1,2.2,7.8c0.2,1.4,0.4,2.8,0.5,4.2c0.1,1.4,0.2,2.7,0.2,4.1c0,2.8-0.3,5.6-0.8,8.4
								c-1,5.6-2.9,11.2-5.7,16.2c-2.9,5-6.8,9.4-11.6,12.6c-2.4,1.6-5,3-7.9,4c-1.4,0.5-2.9,0.9-4.4,1.3c-1.5,0.3-3.1,0.5-4.7,0.7
								c-3.2,0.3-6.5,0.1-9.9-0.5c-3.4-0.6-6.7-1.8-10-3.3c-3.4-1.5-6.4-3.5-9.3-5.8c-1.4-1.1-2.8-2.3-4.2-3.6
								c-1.3-1.3-2.5-2.6-3.6-4c1.4,1.2,2.7,2.3,4.1,3.3c1.4,1,2.9,1.9,4.4,2.7c1.5,0.8,2.9,1.6,4.4,2.2c1.5,0.7,2.9,1.3,4.5,1.7
								c6.1,1.8,11.8,2.4,17.2,1.4c5.4-1,10.1-3,14.3-5.9c4.2-3,7.6-6.7,10.2-10.9c2.7-4.2,4.6-8.9,5.7-13.7
								c1.2-4.8,1.7-9.9,1.4-14.7c-0.1-1.2-0.2-2.4-0.4-3.6c-0.2-1.2-0.4-2.4-0.7-3.6c-0.6-2.4-1.4-4.6-2.4-6.8
								c-0.5-1.1-1.1-2.2-1.7-3.3c-0.6-1.1-1.3-2.1-2-3.1c-0.7-1-1.5-2-2.4-2.9C311.3,485.4,310.4,484.4,309.5,483.5z"/>
						</g>
					</g>
					<g>
						<g>
							<path class="st0" d="M451.4,609.6c-10.3,2.4-20.6,3.9-30.9,4.5c-10.3,0.6-20.5,0.3-30.5-0.8c-2.5-0.2-5-0.6-7.5-1
								c-2.5-0.4-5-0.7-7.4-1.2c-2.4-0.5-4.9-0.9-7.3-1.5l-7.2-1.8c-1.2-0.3-2.4-0.6-3.5-1l-3.5-1.1c-2.3-0.7-4.7-1.4-6.9-2.3
								l-6.8-2.5c-2.2-0.9-4.4-1.8-6.6-2.8l31.8-85.9c1.3,0.3,2.6,0.7,3.9,1l3.9,0.8c1.3,0.3,2.6,0.5,3.9,0.6l1.9,0.3
								c0.6,0.1,1.3,0.2,1.9,0.2l3.8,0.4c1.3,0.1,2.5,0.1,3.8,0.2c1.2,0.1,2.5,0.1,3.7,0c1.2,0,2.5,0,3.7-0.1
								c4.9-0.2,9.6-0.8,14.2-1.9c4.6-1,9-2.4,13-4.1L451.4,609.6z"/>
						</g>
						<g>
							<path class="st1" d="M372.4,514c0.6,0,1.1,0.1,1.7,0.1c0.6,0.1,1.1,0.1,1.7,0.2c1.1,0.2,2.2,0.4,3.2,0.8
								c1,0.4,2.1,0.7,3.1,1.2c1,0.5,2,1.1,2.9,1.7c0.9,0.6,1.9,1.3,2.8,2.1c0.5,0.4,0.9,0.9,1.3,1.3c0.4,0.4,0.9,0.9,1.3,1.3
								c0.9,0.9,1.7,1.9,2.5,3c0.8,1.1,1.6,2.2,2.3,3.4c3,4.8,5.7,10.3,7.8,16.4c2.1,6,3.5,12.5,3.9,19.1c0.3,6.6-0.6,13.2-3,19.4
								c-2.4,6-6.5,11.8-12.2,16c-1.4,1.1-3,2.1-4.6,3c-1.6,0.9-3.4,1.6-5.2,2.3c-0.9,0.3-1.8,0.6-2.8,0.9c-0.9,0.3-1.9,0.5-2.9,0.7
								c-1.9,0.4-3.9,0.7-6,0.9c-2.1,0.2-4.1,0.1-6.2,0c-2.1-0.2-4.2-0.3-6.2-0.8c-2-0.4-4.1-0.9-6-1.6c-1-0.3-2-0.6-2.9-1
								c-0.9-0.4-1.9-0.8-2.8-1.2c1,0.3,2,0.5,2.9,0.7c1,0.2,2,0.3,2.9,0.5c2,0.3,3.9,0.4,5.8,0.5c1.9,0.1,3.8,0,5.6-0.1
								c1.8-0.1,3.6-0.4,5.3-0.7c3.5-0.7,6.7-1.8,9.6-3.2c2.9-1.4,5.6-3.2,7.8-5.2c2.3-2,4.2-4.3,5.9-6.7c1.7-2.4,3-5,4.1-7.6
								c2.1-5.3,3.1-11,3.1-16.7c0.1-5.7-0.7-11.3-2.1-16.8c-0.7-2.7-1.5-5.4-2.5-7.9c-0.9-2.5-2-4.9-3.1-7.3
								c-1.1-2.4-2.4-4.4-3.8-6.4c-1.4-2-2.8-3.7-4.4-5.3c-0.8-0.8-1.6-1.6-2.4-2.2c-0.8-0.7-1.7-1.3-2.6-1.9
								c-0.9-0.6-1.8-1.1-2.8-1.6c-0.5-0.2-1-0.4-1.5-0.7C373.4,514.4,372.9,514.2,372.4,514z"/>
						</g>
					</g>
					<g>
						<path class="st0" d="M451.4,609.6c1-0.2,2.1-0.6,3-1c1-0.4,1.9-1,2.8-1.6c0.9-0.6,1.7-1.3,2.5-2c0.8-0.8,1.5-1.6,2.2-2.5
							c1.3-1.8,2.4-3.9,3.3-6.2c0.4-1.1,0.8-2.4,1.1-3.7c0.3-1.3,0.5-2.6,0.7-3.9c0.3-2.8,0.3-5.6,0.1-8.6c-0.1-1.5-0.3-3-0.6-4.6
							c-0.3-1.5-0.6-3.1-1-4.7c-0.4-1.6-0.9-3.2-1.4-4.8c-0.5-1.6-1.1-3.2-1.8-4.8c-0.7-1.6-1.4-3.2-2.2-4.8
							c-0.8-1.6-1.7-3.2-2.7-4.8c-1-1.6-1.9-3.1-2.9-4.7c-0.9-1.5-1.8-3.1-2.8-4.5c-0.9-1.4-1.8-2.8-2.8-4.3
							c-0.9-1.4-1.8-2.8-2.7-4.1c-0.9-1.3-1.7-2.6-2.6-3.9c-0.8-1.2-1.7-2.4-2.5-3.6c-1.6-2.3-3.3-4.4-4.7-6.4
							c-0.7-1-1.5-1.9-2.2-2.7c-0.7-0.8-1.3-1.6-2-2.4c-1.3-1.5-2.5-2.6-3.7-3.6c-0.6-0.5-1.1-0.8-1.6-1.2c-0.5-0.3-1-0.6-1.5-0.7
							c-0.5-0.2-0.9-0.2-1.4-0.2c-0.4,0-0.9,0.1-1.3,0.2L451.4,609.6z"/>
					</g>
				</g>
			</g>
			<g>
				<g>
					<polygon class="st0" points="215.7,255.8 158.1,260.6 158.3,211.6 206.9,208.1 					"/>
					<polygon class="st1" points="208.7,175.4 206.9,208.1 158.3,211.6 153.1,179.3 					"/>
					<polygon class="st0" points="208.7,175.4 153.1,179.3 155.1,173.6 206.6,170 					"/>
				</g>
				<circle class="st2" cx="181.8" cy="266.3" r="49.5"/>
				<g>
					<polygon class="st1" points="238.5,160.8 231.3,172.7 238.7,219.1 251.4,207.9 					"/>
					<polygon class="st3" points="222.5,252.3 261.6,210 251,158.2 238.5,160.8 247.5,206.2 213.5,239.5 					"/>
					<polygon class="st0" points="247.5,206.2 237,212.7 216.2,233 213.5,239.5 					"/>
				</g>
				<g>
					<polygon class="st3" points="140.2,253 169.2,245.4 138.8,205.1 107,218.1 					"/>
					<polygon class="st1" points="110.9,172.3 145.2,157.4 138.8,205.1 107,218.1 					"/>
					<polygon class="st0" points="169.2,245.4 172,236.3 146.9,202.8 153.1,159.7 145.2,157.4 138.8,205.1 					"/>
				</g>
			</g>
		</g>
		<g>
			<path class="st4" d="M419.4,378l18.8-101.5l31.8-1.8l0,0.1c2.1-0.2,4.2-0.2,6.3,0.1c20.4,3.4,32.4,33.5,26.7,67.2
				c-5.7,33.7-26.8,58.2-47.2,54.7c-3.1-0.5-6-1.7-8.7-3.4L419.4,378z"/>
			
				<ellipse transform="matrix(0.1662 -0.9861 0.9861 0.1662 38.2026 701.7809)" class="st4" cx="434.1" cy="328.3" rx="52.4" ry="31.8"/>
		</g>
		<g>
			<path class="st5" d="M690,1028.8c0,147-43.3,275.1-182.2,258.2C395.3,1273.2,329,1175.8,329,1028.8s80.8-266.2,180.5-266.2
				S690,881.8,690,1028.8z"/>
			<ellipse class="st6" cx="569.5" cy="1050.4" rx="121.6" ry="229.9"/>
			<ellipse class="st2" cx="569.5" cy="1050.4" rx="93.6" ry="189.2"/>
		</g>
		<g>
			<path class="st5" d="M999.9,1079.9c0,147-43.3,275.1-182.2,258.2c-112.4-13.7-178.8-111.2-178.8-258.2S718,836,817.7,836
				S999.9,932.9,999.9,1079.9z"/>
			<ellipse class="st6" cx="879.4" cy="1101.5" rx="121.6" ry="229.9"/>
			<ellipse class="st2" cx="879.4" cy="1101.5" rx="93.6" ry="189.2"/>
		</g>
		<path class="st7" d="M655,1142.5c0,0-4-158-9.9-220c-5.6-59.2-68.2-265.1-196-297.6c-15.9-4-43.7-5.6-60.6,7.1l-61.6,106.2
			c0,0-11.8,13.1-21.3,46.9c-21.8,62.4-27.3,169.4,4.4,274.5l70.5,53.6c12.7,4.2,23.8-5.2,28-10.2l111.1,49.4L655,1142.5z"/>
		<g>
			<defs>
				<path id="SVGID_59_" d="M957.3,1118.1c0,0-56.3,52.7-299.5,52.7c-239.7-0.1-284.1-52.7-284.1-52.7s-23.5-73.7-32-117.9
					c-10.3-53.4-12.2-121.4-12.2-121.4L369.3,750c0,0,11-170.6,20.4-227.9C416,362.1,464.6,231,464.6,231h401.9
					c0,0,51.5,132.6,74.1,291.2c8.3,58.2,21.5,230.7,21.5,230.7l39.7,126c0,0-1.3,70.7-11.8,121.4
					C980.9,1044.4,957.3,1118.1,957.3,1118.1z"/>
			</defs>
			<clipPath id="SVGID_1_">
				<use xlink:href="#SVGID_59_"  style="overflow:visible;"/>
			</clipPath>
			<polygon class="st8" points="1061.7,1193.4 262.8,1193.4 416.8,194.3 907.6,194.3 			"/>
			<path class="st9" d="M941.1,469.7c0,0-71,41.5-276.7,41.4c-204,0-274.3-41.4-274.3-41.4l49.9-263.2h451.2L941.1,469.7z"/>
			<path class="st10" d="M508.1,418.6c0,0,13.9,24.4,36.1,28.3c28.2,4.9,50.6-17,50.6-17"/>
			<rect x="324.1" y="833.2" class="st11" width="692.5" height="348.3"/>
			<path class="st8" d="M371.1,750c0,0,81.6,59.2,290,59.2C878.7,809.2,964,750,964,750l39.7,128.8c0,0-90.8,70-336.9,70
				c-236.9,0-335.4-70-335.4-70L371.1,750z"/>
			<path class="st12" d="M355.1,730.2c0,0,20.2,30.8,103,53.6c97.3,26.8,340.4,26.6,472.5-4.2"/>
			<path class="st12" d="M638.8,704.9c0,0-55.5,11.9-130.7-3.5c-56.2-11.5-74.3-26.1-74.3-26.1V560.5c0,0,23.2,15.7,76.4,24.4
				c71.2,11.7,128.6,5.2,128.6,5.2V704.9z"/>
			<path class="st13" d="M941.1,468.4c0,0-71,41.5-276.7,41.4c-204,0-274.3-41.4-274.3-41.4"/>
			<ellipse class="st14" cx="669.2" cy="237.1" rx="225.7" ry="43.2"/>
			<g class="st15">
				
					<ellipse transform="matrix(1.895976e-02 -0.9998 0.9998 1.895976e-02 276.4194 975.4478)" class="st16" cx="635.3" cy="346.9" rx="43.2" ry="22.6"/>
				<line class="st17" x1="672" y1="308.6" x2="640.9" y2="330.2"/>
			</g>
			<g class="st15">
				
					<ellipse transform="matrix(0.1348 -0.9909 0.9909 0.1348 100.3771 778.4207)" class="st16" cx="496" cy="331.7" rx="43.2" ry="19.6"/>
				<line class="st17" x1="474.8" y1="289.6" x2="501.6" y2="316.3"/>
			</g>
			<g class="st15">
				<ellipse class="st2" cx="434.3" cy="716.1" rx="6.8" ry="11.3"/>
				<ellipse class="st2" cx="483.9" cy="734.9" rx="8" ry="11.3"/>
				<ellipse class="st2" cx="553.9" cy="746.2" rx="10.5" ry="11.3"/>
				<ellipse class="st2" cx="624.2" cy="747.4" rx="11" ry="11.3"/>
			</g>
			
				<ellipse transform="matrix(0.3912 -0.9203 0.9203 0.3912 -43.2427 650.2741)" class="st9" cx="469.9" cy="357.8" rx="20.1" ry="40.3"/>
			
				<ellipse transform="matrix(0.9203 -0.3912 0.3912 0.9203 -95.9245 284.2161)" class="st9" cx="649.7" cy="377.6" rx="40.3" ry="20.1"/>
		</g>
		<path class="st7" d="M865.4,212.7c-38.1-9.9-113.2-16.7-199.8-16.7s-161.7,6.8-199.8,16.7h-26.6v14.8h0
			c0,17.4,101.3,31.5,226.4,31.5S892,244.8,892,227.5v-14.8H865.4z"/>
		<g>
			<defs>
				<path id="SVGID_58_" d="M892,212.7c0,17.4-101.3,31.5-226.4,31.5S439.3,230,439.3,212.7s78.1-86,226.4-86S892,195.3,892,212.7z"
					/>
			</defs>
			<clipPath id="SVGID_2_">
				<use xlink:href="#SVGID_58_"  style="overflow:visible;"/>
			</clipPath>
			<rect x="432.9" y="107.6" class="st18" width="467.3" height="138.9"/>
			<path class="st19" d="M527.9,129.4c0,0-33.8,40.9-50.1,55.7c-13.7,12.6-23,6.8-19.7-7.1c4.5-19.2,10.3-19,28.9-24.7
				c18.9-5.8,39.7-10.1,59.2-5.4c2,0.5,4,1.1,5.8,2.1c20.5,12.3-6.9,31.1-17.5,38.4c-11.3,7.8-24.2,13.4-37.6,16.1
				c-1.7,0.3-3.5,0.6-4.9-0.3c-3.3-2.2-0.4-7.4,2.7-9.9c18.9-15.6,42.9-25,67.4-26.5c8.4-0.5,21.2,1.4,22.8,11.6
				c0.5,3.1-0.1,6.3-0.7,9.4c-0.9,4.9-1.8,9.8-2.7,14.6c-1.1,6-2.2,12.2-5.3,17.5c-3.5,6.1-13.8,13.9-21.1,9.6
				c-10.4-6,2.1-20.4,10.6-28.9c6.3-6.3,14.7-11,22.5-15.1c8.8-4.6,20.6-11,30.7-7.8c5.1,1.7,9.1,5.8,12.4,10
				c7,9.2,12,19.9,14.4,31.2c1.3,6.2,2.1,18-7.6,15.8c-8.4-1.9-10.9-15.5-4.9-27.9c2.6-5.4,8-13.4,12.7-17.3
				c9.9-8.1,19.6-11.4,31.6-11.5c25.3-0.4,50.3,13.9,62.8,35.8c1.1,1.9,2,4.6,0.4,6.1c-0.9,0.8-2.1,0.9-3.3,0.8
				c-14.5-0.5-23.4-17.4-22.5-31.8c0.2-3.7,1-7.6,3.4-10.5c2.8-3.3,7.1-4.6,11.3-5.5c28.2-6.3,58.8-0.9,83.1,14.7
				c5.8,3.7,11.9,10.5,8.8,16.6c-1.9,3.8-6.8,5.2-11,4.5c-4.2-0.7-7.8-3.2-11.3-5.6c-8.7-6-17.4-12-26.2-18c-5.8-4-12.2-8.9-12.7-16
				c-0.5-6.8,5.1-12.9,11.6-15.2s13.6-1.4,20.4-0.4c18.5,2.9,39.4,2.4,54.5,13.5c3.4,2.5,18.1,24.5,2.1,16.8
				c-17.6-8.5-66.3-54.3-66.3-54.3"/>
		</g>
		<ellipse class="st0" cx="894.8" cy="574.6" rx="40.4" ry="60.2"/>
		<g>
			<path class="st7" d="M957.3,658.3l61.6,106.2c0,0,66.8,74.3,10.3,323.9l-203.1,90.3l-135.4-9.9c0,0,4-158,9.9-220
				c5.6-59.2,68.2-265.1,196-297.6C912.5,647.2,940.4,645.6,957.3,658.3z"/>
			<path class="st20" d="M996.3,759C936.7,746.5,853,870.6,828,1022.9c-9.5,57.7-9.9,112.1-1.9,155.3l208.8-70
				C1068.7,946,1055.5,771.4,996.3,759z"/>
		</g>
		<g>
			<path class="st4" d="M905.3,404.3l-18.8-101.5l-31.8-1.8l0,0.1c-2.1-0.2-4.2-0.2-6.3,0.1c-20.4,3.4-32.4,33.5-26.7,67.2
				c5.7,33.7,26.8,58.2,47.2,54.7c3.1-0.5,6-1.7,8.7-3.4L905.3,404.3z"/>
			
				<ellipse transform="matrix(0.9861 -0.1662 0.1662 0.9861 -46.5604 153.0033)" class="st0" cx="890.7" cy="354.6" rx="31.8" ry="52.4"/>
		</g>
		<g>
			<g>
				<g>
					<g>
						<path class="st0" d="M1170.9,871.2c-0.3,1.6-0.8,3.2-1.4,4.7c-0.6,1.5-1.4,2.9-2.3,4.2c-0.9,1.3-2,2.5-3.1,3.6
							c-1.2,1.1-2.4,2.1-3.8,2.9c-2.7,1.7-5.7,2.9-8.9,3.4c-1.6,0.3-3.2,0.4-4.8,0.3c-1.6,0-3.3-0.3-4.9-0.7c-1.6-0.4-3.2-1-4.7-1.6
							c-1.5-0.6-2.9-1.4-4.3-2.2c-2.7-1.6-5.1-3.6-7-5.8c-2-2.2-3.5-4.6-4.6-7.2c-0.5-1.3-0.9-2.6-1.2-3.9c-0.2-1.3-0.3-2.7-0.3-4.1
							L1170.9,871.2z"/>
					</g>
					<g>
						<g>
							<path class="st0" d="M1174,773.7c0.4,4.1,0.8,8.2,1.1,12.3l0.4,6.1c0.1,2,0.3,4.1,0.3,6.1c0.1,4.1,0.3,8.2,0.2,12.2l0,6.1
								l-0.2,6.1c-0.1,4.1-0.4,8.1-0.6,12.2c-0.1,2-0.3,4.1-0.5,6.1c-0.2,2-0.3,4-0.6,6.1c-0.8,8.1-1.9,16.1-3.3,24.2l-51.3-6.2
								c0.4-6.8,0.5-13.6,0.4-20.5c0-1.7-0.1-3.4-0.1-5.1c-0.1-1.7-0.1-3.4-0.2-5.1c-0.2-3.4-0.4-6.8-0.7-10.2l-0.5-5.1l-0.6-5.1
								c-0.4-3.4-0.9-6.7-1.4-10.1c-0.2-1.7-0.5-3.3-0.8-5l-0.9-5c-0.6-3.3-1.4-6.6-2.1-9.9L1174,773.7z"/>
						</g>
						<g>
							<path class="st1" d="M1120.1,855.2c-0.2-2.9-0.1-5.8,0-8.7c0.1-1.5,0.2-2.9,0.4-4.3c0.2-1.4,0.4-2.8,0.7-4.2
								c0.6-2.8,1.3-5.4,2.3-7.9c0.5-1.2,1-2.4,1.5-3.6c0.5-1.1,1.1-2.2,1.8-3.3c1.2-2.1,2.7-4,4.2-5.6c1.5-1.6,3.1-3.1,4.8-4.2
								c3.4-2.4,7.2-3.8,11.1-4.1c3.9-0.2,7.8,0.7,11.4,2.8c1.8,1.1,3.6,2.4,5.3,4.1c1.7,1.7,3.2,3.7,4.5,6c0.7,1.1,1.3,2.4,1.9,3.7
								c0.6,1.3,1.1,2.7,1.6,4.1c0.9,2.9,1.7,6,2.1,9.3c0.2,1.6,0.3,3.3,0.4,5c0,1.7,0,3.4,0,5.1c-0.1,3.4-0.6,6.9-1.3,10.2
								c0.5-6.8,0.1-13.1-1.1-18.7c-1.2-5.5-3.3-10.2-5.8-13.8c-2.6-3.6-5.6-6.2-8.7-7.9c-3.2-1.7-6.5-2.4-9.8-2.3
								c-3.3,0.1-6.6,1.1-9.7,2.9c-3.1,1.8-5.9,4.4-8.4,7.6c-2.5,3.2-4.5,7.3-6.1,12C1121.6,844.3,1120.5,849.5,1120.1,855.2z"/>
						</g>
					</g>
					<g>
						<g>
							<path class="st0" d="M1148.2,677.4l2.6,5.8c0.9,1.9,1.6,3.9,2.4,5.9l2.3,5.9l1.1,2.9l1,3l2,6c0.7,2,1.4,4,1.9,6
								c1.2,4,2.4,8,3.5,12.1l3,12.1l2.5,12.2l2,12.2c0.5,4.1,1.1,8.2,1.6,12.3l-61.4,10.1l-2.5-9.8l-2.8-9.6l-3.2-9.5l-3.5-9.3
								c-1.2-3.1-2.6-6.1-3.9-9.1c-0.6-1.5-1.4-3-2.1-4.5l-2.1-4.4l-1.1-2.2l-1.2-2.2l-2.3-4.3c-0.8-1.4-1.5-2.9-2.3-4.3l-2.5-4.2
								L1148.2,677.4z"/>
						</g>
						<g>
							<path class="st1" d="M1110.3,774.5c-1-2.6-1.8-5.4-2.4-8.2c-0.1-0.7-0.3-1.4-0.4-2.1c-0.1-0.7-0.2-1.4-0.3-2.1
								c-0.2-1.4-0.3-2.8-0.4-4.2c0-1.4,0-2.8,0.1-4.1c0.1-1.4,0.2-2.7,0.4-4c0.4-2.6,1.1-5.2,2-7.6c3.3-9.5,10.4-17,18.8-20.3
								c8.6-3.2,18.6-2,27.8,5.1c2.2,1.8,4.3,3.9,6.2,6.4c1,1.2,1.9,2.6,2.8,4c0.8,1.4,1.6,2.9,2.3,4.4c0.7,1.5,1.4,3.1,2,4.8
								c0.3,0.8,0.6,1.6,0.9,2.5c0.2,0.8,0.5,1.7,0.7,2.5c0.8,3.4,1.4,6.9,1.7,10.4c-1.6-6.7-3.8-12.8-7-17.8
								c-1.5-2.5-3.1-4.7-5-6.7c-1.8-1.9-3.8-3.6-5.7-4.9c-2-1.3-4-2.4-6-3.2c-2-0.8-4.1-1.3-6.2-1.6c-4.1-0.5-8.1-0.1-11.8,1.2
								c-3.7,1.3-7.1,3.4-10.1,6.2c-1.5,1.4-2.8,2.9-4.1,4.6c-1.3,1.7-2.4,3.5-3.4,5.5c-1,2-1.8,4.1-2.4,6.3c-0.6,2.2-1.1,4.6-1.3,7
								C1109.1,763.7,1109.2,769,1110.3,774.5z"/>
						</g>
					</g>
					<g>
						<g>
							<path class="st0" d="M1092.9,592.2l8.3,9.7c1.4,1.6,2.7,3.3,4,5l3.9,5l3.9,5l3.7,5.2l3.7,5.2l1.8,2.6
								c0.6,0.9,1.1,1.8,1.7,2.7l6.8,10.8c2.1,3.7,4.2,7.4,6.3,11.1l1.5,2.8l1.4,2.8l2.8,5.7c0.9,1.9,1.9,3.8,2.8,5.7l2.6,5.8
								l-64.9,32.9l-2.5-4.2c-0.9-1.4-1.8-2.7-2.7-4.1l-2.7-4.1l-1.3-2l-1.4-2l-5.7-7.8l-6.1-7.5c-0.5-0.6-1-1.3-1.5-1.9l-1.6-1.8
								l-3.2-3.6l-3.2-3.6l-3.4-3.4l-3.4-3.4c-1.1-1.1-2.2-2.3-3.5-3.4l-7.2-6.5L1092.9,592.2z"/>
						</g>
						<g>
							<path class="st1" d="M1078.4,702.4c-1.8-2.1-3.3-4.4-4.6-6.9c-1.4-2.4-2.5-4.9-3.3-7.6c-0.4-1.3-0.7-2.7-1-4
								c-0.3-1.3-0.5-2.7-0.6-4c-0.3-2.7-0.2-5.4,0.1-8.1c0.4-2.7,0.8-5.3,1.6-7.8c0.8-2.5,1.8-5,3.1-7.3c2.5-4.7,5.9-8.9,9.9-12.2
								c4.1-3.3,8.9-5.6,14.2-6.8c2.6-0.6,5.4-0.8,8.2-0.7c2.8,0.1,5.8,0.5,8.7,1.4c2.9,0.9,5.8,2.2,8.6,3.9
								c1.4,0.8,2.8,1.8,4.2,2.8c1.4,1,2.6,2.2,3.8,3.4c2.5,2.5,4.7,5.3,6.7,8.3c1.9,3,3.5,6.3,4.8,9.6c-1.8-3-3.8-5.8-5.9-8.4
								c-2.2-2.5-4.5-4.6-6.9-6.5c-4.7-3.8-9.9-6.1-14.9-7.1c-2.5-0.5-5-0.7-7.4-0.7c-1.2,0-2.4,0.1-3.5,0.2
								c-1.2,0.2-2.3,0.4-3.5,0.7c-4.6,1.1-8.7,3.2-12.3,5.9c-3.6,2.7-6.7,6.2-9.1,10.1c-0.6,1-1.2,2-1.7,3c-0.5,1-1,2.1-1.5,3.2
								c-0.9,2.2-1.6,4.4-2.2,6.7c-1.1,4.6-1.1,9.3-0.5,14.3c0.3,2.4,0.9,4.9,1.8,7.3C1076.2,697.5,1077.2,700,1078.4,702.4z"/>
						</g>
					</g>
					<g>
						<g>
							<path class="st0" d="M1007.2,527.5c4.5,1.9,8.6,4.1,12.9,6.2c2.1,1.1,4.1,2.3,6.2,3.4c2,1.2,4.1,2.3,6,3.5
								c7.9,4.9,15.4,10.1,22.5,15.6c3.5,2.8,7.1,5.5,10.3,8.5c3.3,2.9,6.7,5.8,9.8,8.8c6.4,6,12.3,12.2,18,18.6l-59.1,58.7
								c-4.8-4.2-9.8-8.3-14.8-11.9c-2.5-2-5-3.6-7.6-5.3c-2.5-1.8-5.1-3.3-7.6-4.9c-5.1-3.1-10.3-5.7-15.5-8.2
								c-1.3-0.6-2.6-1.1-3.9-1.6c-1.3-0.5-2.6-1.1-3.9-1.6c-2.6-0.9-5.1-1.9-7.7-2.6L1007.2,527.5z"/>
						</g>
						<g>
							<path class="st1" d="M1026.8,645.1c-1.1-0.7-2.2-1.5-3.3-2.3c-1.1-0.8-2.1-1.7-3-2.6c-1.9-1.8-3.5-4-5-6.2
								c-1.4-2.2-2.5-4.7-3.4-7.3c-0.9-2.5-1.5-5.2-1.8-8c-0.2-1.4-0.3-2.9-0.3-4.3c-0.1-1.4-0.1-2.8,0-4.2c0.1-2.9,0.5-5.8,1.1-8.6
								c1.2-5.8,3.3-11.5,6.3-16.6c3.1-5.1,7.2-9.5,12.2-12.9c2.5-1.7,5.2-3.1,8.1-4.1c1.5-0.5,3-1,4.6-1.3c1.6-0.3,3.1-0.5,4.8-0.7
								c3.2-0.3,6.6-0.1,10.1,0.5c3.4,0.6,6.8,1.8,10.1,3.3c3.4,1.5,6.4,3.6,9.4,5.9c1.4,1.2,2.8,2.4,4.2,3.7
								c1.3,1.3,2.5,2.7,3.6,4.1c-1.4-1.2-2.7-2.3-4.2-3.3c-1.5-1-2.9-1.9-4.4-2.8c-1.5-0.8-3-1.6-4.4-2.3c-1.5-0.7-3-1.3-4.5-1.7
								c-6.1-1.9-12-2.5-17.6-1.4c-5.5,1-10.4,3.1-14.7,6c-4.3,3-7.9,6.8-10.7,11.1c-2.8,4.3-4.9,9.1-6.3,14c-1.4,5-2.1,10.1-2,15.1
								c0,1.2,0.1,2.5,0.2,3.7c0.1,1.2,0.3,2.5,0.5,3.7c0.5,2.4,1.2,4.8,2.1,7c0.5,1.1,1,2.2,1.6,3.4c0.6,1.1,1.2,2.2,1.9,3.2
								c0.7,1,1.4,2.1,2.3,3C1025.1,643.1,1025.9,644.1,1026.8,645.1z"/>
						</g>
					</g>
					<g>
						<g>
							<path class="st0" d="M888.6,514.6c10.4-2.3,20.7-3.7,31-4.1c10.3-0.5,20.6-0.1,30.6,1.2c2.5,0.2,5,0.7,7.5,1.1
								c2.5,0.4,5,0.8,7.4,1.3c2.4,0.5,4.9,1,7.3,1.6l7.2,1.9c1.2,0.3,2.4,0.7,3.6,1l3.5,1.1c2.3,0.8,4.7,1.5,6.9,2.4l6.8,2.6
								c2.2,0.9,4.4,1.9,6.6,2.9l-34.3,87.4c-1.3-0.4-2.6-0.8-3.8-1.1l-3.8-0.9c-1.3-0.3-2.5-0.5-3.8-0.8l-1.9-0.4
								c-0.6-0.1-1.3-0.2-1.9-0.3l-3.8-0.5c-1.2-0.1-2.5-0.2-3.7-0.3c-1.2-0.1-2.5-0.1-3.7-0.2c-1.2,0-2.4-0.1-3.6,0
								c-4.8,0.1-9.6,0.5-14.2,1.4c-4.6,0.8-9,2.1-13.1,3.6L888.6,514.6z"/>
						</g>
						<g>
							<path class="st1" d="M965.6,612.9c-0.6,0-1.1-0.1-1.7-0.2c-0.5-0.1-1.1-0.1-1.6-0.2c-1.1-0.2-2.1-0.5-3.1-0.9
								c-1-0.4-2-0.8-3-1.3c-1-0.5-1.9-1.2-2.9-1.8c-0.9-0.7-1.8-1.4-2.7-2.3c-0.4-0.4-0.9-0.9-1.3-1.3c-0.4-0.4-0.8-0.9-1.3-1.4
								c-0.8-1-1.6-2-2.4-3.2c-0.8-1.1-1.5-2.3-2.3-3.5c-2.9-5-5.5-10.6-7.4-16.8c-1.9-6.1-3.2-12.7-3.5-19.4
								c-0.1-6.6,0.9-13.3,3.4-19.5c2.5-6.1,6.7-11.8,12.6-16c1.4-1.1,3-2.1,4.7-3c1.7-0.9,3.4-1.6,5.2-2.3c0.9-0.3,1.9-0.6,2.8-0.9
								c1-0.3,1.9-0.5,2.9-0.7c2-0.4,4-0.7,6-0.8c2.1-0.2,4.1-0.1,6.2,0.1c2.1,0.2,4.2,0.4,6.2,0.8c2,0.4,4.1,1,6.1,1.6
								c1,0.3,2,0.7,2.9,1.1c0.9,0.4,1.9,0.8,2.8,1.3c-1-0.3-2-0.5-2.9-0.7c-1-0.2-2-0.4-3-0.5c-2-0.3-3.9-0.5-5.8-0.6
								c-1.9-0.1-3.8-0.1-5.6,0.1c-1.8,0.1-3.6,0.4-5.4,0.7c-3.5,0.7-6.8,1.8-9.7,3.1c-3,1.4-5.7,3.2-8,5.2c-2.3,2-4.3,4.3-6,6.7
								c-1.7,2.4-3.1,5-4.2,7.6c-2.2,5.3-3.3,11.1-3.4,16.8c-0.2,5.7,0.5,11.5,1.8,17c0.6,2.8,1.4,5.5,2.3,8.1c0.9,2.6,1.9,5,3,7.5
								c1.1,2.4,2.3,4.6,3.6,6.6c1.3,2.1,2.7,3.9,4.2,5.5c0.8,0.9,1.5,1.6,2.4,2.4c0.8,0.7,1.7,1.3,2.5,2c0.9,0.6,1.8,1.2,2.7,1.7
								c0.5,0.3,1,0.5,1.4,0.7C964.6,612.5,965.1,612.7,965.6,612.9z"/>
						</g>
					</g>
					<g>
						<path class="st0" d="M888.6,514.6c-1,0.2-2.1,0.6-3,1c-1,0.4-1.9,0.9-2.8,1.5c-0.9,0.6-1.7,1.2-2.5,2
							c-0.8,0.8-1.5,1.6-2.2,2.5c-1.3,1.8-2.5,3.9-3.4,6.2c-0.4,1.1-0.8,2.4-1.1,3.6c-0.3,1.3-0.6,2.6-0.7,3.9
							c-0.4,2.8-0.4,5.6-0.3,8.6c0.1,1.5,0.2,3,0.5,4.6c0.2,1.5,0.5,3.1,0.9,4.7c0.4,1.6,0.8,3.2,1.3,4.8c0.5,1.6,1.1,3.2,1.7,4.9
							c0.7,1.6,1.4,3.3,2.1,4.9c0.8,1.6,1.7,3.2,2.6,4.8c0.9,1.6,1.8,3.1,2.8,4.7c0.9,1.5,1.8,3.1,2.7,4.6c0.9,1.4,1.8,2.9,2.7,4.4
							c0.9,1.4,1.8,2.8,2.6,4.2c0.9,1.3,1.7,2.7,2.5,3.9c0.8,1.2,1.6,2.4,2.5,3.7c1.6,2.4,3.2,4.5,4.6,6.5c0.7,1,1.5,1.9,2.1,2.8
							c0.7,0.9,1.3,1.7,2,2.4c1.3,1.5,2.5,2.7,3.6,3.7c0.6,0.5,1.1,0.9,1.6,1.2c0.5,0.3,1,0.6,1.5,0.8c0.5,0.2,0.9,0.3,1.4,0.3
							c0.4,0,0.9,0,1.3-0.2L888.6,514.6z"/>
					</g>
				</g>
			</g>
			<g>
				<g>
					<polygon class="st0" points="1101.9,869.2 1123,884.7 1094.4,905 1066.4,897 					"/>
					<polygon class="st3" points="1099.8,860.6 1101.9,869.2 1066.4,897 1062.3,935 1053.5,932.5 1059.3,891.3 					"/>
					<polygon class="st1" points="1062.3,935 1089.8,930.2 1094.4,905 1066.4,897 					"/>
				</g>
				<circle class="st2" cx="1147" cy="858.9" r="49.5"/>
				<g>
					<polygon class="st3" points="1160.3,886.7 1118.1,872.3 1096.2,917.5 1153.1,934.1 					"/>
					<polygon class="st1" points="1135.3,971.3 1153.1,934.1 1096.2,917.5 1090.7,956.8 					"/>
				</g>
				<g>
					<polygon class="st1" points="1179.8,974.1 1175.3,960.9 1192.5,917.1 1202.4,930.8 					"/>
					<polygon class="st3" points="1183.7,881.2 1212.9,931 1191.4,979.3 1179.8,974.1 1198.2,931.7 1172.2,891.8 					"/>
					<polygon class="st0" points="1198.2,931.7 1189.4,923.1 1173.4,898.7 1172.2,891.8 					"/>
				</g>
			</g>
		</g>
		<g>
			<g>
				<ellipse class="st0" cx="667.2" cy="132.7" rx="88.8" ry="19.3"/>
				<path class="st0" d="M578.3,132.7v22.6c0,10.6,39.8,19.3,88.8,19.3s88.8-8.6,88.8-19.3v-22.6H578.3z"/>
			</g>
			<path class="st21" d="M741.2,134.4c-11.3,23.3-134,17.6-148.1,0c0-40.9,34.8-77.6,74-77.6S741.2,93.5,741.2,134.4z"/>
			<path class="st22" d="M675.3,78.7c0,0,28.2,1.4,33.8,25.4"/>
		</g>
	</g>
</g>
<g id="Rivet">
</g>
<g id="Spring">
</g>
<g id="Eileen">
</g>
<g id="Levi">
</g>
<g id="Oscar">
</g>
<g id="Rex">
</g>
</svg>
