<?xml version="1.0" encoding="utf-8"?>
<!-- Generator: Adobe Illustrator 24.2.1, SVG Export Plug-In . SVG Version: 6.00 Build 0)  -->
<svg version="1.1" xmlns="http://www.w3.org/2000/svg" xmlns:xlink="http://www.w3.org/1999/xlink" x="0px" y="0px"
	 viewBox="0 0 1336.9 1389.3" style="enable-background:new 0 0 1336.9 1389.3;" xml:space="preserve">
<style type="text/css">
	.st0{fill:#72080C;}
	.st1{fill:#8E040E;}
	.st2{clip-path:url(#SVGID_1_);fill:#8E040E;}
	.st3{clip-path:url(#SVGID_1_);fill:#DDDDDD;}
	.st4{fill:#A8141C;}
	.st5{fill:#B8C1CA;}
	.st6{fill:#DDDDDD;}
	.st7{fill:none;stroke:#DDDDDD;stroke-width:6.2927;stroke-miterlimit:10;}
	.st8{clip-path:url(#SVGID_2_);fill:#324F6B;}
	.st9{clip-path:url(#SVGID_2_);}
	.st10{fill:none;stroke:#8A96AB;stroke-width:4.1606;stroke-miterlimit:10;}
	.st11{fill:#8A96AB;}
	.st12{fill:#FFDE17;}
	.st13{clip-path:url(#SVGID_8_);fill:#A8141C;}
	.st14{clip-path:url(#SVGID_8_);fill:#72080C;}
	.st15{fill:#2D1113;}
	.st16{clip-path:url(#SVGID_9_);fill:#8E040E;}
	.st17{clip-path:url(#SVGID_9_);fill:#A8141C;}
	.st18{clip-path:url(#SVGID_9_);fill:#72080C;}
	.st19{clip-path:url(#SVGID_9_);fill:#A7A9AC;}
	.st20{clip-path:url(#SVGID_9_);fill:#808285;}
	.st21{clip-path:url(#SVGID_9_);fill:#2D1113;}
	.st22{clip-path:url(#SVGID_9_);fill:#B7D3DD;}
	.st23{clip-path:url(#SVGID_9_);fill:#7ABDCC;}
	.st24{clip-path:url(#SVGID_9_);}
	.st25{fill:#BC57BC;}
	.st26{fill:#6363EA;}
	.st27{fill:#37A583;}
	.st28{fill:#DDD433;}
	.st29{opacity:0.31;clip-path:url(#SVGID_9_);fill:#90CDDD;}
	.st30{fill:#90CDDD;}
	.st31{clip-path:url(#SVGID_10_);fill:#324F6B;}
	.st32{clip-path:url(#SVGID_10_);}
	.st33{clip-path:url(#SVGID_11_);fill:#8E040E;}
	.st34{clip-path:url(#SVGID_11_);fill:#DDDDDD;}
	.st35{fill:#A7A9AC;}
	.st36{fill:#808285;}
	.st37{fill:none;stroke:#C5E6F9;stroke-width:13.6829;stroke-linecap:round;stroke-miterlimit:10;}
</style>
<g id="Sergeant">
</g>
<g id="Elton">
</g>
<g id="Fred">
</g>
<g id="Bubbles">
	<g>
		<g>
			<g>
				<g>
					<path class="st0" d="M351.8,294.4c19.2,10.1,31.4,43.2,27,73.6c-4.4,30.5-23.6,47.1-42.8,37l2.7-19.2
						c12.6,6.6,25.1-4.2,27.9-24.1c2.8-19.9-5.1-41.5-17.6-48.1L351.8,294.4z"/>
				</g>
				<g>
					
						<ellipse transform="matrix(0.9952 -9.757663e-02 9.757663e-02 0.9952 -37.2981 34.2829)" class="st0" cx="331.9" cy="398.5" rx="16" ry="26.2"/>
				</g>
			</g>
			<polygon class="st1" points="349,313.6 402.8,306.3 405.6,287.1 351.8,294.4 			"/>
			<path class="st0" d="M349,313.6l17,4.6l8.2,40.3l-8.8,24.9l41.4,1.2l19.7-23.3c0,0-2-13.8-4.1-36.2
				c-1.5-16.7-19.7-18.6-19.7-18.6L349,313.6z"/>
			<g>
				<defs>
					<path id="SVGID_13_" d="M361.4,313.8l-3.4,32.9l12,37.6l-41.9,5.6l-1.5,10.2c-3.8-2-7.4-5-10.6-8.6l0,0l0,0
						c-12.8-14.6-19.9-40.6-16.4-65c3.4-23.5,15.6-38.7,29.9-39.8l0-0.1l52.6-7.1l-4.6,6.8L361.4,313.8z"/>
				</defs>
				<clipPath id="SVGID_1_">
					<use xlink:href="#SVGID_13_"  style="overflow:visible;"/>
				</clipPath>
				<polygon class="st2" points="308.6,399 284.7,352.9 289,309.6 312,283 393.2,271.7 391.7,290.7 364,322.4 366.6,361.7 
					382,391.2 				"/>
				<path class="st3" d="M293.7,302.4c0.9-0.2,83.2-12.6,83.2-12.6l18.6-14.7c0,0-79.8,7.6-80.7,7.7S293.7,302.4,293.7,302.4z"/>
			</g>
			<polygon class="st0" points="334.6,424.5 389.1,417.1 370,384.3 316,391.5 			"/>
			<g>
				<g>
					<path class="st4" d="M396.2,282.2c-19.3-10.1-38.5,6.5-42.8,37c-4.4,30.5,7.8,63.5,27,73.6l2.7-19.2
						c-12.6-6.6-20.5-28.2-17.6-48.1c2.8-19.9,15.4-30.7,27.9-24.1L396.2,282.2z"/>
				</g>
				<g>
					<path class="st4" d="M405.6,287.1c19.2,10.1,31.4,43.2,27,73.6c-4.4,30.5-23.6,47.1-42.8,37l2.7-19.2
						c12.6,6.6,25.1-4.2,27.9-24.1s-5.1-41.5-17.6-48.1L405.6,287.1z"/>
				</g>
				<g>
					
						<ellipse transform="matrix(0.9952 -9.757663e-02 9.757663e-02 0.9952 -36.3296 39.4996)" class="st1" cx="385.7" cy="391.2" rx="16" ry="26.2"/>
				</g>
			</g>
		</g>
		<g>
			<g>
				<g>
					<g>
						<path class="st5" d="M530.9,548.1c3.4-0.8,7.5,2.4,11.7,8.3c4.2,5.9,8.6,14.4,12.2,24.2c3.6,9.8,4.7,19.5,3.6,27.1
							c-1.1,7.5-4.5,12.9-9.4,14.1L530.9,548.1z"/>
					</g>
					<g>
						<g>
							<path class="st5" d="M479.8,552.8c8.1,0.6,16.6,0.5,25.2-0.4c8.6-0.8,17.4-2.3,25.9-4.4l18.2,73.7c-12.1,3-24.3,5.1-36.8,6.3
								c-12.5,1.2-25.3,1.5-38.4,0.5L479.8,552.8z"/>
						</g>
						<g>
							<path class="st6" d="M540.5,623.7c-4.9,1.7-10.5,2-15.7,1c-5.2-1.1-10.1-3.5-13.9-7c-7.8-6.8-11.6-16.8-12.1-26.7
								c-0.4-10,2.3-20.1,6.9-28.1c2.3-4,5.2-7.3,8.5-9.7c3.3-2.3,6.9-3.6,10.7-3.7c-7,2.7-12.5,8.4-16,16
								c-3.5,7.5-5.3,16.5-4.6,25.2c0.6,8.7,3.9,17.3,10.1,23.8C520.4,621,530,624.7,540.5,623.7z"/>
						</g>
					</g>
					<g>
						<g>
							<path class="st5" d="M438.1,539.7c5.6,3.8,12,6.8,19,8.9c3.5,1.1,7.2,2,11,2.7c3.8,0.7,7.7,1.2,11.8,1.5l-5.8,75.7
								c-6.5-0.5-13.1-1.4-19.8-2.6c-6.6-1.2-13.3-2.8-19.9-4.9c-13.2-4.1-26.3-10.2-38.3-18.2L438.1,539.7z"/>
						</g>
						<g>
							<path class="st6" d="M464.6,627.5c-5.6-0.1-11.4-1.7-16.3-4.7c-1.2-0.8-2.4-1.5-3.5-2.4c-1.1-0.9-2.1-1.9-3.1-2.9
								c-1.9-2-3.5-4.3-4.8-6.6c-1.3-2.3-2.2-4.8-2.8-7.3c-0.6-2.5-0.9-5-0.9-7.5c0-5.1,1.1-10,3-14.6c1.9-4.6,4.6-8.9,7.5-12.8
								c1.5-1.9,3.1-3.8,4.7-5.5c1.6-1.7,3.3-3.2,5.1-4.7c1.7-1.4,3.4-2.6,5.2-3.7c0.9-0.5,1.8-1,2.6-1.4c0.9-0.4,1.8-0.8,2.6-1
								c3.5-1,6.9-1.1,10.1-0.1c-1.7,0.1-3.3,0.3-5,0.9c-1.6,0.4-3.2,1.2-4.8,2c-3.1,1.7-6.2,4-9.1,6.9c-2.8,2.8-5.6,6.2-8,9.8
								c-2.4,3.6-4.4,7.5-5.9,11.6c-3,8.2-3.4,17.5,0.2,26c1.8,4.2,4.8,8.1,8.7,11.3c2,1.6,4.2,2.9,6.6,4.2
								C459.3,626,461.9,626.9,464.6,627.5z"/>
						</g>
					</g>
					<g>
						<g>
							<path class="st5" d="M411.3,507l0.6,1.3l0.7,1.3l1.3,2.6c0.4,0.9,0.9,1.6,1.4,2.5c0.5,0.8,0.9,1.7,1.4,2.4l1.5,2.3l0.7,1.2
								l0.8,1.1l1.6,2.2l1.7,2.1l0.8,1c0.3,0.3,0.6,0.6,0.9,1l1.7,1.9l1.8,1.8l0.9,0.9l1,0.8c2.5,2.3,5.2,4.3,8,6.3L396,602.9
								c-6-4-11.8-8.4-17-13.3l-2-1.8l-1.9-1.9c-1.3-1.3-2.5-2.5-3.8-3.8l-3.6-4c-0.6-0.7-1.2-1.3-1.8-2l-1.7-2.1l-3.3-4.1l-3.1-4.3
								l-1.5-2.1l-1.4-2.2l-2.8-4.4c-0.9-1.5-1.7-3-2.6-4.4c-0.8-1.5-1.7-3-2.5-4.5l-2.3-4.5l-1.1-2.3l-1-2.3L411.3,507z"/>
						</g>
						<g>
							<path class="st6" d="M387.6,596.8c-2.5-1.6-5-3.5-7-5.9c-1-1.1-2-2.3-2.9-3.6c-0.9-1.2-1.7-2.6-2.4-3.9
								c-0.7-1.3-1.3-2.7-1.8-4.1c-0.5-1.4-0.8-2.8-1.1-4.2c-0.3-1.4-0.5-2.8-0.6-4.2c-0.1-1.4,0-2.8,0.1-4.1
								c0.2-2.7,0.8-5.2,1.7-7.7c0.9-2.4,2.1-4.7,3.4-6.8c2.8-4.2,6.4-7.7,10.5-10.5c4.1-2.8,8.8-5,13.4-6.6c2.3-0.8,4.6-1.5,6.9-2
								c2.3-0.5,4.6-0.9,6.8-1.2c1.1-0.1,2.2-0.2,3.2-0.3c1.1-0.1,2.1-0.1,3.1-0.1c1,0,1.9,0.1,2.8,0.2c0.9,0.1,1.8,0.2,2.6,0.4
								c0.8,0.2,1.6,0.4,2.3,0.7c0.8,0.3,1.4,0.6,2.1,0.9c1.2,0.8,2.4,1.6,3.3,2.8c-2.6-1.3-5.6-1.9-9-2c-1.7-0.1-3.5,0.1-5.3,0.2
								c-1.8,0.2-3.8,0.5-5.7,1c-7.8,1.7-16.4,5.1-23.3,10.3c-7,5.2-12.5,12.6-14,21.8c-0.4,2.3-0.4,4.7-0.2,7.1
								c0.2,2.5,0.8,4.9,1.7,7.4C380,587.7,383.2,592.6,387.6,596.8z"/>
						</g>
					</g>
					<g>
						<g>
							<path class="st5" d="M398.5,457.3c2.1,18.2,6.2,35.4,12.9,49.7l-68.9,32c-5.6-12.1-9.7-24.4-12.8-36.6
								c-3.1-12.2-5.2-24.3-6.6-36.3L398.5,457.3z"/>
						</g>
						<g>
							<path class="st6" d="M338.7,530.2c-2.7-4.8-3.9-10.5-3.8-16c0.1-2.7,0.6-5.4,1.4-7.9c0.7-2.5,2-4.9,3.3-7.1
								c1.4-2.2,3-4.2,4.8-5.9c1.8-1.8,3.8-3.3,5.9-4.6c4.2-2.7,9-4.5,13.9-5.5c4.9-1,10-1.2,14.9-0.7c2.4,0.2,4.8,0.6,7.2,1.2
								c2.4,0.5,4.6,1.2,6.8,2.1c2.2,0.8,4.1,1.9,6,3c1.8,1.1,3.5,2.4,4.8,3.8c2.8,2.7,4.5,5.9,5.2,9.2c-0.4-0.7-0.9-1.4-1.5-2.1
								c-0.6-0.7-1.1-1.3-1.7-2c-1.2-1.3-2.6-2.4-4.2-3.5c-3-2.1-6.7-3.8-10.7-4.9c-7.9-2.3-17.1-2.7-25.6-0.8
								c-8.5,1.9-16.5,6.4-22,13.6c-2.7,3.6-4.6,7.9-5.5,12.7c-0.4,2.4-0.5,4.9-0.4,7.5c0,1.3,0.2,2.6,0.4,3.9
								C338.1,527.6,338.4,528.9,338.7,530.2z"/>
						</g>
					</g>
					<g>
						<g>
							<path class="st5" d="M397.3,400.2l-0.4,7.3c-0.1,2.4-0.1,4.8-0.2,7.3c-0.2,4.9-0.1,9.6-0.1,14.4c0.2,9.5,0.8,18.9,1.8,28.1
								L323,466c-1.3-11.9-2-23.8-2.3-35.4c0-5.8-0.1-11.6,0.1-17.4c0.1-2.9,0.1-5.8,0.2-8.6l0.4-8.6L397.3,400.2z"/>
						</g>
						<g>
							<path class="st6" d="M322.2,457.5c-0.6-2.5-0.7-5-0.6-7.5c0.1-2.5,0.6-5.1,1.4-7.5c1.7-4.8,4.5-9.2,8.2-12.6
								c7.5-6.8,17.5-10,27.5-10c10,0.2,20,3.4,27.6,9.1c3.8,2.8,7,6.3,8.9,10c1,1.9,1.8,3.8,2.2,5.8c0.4,2,0.5,4,0.4,5.9
								c-0.5-1.9-1.1-3.7-2-5.5c-0.9-1.8-1.9-3.4-3.2-5c-2.4-3.2-5.5-5.9-9.2-8.1c-3.7-2.2-7.6-3.9-11.8-5
								c-4.2-1.2-8.6-1.8-12.9-1.7c-4.4,0-8.7,0.7-12.9,2c-4.2,1.3-8.2,3.3-11.6,6c-3.5,2.7-6.4,6.2-8.5,10.3
								c-1,2.1-1.8,4.3-2.4,6.6C322.7,452.6,322.3,455,322.2,457.5z"/>
						</g>
					</g>
					<g>
						<path class="st5" d="M397.3,400.2c0.1-2-0.8-3.9-2.6-5.8c-1.8-1.9-4.4-3.6-7.8-5.2c-6.7-3.2-16-5.7-26.4-6.6
							c-10.4-0.9-20,0-27.1,2.5c-3.5,1.2-6.4,2.8-8.5,4.6c-2.1,1.8-3.3,4-3.4,6.3L397.3,400.2z"/>
					</g>
				</g>
			</g>
		</g>
		<g>
			<path class="st7" d="M604.3,581.1"/>
		</g>
		<g>
			<g>
				<defs>
					<path id="SVGID_7_" d="M811,999.8l0.2-0.2l-120.6-56.5c-12.3-6.3-27.4-7.7-43.9-2.8L355.9,1026
						c-46.1,13.6-83.8,63.3-83.4,110.9v0c0.2,29.1,14.6,50.1,36.3,58.7l117.1,55.3l0.1,0c14.1,6.1,31.5,6.8,50.2,0.7l290.7-94.8
						c40.6-13.3,72.9-59.3,72.6-103C839.2,1028.5,828.2,1009.2,811,999.8z"/>
				</defs>
				<clipPath id="SVGID_2_">
					<use xlink:href="#SVGID_7_"  style="overflow:visible;"/>
				</clipPath>
				<path class="st8" d="M276.7,1071.3l45.6-48.3l336.8-99.4l85.1,20.2l89.7,52c0,0,47.9,147.7,46.9,149.6
					c-0.9,1.8-234.7,71.3-234.7,71.3l-213.5,55.7l-181.3-67.6L276.7,1071.3z"/>
				<g class="st9">
					<line class="st10" x1="265.9" y1="1153" x2="408.1" y2="1219.3"/>
					<line class="st10" x1="636.6" y1="936.3" x2="782.2" y2="1001.8"/>
					<line class="st10" x1="578.6" y1="954.2" x2="724.2" y2="1019.8"/>
					<line class="st10" x1="513" y1="971.5" x2="658.7" y2="1037"/>
					<line class="st10" x1="445.4" y1="992.9" x2="591" y2="1058.4"/>
					<line class="st10" x1="368.1" y1="1017.7" x2="513.7" y2="1083.3"/>
					<line class="st10" x1="306" y1="1047.4" x2="451.6" y2="1113"/>
					<line class="st10" x1="272.1" y1="1099.2" x2="417.8" y2="1164.7"/>
				</g>
			</g>
			<g>
				<path class="st5" d="M546.6,1144.5c0.3,38.5-29.7,79.6-67.6,91.8c-38.3,12.4-70.1-9.4-70.4-49c-0.3-39.5,30.9-80.9,69.3-92.3
					C515.8,1083.8,546.3,1106,546.6,1144.5z"/>
				<path class="st11" d="M458.1,1224.8c-20.8,0-34.3-14.7-34.4-37.6c-0.2-32.7,26.6-68.3,58.6-77.9c5.1-1.5,10.1-2.3,14.9-2.3
					c20.8,0,34.3,14.7,34.5,37.6c0.2,31.9-26,67.3-57.2,77.4C468.8,1223.9,463.3,1224.8,458.1,1224.8z"/>
				<path class="st5" d="M825.4,1058c0.3,36.5-26.7,74.9-60.7,85.9c-34.4,11.1-62.9-10.1-63.1-47.5c-0.3-37.4,27.8-76.2,62.2-86.4
					C797.7,999.9,825.1,1021.5,825.4,1058z"/>
				<path class="st5" d="M689.7,1100.1c0.3,37.5-28.2,77.2-64,88.8c-36.3,11.7-66.3-9.8-66.6-48.2c-0.3-38.4,29.3-78.5,65.6-89.3
					C660.5,1040.7,689.4,1062.6,689.7,1100.1z"/>
				<path class="st12" d="M765.7,996.2L474.9,1082c-46.1,13.6-83.8,63.3-83.4,110.9c0.4,47.5,38.6,73.7,84.7,58.7l290.7-94.8
					c40.6-13.3,72.9-59.3,72.6-103C839.1,1010.1,806.4,984.2,765.7,996.2z M762.2,1142.5l-290.7,94.8c-7.1,2.3-14.1,3.5-20.7,3.5
					c-26.7,0-44.1-18.9-44.3-48.1c-0.3-40.6,33-84.7,72.7-96.4l290.8-85.8c5.2-1.5,10.3-2.3,15.2-2.3c23.3,0,39.1,18.3,39.3,45.6
					C824.7,1091.5,796.8,1131.2,762.2,1142.5z"/>
			</g>
		</g>
		<g>
			<g>
				<defs>
					<path id="SVGID_6_" d="M866.3,1024.8c0,0,2.6,23.5-5.6,36.6s-55.9,63.5-53.8,95.3c2.1,31.8-105.8,31.8-105.8,31.8h-49.7
						c0,0-100.8-3.5-109.1-31.8c-8.9-30.5-45.6-82.1-53.8-95.3c-8.3-13.1-5.6-36.6-5.6-36.6S865.7,1024.8,866.3,1024.8z"/>
				</defs>
				<clipPath id="SVGID_8_">
					<use xlink:href="#SVGID_6_"  style="overflow:visible;"/>
				</clipPath>
				<rect x="466.3" y="1008.3" class="st13" width="408.6" height="189.1"/>
				<path class="st14" d="M593.3,1200.2c0,0-20.7-37.3-9.7-62.1c11-24.8,44.2-41.4,73.2-42.8s164.3,0,209.8-35.9
					s-23.5,117.3-23.5,117.3S665.1,1220.9,593.3,1200.2z"/>
			</g>
			<ellipse class="st0" cx="674.8" cy="1024.8" rx="192" ry="46.4"/>
		</g>
		<g>
			<path class="st15" d="M783.8,581c-3.3,55.8-98.8,96.4-152.5,93.2s-64.1-50.5-60.7-106.3c3.3-55.8,78.8-95,132.6-91.4
				C774.5,481.3,787.2,525.2,783.8,581z"/>
			<g>
				<defs>
					<path id="SVGID_5_" d="M868,599.7c17.9-35.9-24.8-58-46.9-82.8c-7.4-8.3-17.9-14.2-28.6-18.3l0,0c0,0-29.7-14.1-53.5-22.8
						c-23.8-8.6-47.6-4.1-69.4-2.1c-7,0.7-31.1,5.6-39.4,8.3c-73.2,7.5-106.9,27.3-114.1,41.8c-8.3,16.6-12.4,77.3-12.4,77.3
						C429,699.1,378,826.1,378,837.1c0,11,2.8,125.6,109.1,180.8c106.3,55.2,229.2,55.2,327.2,22.1c98-33.1,108.6-87.9,116-139.4
						C936.7,854.5,868,599.7,868,599.7z M730,580.3c-46.9,40-121.5,44.2-121.5,44.2s-27.6-29-23.5-63.5
						c5.1-42.7,45.7-66.8,66.5-76.4c2.3-0.6,4.7-1.2,7.4-1.9c12.5-3.5,28-3.5,48-5.9s42.4,12.4,42.4,12.4
						C757.6,497.5,776.9,540.3,730,580.3z"/>
				</defs>
				<clipPath id="SVGID_9_">
					<use xlink:href="#SVGID_5_"  style="overflow:visible;"/>
				</clipPath>
				<rect x="365.9" y="449.2" class="st16" width="571.2" height="643.3"/>
				<path class="st17" d="M462.2,610.7c4.1-1.4,183.6-27.6,183.6-27.6l127,140.8L897,594.1L803.2,452l-259.5,6.9l-59.4,67.6
					L462.2,610.7z"/>
				<path class="st18" d="M843.2,570.7c-27.9,0-59.6,17.2-84.9,54.5c-15.9,23.5-34.5,56.6-34.5,56.6s-40.9,130-55.9,177.4
					c-16.6,52.5-59.4,198.8,125.6,172.6c185-26.2,167-118.7,167-118.7l-77.3-313.4C883.2,599.7,891.5,570.7,843.2,570.7z"/>
				<path class="st19" d="M930.6,704.7c0,0-167,58-230.5,53.8c-44.8-2.9-96.6-9.7-164.3-31.8c-89.8-29.3-109.1-67.6-109.1-67.6
					s-132.5,211.2-9.7,299.6s237.4,100.8,334.1,91.1c96.6-9.7,180.8-37.3,190.5-82.8C951.3,921.4,938.9,736.4,930.6,704.7z"/>
				<path class="st20" d="M943.5,844.2l-32.8-132.9c-46.2,15.1-160.6,50.5-210.7,47.2c-0.2,0-0.3,0-0.5,0
					c-11.7,37-24.6,78.2-31.8,100.7c-16.6,52.5-59.4,198.8,125.6,172.6c84.5-12,126.7-37.8,147.5-62.3c0.2-0.8,0.5-1.7,0.7-2.5
					C946.1,946,945.9,895.6,943.5,844.2z"/>
				<path class="st21" d="M848,605.2c0,0-4.1-17.9-21.4-13.1c-26.7,7.5-70.4,39.3-69.7,90.4c0.7,51.1,15.3,62.9,40.7,56.7
					C828.7,731.6,871.5,703.2,848,605.2z"/>
				<path class="st22" d="M929.2,729.5c0,0-167,58-230.5,53.8c-44.8-2.9-96.6-9.7-164.3-31.8C444.7,722.3,425.4,684,425.4,684
					s-132.5,211.2-9.7,299.6c122.9,88.3,237.4,100.8,334.1,91.1s180.8-37.3,190.5-82.8S937.5,761.3,929.2,729.5z"/>
				<ellipse class="st23" cx="680.1" cy="1000.1" rx="166.3" ry="48.3"/>
				<g class="st24">
					<circle class="st25" cx="481.9" cy="904.8" r="35.9"/>
					<circle class="st26" cx="541.3" cy="881.3" r="35.9"/>
					<circle class="st27" cx="563.4" cy="936.5" r="35.9"/>
					<circle class="st28" cx="582.2" cy="985.9" r="35.9"/>
					<circle class="st25" cx="605.7" cy="894.8" r="35.9"/>
					<circle class="st28" cx="683" cy="903.1" r="35.9"/>
					<circle class="st26" cx="634.7" cy="947.2" r="35.9"/>
					<circle class="st27" cx="827.9" cy="865.8" r="35.9"/>
					<circle class="st26" cx="780.2" cy="967" r="35.9"/>
					<circle class="st27" cx="710.4" cy="960.5" r="35.9"/>
					<circle class="st25" cx="745.6" cy="929.7" r="35.9"/>
					<circle class="st25" cx="658.7" cy="1004.2" r="35.9"/>
					<circle class="st26" cx="749.8" cy="877.2" r="35.9"/>
					<circle class="st28" cx="745.6" cy="997.3" r="35.9"/>
					<circle class="st28" cx="831.2" cy="920" r="35.9"/>
					<circle class="st28" cx="508.2" cy="955.9" r="35.9"/>
				</g>
				<path class="st29" d="M361.4,799.8c0,0,20.5,90.8,122.9,131.1c98,38.7,187.7-2.8,187.7-2.8l273.3-78.7l-29,136.7l-50.1,38.6
					c0,0-74.1,51.1-166.6,53.8s-278.9-20.7-299.6-69C379.3,961.4,361.4,799.8,361.4,799.8z"/>
				<path class="st29" d="M943,967c1.9-34.4,0.1-88.7-3-137.3l-23.7-95.9c-40.4,13.4-164.8,52.9-217.6,49.5
					c-2.2-0.1-4.5-0.3-6.8-0.5c-9.3,29.6-18.5,58.7-24.1,76.3c-16.6,52.5-59.4,198.8,125.6,172.6C880.8,1019.4,922.9,992.2,943,967z
					"/>
				<g class="st24">
					<path class="st30" d="M443.8,733.7c-10.7,22.9-21.6,45.6-31.1,68.8c-2.4,5.8-4.7,11.6-6.7,17.5c-2,5.9-4,11.8-5.4,17.7
						c-0.4,1.5-0.7,3-1,4.4l-0.4,2.2c-0.1,0.7-0.2,1.5-0.3,2.2l-0.2,2.2l0,2.1c0,0.7,0.1,1.5,0.1,2.2c0,0.7,0.1,1.5,0.2,2.2
						c0.6,6,1.8,12.1,3.3,18.1c6.2,24,15.8,47.3,28.4,68.8c6.3,10.7,13.5,21,21.9,30.3c8.3,9.3,18,17.5,29.1,23.6
						c-5.8-2.5-11.4-5.6-16.6-9.2c-5.3-3.6-10.1-7.8-14.7-12.2c-2.3-2.2-4.5-4.5-6.7-6.9l-3.1-3.6c-1.1-1.2-2-2.5-3-3.7
						c-4-5-7.8-10.1-11.2-15.5c-6.9-10.7-13-22-18.1-33.7c-2.6-5.8-4.9-11.8-7.1-17.8c-2.1-6-4-12.1-5.6-18.4
						c-1.6-6.2-2.9-12.5-3.6-19.1c-0.1-0.8-0.2-1.6-0.2-2.5c0-0.8-0.1-1.6-0.1-2.5l0.1-2.6l0.3-2.5c0.1-0.9,0.2-1.7,0.4-2.5l0.4-2.5
						c0.4-1.6,0.7-3.2,1.1-4.8c3.3-12.6,8.2-24.3,13.4-35.9c5.3-11.5,11.1-22.8,17.2-33.9C430.4,755.1,436.8,744.2,443.8,733.7z"/>
				</g>
				<g class="st24">
					<path class="st30" d="M892,764.9c3.8,11.5,7,23.2,10,34.9c1.4,5.9,2.9,11.8,4.2,17.7c1.3,5.9,2.5,11.9,3.6,17.8
						c1.1,6,2,12,2.9,18c0.8,6,1.5,12.1,1.9,18.2c0.4,6.1,0.5,12.3,0,18.6l-0.2,2.4L914,895l-0.2,1.2l-0.2,1.1l-0.4,2.2l-1.7,8.9
						c-2.4,11.9-5.2,23.9-9.5,35.4c-2.1,5.8-4.6,11.4-7.5,16.9c-2.9,5.5-6.2,10.7-9.9,15.6c-1,1.2-1.9,2.5-2.9,3.6l-3,3.5l-3.2,3.3
						c-1.1,1.1-2.3,2.1-3.4,3.2c-4.6,4.1-9.6,7.8-14.9,10.9l-4,2.2c-1.3,0.7-2.8,1.3-4.1,2c-1.4,0.7-2.8,1.3-4.2,1.8
						c-1.4,0.5-2.8,1.2-4.3,1.6c-5.7,2.1-11.7,3.5-17.6,4.6l4.3-1.4l2.2-0.7l2.1-0.8c1.4-0.6,2.8-1,4.2-1.6l4.1-1.8
						c5.4-2.6,10.7-5.4,15.6-8.8c4.9-3.4,9.5-7.2,13.6-11.4c4.2-4.2,7.9-8.7,11.3-13.6c3.4-4.8,6.3-10,8.9-15.3
						c2.6-5.3,4.8-10.8,6.8-16.4c3.8-11.2,6.6-22.8,8.8-34.6l1.6-8.9c0.3-1.5,0.6-3,0.8-4.4l0.3-2.1l0.2-2.1
						c0.5-5.7,0.4-11.7,0.1-17.6c-0.3-5.9-0.8-11.9-1.5-17.8c-0.6-6-1.4-11.9-2.3-17.9C900.7,812.5,896.3,788.7,892,764.9z"/>
				</g>
			</g>
		</g>
		<g>
			<g>
				<defs>
					<path id="SVGID_4_" d="M1060.4,1116.6l0.2-0.2L940,1060c-12.3-6.3-27.4-7.7-43.9-2.8l-290.8,85.8
						c-46.1,13.6-83.8,63.3-83.4,110.9v0c0.2,29.1,14.6,50.1,36.3,58.7l117.1,55.3l0.1,0c14.1,6.1,31.5,6.8,50.2,0.7l290.7-94.8
						c40.6-13.3,72.9-59.3,72.6-103C1088.6,1145.4,1077.6,1126.1,1060.4,1116.6z"/>
				</defs>
				<clipPath id="SVGID_10_">
					<use xlink:href="#SVGID_4_"  style="overflow:visible;"/>
				</clipPath>
				<path class="st31" d="M526.1,1188.2l45.6-48.3l336.8-99.4l85.1,20.2l89.7,52c0,0,47.9,147.7,46.9,149.6
					c-0.9,1.8-234.7,71.3-234.7,71.3l-213.5,55.7l-181.3-67.6L526.1,1188.2z"/>
				<g class="st32">
					<line class="st10" x1="515.3" y1="1269.9" x2="657.5" y2="1336.1"/>
					<line class="st10" x1="886" y1="1053.2" x2="1031.6" y2="1118.7"/>
					<line class="st10" x1="828" y1="1071.1" x2="973.6" y2="1136.7"/>
					<line class="st10" x1="762.4" y1="1088.4" x2="908.1" y2="1153.9"/>
					<line class="st10" x1="694.8" y1="1109.8" x2="840.4" y2="1175.3"/>
					<line class="st10" x1="617.5" y1="1134.6" x2="763.1" y2="1200.2"/>
					<line class="st10" x1="555.4" y1="1164.3" x2="701" y2="1229.9"/>
					<line class="st10" x1="521.5" y1="1216" x2="667.2" y2="1281.6"/>
				</g>
			</g>
			<g>
				<path class="st5" d="M796,1261.4c0.3,38.5-29.7,79.6-67.6,91.8c-38.3,12.4-70.1-9.4-70.4-49c-0.3-39.5,30.9-80.9,69.3-92.3
					C765.2,1200.6,795.7,1222.9,796,1261.4z"/>
				<path class="st11" d="M707.5,1341.7c-20.8,0-34.3-14.7-34.4-37.6c-0.2-32.7,26.6-68.3,58.6-77.9c5.1-1.5,10.1-2.3,14.9-2.3
					c20.8,0,34.3,14.7,34.5,37.6c0.2,31.9-26,67.3-57.2,77.4C718.2,1340.8,712.7,1341.7,707.5,1341.7z"/>
				<path class="st5" d="M1074.8,1174.9c0.3,36.5-26.7,74.9-60.7,85.9c-34.4,11.1-62.9-10.1-63.1-47.5
					c-0.3-37.4,27.8-76.2,62.2-86.4C1047.1,1116.8,1074.5,1138.3,1074.8,1174.9z"/>
				<path class="st11" d="M996.2,1248.8c-18.2,0-30.1-14-30.3-35.6c-0.2-30.6,23.3-63.6,51.5-71.9c4.2-1.2,8.2-1.9,12.1-1.9
					c18.2,0,30.1,14,30.3,35.6c0.2,29.9-22.8,62.7-50.3,71.6C1004.9,1248,1000.4,1248.8,996.2,1248.8z"/>
				<path class="st5" d="M939.1,1217c0.3,37.5-28.2,77.2-64,88.8c-36.3,11.7-66.3-9.8-66.6-48.2c-0.3-38.4,29.3-78.5,65.6-89.3
					C909.9,1157.6,938.8,1179.5,939.1,1217z"/>
				<path class="st11" d="M855.8,1294c-19.4,0-32.1-14.4-32.3-36.6c-0.2-31.6,24.9-65.9,54.9-74.8c4.6-1.4,9.1-2.1,13.4-2.1
					c19.5,0,32.2,14.4,32.3,36.6c0.2,30.9-24.3,64.9-53.6,74.4C865.4,1293.1,860.5,1294,855.8,1294z"/>
				<path class="st12" d="M1015.1,1113.1l-290.8,85.8c-46.1,13.6-83.8,63.3-83.4,110.9c0.4,47.5,38.6,73.7,84.7,58.7l290.7-94.8
					c40.6-13.3,72.9-59.3,72.6-103C1088.5,1126.9,1055.8,1101.1,1015.1,1113.1z M1011.6,1259.4l-290.7,94.8
					c-7.1,2.3-14.1,3.5-20.7,3.5c-26.7,0-44.1-18.9-44.3-48.1c-0.3-40.6,33-84.7,72.7-96.4l290.8-85.8c5.2-1.5,10.3-2.3,15.2-2.3
					c23.3,0,39.1,18.3,39.3,45.6C1074.1,1208.4,1046.2,1248.1,1011.6,1259.4z"/>
			</g>
		</g>
		<g>
			<g>
				<g>
					<g>
						<path class="st5" d="M597.5,382.7c-1-6.6,3.6-13.4,11.8-19c8.2-5.6,20.1-9.8,33.7-11.5c13.5-1.7,26.1-0.8,35.5,1.9
							c9.4,2.8,15.7,7.4,16.6,13.5L597.5,382.7z"/>
					</g>
					<g>
						<g>
							<path class="st5" d="M616.6,480.1c-7.9-32.6-14-64.8-19.1-97.4l97.5-15.1c4.7,30,10.4,60.1,17.4,89.1L616.6,480.1z"/>
						</g>
						<g>
							<path class="st6" d="M696.7,378.3c1.8,6.1,2.2,12.8,0.9,19.4c-1.3,6.5-4,12.8-8,18.1c-7.8,10.8-19.6,18.1-32.3,20.8
								c-12.8,2.6-26.5,0.5-37.9-7.1c-5.7-3.7-10.7-9-14.2-15.1c-3.5-6.2-5.5-13.2-5.8-20.1c3.7,13.4,12.2,23.9,22.7,29.4
								c10.5,5.6,22.5,7.1,33.6,4.8c11.1-2.2,21.6-8.2,29.4-16.8C692.9,403.1,697.3,391.1,696.7,378.3z"/>
						</g>
					</g>
					<g>
						<g>
							<path class="st5" d="M650,579.9c-2-4.3-4.1-8.7-5.8-12.9c-0.9-2.1-1.8-4.3-2.7-6.4l-2.5-6.3c-0.8-2.1-1.6-4.2-2.3-6.3
								l-2.3-6.3l-2.1-6.2c-0.7-2.1-1.4-4.2-2-6.2c-5.3-16.5-9.7-32.9-13.7-49.1l95.9-23.3c3.5,14.5,7.4,28.7,11.8,42.4
								c4.3,13.7,9.3,26.7,14.6,37.9L650,579.9z"/>
						</g>
						<g>
							<path class="st6" d="M715.1,467c1.2,2.9,2,5.9,2.4,9.1c0.5,3.1,0.5,6.3,0.2,9.5c-0.3,3.2-1,6.3-2.1,9.4c-1,3-2.4,6-4.1,8.8
								c-6.6,11.2-17.3,20-29.5,24.5c-12.3,4.3-26.2,4-38.6-2.6c-3.1-1.6-6-3.6-8.7-6c-2.7-2.4-5.1-5.1-7.2-8.1
								c-2.1-3-3.8-6.2-5.2-9.6c-1.3-3.4-2.2-6.9-2.7-10.4c5,13.3,14.7,23.4,25.8,27.9c11.1,4.6,23.3,4.6,34,1
								c10.7-3.6,20.4-10.8,27.2-20C713.5,491.3,716.7,479.5,715.1,467z"/>
						</g>
					</g>
					<g>
						<path class="st5" d="M650,579.9c0.9,1.8,2.1,3.4,3.5,4.7c1.5,1.4,3.1,2.5,5,3.5c3.9,1.9,8.6,2.9,13.7,2.8
							c5.2,0,10.8-1.2,16.5-3.3c5.7-2.1,11.4-5.2,17-9c5.6-3.8,10.7-8,15.1-12.1c4.4-4.1,8.2-8.1,11.2-11.7c3-3.7,5.3-7.1,6.5-10
							c0.6-1.4,1-3,1-4.3c0.1-1.3-0.2-2.5-0.7-3.6L650,579.9z"/>
					</g>
				</g>
			</g>
		</g>
		<path class="st6" d="M460.8,612.1"/>
		<g>
			<g>
				<g>
					<path class="st0" d="M1040.9,974.4c10.5-19,2.4-53.3-18-76.4c-20.4-23.1-45.6-26.3-56.1-7.3l12.9,14.5
						c6.9-12.4,23.3-10.3,36.6,4.8c13.3,15,18.6,37.4,11.7,49.8L1040.9,974.4z"/>
				</g>
				<g>
					
						<ellipse transform="matrix(0.8846 -0.4664 0.4664 0.8846 -307.4383 554.7753)" class="st0" cx="967.1" cy="898.5" rx="16" ry="26.2"/>
				</g>
			</g>
			<polygon class="st1" points="1028.1,959.9 1077,936.3 1089.9,950.8 1040.9,974.4 			"/>
			<path class="st0" d="M1028.1,959.9l11.7-13.2l-15.3-38.1l-21-16l33.9-23.8l29.3,8.6c0,0,5.9,12.6,16.5,32.4
				c7.9,14.8-6.2,26.4-6.2,26.4L1028.1,959.9z"/>
			<g>
				<defs>
					<path id="SVGID_3_" d="M1038.3,952.9l-21-25.6l-10.7-38l-38.1,18.4l-6.9-7.7c-2.1,3.8-3.4,8.2-4.1,13l0,0l0,0
						c-2.7,19.3,5.7,44.9,22.1,63.3c15.8,17.8,34.3,23.8,46.8,16.8l0.1,0.1l47.9-23l-7.6-3.2L1038.3,952.9z"/>
				</defs>
				<clipPath id="SVGID_11_">
					<use xlink:href="#SVGID_3_"  style="overflow:visible;"/>
				</clipPath>
				<polygon class="st33" points="947.3,910.8 952.7,962.5 980.2,996.2 1014,1005.8 1088.1,970.6 1076.4,955.5 1035.8,944.2 
					1016.3,910 1012.9,877 				"/>
				<path class="st34" d="M988.1,999.7c0.9-0.4,76.4-35.3,76.4-35.3l23.6,2.1c0,0-70.8,37.6-71.6,38
					C1015.6,1004.8,988.1,999.7,988.1,999.7z"/>
			</g>
			<polygon class="st0" points="955.1,875.2 1004.6,851.4 1006.7,889.4 957.7,913.1 			"/>
			<g>
				<g>
					<path class="st4" d="M1084.8,960.1c-10.5,19-35.7,15.8-56.1-7.3c-20.4-23.1-28.5-57.3-18-76.4l12.9,14.5
						c-6.9,12.4-1.6,34.8,11.7,49.8c13.3,15,29.7,17.2,36.6,4.8L1084.8,960.1z"/>
				</g>
				<g>
					<path class="st4" d="M1089.9,950.8c10.5-19,2.4-53.3-18-76.4c-20.4-23.1-45.6-26.3-56.1-7.3l12.9,14.5
						c6.9-12.4,23.3-10.3,36.6,4.8s18.6,37.4,11.7,49.8L1089.9,950.8z"/>
				</g>
				<g>
					
						<ellipse transform="matrix(0.8846 -0.4664 0.4664 0.8846 -290.8087 574.8868)" class="st1" cx="1016" cy="874.9" rx="16" ry="26.2"/>
				</g>
			</g>
		</g>
		<g>
			<g>
				<g>
					<g>
						<path class="st5" d="M796.1,678.6c-3.3-2.6-3.7-8.2-2-15.3c1.7-7.2,5.5-16,10.9-25c5.4-9,12.6-15.7,19.6-19.2
							c7-3.5,13.8-3.8,18.3-0.3L796.1,678.6z"/>
					</g>
					<g>
						<g>
							<path class="st5" d="M843.8,724.5c-7.5-8.5-15.2-16.6-23.2-24.3c-8-7.7-16.2-15.1-24.5-21.5l46.8-59.8
								c10.9,8.6,20.9,17.5,30.5,26.7c9.6,9.2,18.6,18.8,27.3,28.6L843.8,724.5z"/>
						</g>
						<g>
							<path class="st6" d="M850.5,625c2.4,1.6,4.6,3.5,6.6,5.6c1.9,2.1,3.7,4.5,5.1,7c1.4,2.5,2.4,5.1,3.2,7.8
								c0.7,2.7,1.1,5.4,1.2,8.1c0.3,10.7-4.3,20.5-11.3,27.5c-7.2,7-16.9,11.3-27,12c-2.5,0.2-5,0.1-7.5-0.2
								c-2.5-0.3-4.9-0.9-7.1-1.7c-2.3-0.8-4.4-1.9-6.4-3.2c-2-1.3-3.7-2.8-5.2-4.5c7.7,4.8,16.8,6.6,25.6,5.1
								c4.3-0.8,8.6-2.2,12.5-4.2c3.9-2,7.5-4.6,10.6-7.7c3.1-3.1,5.7-6.7,7.5-10.7c1.9-4,3-8.4,3.4-13
								C862.2,643.5,858.6,633.3,850.5,625z"/>
						</g>
					</g>
					<g>
						<g>
							<path class="st5" d="M885.8,778.6c-3.2-4.8-6.6-9.4-9.9-14.1c-1.7-2.3-3.4-4.6-5.1-6.9l-2.6-3.4l-2.6-3.4
								c-7-9.1-14.3-17.8-21.7-26.3l56.8-50.4c8.7,9.8,17,19.8,24.9,30.1l3,3.8l2.9,3.9c1.9,2.6,3.9,5.2,5.8,7.8
								c3.7,5.3,7.6,10.5,11.2,15.8L885.8,778.6z"/>
						</g>
						<g>
							<path class="st6" d="M906.7,681.2c2,1.9,3.8,4,5.4,6.3c1.5,2.3,2.8,4.9,3.7,7.5c1.9,5.2,2.4,10.9,1.8,16.1
								c-0.6,5.3-2.4,10.2-5.1,14.5c-2.6,4.3-6.1,8.1-10.1,11.1c-4,3-8.6,5.2-13.4,6.6c-4.8,1.4-9.9,1.9-15,1.5
								c-5.1-0.4-10-1.9-14.4-4.3c-2.2-1.2-4.2-2.7-5.9-4.4c-1.8-1.6-3.4-3.5-4.7-5.5c1.8,1.6,3.6,3,5.6,4.2c2,1.2,4,2.2,6.1,3
								c2.1,0.8,4.3,1.4,6.5,1.8c2.2,0.4,4.4,0.6,6.7,0.5c8.9-0.2,17.7-3.2,24.6-8.5c7-5.3,12.2-12.9,14.2-21.9
								c0.5-2.2,0.8-4.6,0.8-7c0-2.4-0.3-4.8-0.8-7.2c-0.5-2.4-1.3-4.9-2.3-7.3C909.6,685.8,908.3,683.5,906.7,681.2z"/>
						</g>
					</g>
					<g>
						<g>
							<path class="st5" d="M922,837.7c-11.1-20.4-23.2-40.1-36.2-59.1l62.6-43c14.6,21.3,28,43.2,40.2,65.6L922,837.7z"/>
						</g>
						<g>
							<path class="st6" d="M953.5,743.2c3.4,4.1,6,9.2,7.3,14.6c1.2,5.4,1.1,11-0.1,16.1c-2.5,10.3-9.3,18.6-17.9,23.8
								c-8.7,5-19.1,6.9-29.1,4.9c-5-1-9.8-3-13.8-6c-4.1-3-7.4-6.8-9.5-11.2c3.1,3.7,6.9,6.6,10.9,8.7c4,2.1,8.4,3.5,12.9,3.9
								c8.9,0.8,18-1.2,25.4-5.7c7.5-4.5,13.6-11.6,16.5-20.2c1.5-4.3,2.1-9.1,1.7-14C957.5,753.1,956,748.1,953.5,743.2z"/>
						</g>
					</g>
					<g>
						<g>
							<path class="st5" d="M952.8,900.4c-9.4-21.4-19.7-42.4-30.8-62.7l66.6-36.4c12.3,22.4,23.4,45.4,33.7,68.6L952.8,900.4z"/>
						</g>
						<g>
							<path class="st6" d="M992.9,809.3c1.5,2.2,2.8,4.6,3.8,7.2c1,2.6,1.6,5.2,2,8c0.7,5.4,0.2,10.9-1.6,15.9
								c-3.5,10-10.9,17.6-20,22c-9.1,4.2-19.7,5.2-29.5,2.2c-4.8-1.5-9.5-4-13.3-7.4c-1.9-1.7-3.5-3.6-4.9-5.7
								c-1.4-2.1-2.6-4.2-3.5-6.5c1.4,2,3,3.8,4.7,5.5c1.7,1.7,3.5,3.1,5.4,4.4c3.8,2.5,8.1,4.3,12.5,5.1c8.7,1.7,17.9,0.5,25.8-3.3
								c7.9-3.7,14.5-10.3,18.4-18.6c1.9-4.1,2.9-8.8,3-13.7c0-2.5-0.2-5-0.6-7.5C994.7,814.3,993.9,811.8,992.9,809.3z"/>
						</g>
					</g>
					<g>
						<path class="st5" d="M952.8,900.4c1.9,4.3,7.4,6.6,15,6.8c7.6,0.2,17.1-1.6,26.8-5.7c9.7-4,17.6-9.5,22.7-15.3
							c5-5.7,7.1-11.7,5.1-16.4L952.8,900.4z"/>
					</g>
				</g>
			</g>
		</g>
		<g>
			
				<ellipse transform="matrix(0.2498 -0.9683 0.9683 0.2498 -161.7218 1158.826)" class="st35" cx="667" cy="683.8" rx="28.7" ry="25.3"/>
			<rect x="660.1" y="652.7" class="st36" width="13.8" height="61.7"/>
		</g>
		<g>
			<path class="st1" d="M874.3,371.5l-445.5,54.7c0,0-39-16.4-45.1-66.5c-6-49.1,27.9-73.9,27.9-73.9L857.1,231c0,0,38.9,16,44.9,65
				C908.1,346.2,874.3,371.5,874.3,371.5z"/>
			<path class="st4" d="M739.1,200.2l-220.4,27c0,0-26.6,4.8-56,20.7c-28.2,15.2-51,37.7-51,37.7l445.2-54.6c0,0-28.1-18-55.9-24.6
				C776.3,200.5,739.1,200.2,739.1,200.2z"/>
			<g>
				
					<ellipse transform="matrix(0.9926 -0.1218 0.1218 0.9926 -38.6673 68.8114)" class="st15" cx="543.7" cy="350.8" rx="24.5" ry="40.9"/>
				
					<ellipse transform="matrix(0.9926 -0.1218 0.1218 0.9926 -34.1693 93.1006)" class="st15" cx="744.6" cy="326.1" rx="24.5" ry="40.9"/>
			</g>
			<path class="st1" d="M507.8,394.7l0.9-5c3-16.3,20.8-28,39.8-26.1h0c19,1.9,31.9,16.7,28.9,33.1l-0.9,5c-0.9,4.7-5.9,8-11.4,7.4
				l-49.1-5C510.7,403.6,507,399.4,507.8,394.7z"/>
			<path class="st1" d="M785.4,360.6l-2.1-4.6c-6.9-15.1-27-22.1-44.9-15.7l0,0c-18,6.5-27,24-20.1,39.1l2.1,4.6
				c2,4.3,7.7,6.3,12.8,4.5l46.5-16.7C784.8,369.9,787.4,365,785.4,360.6z"/>
			<g>
				<circle class="st12" cx="626.1" cy="63.7" r="42.4"/>
				<path class="st37" d="M625.4,224.3c0,0-35.2-104.9-6.7-142.9"/>
			</g>
		</g>
	</g>
</g>
<g id="Dolores">
</g>
<g id="Dolly">
</g>
<g id="Cosmo">
</g>
<g id="Belle">
</g>
<g id="Rivet">
</g>
<g id="Spring">
</g>
<g id="Eileen">
</g>
<g id="Levi">
</g>
<g id="Oscar">
</g>
<g id="Rex">
</g>
</svg>
