<?xml version="1.0" encoding="utf-8"?>
<!-- Generator: Adobe Illustrator 24.2.1, SVG Export Plug-In . SVG Version: 6.00 Build 0)  -->
<svg version="1.1" xmlns="http://www.w3.org/2000/svg" xmlns:xlink="http://www.w3.org/1999/xlink" x="0px" y="0px"
	 viewBox="0 0 1336.9 1389.3" style="enable-background:new 0 0 1336.9 1389.3;" xml:space="preserve">
<style type="text/css">
	.st0{fill:#175884;}
	.st1{fill:#A05C1F;}
	.st2{fill:#D97A20;}
	.st3{clip-path:url(#SVGID_1_);fill:#D97A20;}
	.st4{clip-path:url(#SVGID_1_);fill:#694213;}
	.st5{fill:#BB6C1B;}
	.st6{clip-path:url(#SVGID_2_);}
	.st7{fill:none;stroke:#8A96AB;stroke-width:2.525;stroke-miterlimit:10;}
	.st8{fill:none;stroke:#8A96AB;stroke-width:2.4667;stroke-miterlimit:10;}
	.st9{fill:none;stroke:#8A96AB;stroke-width:2.5333;stroke-miterlimit:10;}
	.st10{fill:none;stroke:#8A96AB;stroke-width:2.6541;stroke-miterlimit:10;}
	.st11{fill:none;stroke:#8A96AB;stroke-width:2.7598;stroke-miterlimit:10;}
	.st12{clip-path:url(#SVGID_2_);fill:#B8C1CA;}
	.st13{clip-path:url(#SVGID_3_);fill:#BB6C1B;}
	.st14{clip-path:url(#SVGID_3_);fill:#D97A20;}
	.st15{clip-path:url(#SVGID_3_);fill:#A05C1F;}
	.st16{clip-path:url(#SVGID_4_);fill:#D97A20;}
	.st17{clip-path:url(#SVGID_4_);fill:#BB6C1B;}
	.st18{clip-path:url(#SVGID_5_);fill:#BB6C1B;}
	.st19{clip-path:url(#SVGID_5_);fill:#D97A20;}
	.st20{clip-path:url(#SVGID_5_);fill:#A05C1F;}
	.st21{clip-path:url(#SVGID_6_);fill:#A05C1F;}
	.st22{clip-path:url(#SVGID_6_);fill:#D97A20;}
	.st23{fill:#694213;}
	.st24{clip-path:url(#SVGID_7_);fill:#BB6C1B;}
	.st25{clip-path:url(#SVGID_7_);fill:#D97A20;}
	.st26{clip-path:url(#SVGID_7_);fill:#A05C1F;}
	.st27{clip-path:url(#SVGID_8_);fill:#D97A20;stroke:#F4F4F4;stroke-width:3.7159;stroke-miterlimit:10;}
	.st28{clip-path:url(#SVGID_8_);fill:#C5E6F9;}
	.st29{clip-path:url(#SVGID_8_);fill:#175884;}
	.st30{clip-path:url(#SVGID_8_);fill:#BB6C1B;}
	.st31{clip-path:url(#SVGID_8_);fill:none;stroke:#324F6B;stroke-width:9.7807;stroke-miterlimit:10;}
	.st32{clip-path:url(#SVGID_9_);fill:#D97A20;}
	.st33{clip-path:url(#SVGID_9_);fill:#A05C1F;}
	.st34{clip-path:url(#SVGID_10_);fill:#D97A20;}
	.st35{clip-path:url(#SVGID_10_);fill:#A05C1F;}
	.st36{clip-path:url(#SVGID_11_);fill:#D97A20;}
	.st37{clip-path:url(#SVGID_11_);fill:#A05C1F;}
	.st38{clip-path:url(#SVGID_12_);fill:#A05C1F;}
	.st39{clip-path:url(#SVGID_12_);fill:#D97A20;}
	.st40{fill:#0F4868;}
	.st41{fill:#C5E6F9;}
</style>
<g id="Sergeant">
</g>
<g id="Elton">
</g>
<g id="Fred">
</g>
<g id="Bubbles">
</g>
<g id="Dolores">
</g>
<g id="Dolly">
</g>
<g id="Cosmo">
	<g>
		<polygon class="st0" points="874.3,717.4 765.1,717.4 783.8,671.1 855.5,671.1 		"/>
		<path class="st1" d="M884.6,685.7H754.7V447.4c0-75.8,14.8-179.5,64.9-217.6l0,0l0,0c54.1,35.7,64.9,141.8,64.9,217.6V685.7z"/>
		<path class="st1" d="M819.7,229.8c0,0,18.7,85.5,18.7,204.4c0,80.4,0,251.5,0,251.5h46.3V447.4
			C884.6,371.6,873.8,265.5,819.7,229.8z"/>
	</g>
	<g>
		<polygon class="st0" points="536.8,717.4 427.6,717.4 446.3,671.1 518,671.1 		"/>
		<path class="st1" d="M547.1,685.7H417.2V447.4c0-75.8,14.8-179.5,64.9-217.6l0,0l0,0c54.1,35.7,64.9,141.8,64.9,217.6V685.7z"/>
		<path class="st2" d="M482.2,229.8c0,0,18.7,85.5,18.7,204.4c0,80.4,0,251.5,0,251.5h46.3V447.4
			C547.1,371.6,536.3,265.5,482.2,229.8z"/>
	</g>
	<g>
		<g>
			<defs>
				<path id="SVGID_57_" d="M472.2,843.5l4.7,57.3c0,0,38.1,118.5,163.9,118.5c131.5,0,188.2-113.6,188.2-113.6l2-62.2H472.2z"/>
			</defs>
			<clipPath id="SVGID_1_">
				<use xlink:href="#SVGID_57_"  style="overflow:visible;"/>
			</clipPath>
			<rect x="460.1" y="826.2" class="st3" width="385.1" height="220.7"/>
			<path class="st4" d="M836.6,906.5c18.9,27.2,4.9,73.3-43.5,106.9s-102.8,38.7-121.8,11.5c32.2-9.1,32.7-48.6,74.3-90.2
				C782.6,897.9,817.7,879.3,836.6,906.5z"/>
			<path class="st4" d="M461.7,906.5c-18.9,27.2-4.9,73.3,43.5,106.9s102.8,38.7,121.8,11.5c-32.2-9.1-32.7-48.6-74.4-90.2
				C515.8,897.9,480.6,879.3,461.7,906.5z"/>
		</g>
		<ellipse class="st5" cx="651.6" cy="843.5" rx="179.4" ry="45.7"/>
	</g>
	<g>
		<defs>
			<path id="SVGID_56_" d="M784.4,665.4c0-0.1,0-0.3,0-0.4c0-48.8-59.8-88.4-133.7-88.4s-133.7,39.6-133.7,88.4c0,0.1,0,0.3,0,0.4
				h-10.3c0,0,17.5,90.8,17.5,110.5c0,19.7-7.5,47.2-7.5,47.2h0.2c0,0.1,0,0.3,0,0.4c0,33.1,53.2,53.7,133.7,53.7
				s133.7-19.5,133.7-53.7c0-0.1,0-0.3,0-0.4h0.2c0,0-7.5-27.4-7.5-47.2c0-19.7,17.5-110.5,17.5-110.5H784.4z"/>
		</defs>
		<use xlink:href="#SVGID_56_"  style="overflow:visible;fill:#175884;"/>
		<clipPath id="SVGID_2_">
			<use xlink:href="#SVGID_56_"  style="overflow:visible;"/>
		</clipPath>
		<g class="st6">
			<path class="st7" d="M519.1,800.5c0,0,15.9,44,126.2,42.9c110.3-1.1,138.5-42.9,138.5-42.9"/>
			<path class="st8" d="M522.1,768.5c0,0,15.5,43.1,123.3,42c107.8-1.1,135.3-42,135.3-42"/>
			<path class="st9" d="M517.8,736c0,0,15.9,44.1,126.6,43s139-43,139-43"/>
			<path class="st10" d="M510.7,699.8c0,0,16.7,46,132.7,44.8c116-1.2,145.6-44.8,145.6-44.8"/>
			<path class="st11" d="M503.5,666.9c0,0,17.4,47.6,138,46.4s151.4-46.4,151.4-46.4"/>
		</g>
		<path class="st12" d="M495.5,696.5c0,0-13.8,65.6,119.5,75.7c93,7,151.4-23.8,185.5-42.2c51.1-27.6-60.6-48.1-60.6-48.1
			l-216.3-38.9L495.5,696.5z"/>
	</g>
	<circle class="st0" cx="414.7" cy="434.4" r="108.7"/>
	<circle class="st0" cx="887.5" cy="434.4" r="108.7"/>
	<g>
		<g>
			<g>
				<defs>
					<path id="SVGID_55_" d="M992.6,901.8L965,948.4c0,0-5.1,31.7,3.4,36.9c12.8,7.8,28.1,3.2,28.1,3.2l24.8-75.7L992.6,901.8z"/>
				</defs>
				<clipPath id="SVGID_3_">
					<use xlink:href="#SVGID_55_"  style="overflow:visible;"/>
				</clipPath>
				
					<rect x="944.6" y="923" transform="matrix(0.3558 -0.9346 0.9346 0.3558 -246.9623 1536.589)" class="st13" width="92.9" height="48.9"/>
				<path class="st14" d="M996,990.8c0,0,3.2-11.6-6-16.8l28.9-66.7l9.2,6.4L996,990.8z"/>
				<path class="st15" d="M988.4,886.8l-17.6,44.6c0,0,14.7-10.3,29.9-4.6c13.5,5.2,17.1,14.4,17.1,14.4l13.5-38.1L988.4,886.8z"/>
			</g>
			<path class="st0" d="M992.8,985l-4.8,14.7l-21.8-23.2c0,0,2.6-5.6,12.2-2.8C988.2,976.6,992.3,981.9,992.8,985z"/>
			<path class="st2" d="M995.2,992.9l-21.1,49l-46.8,16.5c0,0-6.4-3.7-2.4-15.4c4-11.7,37.5-26.7,37.5-26.7l12.3-40L995.2,992.9z"/>
			<path class="st5" d="M985.8,987.2c0,0,5.6-13.8-5.7-19.4c-9.8-4.9-16.8,5.5-16.8,5.5l-14.1,40.8c0,0-32.1,23-24.5,37.6l41.3-20
				L985.8,987.2z"/>
			<g>
				<circle class="st0" cx="983.3" cy="948.1" r="14.7"/>
				<g>
					<path class="st2" d="M931.8,964.1c-6.3,13.4-2.3,24.5-2.3,24.5l58.6-25c0,0,7.6-7.1,2.3-18.9c-4.9-10.9-14.6-9.9-14.6-9.9
						l-24,12.1C951.9,946.9,935.8,955.6,931.8,964.1z"/>
					<path class="st1" d="M984.7,937.5c-0.1,0-0.2,0-0.2,0l-24,12.1c0,0-16.1,8.7-20.1,17.2c-3.5,7.4-3.8,14.1-3.4,18.6l-7.5,3.2
						c0,0-4-11.1,2.3-24.5c4-8.5,20.1-17.2,20.1-17.2l24-12.1C975.9,934.8,980.3,934.4,984.7,937.5z"/>
				</g>
			</g>
			<circle class="st0" cx="975.3" cy="977.5" r="6.1"/>
		</g>
		<circle class="st0" cx="1018.1" cy="671.4" r="63.6"/>
		<g>
			<defs>
				<path id="SVGID_54_" d="M884,593.5c0,0,8.6-81.5,52.6-156.4c33.6-57.3,63.7-63.6,63.7-63.6l87.6,275.1c0,0-33.8-0.4-70.3,13.6
					s-65.4,37-65.4,37L884,593.5z"/>
			</defs>
			<clipPath id="SVGID_4_">
				<use xlink:href="#SVGID_54_"  style="overflow:visible;"/>
			</clipPath>
			
				<rect x="832.3" y="364.5" transform="matrix(0.9933 -0.1158 0.1158 0.9933 -55.4698 114.9557)" class="st16" width="258.5" height="340.7"/>
			<path class="st17" d="M1087.9,648.6l-87.6-275.1c0,0-16.7,1.6-46.6,25.6l90.9,255C1069.2,648.3,1087.9,648.6,1087.9,648.6z"/>
		</g>
		<g>
			<path class="st2" d="M956.7,709.3c0,0,47-24.3,87.3-29c40.3-4.7,46.3,4.4,46.3,4.4s-6.6,153.5-53.2,237.4c0,0-50.8,12.5-84.3-8.1
				C952.8,914,953.1,749,956.7,709.3z"/>
			<path class="st5" d="M1045.8,680.2c0.4,25.6-0.5,78.2-11.3,122.2c-8.7,35-31.8,98.5-41,123.2c23.3,1.5,43.6-3.4,43.6-3.4
				c46.6-83.8,53.2-237.4,53.2-237.4S1084.4,676,1045.8,680.2z"/>
		</g>
	</g>
	<g>
		<g>
			<g>
				<defs>
					<path id="SVGID_53_" d="M319.7,901.8l27.6,46.6c0,0,5.1,31.7-3.4,36.9c-12.8,7.8-28.1,3.2-28.1,3.2l-24.8-75.7L319.7,901.8z"/>
				</defs>
				<clipPath id="SVGID_5_">
					<use xlink:href="#SVGID_53_"  style="overflow:visible;"/>
				</clipPath>
				
					<rect x="274.7" y="923" transform="matrix(-0.3558 -0.9346 0.9346 -0.3558 -450.0536 1584.6298)" class="st18" width="92.9" height="48.9"/>
				<path class="st19" d="M316.2,990.8c0,0-3.2-11.6,6-16.8l-28.9-66.7l-9.2,6.4L316.2,990.8z"/>
				<path class="st20" d="M323.8,886.8l17.6,44.6c0,0-14.7-10.3-29.9-4.6c-13.5,5.2-17.1,14.4-17.1,14.4L281,903.1L323.8,886.8z"/>
			</g>
			<path class="st0" d="M319.4,985l4.8,14.7l21.8-23.2c0,0-2.6-5.6-12.2-2.8C324.1,976.6,319.9,981.9,319.4,985z"/>
			<path class="st2" d="M317,992.9l21.1,49l46.8,16.5c0,0,6.4-3.7,2.4-15.4c-4-11.7-37.5-26.7-37.5-26.7l-12.3-40L317,992.9z"/>
			<path class="st5" d="M326.4,987.2c0,0-5.6-13.8,5.7-19.4c9.8-4.9,16.8,5.5,16.8,5.5l14.1,40.8c0,0,32.1,23,24.5,37.6l-41.3-20
				L326.4,987.2z"/>
			<g>
				<circle class="st0" cx="329" cy="948.1" r="14.7"/>
				<g>
					<path class="st2" d="M380.4,964.1c6.3,13.4,2.3,24.5,2.3,24.5l-58.6-25c0,0-7.6-7.1-2.3-18.9c4.9-10.9,14.6-9.9,14.6-9.9
						l24,12.1C360.3,946.9,376.4,955.6,380.4,964.1z"/>
					<path class="st1" d="M327.5,937.5c0.1,0,0.2,0,0.2,0l24,12.1c0,0,16.1,8.7,20.1,17.2c3.5,7.4,3.8,14.1,3.4,18.6l7.5,3.2
						c0,0,4-11.1-2.3-24.5c-4-8.5-20.1-17.2-20.1-17.2l-24-12.1C336.3,934.8,331.9,934.4,327.5,937.5z"/>
				</g>
			</g>
			<circle class="st0" cx="336.9" cy="977.5" r="6.1"/>
		</g>
		<circle class="st0" cx="294.1" cy="671.4" r="63.6"/>
		<g>
			<defs>
				<path id="SVGID_52_" d="M428.2,593.5c0,0-8.6-81.5-52.6-156.4c-33.6-57.3-63.7-63.6-63.7-63.6l-87.6,275.1
					c0,0,33.8-0.4,70.3,13.6s65.4,37,65.4,37L428.2,593.5z"/>
			</defs>
			<clipPath id="SVGID_6_">
				<use xlink:href="#SVGID_52_"  style="overflow:visible;"/>
			</clipPath>
			
				<rect x="221.3" y="364.5" transform="matrix(-0.9933 -0.1158 0.1158 -0.9933 636.9269 1106.7388)" class="st21" width="258.5" height="340.7"/>
			<path class="st22" d="M224.3,648.6l87.6-275.1c0,0,16.7,1.6,46.6,25.6l-90.9,255C243.1,648.3,224.3,648.6,224.3,648.6z"/>
		</g>
		<g>
			<path class="st1" d="M355.6,709.3c0,0-47-24.3-87.3-29s-46.3,4.4-46.3,4.4s6.6,153.5,53.2,237.4c0,0,50.8,12.5,84.3-8.1
				C359.5,914,359.1,749,355.6,709.3z"/>
			<path class="st2" d="M266.4,680.2c-0.4,25.6,0.5,78.2,11.3,122.2c8.7,35,31.8,98.5,41,123.2c-23.3,1.5-43.6-3.4-43.6-3.4
				C228.6,838.3,222,684.8,222,684.8S227.8,676,266.4,680.2z"/>
		</g>
	</g>
	<path class="st23" d="M909.4,315.9c0,34.7-116.3,70.3-259.7,70.3s-259.7-35.6-259.7-70.3s116.3-55.5,259.7-55.5
		S909.4,281.2,909.4,315.9z"/>
	<g>
		<defs>
			<path id="SVGID_51_" d="M828.9,741.9c-41.5,21.1-76.8-43.1-181-43.1c-102.1,0-136.5,63.7-177.3,43.1
				c-33.7-65.8-85.5-169.9-101-226.9c-26.8-98.6-18.2-194.8-18.2-194.8l52.9-26c0,0,109.2,63.8,245.5,84.4
				c138.5-21.6,245-84.4,245-84.4l53.4,26c0,0,11.3,96.3-18.1,194.2C913,571.1,858.8,684.8,828.9,741.9z"/>
		</defs>
		<clipPath id="SVGID_7_">
			<use xlink:href="#SVGID_51_"  style="overflow:visible;"/>
		</clipPath>
		<rect x="325.5" y="271.6" class="st24" width="651.2" height="492.2"/>
		<polygon class="st25" points="342.8,451.1 641.8,332.7 950.7,451.1 983.2,292.1 639.2,232.6 312.5,309.4 		"/>
		<path class="st26" d="M846.9,745.3c-47.6,0-141.2-56.1-201.2-56.1c-60,0-138.5,54.1-195.8,54.1l3.2,33.1l397-5L846.9,745.3z"/>
	</g>
	<g>
		<g>
			<defs>
				<path id="SVGID_50_" d="M855,269.9c-10.5,20-81.9,75.2-204.1,86c-116.8-11.9-186.1-50.8-204.1-86
					c19.9-102.2,91.4-186.6,204.1-186.6S829.4,166.9,855,269.9z"/>
			</defs>
			<clipPath id="SVGID_8_">
				<use xlink:href="#SVGID_50_"  style="overflow:visible;"/>
			</clipPath>
			<rect x="413.1" y="75.2" class="st27" width="475.9" height="294"/>
			<path class="st28" d="M526.5,150.4c0,0,38.3,21.9,124.4,21.9s122.2-21.9,122.2-21.9s17,18.4,27,34.3
				c8.9,14.2,18.9,41.6,18.9,41.6S762.4,290,650.9,290c-121.6,0-170.6-66-170.6-66s8.7-23,20.2-42.2
				C510.2,165.5,526.5,150.4,526.5,150.4z"/>
			
				<ellipse transform="matrix(0.996 -8.925285e-02 8.925285e-02 0.996 -16.2671 65.2242)" class="st29" cx="721.2" cy="214.5" rx="15.7" ry="24.7"/>
			
				<ellipse transform="matrix(8.925285e-02 -0.996 0.996 8.925285e-02 313.4925 771.8558)" class="st29" cx="578.8" cy="214.5" rx="24.7" ry="15.7"/>
			<path class="st30" d="M439.9,261.8c0,0,33.5,33.5,68.1,46.5c34.6,13,110.3,29.2,142.8,32.4c0,0,104.9-13,204.1-70.9l13.3,8.1
				c0,0-126.6,80-129.8,80c-3.2,0-89.8,9.7-89.8,9.7l-192.5-53L439.9,261.8z"/>
			<line class="st31" x1="620.8" y1="260.6" x2="682.9" y2="260.6"/>
		</g>
	</g>
	<g>
		<ellipse class="st23" cx="785.3" cy="1152.4" rx="53.3" ry="21.7"/>
		<g>
			<defs>
				<path id="SVGID_49_" d="M784.3,1283.7c21.8-0.2,26.2-8.2,26.2-8.2l3,15.9c0,0,8.6,23.8,9.9,25.9c5.3,8.7,7.1,19.9,4.4,28
					c-2,5.9-65.5,9-77.5,1.1c-12-7.9,1.5-31.8,3-38.1c1.4-6,6-30.6,6-30.6S764.6,1283.9,784.3,1283.7z"/>
			</defs>
			<clipPath id="SVGID_9_">
				<use xlink:href="#SVGID_49_"  style="overflow:visible;"/>
			</clipPath>
			<rect x="743.2" y="1257.5" class="st32" width="88.8" height="97.8"/>
			<path class="st33" d="M742.1,1330.1c0,0,5.2,7.5,44.2,7.5c39,0,32.2-4.9,32.2-10.5c0-5.6-10.3-30.2-9.4-37.8
				c0.9-7.7,3-36.3,3-36.3l19.1,23.2l18,76.1l-108.7,1.1L742.1,1330.1z"/>
		</g>
		<circle class="st0" cx="786.2" cy="1138.9" r="51.3"/>
		<g>
			<defs>
				<path id="SVGID_48_" d="M729.1,1153.2c0,0-15.4-67.3-17-137.9c13.5-65.1,68.3-107.4,89.2-106.8c34.1,1,63.4,31.8,53.7,138.8
					c-9.7,107-14,104.9-14,104.9s-16.1-26.6-57.5-26.6C760.3,1125.6,734.3,1136.6,729.1,1153.2z"/>
			</defs>
			<clipPath id="SVGID_10_">
				<use xlink:href="#SVGID_48_"  style="overflow:visible;"/>
			</clipPath>
			<rect x="691.3" y="901.2" class="st34" width="188.2" height="261.2"/>
			<polygon class="st35" points="811.4,886.6 800,1165.7 858.4,1173.8 876.3,912.6 			"/>
		</g>
		<path class="st1" d="M819.4,1280.5c0,0-4.3,20.6-34.4,20.6c-29.2,0-33.3-20.6-33.3-20.6s-13.7-45.4-16.3-71.2
			c-1.9-18.4-3.4-56.9-3.4-56.9s10.5,20.6,53,20.6c43.4,0,54.1-20.6,54.1-20.6s-1.2,38-3,56.2
			C833.5,1234.6,819.4,1280.5,819.4,1280.5z"/>
	</g>
	<g>
		<ellipse class="st23" cx="515.8" cy="1152.4" rx="53.3" ry="21.7"/>
		<g>
			<defs>
				<path id="SVGID_46_" d="M516.8,1283.7c-21.8-0.2-26.2-8.2-26.2-8.2l-3,15.9c0,0-8.6,23.8-9.9,25.9c-5.3,8.7-7.1,19.9-4.4,28
					c2,5.9,65.5,9,77.5,1.1c12-7.9-1.5-31.8-3-38.1c-1.4-6-6-30.6-6-30.6S536.4,1283.9,516.8,1283.7z"/>
			</defs>
			<clipPath id="SVGID_11_">
				<use xlink:href="#SVGID_46_"  style="overflow:visible;"/>
			</clipPath>
			
				<rect x="469.1" y="1257.5" transform="matrix(-1 1.349151e-10 -1.349151e-10 -1 1026.9194 2612.7)" class="st36" width="88.8" height="97.8"/>
			<path class="st37" d="M470.6,1330.1c0,0,5.2,7.5,44.2,7.5c39,0,32.2-4.9,32.2-10.5c0-5.6-10.3-30.2-9.4-37.8
				c0.9-7.7,3-36.3,3-36.3l19.1,23.2l18,76.1l-108.7,1.1L470.6,1330.1z"/>
		</g>
		<circle class="st0" cx="514.9" cy="1138.9" r="51.3"/>
		<g>
			<defs>
				<path id="SVGID_44_" d="M572,1153.2c0,0,15.4-67.3,17-137.9c-13.5-65.1-68.3-107.4-89.2-106.8c-34.1,1-63.4,31.8-53.7,138.8
					c9.7,107,14,104.9,14,104.9s16.1-26.6,57.5-26.6C540.8,1125.6,566.8,1136.6,572,1153.2z"/>
			</defs>
			<clipPath id="SVGID_12_">
				<use xlink:href="#SVGID_44_"  style="overflow:visible;"/>
			</clipPath>
			
				<rect x="421.6" y="901.2" transform="matrix(-1 4.493771e-11 -4.493771e-11 -1 1031.3796 2063.6467)" class="st38" width="188.2" height="261.2"/>
			<polygon class="st39" points="489.7,886.6 501.1,1165.7 442.7,1173.8 424.8,912.6 			"/>
		</g>
		<path class="st1" d="M481.7,1280.5c0,0,4.3,20.6,34.4,20.6c29.2,0,33.3-20.6,33.3-20.6s13.7-45.4,16.3-71.2
			c1.9-18.4,3.4-56.9,3.4-56.9s-10.5,20.6-53,20.6c-43.4,0-54.1-20.6-54.1-20.6s1.2,38,3,56.2
			C467.6,1234.6,481.7,1280.5,481.7,1280.5z"/>
	</g>
	<rect x="643" y="29.6" class="st5" width="14.6" height="75.7"/>
	<g>
		<g>
			<path class="st1" d="M588,631.6l-50.2,6.5c0,0-19.1-78.1-23.5-98c-4.4-20-11.6-61.6-11.6-61.6l3.4-4.3l46.8-2.3
				c0,0,7,40.5,11.3,60.1c3.9,17.9,23.6,80.5,27.2,95.3C589.1,630.2,588,631.6,588,631.6z"/>
			<path class="st0" d="M591.4,627.3l-50.2,6.5c0,0-19.1-78.1-23.5-98c-4.4-20-11.6-61.6-11.6-61.6l50.2-6.5c0,0,7,40.5,11.3,60.1
				C572.1,548.1,591.4,627.3,591.4,627.3z"/>
		</g>
		<g>
			<g>
				<g>
					<rect x="631.2" y="556.2" class="st40" width="30.3" height="2.4"/>
					<circle class="st40" cx="646.3" cy="556.2" r="15.1"/>
					<circle class="st0" cx="646.3" cy="558.6" r="15.1"/>
				</g>
			</g>
			<g>
				<g>
					<rect x="754.2" y="556.2" class="st40" width="30.3" height="2.4"/>
					<circle class="st40" cx="769.4" cy="556.2" r="15.1"/>
					<circle class="st0" cx="769.4" cy="558.6" r="15.1"/>
				</g>
			</g>
			<g>
				<g>
					<rect x="692.7" y="556.2" class="st40" width="30.3" height="2.4"/>
					<circle class="st40" cx="707.9" cy="556.2" r="15.1"/>
					<circle class="st0" cx="707.9" cy="558.6" r="15.1"/>
				</g>
			</g>
			<g>
				<g>
					<rect x="631.2" y="611.9" class="st40" width="30.3" height="2.4"/>
					<circle class="st40" cx="646.3" cy="611.9" r="15.1"/>
					<circle class="st0" cx="646.3" cy="614.3" r="15.1"/>
				</g>
			</g>
			<g>
				<g>
					<rect x="754.2" y="611.9" class="st40" width="30.3" height="2.4"/>
					<circle class="st40" cx="769.4" cy="611.9" r="15.1"/>
					<circle class="st0" cx="769.4" cy="614.3" r="15.1"/>
				</g>
			</g>
			<g>
				<g>
					<rect x="692.7" y="611.9" class="st40" width="30.3" height="2.4"/>
					<circle class="st40" cx="707.9" cy="611.9" r="15.1"/>
					<circle class="st0" cx="707.9" cy="614.3" r="15.1"/>
				</g>
			</g>
		</g>
		<g>
			<path class="st1" d="M785,521.3c0-36.5-34.4-66-76.9-66s-76.9,29.6-76.9,66H785z"/>
			<path class="st41" d="M781.8,517.5c0-34.9-33-63.3-73.8-63.3c-40.7,0-73.8,28.3-73.8,63.3H781.8z"/>
			<polygon class="st0" points="736.3,470.7 704.2,510.4 712.7,516 			"/>
		</g>
	</g>
</g>
<g id="Belle">
</g>
<g id="Rivet">
</g>
<g id="Spring">
</g>
<g id="Eileen">
</g>
<g id="Levi">
</g>
<g id="Oscar">
</g>
<g id="Rex">
</g>
</svg>
