<?xml version="1.0" encoding="utf-8"?>
<!-- Generator: Adobe Illustrator 24.2.1, SVG Export Plug-In . SVG Version: 6.00 Build 0)  -->
<svg version="1.1" xmlns="http://www.w3.org/2000/svg" xmlns:xlink="http://www.w3.org/1999/xlink" x="0px" y="0px"
	 viewBox="0 0 1336.9 1389.3" style="enable-background:new 0 0 1336.9 1389.3;" xml:space="preserve">
<style type="text/css">
	.st0{clip-path:url(#SVGID_1_);fill:#324F6B;}
	.st1{clip-path:url(#SVGID_1_);fill:#8A96AB;}
	.st2{fill:#D8B405;}
	.st3{fill:#B98C02;}
	.st4{fill:#8A96AB;}
	.st5{fill:#FFDE17;}
	.st6{fill:#B8C1CA;}
	.st7{fill:#DDDDDD;}
	.st8{clip-path:url(#SVGID_2_);fill:#D04248;}
	.st9{clip-path:url(#SVGID_2_);fill:#BC353F;}
	.st10{clip-path:url(#SVGID_2_);fill:#752832;}
	.st11{fill:#752832;}
	.st12{clip-path:url(#SVGID_3_);fill:#D04248;}
	.st13{clip-path:url(#SVGID_3_);fill:#BC353F;}
	.st14{clip-path:url(#SVGID_3_);fill:#752832;}
	.st15{clip-path:url(#SVGID_4_);fill:#FFDE17;}
	.st16{clip-path:url(#SVGID_4_);fill:#D8B405;}
	.st17{clip-path:url(#SVGID_5_);fill:#C5E6F9;}
	.st18{clip-path:url(#SVGID_5_);fill:#D8B405;}
	.st19{clip-path:url(#SVGID_5_);fill:#FFDE17;}
	.st20{clip-path:url(#SVGID_5_);fill:#324F6B;}
	.st21{clip-path:url(#SVGID_5_);fill:#AADEF7;}
	.st22{clip-path:url(#SVGID_6_);fill:#FFDE17;}
	.st23{clip-path:url(#SVGID_6_);fill:#D8B405;}
	.st24{clip-path:url(#SVGID_7_);fill:#752832;}
	.st25{clip-path:url(#SVGID_7_);fill:#BC353F;}
	.st26{clip-path:url(#SVGID_7_);fill:none;stroke:#D8B405;stroke-width:3.4822;stroke-miterlimit:10;}
	.st27{clip-path:url(#SVGID_8_);}
	.st28{fill:#113654;}
	.st29{clip-path:url(#SVGID_9_);fill:#D04248;}
	.st30{clip-path:url(#SVGID_9_);fill:#BC353F;}
	.st31{clip-path:url(#SVGID_10_);fill:#324F6B;}
	.st32{clip-path:url(#SVGID_10_);fill:none;}
	.st33{clip-path:url(#SVGID_10_);fill:#8A96AB;}
</style>
<g id="Sergeant">
</g>
<g id="Elton">
</g>
<g id="Fred">
</g>
<g id="Bubbles">
</g>
<g id="Dolores">
</g>
<g id="Dolly">
	<g>
		<g>
			<defs>
				<rect id="SVGID_42_" x="254.2" y="567.7" width="760.2" height="155.4"/>
			</defs>
			<clipPath id="SVGID_1_">
				<use xlink:href="#SVGID_42_"  style="overflow:visible;"/>
			</clipPath>
			<path class="st0" d="M1011.7,749.7c0-6.2-1.6-12.3-4.7-18.2l-55.1-1.5c0,0,0,0,0,0c-0.6-1-1.3-1.9-2-2.9c-0.5-0.6-1-1.2-1.5-1.9
				c-0.2-0.3-0.5-0.6-0.7-0.9c-0.7-0.8-1.4-1.6-2.1-2.4c-0.1-0.1-0.2-0.2-0.2-0.2c-0.8-0.9-1.7-1.7-2.6-2.6c0,0,0,0,0,0v0
				c-0.6-0.5-1.1-1.1-1.7-1.6l42.6-9.9c0,0,0,0,0,0l1.9-0.4l0.1,0c-7.1-5.7-15.7-11.1-25.5-16.3l-53.1,4.8c-0.1-0.1-0.2-0.1-0.3-0.2
				c-1.7-0.8-3.5-1.6-5.2-2.4c-1.5-0.7-2.9-1.3-4.4-1.9c-0.4-0.2-0.8-0.4-1.2-0.5c-4.5-1.9-9.3-3.8-14.2-5.6l29.6-14.6
				c-13.1-4.4-27.3-8.5-42.4-12.2l0,0l0,0l-44,10.4c-0.4-0.1-0.7-0.2-1.1-0.2c-2.5-0.6-5.1-1.1-7.6-1.7c-9.1-1.9-18.5-3.7-28.2-5.3
				l10.5-16.9c-17.1-2.6-35-4.8-53.5-6.5l0,0l0,0l-28.9,14.7c-14.1-1.1-28.6-2-43.3-2.5l-9.9-16.9c-9.5-0.2-19-0.3-28.7-0.3
				c-4.6,0-9.3,0-13.9,0.1c-0.7,0-1.4,0-2.1,0c-4.2,0.1-8.5,0.1-12.7,0.2l0,0l0,0l-9.9,16.9c-14.8,0.5-29.2,1.4-43.3,2.5l-28.9-14.7
				c-5.8,0.6-11.5,1.2-17.2,1.8c-7.1,0.8-14.1,1.7-21,2.6c-5.1,0.7-10.2,1.4-15.2,2.1l0,0l0,0l1.1,1.8v0l9.4,15.1
				c-6.6,1.1-13.1,2.3-19.4,3.5c-0.1,0-0.3,0.1-0.4,0.1c-2.8,0.6-5.6,1.1-8.4,1.7c-2.9,0.6-5.8,1.3-8.7,1.9l-43.9-10.4v0v0
				c-15.1,3.7-29.3,7.8-42.4,12.2l2.4,1.2c0,0,0,0,0,0L387,685c-0.8,0.3-1.5,0.6-2.3,0.9v0c0,0,0,0,0,0c-2.1,0.8-4.1,1.6-6.1,2.3
				c0,0-0.1,0-0.1,0.1c-1.9,0.8-3.8,1.5-5.7,2.3c-0.5,0.2-0.9,0.4-1.4,0.6c-1.4,0.6-2.9,1.2-4.2,1.8c-1.9,0.9-3.8,1.7-5.6,2.6
				l-53.1-4.8l0,0l0,0c-9.8,5.2-18.3,10.6-25.5,16.3l2,0.5c0,0,0,0,0,0l42.6,9.9c-0.6,0.5-1.1,1.1-1.7,1.6v0c0,0,0,0,0,0
				c-0.9,0.9-1.7,1.7-2.5,2.6c-0.1,0.1-0.2,0.2-0.3,0.3c-0.7,0.8-1.4,1.6-2.1,2.4c-0.3,0.3-0.5,0.6-0.7,0.9c-0.5,0.6-1,1.2-1.5,1.8
				c-0.7,1-1.4,1.9-2,2.9l-5.2,0.1l-49.8,1.3l0,0l0,0c-3,5.9-4.6,12-4.7,18.2l0.1,0c0,0,0,0,0,0l53.5,4.6c0.6,4.2,2,8.4,4.2,12.5
				l-0.9,0.1l0,0l-48.8,7.4c0.1,0.1,0.2,0.2,0.2,0.3c4.2,6,9.7,11.8,16.7,17.4l55.5-1.7c5.3,3.7,11.3,7.3,17.9,10.8l-2.3,0.8v0
				l-35.2,11.9c0.3,0.2,0.7,0.3,1.1,0.5c10.7,5,22.6,9.8,35.6,14.3l49.7-7.8c9,2.8,18.5,5.4,28.4,7.9l-13.8,10.9l-6.5,5.1
				c0.2,0,0.4,0.1,0.5,0.1c16.1,3.6,33.2,6.9,51.1,9.7l37.2-12.8c11.4,1.6,23.1,3,35.1,4.2l0,2c0,0,0,0,0,0l-0.3,15.2c0,0,0,0,0,0v0
				c19.3,1.6,39.2,2.8,59.7,3.4l19.8-16.1c6.2,0.1,12.4,0.2,18.6,0.2c6.3,0,12.5-0.1,18.6-0.2l19.8,16.1c20.4-0.6,40.3-1.8,59.7-3.4
				v0c0,0,0,0,0,0c0,0,0,0,0,0l-0.1-2.9l-0.2-12.3c0,0,0,0,0,0l0-2c12-1.2,23.7-2.6,35.1-4.2l37.2,12.8c18.1-2.8,35.3-6.1,51.6-9.8
				l-20.3-16c10-2.5,19.5-5.1,28.4-7.9l49.7,7.8c13.4-4.6,25.7-9.5,36.7-14.8l-37.5-12.6c6.7-3.5,12.7-7.1,17.9-10.8l55.5,1.7
				c6.4-5.1,11.6-10.5,15.6-15.9l0,0c0.2-0.3,0.4-0.5,0.6-0.8c0.2-0.3,0.5-0.7,0.8-1l-49.7-7.6c2.2-4.1,3.6-8.2,4.2-12.5l53.5-4.6
				c0,0,0,0,0,0L1011.7,749.7L1011.7,749.7L1011.7,749.7z M906.3,750.6C906.3,750.6,906.3,750.6,906.3,750.6
				c-0.8,20.2-24.4,38.7-63.1,53.1c0,0-0.1,0-0.1,0c-2.7,1-5.5,2-8.4,3c-0.1,0-0.3,0.1-0.4,0.1c-2.8,0.9-5.6,1.9-8.6,2.8
				c-0.2,0.1-0.5,0.1-0.7,0.2c-2.8,0.9-5.7,1.7-8.7,2.5c-0.4,0.1-0.8,0.2-1.1,0.3c-2.8,0.8-5.7,1.6-8.7,2.3c-0.5,0.1-1,0.2-1.5,0.4
				c-2.9,0.7-5.7,1.4-8.7,2.1c-0.6,0.1-1.3,0.3-2,0.4c-2.8,0.6-5.7,1.3-8.6,1.9c-0.8,0.2-1.6,0.3-2.5,0.5c-2.8,0.6-5.6,1.1-8.5,1.7
				c-1,0.2-2,0.4-3,0.5c-2.8,0.5-5.5,1-8.3,1.5c-1.1,0.2-2.3,0.4-3.5,0.6c-2.7,0.4-5.4,0.9-8.2,1.3c-1.3,0.2-2.7,0.4-4.1,0.6
				c-2.6,0.4-5.2,0.8-7.9,1.1c-1.5,0.2-3.1,0.4-4.6,0.6c-2.5,0.3-5.1,0.6-7.7,0.9c-1.7,0.2-3.5,0.4-5.2,0.5
				c-2.4,0.3-4.9,0.5-7.4,0.8c-1.9,0.2-3.9,0.3-5.8,0.5c-2.3,0.2-4.7,0.4-7.1,0.6c-2.1,0.2-4.2,0.3-6.3,0.5
				c-2.3,0.2-4.5,0.3-6.8,0.5c-2.3,0.1-4.7,0.3-7,0.4c-2.1,0.1-4.2,0.2-6.3,0.3c-2.6,0.1-5.3,0.2-7.9,0.3c-1.9,0.1-3.7,0.2-5.6,0.2
				c-3.1,0.1-6.2,0.2-9.2,0.2c-1.5,0-3,0.1-4.5,0.1c-4.6,0.1-9.3,0.1-13.9,0.1c-4.7,0-9.3,0-14-0.1c-1.5,0-3-0.1-4.4-0.1
				c-3.1-0.1-6.2-0.1-9.3-0.2c-1.9-0.1-3.7-0.1-5.5-0.2c-2.7-0.1-5.4-0.2-8-0.3c-2.1-0.1-4.1-0.2-6.2-0.3c-2.4-0.1-4.8-0.2-7.2-0.4
				c-2.2-0.1-4.4-0.3-6.7-0.5c-2.1-0.2-4.3-0.3-6.4-0.5c-2.3-0.2-4.6-0.4-7-0.6c-2-0.2-3.9-0.3-5.9-0.5c-2.4-0.2-4.8-0.5-7.3-0.8
				c-1.8-0.2-3.6-0.4-5.3-0.6c-2.5-0.3-5-0.6-7.5-0.9c-1.6-0.2-3.2-0.4-4.7-0.6c-2.6-0.3-5.2-0.7-7.8-1.1c-1.4-0.2-2.8-0.4-4.2-0.6
				c-2.7-0.4-5.4-0.8-8-1.3c-1.2-0.2-2.4-0.4-3.6-0.6c-2.8-0.5-5.5-1-8.2-1.5c-1-0.2-2.1-0.4-3.1-0.6c-2.8-0.5-5.6-1.1-8.4-1.7
				c-0.8-0.2-1.7-0.3-2.6-0.5c-2.9-0.6-5.7-1.2-8.6-1.9c-0.7-0.2-1.4-0.3-2-0.5c-2.9-0.7-5.8-1.4-8.6-2.1c-0.5-0.1-1.1-0.3-1.6-0.4
				c-2.9-0.7-5.8-1.5-8.6-2.3c-0.4-0.1-0.8-0.2-1.2-0.3c-2.9-0.8-5.8-1.7-8.6-2.5c-0.3-0.1-0.6-0.2-0.8-0.2
				c-2.9-0.9-5.7-1.8-8.5-2.7c-0.2-0.1-0.3-0.1-0.5-0.2c-2.8-1-5.6-1.9-8.3-2.9c-0.1,0-0.1-0.1-0.2-0.1
				c-38.8-14.4-62.4-32.9-63.1-53.1c0,0,0,0,0,0c0-0.3-0.1-0.7-0.1-1c0-46.6,121.8-84.5,272-84.5c150.2,0,272,37.8,272,84.5
				C906.4,749.9,906.3,750.3,906.3,750.6z"/>
			<polygon class="st0" points="283,683.6 283,707.1 327.7,717.5 257.1,726.1 257.1,749.7 322.7,743.7 265.6,751.1 265.3,774.3 
				282.3,792.1 321,780.2 318.2,790.3 318.2,813.8 354.9,828.6 404.6,820.8 412.7,821.1 413.2,844.8 464.3,854.5 501.5,841.6 
				536.6,845.8 544.6,813.5 466.6,805.8 385.4,780.2 356.6,741.7 351.6,700.8 337.7,685.7 			"/>
			<path class="st0" d="M596,866.4l12.2-18.8l43-3.2l81.3,18.7v-23.5l21.7-5.1l47.4,10.6l54.5-0.3v-23.5l17.3-10l77.3,2.7v-23.5
				l27.2-7.7l25.6-8.2v-23.5l-0.6-5.6l8.8,4.5v-23.5l-23.8-8.9l-2.2-10.1v-23.5l-47.8-4.7l-15.9,32.1c0,0-0.9,36.2-29.4,53.9
				c-28.5,17.7-92.1,44.1-142.7,45.9s-153.6,9.4-153.6,9.4L596,866.4z"/>
			<polygon class="st0" points="357.4,646.8 357.4,670.4 388.5,680.2 429.7,680.7 471.3,646.3 			"/>
			<polygon class="st0" points="911.3,646.8 911.3,670.4 857.6,686.6 736.4,666 764.6,623.1 798.6,620.9 798.6,644.4 841.1,658.4 
							"/>
			<path class="st1" d="M1011.7,726.1c0-6.2-1.6-12.3-4.7-18.2l-55.1-1.5c0,0,0,0,0,0c-0.6-1-1.3-1.9-2-2.9c-0.5-0.6-1-1.2-1.5-1.9
				c-0.2-0.3-0.5-0.6-0.7-0.9c-0.7-0.8-1.4-1.6-2.1-2.4c-0.1-0.1-0.2-0.2-0.2-0.2c-0.8-0.9-1.7-1.7-2.6-2.6c0,0,0,0,0,0v0
				c-0.6-0.5-1.1-1.1-1.7-1.6l42.6-9.9c0,0,0,0,0,0l1.9-0.4l0.1,0c-7.1-5.7-15.7-11.1-25.5-16.3l-53.1,4.8c-0.1-0.1-0.2-0.1-0.3-0.2
				c-1.7-0.8-3.5-1.6-5.2-2.4c-1.5-0.7-2.9-1.3-4.4-1.9c-0.4-0.2-0.8-0.4-1.2-0.5c-4.5-1.9-9.3-3.8-14.2-5.6l29.6-14.6
				c-13.1-4.4-27.3-8.5-42.4-12.2l0,0l0,0L825,645c-0.4-0.1-0.7-0.2-1.1-0.2c-2.5-0.6-5.1-1.1-7.6-1.7c-9.1-1.9-18.5-3.7-28.2-5.3
				l10.5-16.9c-17.1-2.6-35-4.8-53.5-6.5l0,0l0,0L716.3,629c-14.1-1.1-28.6-2-43.3-2.5l-9.9-16.9c-9.5-0.2-19-0.3-28.7-0.3
				c-4.6,0-9.3,0-13.9,0.1c-0.7,0-1.4,0-2.1,0c-4.2,0.1-8.5,0.1-12.7,0.2l0,0l0,0l-9.9,16.9c-14.8,0.5-29.2,1.4-43.3,2.5l-28.9-14.7
				c-5.8,0.6-11.5,1.2-17.2,1.8c-7.1,0.8-14.1,1.7-21,2.6c-5.1,0.7-10.2,1.4-15.2,2.1l0,0l0,0l1.1,1.8v0l9.4,15.1
				c-6.6,1.1-13.1,2.3-19.4,3.5c-0.1,0-0.3,0.1-0.4,0.1c-2.8,0.6-5.6,1.1-8.4,1.7c-2.9,0.6-5.8,1.3-8.7,1.9l-43.9-10.4v0v0
				c-15.1,3.7-29.3,7.8-42.4,12.2l2.4,1.2c0,0,0,0,0,0l27.1,13.4c-0.8,0.3-1.5,0.6-2.3,0.9v0c0,0,0,0,0,0c-2.1,0.8-4.1,1.6-6.1,2.3
				c0,0-0.1,0-0.1,0.1c-1.9,0.8-3.8,1.5-5.7,2.3c-0.5,0.2-0.9,0.4-1.4,0.6c-1.4,0.6-2.9,1.2-4.2,1.8c-1.9,0.9-3.8,1.7-5.6,2.6
				l-53.1-4.8l0,0l0,0c-9.8,5.2-18.3,10.6-25.5,16.3l2,0.5c0,0,0,0,0,0l42.6,9.9c-0.6,0.5-1.1,1.1-1.7,1.6v0c0,0,0,0,0,0
				c-0.9,0.9-1.7,1.7-2.5,2.6c-0.1,0.1-0.2,0.2-0.3,0.3c-0.7,0.8-1.4,1.6-2.1,2.4c-0.3,0.3-0.5,0.6-0.7,0.9c-0.5,0.6-1,1.2-1.5,1.8
				c-0.7,1-1.4,1.9-2,2.9l-5.2,0.1l-49.8,1.3l0,0l0,0c-3,5.9-4.6,12-4.7,18.2l0.1,0c0,0,0,0,0,0l53.5,4.6c0.6,4.2,2,8.4,4.2,12.5
				l-0.9,0.1l0,0l-48.8,7.4c0.1,0.1,0.2,0.2,0.2,0.3c4.2,6,9.7,11.8,16.7,17.4l55.5-1.7c5.3,3.7,11.3,7.3,17.9,10.8l-2.3,0.8v0
				l-35.2,11.9c0.3,0.2,0.7,0.3,1.1,0.5c10.7,5,22.6,9.8,35.6,14.3l49.7-7.8c9,2.8,18.5,5.4,28.4,7.9L419.2,816l-6.5,5.1
				c0.2,0,0.4,0.1,0.5,0.1c16.1,3.6,33.2,6.9,51.1,9.7l37.2-12.8c11.4,1.6,23.1,3,35.1,4.2l0,2c0,0,0,0,0,0l-0.3,15.2c0,0,0,0,0,0v0
				c19.3,1.6,39.2,2.8,59.7,3.4l19.8-16.1c6.2,0.1,12.4,0.2,18.6,0.2c6.3,0,12.5-0.1,18.6-0.2l19.8,16.1c20.4-0.6,40.3-1.8,59.7-3.4
				v0c0,0,0,0,0,0c0,0,0,0,0,0l-0.1-2.9l-0.2-12.3c0,0,0,0,0,0l0-2c12-1.2,23.7-2.6,35.1-4.2l37.2,12.8c18.1-2.8,35.3-6.1,51.6-9.8
				l-20.3-16c10-2.5,19.5-5.1,28.4-7.9l49.7,7.8c13.4-4.6,25.7-9.5,36.7-14.8l-37.5-12.6c6.7-3.5,12.7-7.1,17.9-10.8l55.5,1.7
				c6.4-5.1,11.6-10.5,15.6-15.9l0,0c0.2-0.3,0.4-0.5,0.6-0.8c0.2-0.3,0.5-0.7,0.8-1l-49.7-7.6c2.2-4.1,3.6-8.2,4.2-12.5l53.5-4.6
				c0,0,0,0,0,0L1011.7,726.1L1011.7,726.1L1011.7,726.1z M906.3,727.1C906.3,727.1,906.3,727.1,906.3,727.1
				c-0.8,20.2-24.4,38.7-63.1,53.1c0,0-0.1,0-0.1,0c-2.7,1-5.5,2-8.4,3c-0.1,0-0.3,0.1-0.4,0.1c-2.8,0.9-5.6,1.9-8.6,2.8
				c-0.2,0.1-0.5,0.1-0.7,0.2c-2.8,0.9-5.7,1.7-8.7,2.5c-0.4,0.1-0.8,0.2-1.1,0.3c-2.8,0.8-5.7,1.6-8.7,2.3c-0.5,0.1-1,0.2-1.5,0.4
				c-2.9,0.7-5.7,1.4-8.7,2.1c-0.6,0.1-1.3,0.3-2,0.4c-2.8,0.6-5.7,1.3-8.6,1.9c-0.8,0.2-1.6,0.3-2.5,0.5c-2.8,0.6-5.6,1.1-8.5,1.7
				c-1,0.2-2,0.4-3,0.5c-2.8,0.5-5.5,1-8.3,1.5c-1.1,0.2-2.3,0.4-3.5,0.6c-2.7,0.4-5.4,0.9-8.2,1.3c-1.3,0.2-2.7,0.4-4.1,0.6
				c-2.6,0.4-5.2,0.8-7.9,1.1c-1.5,0.2-3.1,0.4-4.6,0.6c-2.5,0.3-5.1,0.6-7.7,0.9c-1.7,0.2-3.5,0.4-5.2,0.5
				c-2.4,0.3-4.9,0.5-7.4,0.8c-1.9,0.2-3.9,0.3-5.8,0.5c-2.3,0.2-4.7,0.4-7.1,0.6c-2.1,0.2-4.2,0.3-6.3,0.5
				c-2.3,0.2-4.5,0.3-6.8,0.5c-2.3,0.1-4.7,0.3-7,0.4c-2.1,0.1-4.2,0.2-6.3,0.3c-2.6,0.1-5.3,0.2-7.9,0.3c-1.9,0.1-3.7,0.2-5.6,0.2
				c-3.1,0.1-6.2,0.2-9.2,0.2c-1.5,0-3,0.1-4.5,0.1c-4.6,0.1-9.3,0.1-13.9,0.1c-4.7,0-9.3,0-14-0.1c-1.5,0-3-0.1-4.4-0.1
				c-3.1-0.1-6.2-0.1-9.3-0.2c-1.9-0.1-3.7-0.1-5.5-0.2c-2.7-0.1-5.4-0.2-8-0.3c-2.1-0.1-4.1-0.2-6.2-0.3c-2.4-0.1-4.8-0.2-7.2-0.4
				c-2.2-0.1-4.4-0.3-6.7-0.5c-2.1-0.2-4.3-0.3-6.4-0.5c-2.3-0.2-4.6-0.4-7-0.6c-2-0.2-3.9-0.3-5.9-0.5c-2.4-0.2-4.8-0.5-7.3-0.8
				c-1.8-0.2-3.6-0.4-5.3-0.6c-2.5-0.3-5-0.6-7.5-0.9c-1.6-0.2-3.2-0.4-4.7-0.6c-2.6-0.3-5.2-0.7-7.8-1.1c-1.4-0.2-2.8-0.4-4.2-0.6
				c-2.7-0.4-5.4-0.8-8-1.3c-1.2-0.2-2.4-0.4-3.6-0.6c-2.8-0.5-5.5-1-8.2-1.5c-1-0.2-2.1-0.4-3.1-0.6c-2.8-0.5-5.6-1.1-8.4-1.7
				c-0.8-0.2-1.7-0.3-2.6-0.5c-2.9-0.6-5.7-1.2-8.6-1.9c-0.7-0.2-1.4-0.3-2-0.5c-2.9-0.7-5.8-1.4-8.6-2.1c-0.5-0.1-1.1-0.3-1.6-0.4
				c-2.9-0.7-5.8-1.5-8.6-2.3c-0.4-0.1-0.8-0.2-1.2-0.3c-2.9-0.8-5.8-1.7-8.6-2.5c-0.3-0.1-0.6-0.2-0.8-0.2
				c-2.9-0.9-5.7-1.8-8.5-2.7c-0.2-0.1-0.3-0.1-0.5-0.2c-2.8-1-5.6-1.9-8.3-2.9c-0.1,0-0.1-0.1-0.2-0.1
				c-38.8-14.4-62.4-32.9-63.1-53.1c0,0,0,0,0,0c0-0.3-0.1-0.7-0.1-1c0-46.6,121.8-84.5,272-84.5c150.2,0,272,37.8,272,84.5
				C906.4,726.4,906.3,726.7,906.3,727.1z"/>
		</g>
		<g>
			<g>
				<g>
					<g>
						<path class="st2" d="M420.1,633.8c-9.1,12.6-26.7,8-39.2-10.1c-12.5-18.2-15.1-43.2-6-55.8l7.8,11.5c-6,8.2-4.2,24.5,3.9,36.4
							s19.6,14.8,25.5,6.6L420.1,633.8z"/>
					</g>
					<g>
						<path class="st3" d="M424.6,627.7c9.1-12.6,6.4-37.6-6-55.8c-12.5-18.2-30-22.7-39.2-10.1l7.8,11.5c6-8.2,17.4-5.2,25.6,6.6
							s9.9,28.2,3.9,36.4L424.6,627.7z"/>
					</g>
					<g>
						
							<ellipse transform="matrix(0.9355 -0.3534 0.3534 0.9355 -176.0036 170.4646)" class="st4" cx="378.9" cy="567.3" rx="11.4" ry="18.7"/>
					</g>
				</g>
				<polygon class="st2" points="416.7,616.2 453.5,603.8 461.4,615.3 424.6,627.7 				"/>
				<path class="st3" d="M416.7,616.2l9.4-8.3l-7.5-28.4l-13.5-13.2l26.2-13.9l20.1,8.7c0,0,3.1,9.5,8.9,24.5
					c4.3,11.2-6.7,18.2-6.7,18.2L416.7,616.2z"/>
				<polygon class="st2" points="407.8,564.3 370.9,576.8 372.8,593.3 382.8,617 406.8,632.7 412.8,639.8 448.8,627.7 443.7,624.8 
					424.6,612.2 412,592.2 				"/>
				<polygon class="st4" points="372.4,549.7 409.7,537.2 407.8,564.3 370.9,576.8 				"/>
				<g>
					<g>
						<path class="st5" d="M456.9,621.4c-9.1,12.6-26.7,8-39.2-10.1c-12.5-18.2-15.1-43.2-6-55.8l7.8,11.5c-6,8.2-4.2,24.5,3.9,36.4
							c8.1,11.9,19.6,14.8,25.5,6.6L456.9,621.4z"/>
					</g>
					<g>
						<path class="st5" d="M461.4,615.3c9.1-12.6,6.4-37.6-6-55.8c-12.5-18.2-30-22.7-39.2-10.1l7.8,11.5c6-8.2,17.4-5.2,25.6,6.6
							c8.1,11.9,9.9,28.2,3.9,36.4L461.4,615.3z"/>
					</g>
					<g>
						
							<ellipse transform="matrix(0.9355 -0.3534 0.3534 0.9355 -169.2559 182.677)" class="st6" cx="415.7" cy="554.9" rx="11.4" ry="18.7"/>
					</g>
				</g>
			</g>
			<g>
				<g>
					<g>
						<g>
							<path class="st6" d="M531.8,365.3c1.8-0.5,3.9,2.6,7,7.6c0.9,1.2,1.6,2.6,2.6,4.1c0.2,0.4,0.5,0.7,0.7,1.1
								c0.1,0.2,0.3,0.3,0.5,0.5l0.5,0.5c0.7,0.7,1.4,1.4,2,2.1c2.6,3,4.8,6.6,6.7,10.6c2,4,3.6,8.1,5,11.7c0.4,0.9,0.7,1.8,1.1,2.7
								l0.3,0.6c0.1,0.2,0.2,0.4,0.2,0.7c0.1,0.5,0.1,0.9,0.1,1.4c0.1,1.9,0,3.8-0.3,5.5c-1.1,7-5.2,12.3-10.3,13.6L531.8,365.3z"/>
						</g>
						<g>
							<g>
								<path class="st6" d="M487.7,366c2.6,0.1,5.3,0.2,8.1,0.4l6.4,0.5c0.9,0.1,1.9,0.1,2.8,0.2l2.8,0.1l2.8,0.1l2.7,0
									c0.9,0,1.8,0,2.7,0l2.6-0.1c1.7,0,3.3-0.2,4.9-0.4c3.1-0.4,6.1-0.8,8.4-1.4L548,428c-12.6,3.1-23.7,3.9-34.4,4l-4,0
									l-3.9-0.1l-3.9-0.1c-1.3-0.1-2.6-0.2-3.8-0.3l-6.9-0.5c-1.7-0.1-3.5-0.2-5.3-0.3L487.7,366z"/>
							</g>
							<g>
								<path class="st7" d="M539.2,429.8c-2.5,0.8-4.9,1-7.4,1.1c-2.5,0-4.9-0.3-7.2-0.9c-2.3-0.6-4.4-1.6-6.3-2.7
									c-2-1.1-3.6-2.6-5.2-4.2c-1.5-1.6-2.8-3.3-3.9-5.2c-1.1-1.9-1.9-3.8-2.6-5.9c-1.3-4-1.8-8.3-1.7-12.6
									c0.2-4.3,1.1-8.5,2.4-12.5c0.7-2,1.5-3.9,2.4-5.7c0.9-1.8,1.9-3.6,3.1-5.2c1.1-1.6,2.3-3,3.6-4.3c1.2-1.3,2.6-2.4,3.9-3.2
									c1.3-0.9,2.6-1.5,3.9-1.9c1.2-0.5,2.6-0.6,3.8-0.5c-4.5,1.8-9.4,6.3-12.7,12.5c-3.4,6.1-5.6,13.6-5.7,21
									c-0.2,7.5,1.9,15,6.6,21C521,426.5,529,430.6,539.2,429.8z"/>
							</g>
						</g>
						<g>
							<g>
								<path class="st6" d="M427.2,371.5c10-2.1,19.9-3.5,29.9-4.5c10-0.9,20.1-1.4,30.6-1.1l-1.9,64.7c-7.3-0.2-15,0.1-22.7,0.8
									c-7.7,0.7-15.4,1.9-22.8,3.4L427.2,371.5z"/>
							</g>
							<g>
								<path class="st7" d="M480.6,430.6c-3.1,0.6-6.4,0.1-9.6-1.3c-3.2-1.4-6.3-3.7-8.9-6.7c-5.3-5.9-9-14-10.2-22.5
									c-1-8.5,0.6-17.3,5.7-24.2c2.5-3.5,6-6.3,10-8.1c4-1.8,8.5-2.4,12.8-1.9c-8.7,1-15.6,5.8-19.5,12.2
									c-3.9,6.4-5.2,14.2-4.4,21.5c0.8,7.4,3.7,14.6,7.9,20.4C468.5,425.8,474.3,429.6,480.6,430.6z"/>
							</g>
						</g>
						<g>
							<g>
								<path class="st6" d="M367.2,393.8c10-6,20-10.4,30-14c10-3.5,20-6.2,30-8.3l13.2,63.4c-7.5,1.5-14.7,3.5-21.4,5.9
									c-6.7,2.4-13,5.2-18.3,8.4L367.2,393.8z"/>
							</g>
							<g>
								<path class="st7" d="M435.1,436c-2.9,1.3-6.2,1.6-9.5,1c-1.7-0.3-3.3-0.9-5-1.6c-1.6-0.7-3.3-1.7-4.9-2.8
									c-3.2-2.2-6.2-5.1-8.8-8.3c-2.6-3.3-4.9-6.9-6.6-10.9c-1.6-3.9-2.6-8.1-2.8-12.4c-0.2-4.3,0.6-8.5,2.3-12.6
									c0.9-2,2-3.9,3.4-5.7c1.4-1.7,3-3.3,4.8-4.7c3.6-2.7,7.9-4.4,12.2-4.9c-8.1,3-14.2,9.3-16.5,16.5c-1.2,3.6-1.6,7.4-1.4,11.1
									c0.2,3.7,1,7.4,2.4,10.9c1.3,3.5,3.1,6.8,5.3,9.8c2.1,3,4.6,5.7,7.3,8C422.5,434,428.7,436.5,435.1,436z"/>
							</g>
						</g>
						<g>
							<g>
								<path class="st6" d="M320.1,455.1c1.5-6.9,4-13.8,7.2-20.1c3.2-6.3,7.1-12.1,11.4-17.2c4.3-5.1,9-9.6,13.8-13.6
									c4.8-4,9.8-7.3,14.7-10.3l33.5,55.4c-5.3,3.2-9.5,6.7-12.3,10.1c-2.8,3.4-4.3,6.4-5.1,9.9L320.1,455.1z"/>
							</g>
							<g>
								<path class="st7" d="M397,451.5c-1.7,1.8-3.8,2.8-6.4,3.1c-0.6,0.1-1.3,0.1-2,0.1c-0.7,0-1.5-0.1-2.2-0.1
									c-0.8-0.1-1.6-0.2-2.4-0.3c-0.8-0.1-1.7-0.3-2.5-0.5c-0.9-0.2-1.8-0.4-2.7-0.6c-0.9-0.2-1.8-0.5-2.8-0.7
									c-1.9-0.5-3.9-1.2-5.8-1.8c-3.9-1.4-7.9-3-11.5-5.3c-3.6-2.3-6.8-5.1-9.3-8.7c-1.2-1.8-2.2-3.7-2.9-5.9
									c-0.4-1.1-0.6-2.2-0.9-3.3c-0.2-1.1-0.3-2.3-0.4-3.5c0-1.2,0-2.4,0.1-3.7c0.1-1.2,0.4-2.5,0.7-3.7c0.3-1.3,0.7-2.5,1.2-3.7
									c0.5-1.2,1.1-2.4,1.8-3.6c2.7-4.6,6.7-8.4,11.1-10.8c-1.9,1.7-3.6,3.4-5.1,5.4c-0.7,1-1.4,1.9-2,3c-0.6,1-1.1,2.1-1.6,3.1
									c-0.9,2.1-1.5,4.3-1.9,6.4c-0.3,2.1-0.4,4.3-0.1,6.3c0.4,4,1.9,7.7,3.9,10.8c2.1,3.2,4.8,5.8,7.8,8c3,2.2,6.3,4,9.6,5.5
									c3.4,1.5,6.7,2.8,9.9,3.8c1.6,0.5,3.1,0.9,4.6,1.2c0.8,0.2,1.5,0.3,2.2,0.4c0.7,0.1,1.4,0.2,2.1,0.2c0.7,0,1.3,0.1,2,0
									c0.6,0,1.3-0.1,1.9-0.1C394.6,452.3,395.9,452.1,397,451.5z"/>
							</g>
						</g>
						<g>
							<g>
								<path class="st6" d="M331.4,527.9c-4.8-9.8-8.9-20.7-11.4-32.8c-1.2-6.1-2-12.6-2.1-19.3c0-6.7,0.6-13.7,2.1-20.7l63.2,14.1
									c-0.4,1.7-0.6,3.7-0.6,5.8c0.1,2.2,0.3,4.6,0.8,7.2c1.1,5.3,3.2,11.2,6.2,17.4L331.4,527.9z"/>
							</g>
							<g>
								<path class="st7" d="M382.8,471.8c0.1,0.4,0.1,0.8,0.1,1.2c0,0.4-0.1,0.9-0.2,1.3c-0.1,0.2-0.2,0.4-0.3,0.7
									c-0.1,0.2-0.2,0.5-0.3,0.7c-0.2,0.5-0.5,1-0.9,1.5c-0.6,1.1-1.6,2.2-2.7,3.3c-1,1.2-2.3,2.4-3.7,3.6c-5.5,5-12.8,10-21,12.5
									c-4.1,1.2-8.4,1.8-12.6,1.4c-4.3-0.4-8.5-1.8-12.3-4.4c-1.9-1.3-3.6-3-5.2-5c-1.6-2-2.8-4.3-3.9-6.8c-0.5-1.3-0.8-2.6-1.2-4
									c-0.2-0.7-0.3-1.4-0.4-2.1c-0.1-0.7-0.2-1.4-0.2-2.2c-0.1-1.4-0.1-2.9-0.1-4.3c0.1-1.5,0.3-2.9,0.6-4.3c0,1.5,0,2.9,0.2,4.3
									c0.2,1.4,0.4,2.7,0.7,4c0.5,2.6,1.5,4.9,2.6,7.1c2.2,4.2,5.2,7.4,8.7,9.4c1.7,1,3.5,1.8,5.3,2.4c1.8,0.6,3.7,0.9,5.6,1.1
									c3.7,0.3,7.5,0,11.1-0.9c3.6-0.9,7.1-2.3,10.4-4c1.6-0.8,3.2-1.7,4.7-2.7c1.5-0.9,3-1.9,4.4-2.9c2.7-2,5.1-4,6.9-5.9
									c1-0.9,1.7-1.8,2.4-2.7c0.3-0.4,0.6-0.8,0.8-1.2C382.4,472.6,382.6,472.2,382.8,471.8z"/>
							</g>
						</g>
						<g>
							<g>
								<path class="st6" d="M365.5,578.7c-6.3-7.5-12.4-15.3-18.1-23.7c-5.7-8.4-11.2-17.3-16-27.1l58.2-28.3
									c3,6.2,6.8,12.5,11.1,18.8c4.3,6.3,9.2,12.5,14.3,18.7L365.5,578.7z"/>
							</g>
							<g>
								<path class="st7" d="M391.9,504.1c1,1.2,1.7,2.5,2.2,4c0.6,1.5,1,3.1,1.1,4.8c0.1,1.7,0.1,3.5-0.2,5.3
									c-0.3,1.8-0.8,3.7-1.4,5.6c-1.3,3.7-3.2,7.4-5.8,10.8c-2.5,3.4-5.5,6.5-8.9,9c-3.4,2.5-7.3,4.5-11.4,5.7
									c-4,1.2-8.3,1.6-12.6,1.1c-2.1-0.2-4.2-0.8-6.3-1.7c-2-0.8-4-1.9-5.7-3.3c-1.7-1.4-3.3-3-4.7-4.8c-1.3-1.8-2.4-3.8-3.3-5.9
									c1.3,1.8,2.7,3.5,4.3,4.9c1.6,1.4,3.3,2.6,5,3.6c0.9,0.5,1.8,0.9,2.7,1.3c0.9,0.4,1.8,0.7,2.8,0.9c1.9,0.5,3.7,0.8,5.6,0.9
									c7.5,0.3,15-2.3,21-6.6c6.1-4.3,10.9-10.4,13.9-16.8c0.8-1.6,1.4-3.3,1.8-4.9c0.2-0.8,0.4-1.6,0.5-2.4
									c0.2-0.8,0.3-1.6,0.4-2.4c0.2-1.6,0.1-3.2,0-4.7C392.8,507,392.4,505.5,391.9,504.1z"/>
							</g>
						</g>
						<g>
							<path class="st6" d="M365.5,578.7c2.5,3.1,7.6,3.3,13.7,1.3c6-2,13-6.3,19.7-12.3s11.7-12.5,14.6-18
								c2.9-5.5,3.7-10.1,1.6-12.6L365.5,578.7z"/>
						</g>
					</g>
				</g>
			</g>
		</g>
		<g>
			<defs>
				<path id="SVGID_40_" d="M381.1,789.7c39.1-11.1,78.7,14.8,102.5,67.2c9.9,21.7,13,45.4,13,69.1c-0.1,23.8-2.3,46.2,6.6,69
					c11.4,29,51,40,51,40s25.6,29.4-4.7,51.8c-36.1,26.7-99.3,4.3-133.4-15.7c-40-23.4-61.6-68.7-71.7-112.3
					c-9.4-40.5-13.9-91.5-0.7-131.6C349.8,808.7,362.1,795.1,381.1,789.7z"/>
			</defs>
			<clipPath id="SVGID_2_">
				<use xlink:href="#SVGID_40_"  style="overflow:visible;"/>
			</clipPath>
			
				<rect x="320.4" y="776.5" transform="matrix(-1 -4.482471e-11 4.482471e-11 -1 927.9741 1880.118)" class="st8" width="287.2" height="327.2"/>
			<path class="st9" d="M582.9,1053.1c0,0-23.5-33-59.6-36.5c-36.5-3.5-103.6,12.6-139.7-22c-39-37.3-63.4-67.1-56.5-36.1
				c9.4,42.4-18.1,125.6-18.1,125.6l65.5,46.7l174.2-3.5L582.9,1053.1z"/>
			<path class="st9" d="M375.8,800c0,0-13.1,96.7-6.9,125c3.9,17.7,7.9,40.3-24.5,33.8c-18.9-3.8,89.4,80.4,108.3,79.8
				C502.9,1037,375.8,800,375.8,800z"/>
			<path class="st10" d="M360.9,811c0,0,9.4,142.8,91,194.6c49.6,31.5,119.3,67.5,119.3,67.5L552.3,902
				C552.3,902,385.2,745.1,360.9,811z"/>
		</g>
		<path class="st11" d="M509.6,309.3c0,0,11.7-11.4,35.3-21.8c59.8-26.3,170-53.1,180.1-2c14.1,71.4-131.8,116.1-171.9,104.4
			C513.1,378.2,497.6,342.7,509.6,309.3z"/>
		<g>
			<defs>
				<path id="SVGID_38_" d="M905.3,723.2h0.2l-1.2-2.9c-1.4-3.7-2.9-7.4-4.5-11L725,285.6c-55.9,25.8-123,63.3-164.8,64.4
					c-46.5,1.2-50.6-40.6-50.6-40.6L363.7,719.2c-6.3,16.7-9.9,33.8-9.9,51.4c0,154.6,125.4,280,280,280c154.6,0,280-125.4,280-280
					C913.8,754.4,910.7,738.6,905.3,723.2z"/>
			</defs>
			<clipPath id="SVGID_3_">
				<use xlink:href="#SVGID_38_"  style="overflow:visible;"/>
			</clipPath>
			<polygon class="st12" points="478.9,274 302,791 402.5,1021.7 658.3,1108 914.1,979.3 942.4,737.6 707,202.4 			"/>
			<path class="st13" d="M344.8,729c0,0,22.4,61.2,115.4,82.4c93,21.2,227.2,40,392-25.9s169.5-144.8,169.5-144.8l-96.5,289.6
				l-173,138.9L576.7,1081l-155.4-38.8L333,867.9L344.8,729z"/>
			<path class="st14" d="M424.8,897.3c0,0,81.2-11.8,150.7,38.8c0,0,18.4,91.1,69.1,114.6c53,24.7,79.3,24.3,79.3,24.3l-215.4-34.1
				C508.4,1040.9,439,990.3,424.8,897.3z"/>
		</g>
		<g>
			<g>
				<g>
					<defs>
						<path id="SVGID_36_" d="M509.7,97.1C509.7,97,509.7,97,509.7,97.1c0-0.1-34.5-16.6-68.3-16.3c-31.4-0.5-57,32.6-58.9,78.9
							c-2.1,50.7,24.9,98.2,60.4,105.9c6.5,1.4,12.8,1.4,18.8,0.1l0,0c0,0,0.8-0.2,2.1-0.6c0.6-0.1,1.1-0.3,1.7-0.5
							c5.6-1.6,16.9-5,30.2-10.5c10.7-4.4,21.4-10.8,30.3-17.2c0,0,0,0,0,0c14.9-10.7,25.3-31.1,26.4-56.5
							C554.1,143.5,535.6,108.7,509.7,97.1z"/>
					</defs>
					<clipPath id="SVGID_4_">
						<use xlink:href="#SVGID_36_"  style="overflow:visible;"/>
					</clipPath>
					<rect x="376.5" y="61.6" class="st15" width="179.7" height="224.4"/>
					<path class="st16" d="M558.8,134.5c0,0-99.1,13-135.2,14.1c-48.7,1.6-75.3-34.5-75.3-34.5l69.1,187.6l132.8-42.8L558.8,134.5z"
						/>
					<path class="st16" d="M496.3,92.6c0,0-31.8,7.8-47.9,50.6c-10,26.6-3.1,67.5,3.1,81.2c6.3,13.7-29.4-5.5-20.4-46.3
						S464.1,102,496.3,92.6z"/>
				</g>
				
					<ellipse transform="matrix(0.9906 -0.1367 0.1367 0.9906 -18.4835 69.7059)" class="st3" cx="498.1" cy="169.4" rx="54.2" ry="75.8"/>
			</g>
			<g>
				<defs>
					<path id="SVGID_34_" d="M818.3,194.5c0,80.4-134.8,124.8-245.2,124.8c-57.7,0-154.5-44.4-154.5-124.8S508.1,65.5,618.5,65.5
						S818.3,114.1,818.3,194.5z"/>
				</defs>
				<clipPath id="SVGID_5_">
					<use xlink:href="#SVGID_34_"  style="overflow:visible;"/>
				</clipPath>
				<polygon class="st17" points="607.3,39.1 404.8,114.5 405.6,270.6 574.3,338.9 809.8,290.3 820,105.8 				"/>
				<path class="st18" d="M539.4,135.7c69.5,4.7,154.6,32.8,237.8,83c98.9-18,0-122.9,0-122.9S633.6,33.5,552.7,42.9
					c-30.3,3.5-197.8,109.7-185.2,135C417.7,146.5,456,130.1,539.4,135.7z"/>
				<path class="st19" d="M540.6,131.6c69.5,4.7,154.6,32.8,237.8,83c98.9-18,0-122.9,0-122.9S634.7,29.4,553.9,38.8
					c-30.3,3.5-197.8,109.7-185.2,135C418.9,142.4,457.2,125.9,540.6,131.6z"/>
				<ellipse class="st20" cx="582.2" cy="222.4" rx="18" ry="27.9"/>
				<ellipse class="st20" cx="473.9" cy="204.3" rx="13.5" ry="26.5"/>
				<path class="st21" d="M424.4,247.9c0,0,31.4,43.9,105.2,53.4s155.4-18.8,188.3-43.9c33-25.1,119.3,22,119.3,22l-248,67.5
					L418.2,306L424.4,247.9z"/>
				<polygon class="st20" points="492.1,258.1 515.3,265 547.7,265.2 547.7,272.2 513.9,273 492.1,264.4 				"/>
			</g>
			<g>
				<g>
					<defs>
						<path id="SVGID_32_" d="M818.5,188.9c-0.4-9.9-2.3-19-5.3-27.2l5.8-49.5c-34.3-0.7-69.6,16.2-69.6,16.2s0,0.1,0,0.1
							c-25.9,11.7-44.4,46.5-42.8,83.4c1.1,25.4,11.5,45.8,26.4,56.5c0,0,0,0,0,0c8.9,6.4,19.6,12.8,30.3,17.2
							c19.1,7.8,34,11.5,34,11.5l5.8-49.7C813.4,231.5,819.4,210.6,818.5,188.9z"/>
					</defs>
					<clipPath id="SVGID_6_">
						<use xlink:href="#SVGID_32_"  style="overflow:visible;"/>
					</clipPath>
					<rect x="701.2" y="105.9" class="st22" width="118" height="197.4"/>
					<path class="st23" d="M700.3,165.9c0,0,25.1,26.3,61.2,26.3c16.2,0,58.1,113.8,58.1,113.8l-110.7-15.7L700.3,165.9z"/>
					<path class="st23" d="M763.8,120c0,0-31.8,7.8-47.9,50.6c-10,26.6-3.1,67.5,3.1,81.2c6.3,13.7-29.4-5.5-20.4-46.3
						S731.6,129.4,763.8,120z"/>
				</g>
				<g>
					<defs>
						
							<ellipse id="SVGID_30_" transform="matrix(0.1201 -0.9928 0.9928 0.1201 511.1877 986.9363)" cx="812.3" cy="205.1" rx="93.3" ry="63.8"/>
					</defs>
					<use xlink:href="#SVGID_30_"  style="overflow:visible;fill:#B98C02;"/>
					<clipPath id="SVGID_7_">
						<use xlink:href="#SVGID_30_"  style="overflow:visible;"/>
					</clipPath>
					<polygon class="st24" points="796.4,129.2 748.9,143.1 733.6,251.1 776,276.7 					"/>
					
						<ellipse transform="matrix(0.1201 -0.9928 0.9928 0.1201 499.9665 974.2761)" class="st25" cx="799.6" cy="205.1" rx="77.1" ry="52.8"/>
					
						<ellipse transform="matrix(0.1201 -0.9928 0.9928 0.1201 511.1877 986.9363)" class="st26" cx="812.3" cy="205.1" rx="91.6" ry="62.7"/>
				</g>
			</g>
		</g>
		<path class="st6" d="M794.5,417.1c8.4,34.4-13.1,73-39,79.3c-25.9,6.3-53.7-16.5-62.1-50.9c-8.4-34.4,5.8-67.4,31.7-73.8
			C751,365.4,786.1,382.6,794.5,417.1z"/>
		<g>
			<defs>
				<path id="SVGID_28_" d="M872.9,1153.6l-20.8-207.2c0,0-35.3,47.9-97.3,77.3c-31.6,15-74.9,25.9-114.2,25.5
					c-50.6-23.5-65.1-113.1-65.1-113.1c-69.5-50.6-150.7-38.8-150.7-38.8c-50.6,87.2-45.5,144.8-45.5,144.8l20.8,177.8l108.3,114.2
					l137.7,28.3l126-28.3l77.7-80L872.9,1153.6z"/>
			</defs>
			<clipPath id="SVGID_8_">
				<use xlink:href="#SVGID_28_"  style="overflow:visible;"/>
			</clipPath>
			<g class="st27">
				<ellipse class="st28" cx="625.7" cy="1095.1" rx="214.1" ry="234.5"/>
				<ellipse class="st4" cx="683.9" cy="1095.1" rx="141.3" ry="193.9"/>
			</g>
		</g>
		<path class="st11" d="M850.7,820.2c0,0,36.6,5.2,48.9,44.7c8.7,28.2-140.1,112.4-138.9,128.9c-14.7-15.7-14.7-31.4-14.1-53.6
			C747.1,915.6,773.6,815.5,850.7,820.2z"/>
		<g>
			<defs>
				<path id="SVGID_26_" d="M865.6,825.8c-39.1-11.1-78.7,14.8-102.5,67.2c-9.9,21.7-13,45.4-13,69.1c0.1,23.8,2.3,46.2-6.6,69
					c-11.4,29-51,40-51,40s-25.6,29.4,4.7,51.8c36.1,26.7,99.3,4.3,133.4-15.7c40-23.4,61.6-68.7,71.7-112.3
					c9.4-40.5,13.9-91.5,0.7-131.6C896.9,844.8,884.6,831.2,865.6,825.8z"/>
			</defs>
			<clipPath id="SVGID_9_">
				<use xlink:href="#SVGID_26_"  style="overflow:visible;"/>
			</clipPath>
			<rect x="639.1" y="812.6" class="st29" width="287.2" height="327.2"/>
			<path class="st30" d="M663.8,1089.2c0,0,47.5,7,83.6,3.5c36.5-3.5,90.6-11.8,118.9-57.7c28.3-45.9,48.5,0.8,41.6,31.8
				c-9.4,42.4,29.8,53.4,29.8,53.4l-65.5,46.7l-174.2-3.5L663.8,1089.2z"/>
		</g>
		<g>
			<defs>
				<rect id="SVGID_24_" x="254.2" y="723.1" width="760.2" height="155.4"/>
			</defs>
			<clipPath id="SVGID_10_">
				<use xlink:href="#SVGID_24_"  style="overflow:visible;"/>
			</clipPath>
			<path class="st31" d="M1011.7,749.7c0-6.2-1.6-12.3-4.7-18.2l-54.4-1.5c-16.4,9.3-31.3,21.1-48.1,29.5
				c-6.3,16.7-28.2,32-61.3,44.2c0,0-0.1,0-0.1,0c-2.7,1-5.5,2-8.4,3c-0.1,0-0.3,0.1-0.4,0.1c-2.8,0.9-5.6,1.9-8.6,2.8
				c-0.2,0.1-0.5,0.1-0.7,0.2c-2.8,0.9-5.7,1.7-8.7,2.5c-0.4,0.1-0.8,0.2-1.1,0.3c-2.8,0.8-5.7,1.6-8.7,2.3c-0.5,0.1-1,0.2-1.5,0.4
				c-2.9,0.7-5.7,1.4-8.7,2.1c-0.6,0.1-1.3,0.3-2,0.4c-2.8,0.6-5.7,1.3-8.6,1.9c-0.8,0.2-1.6,0.3-2.5,0.5c-2.8,0.6-5.6,1.1-8.5,1.7
				c-1,0.2-2,0.4-3,0.5c-2.8,0.5-5.5,1-8.3,1.5c-1.1,0.2-2.3,0.4-3.5,0.6c-2.7,0.4-5.4,0.9-8.2,1.3c-1.3,0.2-2.7,0.4-4.1,0.6
				c-2.6,0.4-5.2,0.8-7.9,1.1c-1.5,0.2-3.1,0.4-4.6,0.6c-2.5,0.3-5.1,0.6-7.7,0.9c-1.7,0.2-3.5,0.4-5.2,0.5
				c-2.4,0.3-4.9,0.5-7.4,0.8c-1.9,0.2-3.9,0.3-5.8,0.5c-2.3,0.2-4.7,0.4-7.1,0.6c-2.1,0.2-4.2,0.3-6.3,0.5
				c-2.3,0.2-4.5,0.3-6.8,0.5c-2.3,0.1-4.7,0.3-7,0.4c-2.1,0.1-4.2,0.2-6.3,0.3c-2.6,0.1-5.3,0.2-7.9,0.3c-1.9,0.1-3.7,0.2-5.6,0.2
				c-3.1,0.1-6.2,0.2-9.2,0.2c-1.5,0-3,0.1-4.5,0.1c-4.6,0.1-9.3,0.1-13.9,0.1c-4.7,0-9.3,0-14-0.1c-1.5,0-3-0.1-4.4-0.1
				c-3.1-0.1-6.2-0.1-9.3-0.2c-1.9-0.1-3.7-0.1-5.5-0.2c-2.7-0.1-5.4-0.2-8-0.3c-2.1-0.1-4.1-0.2-6.2-0.3c-2.4-0.1-4.8-0.2-7.2-0.4
				c-2.2-0.1-4.4-0.3-6.7-0.5c-2.1-0.2-4.3-0.3-6.4-0.5c-2.3-0.2-4.6-0.4-7-0.6c-2-0.2-3.9-0.3-5.9-0.5c-2.4-0.2-4.8-0.5-7.3-0.8
				c-1.8-0.2-3.6-0.4-5.3-0.6c-2.5-0.3-5-0.6-7.5-0.9c-1.6-0.2-3.2-0.4-4.7-0.6c-2.6-0.3-5.2-0.7-7.8-1.1c-1.4-0.2-2.8-0.4-4.2-0.6
				c-2.7-0.4-5.4-0.8-8-1.3c-1.2-0.2-2.4-0.4-3.6-0.6c-2.8-0.5-5.5-1-8.2-1.5c-1-0.2-2.1-0.4-3.1-0.6c-2.8-0.5-5.6-1.1-8.4-1.7
				c-0.8-0.2-1.7-0.3-2.6-0.5c-2.9-0.6-5.7-1.2-8.6-1.9c-0.7-0.2-1.4-0.3-2-0.5c-2.9-0.7-5.8-1.4-8.6-2.1c-0.5-0.1-1.1-0.3-1.6-0.4
				c-2.9-0.7-5.8-1.5-8.6-2.3c-0.4-0.1-0.8-0.2-1.2-0.3c-2.9-0.8-5.8-1.7-8.6-2.5c-0.3-0.1-0.6-0.2-0.8-0.2
				c-2.9-0.9-5.7-1.8-8.5-2.7c-0.2-0.1-0.3-0.1-0.5-0.2c-2.8-1-5.6-1.9-8.3-2.9c-0.1,0-0.1-0.1-0.2-0.1
				c-38.8-14.4-62.4-32.9-63.1-53.1c0,0,0,0,0,0c0-0.3-0.1-0.7-0.1-1c-14.5-7.6-28.9-15.5-43.9-22c-0.6,0.8-1.1,1.6-1.6,2.3
				l-5.2,0.1l-49.8,1.3c-3,5.9-4.6,12-4.7,18.2l0.1,0v0l53.5,4.6c0.6,4.2,2,8.4,4.2,12.5l-0.9,0.1l-48.8,7.4
				c0.1,0.1,0.2,0.2,0.2,0.3c4.2,6,9.7,11.8,16.7,17.4l55.5-1.7c5.3,3.7,11.3,7.3,17.9,10.8l-2.3,0.8v0l-35.2,11.9
				c0.3,0.2,0.7,0.3,1.1,0.5c10.7,5,22.6,9.8,35.6,14.3l49.7-7.8c9,2.8,18.5,5.4,28.4,7.9l-13.8,10.9l-6.5,5.1
				c0.2,0,0.4,0.1,0.5,0.1c16.1,3.6,33.2,6.9,51.1,9.7l37.2-12.8c11.4,1.6,23.1,3,35.1,4.2l0,2c0,0,0,0,0,0l-0.3,15.2c0,0,0,0,0,0
				c19.3,1.6,39.2,2.8,59.7,3.4l19.8-16.1c6.2,0.1,12.4,0.2,18.6,0.2c6.3,0,12.5-0.1,18.6-0.2l19.8,16.1c20.4-0.6,40.3-1.8,59.7-3.4
				c0,0,0,0,0,0c0,0,0,0,0,0l-0.1-2.9l-0.2-12.3c0,0,0,0,0,0l0-2c12-1.2,23.7-2.6,35.1-4.2l37.2,12.8c18.1-2.8,35.3-6.1,51.6-9.8
				l-20.3-16c10-2.5,19.5-5.1,28.4-7.9l49.7,7.8c13.4-4.6,25.7-9.5,36.7-14.8l-37.5-12.6c6.7-3.5,12.7-7.1,17.9-10.8l55.5,1.7
				c6.4-5.1,11.6-10.5,15.6-15.9c0.2-0.3,0.4-0.5,0.6-0.8c0.2-0.3,0.5-0.7,0.8-1l-49.7-7.6c2.2-4.1,3.6-8.2,4.2-12.5l53.5-4.6v0
				L1011.7,749.7z"/>
			<path class="st32" d="M285.1,707.6l42.6,9.9c-0.6,0.5-1.1,1.1-1.7,1.6v0c0,0,0,0,0,0c-0.9,0.9-1.7,1.7-2.5,2.6
				c-0.1,0.1-0.2,0.2-0.2,0.3c13.7,6.1,27,13.3,40.3,20.2c12.2-43.1,128.8-77,270.9-77c150.2,0,272,37.8,272,84.5
				c0,0.3-0.1,0.6-0.1,0.9c14.3-7.8,27.4-17.8,41.5-26.1c0,0-0.1-0.1-0.1-0.1c-0.7-0.8-1.4-1.6-2.1-2.4c-0.1-0.1-0.2-0.2-0.2-0.2
				c-0.8-0.9-1.7-1.7-2.6-2.6c0,0,0,0,0,0c-0.6-0.5-1.1-1.1-1.7-1.6l42.6-9.9c0,0,0,0,0,0l1.9-0.4l0.1,0
				c-7.1-5.7-15.7-11.1-25.5-16.3l-53.1,4.8c-0.1-0.1-0.2-0.1-0.3-0.2c-1.7-0.8-3.5-1.6-5.2-2.4c-1.5-0.7-2.9-1.3-4.4-1.9
				c-0.4-0.2-0.8-0.4-1.2-0.5c-4.5-1.9-9.3-3.8-14.2-5.6l29.6-14.6c-13.1-4.4-27.3-8.5-42.4-12.2l-44,10.4c-0.4-0.1-0.7-0.2-1.1-0.2
				c-2.5-0.6-5.1-1.1-7.6-1.7c-9.1-1.9-18.5-3.7-28.2-5.3l10.5-16.9c-17.1-2.6-35-4.8-53.5-6.5l-28.9,14.7
				c-14.1-1.1-28.6-2-43.3-2.5l-9.9-16.9c-9.5-0.2-19-0.3-28.7-0.3c-4.6,0-9.3,0-13.9,0.1c-0.7,0-1.4,0-2.1,0
				c-4.2,0.1-8.5,0.1-12.7,0.2l-9.9,16.9c-14.8,0.5-29.2,1.4-43.3,2.5l-28.9-14.7c-5.8,0.6-11.5,1.2-17.2,1.8
				c-7.1,0.8-14.1,1.7-21,2.6c-5.1,0.7-10.2,1.4-15.2,2.1l1.1,1.8l9.4,15.1c-6.6,1.1-13.1,2.3-19.4,3.5c-0.1,0-0.3,0.1-0.4,0.1
				c-2.8,0.6-5.6,1.1-8.4,1.7c-2.9,0.6-5.8,1.3-8.7,1.9l-43.9-10.4c-15.1,3.7-29.3,7.8-42.4,12.2l2.4,1.2l0,0L387,685
				c-0.8,0.3-1.5,0.6-2.3,0.9v0c0,0,0,0,0,0c-2.1,0.8-4.1,1.6-6.1,2.3c0,0-0.1,0-0.1,0.1c-1.9,0.8-3.8,1.5-5.7,2.3
				c-0.5,0.2-0.9,0.4-1.4,0.6c-1.4,0.6-2.9,1.2-4.2,1.8c-1.9,0.9-3.8,1.7-5.6,2.6l-53.1-4.8c-9.8,5.2-18.3,10.6-25.5,16.3
				L285.1,707.6C285.1,707.6,285.1,707.6,285.1,707.6z"/>
			<polygon class="st31" points="283,683.6 283,707.1 327.7,717.5 257.1,726.1 257.1,749.7 322.7,743.7 265.6,751.1 265.3,774.3 
				282.3,792.1 321,780.2 318.2,790.3 318.2,813.8 354.9,828.6 404.6,820.8 412.7,821.1 413.2,844.8 464.3,854.5 501.5,841.6 
				536.6,845.8 544.6,813.5 466.6,805.8 385.4,780.2 356.6,741.7 351.6,700.8 337.7,685.7 			"/>
			<path class="st31" d="M596,866.4l12.2-18.8l43-3.2l81.3,18.7v-23.5l21.7-5.1l47.4,10.6l54.5-0.3v-23.5l17.3-10l77.3,2.7v-23.5
				l27.2-7.7l25.6-8.2v-23.5l-0.6-5.6l8.8,4.5v-23.5l-23.8-8.9l-2.2-10.1v-23.5l-47.8-4.7l-15.9,32.1c0,0-0.9,36.2-29.4,53.9
				c-28.5,17.7-92.1,44.1-142.7,45.9s-153.6,9.4-153.6,9.4L596,866.4z"/>
			<path class="st33" d="M1011.7,726.1c0-6.2-1.6-12.3-4.7-18.2l-55.1-1.5c0,0,0,0,0,0c-0.6-1-1.3-1.9-2-2.9c-0.5-0.6-1-1.2-1.5-1.9
				c-0.2-0.3-0.5-0.6-0.7-0.9c-0.7-0.8-1.4-1.6-2.1-2.4c-0.1-0.1-0.2-0.2-0.2-0.2c-0.8-0.9-1.7-1.7-2.6-2.6c0,0,0,0,0,0v0
				c-0.6-0.5-1.1-1.1-1.7-1.6l42.6-9.9c0,0,0,0,0,0l1.9-0.4l0.1,0c-7.1-5.7-15.7-11.1-25.5-16.3l-53.1,4.8c-0.1-0.1-0.2-0.1-0.3-0.2
				c-1.7-0.8-3.5-1.6-5.2-2.4c-1.5-0.7-2.9-1.3-4.4-1.9c-0.4-0.2-0.8-0.4-1.2-0.5c-4.5-1.9-9.3-3.8-14.2-5.6l29.6-14.6
				c-13.1-4.4-27.3-8.5-42.4-12.2l0,0l0,0L825,645c-0.4-0.1-0.7-0.2-1.1-0.2c-2.5-0.6-5.1-1.1-7.6-1.7c-9.1-1.9-18.5-3.7-28.2-5.3
				l10.5-16.9c-17.1-2.6-35-4.8-53.5-6.5l0,0l0,0L716.3,629c-14.1-1.1-28.6-2-43.3-2.5l-9.9-16.9c-9.5-0.2-19-0.3-28.7-0.3
				c-4.6,0-9.3,0-13.9,0.1c-0.7,0-1.4,0-2.1,0c-4.2,0.1-8.5,0.1-12.7,0.2l0,0l0,0l-9.9,16.9c-14.8,0.5-29.2,1.4-43.3,2.5l-28.9-14.7
				c-5.8,0.6-11.5,1.2-17.2,1.8c-7.1,0.8-14.1,1.7-21,2.6c-5.1,0.7-10.2,1.4-15.2,2.1l0,0l0,0l1.1,1.8v0l9.4,15.1
				c-6.6,1.1-13.1,2.3-19.4,3.5c-0.1,0-0.3,0.1-0.4,0.1c-2.8,0.6-5.6,1.1-8.4,1.7c-2.9,0.6-5.8,1.3-8.7,1.9l-43.9-10.4v0v0
				c-15.1,3.7-29.3,7.8-42.4,12.2l2.4,1.2c0,0,0,0,0,0l27.1,13.4c-0.8,0.3-1.5,0.6-2.3,0.9v0c0,0,0,0,0,0c-2.1,0.8-4.1,1.6-6.1,2.3
				c0,0-0.1,0-0.1,0.1c-1.9,0.8-3.8,1.5-5.7,2.3c-0.5,0.2-0.9,0.4-1.4,0.6c-1.4,0.6-2.9,1.2-4.2,1.8c-1.9,0.9-3.8,1.7-5.6,2.6
				l-53.1-4.8l0,0l0,0c-9.8,5.2-18.3,10.6-25.5,16.3l2,0.5c0,0,0,0,0,0l42.6,9.9c-0.6,0.5-1.1,1.1-1.7,1.6v0c0,0,0,0,0,0
				c-0.9,0.9-1.7,1.7-2.5,2.6c-0.1,0.1-0.2,0.2-0.3,0.3c-0.7,0.8-1.4,1.6-2.1,2.4c-0.3,0.3-0.5,0.6-0.7,0.9c-0.5,0.6-1,1.2-1.5,1.8
				c-0.7,1-1.4,1.9-2,2.9l-5.2,0.1l-49.8,1.3l0,0l0,0c-3,5.9-4.6,12-4.7,18.2l0.1,0c0,0,0,0,0,0l53.5,4.6c0.6,4.2,2,8.4,4.2,12.5
				l-0.9,0.1l0,0l-48.8,7.4c0.1,0.1,0.2,0.2,0.2,0.3c4.2,6,9.7,11.8,16.7,17.4l55.5-1.7c5.3,3.7,11.3,7.3,17.9,10.8l-2.3,0.8v0
				l-35.2,11.9c0.3,0.2,0.7,0.3,1.1,0.5c10.7,5,22.6,9.8,35.6,14.3l49.7-7.8c9,2.8,18.5,5.4,28.4,7.9L419.2,816l-6.5,5.1
				c0.2,0,0.4,0.1,0.5,0.1c16.1,3.6,33.2,6.9,51.1,9.7l37.2-12.8c11.4,1.6,23.1,3,35.1,4.2l0,2c0,0,0,0,0,0l-0.3,15.2c0,0,0,0,0,0v0
				c19.3,1.6,39.2,2.8,59.7,3.4l19.8-16.1c6.2,0.1,12.4,0.2,18.6,0.2c6.3,0,12.5-0.1,18.6-0.2l19.8,16.1c20.4-0.6,40.3-1.8,59.7-3.4
				v0c0,0,0,0,0,0c0,0,0,0,0,0l-0.1-2.9l-0.2-12.3c0,0,0,0,0,0l0-2c12-1.2,23.7-2.6,35.1-4.2l37.2,12.8c18.1-2.8,35.3-6.1,51.6-9.8
				l-20.3-16c10-2.5,19.5-5.1,28.4-7.9l49.7,7.8c13.4-4.6,25.7-9.5,36.7-14.8l-37.5-12.6c6.7-3.5,12.7-7.1,17.9-10.8l55.5,1.7
				c6.4-5.1,11.6-10.5,15.6-15.9l0,0c0.2-0.3,0.4-0.5,0.6-0.8c0.2-0.3,0.5-0.7,0.8-1l-49.7-7.6c2.2-4.1,3.6-8.2,4.2-12.5l53.5-4.6
				c0,0,0,0,0,0L1011.7,726.1L1011.7,726.1L1011.7,726.1z M906.3,727.1C906.3,727.1,906.3,727.1,906.3,727.1
				c-0.8,20.2-24.4,38.7-63.1,53.1c0,0-0.1,0-0.1,0c-2.7,1-5.5,2-8.4,3c-0.1,0-0.3,0.1-0.4,0.1c-2.8,0.9-5.6,1.9-8.6,2.8
				c-0.2,0.1-0.5,0.1-0.7,0.2c-2.8,0.9-5.7,1.7-8.7,2.5c-0.4,0.1-0.8,0.2-1.1,0.3c-2.8,0.8-5.7,1.6-8.7,2.3c-0.5,0.1-1,0.2-1.5,0.4
				c-2.9,0.7-5.7,1.4-8.7,2.1c-0.6,0.1-1.3,0.3-2,0.4c-2.8,0.6-5.7,1.3-8.6,1.9c-0.8,0.2-1.6,0.3-2.5,0.5c-2.8,0.6-5.6,1.1-8.5,1.7
				c-1,0.2-2,0.4-3,0.5c-2.8,0.5-5.5,1-8.3,1.5c-1.1,0.2-2.3,0.4-3.5,0.6c-2.7,0.4-5.4,0.9-8.2,1.3c-1.3,0.2-2.7,0.4-4.1,0.6
				c-2.6,0.4-5.2,0.8-7.9,1.1c-1.5,0.2-3.1,0.4-4.6,0.6c-2.5,0.3-5.1,0.6-7.7,0.9c-1.7,0.2-3.5,0.4-5.2,0.5
				c-2.4,0.3-4.9,0.5-7.4,0.8c-1.9,0.2-3.9,0.3-5.8,0.5c-2.3,0.2-4.7,0.4-7.1,0.6c-2.1,0.2-4.2,0.3-6.3,0.5
				c-2.3,0.2-4.5,0.3-6.8,0.5c-2.3,0.1-4.7,0.3-7,0.4c-2.1,0.1-4.2,0.2-6.3,0.3c-2.6,0.1-5.3,0.2-7.9,0.3c-1.9,0.1-3.7,0.2-5.6,0.2
				c-3.1,0.1-6.2,0.2-9.2,0.2c-1.5,0-3,0.1-4.5,0.1c-4.6,0.1-9.3,0.1-13.9,0.1c-4.7,0-9.3,0-14-0.1c-1.5,0-3-0.1-4.4-0.1
				c-3.1-0.1-6.2-0.1-9.3-0.2c-1.9-0.1-3.7-0.1-5.5-0.2c-2.7-0.1-5.4-0.2-8-0.3c-2.1-0.1-4.1-0.2-6.2-0.3c-2.4-0.1-4.8-0.2-7.2-0.4
				c-2.2-0.1-4.4-0.3-6.7-0.5c-2.1-0.2-4.3-0.3-6.4-0.5c-2.3-0.2-4.6-0.4-7-0.6c-2-0.2-3.9-0.3-5.9-0.5c-2.4-0.2-4.8-0.5-7.3-0.8
				c-1.8-0.2-3.6-0.4-5.3-0.6c-2.5-0.3-5-0.6-7.5-0.9c-1.6-0.2-3.2-0.4-4.7-0.6c-2.6-0.3-5.2-0.7-7.8-1.1c-1.4-0.2-2.8-0.4-4.2-0.6
				c-2.7-0.4-5.4-0.8-8-1.3c-1.2-0.2-2.4-0.4-3.6-0.6c-2.8-0.5-5.5-1-8.2-1.5c-1-0.2-2.1-0.4-3.1-0.6c-2.8-0.5-5.6-1.1-8.4-1.7
				c-0.8-0.2-1.7-0.3-2.6-0.5c-2.9-0.6-5.7-1.2-8.6-1.9c-0.7-0.2-1.4-0.3-2-0.5c-2.9-0.7-5.8-1.4-8.6-2.1c-0.5-0.1-1.1-0.3-1.6-0.4
				c-2.9-0.7-5.8-1.5-8.6-2.3c-0.4-0.1-0.8-0.2-1.2-0.3c-2.9-0.8-5.8-1.7-8.6-2.5c-0.3-0.1-0.6-0.2-0.8-0.2
				c-2.9-0.9-5.7-1.8-8.5-2.7c-0.2-0.1-0.3-0.1-0.5-0.2c-2.8-1-5.6-1.9-8.3-2.9c-0.1,0-0.1-0.1-0.2-0.1
				c-38.8-14.4-62.4-32.9-63.1-53.1c0,0,0,0,0,0c0-0.3-0.1-0.7-0.1-1c0-46.6,121.8-84.5,272-84.5c150.2,0,272,37.8,272,84.5
				C906.4,726.4,906.3,726.7,906.3,727.1z"/>
		</g>
		<g>
			<g>
				<g>
					<path class="st2" d="M794.8,692.7c-14.9-4.6-16.2-22.7-3-40.3c13.2-17.6,36.1-28.2,50.9-23.6l-8.3,11.1
						c-9.7-3-24.6,3.9-33.2,15.4s-7.8,23.3,1.9,26.3L794.8,692.7z"/>
				</g>
				<g>
					<path class="st3" d="M802.1,695c14.9,4.6,37.7-6,50.9-23.6c13.2-17.6,11.9-35.7-3-40.3l-8.3,11.1c9.7,3,10.6,14.8,1.9,26.3
						c-8.6,11.5-23.5,18.4-33.2,15.4L802.1,695z"/>
				</g>
				<g>
					
						<ellipse transform="matrix(0.7727 -0.6348 0.6348 0.7727 -209.3812 679.8689)" class="st4" cx="844.6" cy="632.3" rx="18.7" ry="11.4"/>
				</g>
			</g>
			<polygon class="st2" points="810.4,683.9 833.9,714.8 825.6,725.9 802.1,695 			"/>
			<path class="st3" d="M810.4,683.9l10.9,6.3l24.5-16.2l8.2-17l21.5,20.4l-1.8,21.8c0,0-8,5.9-20.4,16.2
				c-9.2,7.7-19.4-0.5-19.4-0.5L810.4,683.9z"/>
			<polygon class="st2" points="856.7,658.7 833.1,627.8 818,635 798.8,652.1 791.6,679.8 786.8,687.7 809.8,717.9 810.9,712.1 
				816.7,690 831.6,671.7 			"/>
			<polygon class="st4" points="859.2,620.6 883,651.8 856.7,658.7 833.1,627.8 			"/>
			<g>
				<g>
					<path class="st5" d="M818.4,723.6c-14.9-4.6-16.2-22.7-3-40.3c13.2-17.6,36.1-28.2,50.9-23.6l-8.3,11.1
						c-9.7-3-24.6,3.9-33.2,15.4s-7.8,23.3,1.9,26.3L818.4,723.6z"/>
				</g>
				<g>
					<path class="st5" d="M825.6,725.9c14.9,4.6,37.7-6,50.9-23.6c13.2-17.6,11.9-35.7-3-40.3l-8.3,11.1c9.7,3,10.6,14.8,1.9,26.3
						c-8.6,11.5-23.5,18.4-33.2,15.4L825.6,725.9z"/>
				</g>
				<g>
					
						<ellipse transform="matrix(0.7727 -0.6348 0.6348 0.7727 -223.6501 701.8305)" class="st6" cx="868.2" cy="663.2" rx="18.7" ry="11.4"/>
				</g>
			</g>
		</g>
		<g>
			<g>
				<g>
					<g>
						<path class="st6" d="M888.6,657.6c-2.9,3.3-8.3,3.9-14.6,2c-6.3-1.9-13.3-6.3-19.6-12.6c-6.3-6.3-11.1-13-13.8-18.7
							c-2.7-5.7-3.3-10.4-1-13.1L888.6,657.6z"/>
					</g>
					<g>
						<g>
							<path class="st6" d="M926.5,603.9c-5.4,9.8-11.4,19.1-17.7,28c-6.3,8.9-13,17.4-20.2,25.7l-48.9-42.4
								c11.5-13.3,22-27.9,30.2-42.6L926.5,603.9z"/>
						</g>
						<g>
							<path class="st7" d="M843.8,610.4c1.9-3.2,4.7-5.9,8.2-7.8c3.4-1.9,7.4-3,11.6-3.4c8.3-0.7,17,1.6,24.2,6.3
								c7.1,4.8,12.5,12,14.1,20.9c0.8,4.4,0.5,9.1-0.9,13.5c-1.5,4.4-4,8.5-7.3,11.7c5-7.7,6.4-16.5,4.2-23.9
								c-2.1-7.5-6.9-13.7-13.1-17.9c-6.1-4.2-13.6-6.6-21-6.7C856.4,602.8,849.2,605.3,843.8,610.4z"/>
						</g>
					</g>
					<g>
						<g>
							<path class="st6" d="M950,537.2c-0.2,1.6-0.4,3.1-0.7,4.7c-0.3,1.5-0.5,3.1-0.8,4.6c-0.7,3-1.3,6.1-2.1,9
								c-1.5,5.9-3.4,11.6-5.4,17.2c-2,5.5-4.3,10.9-6.7,16.1c-2.5,5.2-5,10.2-7.7,15.1l-56.6-31.4c8.2-14.8,14.1-30.1,15.9-43.9
								L950,537.2z"/>
						</g>
						<g>
							<path class="st7" d="M872.7,567.2c1.1-3.3,3.1-6.3,5.9-8.8c1.4-1.2,2.9-2.3,4.6-3.2c1.7-0.9,3.5-1.7,5.4-2.3
								c3.8-1.2,8-1.9,12.2-2c4.2-0.1,8.5,0.4,12.6,1.6c4.1,1.3,7.9,3.2,11.3,6c3.3,2.7,6.1,6.3,7.9,10.5c0.9,2.1,1.6,4.4,2,6.7
								c0.4,2.3,0.5,4.8,0.3,7.3c-0.5,4.9-2.1,9.7-4.8,13.6c3.5-8.9,2.9-18.3-1-25.2c-3.8-6.9-10.2-11.7-17.3-14
								c-7-2.4-14.8-2.6-21.9-1.2C882.9,557.8,876.8,561.5,872.7,567.2z"/>
						</g>
					</g>
					<g>
						<g>
							<path class="st6" d="M934.1,459c0.5,0.7,0.9,1.4,1.3,2.2l1.3,2.2c0.8,1.5,1.7,3,2.5,4.5c1.5,3.1,3,6.2,4.2,9.5
								c2.6,6.4,4.4,13.2,5.8,20l0.8,5.1c0.3,1.7,0.4,3.4,0.6,5.1c0.4,3.4,0.5,6.7,0.6,10.1c0,1.7,0,3.3,0,5l-0.1,2.5l-0.2,2.4
								c-0.1,1.6-0.2,3.2-0.4,4.9l-0.6,4.8l-64.2-8.5l0.3-2.6l0.2-2.5l0.1-1.2l0-1.2c0-0.8,0-1.6,0-2.4c-0.1-1.6-0.1-3.2-0.3-4.7
								c-0.1-0.8-0.1-1.5-0.3-2.3c-0.1-0.7-0.3-1.5-0.4-2.2c-0.6-2.9-1.3-5.7-2.4-8.4c-0.4-1.4-1.2-2.6-1.8-4
								c-0.3-0.7-0.7-1.3-1.1-1.9l-0.5-1c-0.2-0.3-0.4-0.7-0.6-1L934.1,459z"/>
						</g>
						<g>
							<path class="st7" d="M886.3,523.8c-0.3-2.8,0.2-5.5,1.6-8.2c0.7-1.3,1.5-2.7,2.7-4c1-1.3,2.3-2.6,3.7-4
								c1.4-1.3,2.8-2.6,4.4-3.9c1.6-1.3,3.3-2.5,5-3.6c3.5-2.3,7.3-4.3,11.4-5.6c4.1-1.2,8.4-1.8,12.7-1.2c2.2,0.3,4.3,0.8,6.4,1.7
								c2.1,0.9,4.2,2.1,6.1,3.6c1.9,1.5,3.7,3.4,5.3,5.6c1.5,2.2,2.8,4.6,3.8,7.3c1.8,5.3,2.5,11.2,1.5,16.6
								c-0.1-5.5-1.5-10.7-3.6-15c-1-2.2-2.4-4.1-3.9-5.8c-0.7-0.8-1.5-1.6-2.3-2.3c-0.8-0.7-1.7-1.4-2.5-1.9
								c-3.5-2.3-7.1-3.7-11-4.2c-3.8-0.5-7.6-0.2-11.2,0.7c-3.6,0.9-7.1,2.3-10.4,4.1c-3.2,1.7-6.3,3.8-9.1,5.9
								c-0.7,0.5-1.3,1.1-1.9,1.6c-0.7,0.6-1.3,1.1-1.9,1.7c-1.2,1.1-2.1,2.3-3.1,3.5C888.3,518.6,887,521.1,886.3,523.8z"/>
						</g>
					</g>
					<g>
						<g>
							<path class="st6" d="M878.2,409.2c10.2,5.6,20.4,12.1,30,20.3c9.6,8.1,18.6,18,25.9,29.6l-54.9,34.3c-3.2-5.1-7.5-10-13-14.6
								c-5.4-4.6-11.8-8.9-18.9-12.7L878.2,409.2z"/>
						</g>
						<g>
							<path class="st7" d="M876.7,489.7c-1-0.9-1.7-2-2.5-3.1c-0.7-1.2-1.2-2.6-1.7-4.1c-0.2-0.8-0.4-1.6-0.5-2.4
								c-0.1-0.8-0.2-1.7-0.3-2.6c-0.2-1.8-0.2-3.7,0-5.7c0.2-2,0.4-4,0.8-6c0.4-2,0.9-4,1.6-6c1.4-4,3.3-7.9,5.8-11.4
								c2.5-3.4,5.7-6.4,9.4-8.6c1.9-1.1,3.8-2,6-2.7c2.1-0.6,4.4-1.1,6.8-1.2c2.3-0.1,4.8,0.2,7.3,0.7c1.3,0.3,2.5,0.7,3.7,1.2
								c1.2,0.5,2.4,1.1,3.6,1.7c2.4,1.2,4.6,3.1,6.7,5c2.1,1.9,3.8,4.2,5.3,6.6c-3.7-4.3-8.2-7.2-12.5-9.1
								c-4.4-1.7-8.8-2.4-12.8-1.8c-8,0.9-14.7,5.4-19.2,11.3c-2.3,2.9-4.2,6.2-5.6,9.6c-1.4,3.4-2.5,7-3.2,10.5
								c-0.6,3.4-0.9,6.9-0.6,9.9C874.8,484.6,875.6,487.3,876.7,489.7z"/>
						</g>
					</g>
					<g>
						<g>
							<path class="st6" d="M816.2,385.2c10.3,2.7,20.7,6.1,31.1,9.9l7.8,3c2.6,1.1,5.2,2.2,7.8,3.4c2.6,1.1,5.2,2.4,7.7,3.6
								l3.9,1.9c1.3,0.7,2.6,1.4,3.8,2.1l-30.9,56.9c-14.2-7.7-30.7-13.7-48-18.3L816.2,385.2z"/>
						</g>
						<g>
							<path class="st7" d="M842.2,463.4c-1.7-0.5-3.2-1.3-4.7-2.3c-1.5-0.9-3-2.1-4.2-3.5c-1.2-1.4-2.4-3-3.4-4.7
								c-1-1.7-1.9-3.6-2.5-5.6c-2.7-7.8-2.8-16.8-0.1-24.9c1.4-4,3.5-7.8,6.3-11.1c1.4-1.6,2.9-3.1,4.7-4.5
								c1.7-1.3,3.6-2.5,5.7-3.4c2-0.9,4.2-1.6,6.5-2.1c2.3-0.4,4.7-0.6,7-0.4c2.4,0.2,4.8,0.7,7.1,1.4c2.3,0.7,4.5,1.9,6.5,3.1
								c-2.3-0.8-4.5-1.5-6.8-1.8c-2.2-0.3-4.4-0.4-6.6-0.2c-4.2,0.2-8.2,1.5-11.6,3.5c-3.4,1.9-6.3,4.4-8.6,7.4
								c-2.4,3-4.2,6.3-5.4,9.8c-1.3,3.5-2,7.2-2.2,10.9c-0.2,3.7,0.1,7.5,1,11.1c0.8,3.6,2.3,6.9,4.2,9.9c1,1.5,2.1,2.8,3.3,4.1
								C839.4,461.2,840.7,462.4,842.2,463.4z"/>
						</g>
					</g>
					<g>
						<g>
							<path class="st6" d="M754.5,372.8c20.5,2.9,41.1,6.8,61.8,12.4l-16.9,62.5c-17.3-4.7-35.5-8.2-54-10.8L754.5,372.8z"/>
						</g>
						<g>
							<path class="st7" d="M793.1,446c-3.8-0.3-7.5-1.8-10.8-4.1c-3.3-2.3-6.1-5.5-8.2-9.2c-4.2-7.3-5.6-16.2-4.2-24.6
								c1.6-8.4,6-16.3,13.2-21.4c3.6-2.5,7.9-4.2,12.4-4.9c4.5-0.6,9.2,0,13.4,1.6c-4.4-0.5-8.8-0.3-12.7,0.8
								c-3.9,1.2-7.4,3.1-10.3,5.6c-5.8,4.9-9.6,12-10.9,19.3c-1.4,7.3-0.5,15.1,2.5,21.9c1.5,3.4,3.6,6.5,6.3,9
								C786.4,442.6,789.5,444.7,793.1,446z"/>
						</g>
					</g>
					<g>
						<path class="st6" d="M754.5,372.8c-4.1-0.5-8.4,2.5-11.8,8c-3.4,5.5-6,13.3-7.1,22.2c-1.1,8.9-0.5,17.1,1.3,23.3
							c1.8,6.1,4.7,10.2,8.4,10.7L754.5,372.8z"/>
					</g>
				</g>
			</g>
		</g>
	</g>
</g>
<g id="Cosmo">
</g>
<g id="Belle">
</g>
<g id="Rivet">
</g>
<g id="Spring">
</g>
<g id="Eileen">
</g>
<g id="Levi">
</g>
<g id="Oscar">
</g>
<g id="Rex">
</g>
</svg>
