<?xml version="1.0" encoding="utf-8"?>
<!-- Generator: Adobe Illustrator 24.2.1, SVG Export Plug-In . SVG Version: 6.00 Build 0)  -->
<svg version="1.1" xmlns="http://www.w3.org/2000/svg" xmlns:xlink="http://www.w3.org/1999/xlink" x="0px" y="0px"
	 viewBox="0 0 1336.9 1389.3" style="enable-background:new 0 0 1336.9 1389.3;" xml:space="preserve">
<style type="text/css">
	.st0{clip-path:url(#SVGID_1_);fill:#F2D42D;}
	.st1{clip-path:url(#SVGID_1_);fill:#694D81;}
	.st2{clip-path:url(#SVGID_1_);fill:#DDDDDD;}
	.st3{fill:#B59510;}
	.st4{clip-path:url(#SVGID_2_);fill:#F2D42D;}
	.st5{clip-path:url(#SVGID_2_);fill:#694D81;}
	.st6{clip-path:url(#SVGID_2_);fill:#DDDDDD;}
	.st7{clip-path:url(#SVGID_3_);fill:#F2D42D;}
	.st8{clip-path:url(#SVGID_3_);fill:#B59510;}
	.st9{clip-path:url(#SVGID_4_);fill:#F2D42D;}
	.st10{clip-path:url(#SVGID_4_);fill:#694D81;}
	.st11{clip-path:url(#SVGID_4_);fill:#DDDDDD;}
	.st12{fill:#DDDDDD;}
	.st13{fill:#D8B81A;}
	.st14{fill:#F2D42D;}
	.st15{fill:#694D81;}
	.st16{fill:#93790C;}
	.st17{clip-path:url(#SVGID_5_);fill:#F2D42D;}
	.st18{clip-path:url(#SVGID_5_);fill:#694D81;}
	.st19{clip-path:url(#SVGID_5_);fill:#DDDDDD;}
	.st20{fill:#3F3268;}
	.st21{fill:#8A96AB;}
	.st22{clip-path:url(#SVGID_6_);fill:#D8B81A;}
	.st23{clip-path:url(#SVGID_6_);fill:#F2D42D;}
	.st24{clip-path:url(#SVGID_6_);fill:#B59510;}
	.st25{clip-path:url(#SVGID_6_);}
	.st26{clip-path:url(#SVGID_7_);fill:none;stroke:#C5E6F9;stroke-width:2.1054;stroke-miterlimit:10;}
	.st27{clip-path:url(#SVGID_13_);fill:#F2D42D;}
	.st28{clip-path:url(#SVGID_13_);fill:#B59510;}
	.st29{clip-path:url(#SVGID_15_);fill:#F2D42D;}
	.st30{clip-path:url(#SVGID_15_);fill:#D8B81A;}
	.st31{fill:#C5E6F9;}
	.st32{fill:none;stroke:#939598;stroke-width:5.0481;stroke-miterlimit:10;}
	.st33{fill:#581D7F;}
	.st34{clip-path:url(#SVGID_17_);fill:#F2D42D;}
	.st35{clip-path:url(#SVGID_17_);fill:#D8B81A;}
</style>
<g id="Sergeant">
</g>
<g id="Elton">
</g>
<g id="Fred">
</g>
<g id="Bubbles">
</g>
<g id="Dolores">
	<g>
		<g>
			<g>
				<defs>
					<path id="SVGID_22_" d="M643.3,1253.7l-1.6-0.2l-8.6-113.6l-2.7-126.1l-31.7,17.5l17.9,219.4c-0.5,2.1-0.7,4.2-0.6,6.4
						c0.3,7.8,4.3,13.5,9.4,14.1l0,0l26,3.5L643.3,1253.7z"/>
				</defs>
				<use xlink:href="#SVGID_22_"  style="overflow:visible;fill:#F2D42D;"/>
				<clipPath id="SVGID_1_">
					<use xlink:href="#SVGID_22_"  style="overflow:visible;"/>
				</clipPath>
				<polygon class="st0" points="585,1021.5 635.8,1008.7 661,1281.7 606.3,1271.1 				"/>
				<path class="st1" d="M632.3,1259.8c-0.1-2.5,0.2-5,0.8-7.3l-8.4-0.9c-0.8,2.6-1.2,5.4-1,8.2c0.2,5.2,2,9.4,4.7,11.9l10.7,1.4
					C635.2,1271.2,632.5,1266.2,632.3,1259.8z"/>
				<polygon class="st2" points="608.2,1260.8 648,1267.7 658.2,1276.7 659.9,1281.1 610.7,1274 				"/>
			</g>
			<g>
				<g>
					<polygon class="st3" points="660.6,1253.7 642.5,1263.7 623.9,1034.7 655.5,1017.2 					"/>
					
						<ellipse transform="matrix(0.1259 -0.992 0.992 0.1259 -677.4089 1746.7341)" class="st3" cx="652.5" cy="1257.8" rx="17" ry="11.4"/>
				</g>
			</g>
		</g>
		<g>
			<g>
				<defs>
					<path id="SVGID_20_" d="M650.3,736.4c0.2-1.3,0.3-2.6,0.4-3.9l21-20.8l-33.1-6.3l0,0c-4.7-1.1-10.4,0.2-16.6,4.6
						c-15.9,11.2-28.9,37.5-28.9,58.7l2.1,239c-1.5,4.5-2.3,9.1-2.3,13.4c0,8.8,3.5,14,8.8,14.6l32.8,6.3l5.5-28l-10.9-2.2
						L650.3,736.4z"/>
				</defs>
				<clipPath id="SVGID_2_">
					<use xlink:href="#SVGID_20_"  style="overflow:visible;"/>
				</clipPath>
				<path class="st4" d="M635.3,692.7l-40.8,32.4c0,0-16.7,58.1-16.2,59.7c0.6,1.7,2.8,254.6,2.8,254.6l62.5,15.6l25.7-304.8
					l14-39.6L635.3,692.7z"/>
				<path class="st5" d="M606.1,1009.7l9.8,1.5c0,0-9.9,19.1,2.8,28.3l-9.2-2c0,0-6.6-4.5-7.4-12.6
					C601.5,1019.4,603.3,1012.5,606.1,1009.7z"/>
				<polygon class="st6" points="591.2,1026.1 631,1033 641.3,1042 643,1046.4 593.8,1039.3 				"/>
			</g>
			<g>
				
					<ellipse transform="matrix(0.4052 -0.9142 0.9142 0.4052 -300.1284 1048.6411)" class="st3" cx="655.8" cy="755" rx="46.4" ry="24"/>
				<polygon class="st3" points="659.6,1001.9 629.2,1023.2 627,775.2 675.8,741 				"/>
				
					<ellipse transform="matrix(0.4052 -0.9142 0.9142 0.4052 -544.1298 1193.2511)" class="st3" cx="645" cy="1014.8" rx="29.2" ry="15.1"/>
			</g>
		</g>
		<g>
			<defs>
				<path id="SVGID_18_" d="M619,1269.4l26,3.8c0,0,4,0.1,12.3-4.2c5.4-2.8,7.4-6.4,8.2-4.6c5.4,11.7,7.1,28.5,4.6,31.8
					c-2.5,3.3-58.2,35.2-67.4,36c-9.2,0.8-47.7-5-46.9-10.9s31.4-15.1,36-20.5C596.3,1295.4,610.2,1280.7,619,1269.4z"/>
			</defs>
			<clipPath id="SVGID_3_">
				<use xlink:href="#SVGID_18_"  style="overflow:visible;"/>
			</clipPath>
			<polygon class="st7" points="615.5,1265 576.4,1301 548.5,1319 562.6,1333.3 611.8,1336.6 679,1295.2 670.4,1254.6 			"/>
			<path class="st8" d="M553.6,1317.4c0,0,35,8.6,45.4,7.5c10.5-1,43.1-33.7,45.2-38.7c2.1-5,2.3-17.6,2.3-17.6l24.3-11.5l5.7,41.2
				l-70.3,36.8l-35.2-0.4l-20.1-12.6L553.6,1317.4z"/>
		</g>
		<g>
			<g>
				<defs>
					<path id="SVGID_16_" d="M767.2,1279.4l-1.6-0.2l-8.6-113.6l-2.7-126.1l-31.7,17.5l17.9,219.4c-0.5,2.1-0.7,4.2-0.6,6.4
						c0.3,7.8,4.3,13.5,9.4,14.1l0,0l26,3.5L767.2,1279.4z"/>
				</defs>
				<clipPath id="SVGID_4_">
					<use xlink:href="#SVGID_16_"  style="overflow:visible;"/>
				</clipPath>
				<polygon class="st9" points="709,1047.2 759.8,1034.4 784.9,1307.4 730.2,1296.8 				"/>
				<path class="st10" d="M756.2,1285.5c-0.1-2.5,0.2-5,0.8-7.3l-8.4-0.9c-0.8,2.6-1.2,5.4-1,8.2c0.2,5.2,2,9.4,4.7,11.9l10.7,1.4
					C759.2,1296.8,756.5,1291.9,756.2,1285.5z"/>
				<polygon class="st11" points="732.1,1286.5 771.9,1293.4 782.2,1302.4 783.9,1306.8 734.7,1299.7 				"/>
			</g>
			<g>
				<g>
					<polygon class="st3" points="784.5,1279.4 766.5,1289.4 747.8,1060.4 779.5,1042.9 					"/>
					
						<ellipse transform="matrix(0.1259 -0.992 0.992 0.1259 -594.5508 1892.1411)" class="st3" cx="776.5" cy="1283.5" rx="17" ry="11.4"/>
				</g>
			</g>
		</g>
		<g>
			<path class="st12" d="M645.9,779.2c0,0-14.7-6.7-7.8-24.6c4.7-12.3,3.9-27.4,3.9-27.4l-5.2-27.2l111.1-3.3c0,0,3.5,38.3,2.4,46.7
				c-3.1,22.9-23.4,51.4-38.5,50.2L645.9,779.2z"/>
			<path class="st13" d="M704.5,774.2c5.9-15.4,6.4-31.5,6.4-31.5l-10.8-44.5l-63.4,1.9l5.2,27.2c0,0,0.8,15.1-3.9,27.4
				c-6.9,17.9,7.8,24.6,7.8,24.6l63,13.9C703.4,790.6,700.2,785.5,704.5,774.2z"/>
			<path class="st3" d="M747.9,696.8l-47.7,1.4l10.8,44.5c0,0-0.6,16.2-6.4,31.5c-4.3,11.3-1.1,16.4,4.3,18.9l2.9,0.6
				c15.1,1.1,35.5-27.4,38.5-50.2C751.4,735.1,747.9,696.8,747.9,696.8z"/>
			<ellipse class="st14" cx="692.1" cy="696.8" rx="55.8" ry="24.7"/>
		</g>
		<path class="st15" d="M582.8,424.1c0,30.4,23.6,43.5,36.3,43.5s22.9-19.5,22.9-43.5s-10.2-43.5-22.9-43.5S582.8,393.8,582.8,424.1
			z"/>
		<path class="st16" d="M625.5,368c0,0-44.4,68.7-39.4,138.2c0,0,24.3,106.8,34.3,114.3c6.3,4.7,18.1,24.7,67.3,25.8
			c20.1,0.5,39.4-1.1,69.2-26.2c0,0,29.3-69.5,32.7-138.2c3.3-68.7,22.6-115.6-63.6-134C667.4,335.4,625.5,368,625.5,368z"/>
		<g>
			<g>
				<defs>
					<path id="SVGID_14_" d="M774.3,762.1c0.2-1.3,0.3-2.6,0.4-3.9l21-20.8l-33.1-6.3l0,0c-4.7-1.1-10.4,0.2-16.6,4.6
						c-15.9,11.2-28.9,37.5-28.9,58.7l2.1,239c-1.5,4.5-2.3,9.1-2.3,13.4c0,8.8,3.5,14,8.8,14.6l32.8,6.3l5.5-28l-10.9-2.2
						L774.3,762.1z"/>
				</defs>
				<clipPath id="SVGID_5_">
					<use xlink:href="#SVGID_14_"  style="overflow:visible;"/>
				</clipPath>
				<path class="st17" d="M759.2,718.4l-40.8,32.4c0,0-16.7,58.1-16.2,59.7c0.6,1.7,2.8,254.6,2.8,254.6l62.5,15.6l25.7-304.8
					l14-39.6L759.2,718.4z"/>
				<path class="st18" d="M730.1,1035.3l9.8,1.5c0,0-9.9,19.1,2.8,28.3l-9.2-2c0,0-6.6-4.5-7.4-12.6
					C725.5,1045.1,727.3,1038.1,730.1,1035.3z"/>
				<polygon class="st19" points="715.2,1051.8 755,1058.7 765.2,1067.7 766.9,1072.1 717.7,1065 				"/>
			</g>
			<g>
				
					<ellipse transform="matrix(0.4052 -0.9142 0.9142 0.4052 -249.8841 1177.2324)" class="st3" cx="779.8" cy="780.7" rx="46.4" ry="24"/>
				<polygon class="st3" points="783.6,1027.6 753.1,1048.9 750.9,800.9 799.7,766.7 				"/>
				
					<ellipse transform="matrix(0.4052 -0.9142 0.9142 0.4052 -493.8856 1321.8424)" class="st3" cx="768.9" cy="1040.5" rx="29.2" ry="15.1"/>
			</g>
		</g>
		<g>
			<circle class="st15" cx="547.2" cy="585.5" r="17"/>
			<path class="st14" d="M530.7,575.1c0,0,6.4,8.1,16.8,12.1c10,3.9,19.9,2.3,19.9,2.3l70.5-146.8c-5.5,0.3-20.4-5.1-32.8-14.9
				c-13.6-10.7-18.6-24.2-16.7-32.9L530.7,575.1z"/>
		</g>
		<g>
			<g>
				<path class="st20" d="M739.8,574.1l0-0.2c1.1-17.1-18.4-30.5-44.2-31.2c-26-0.6-49.1,15.8-50.3,35.4l0,0.2L739.8,574.1z"/>
			</g>
			<g>
				<path class="st15" d="M647.3,700.4c-4.1-40.6-4.6-81.2-2.1-122.1l94.7-4.2c-2.2,36.4-1.9,79.4,1.7,114.6c0,0-6.6,19-47.8,22.7
					C655.9,714.8,647.3,700.4,647.3,700.4z"/>
				<g>
					<path class="st21" d="M739.4,581.1c0.8,8.1-4,17.1-13.1,24.2c-9,7.2-22,12.3-35.2,13.6c-13.1,1.3-26.3-1.4-35-7.7
						c-8.9-6.1-13-15.7-11.3-25c0.6,9.2,6.1,17.2,14.6,22.4c8.5,5.2,20,7.3,31.7,6.2c11.7-1,23.2-5.3,32-11.4
						C731.9,597.3,737.9,589.3,739.4,581.1z"/>
				</g>
				<g>
					<path class="st21" d="M738.6,633.9c1.5,8-2.7,17.2-11.3,24.8c-8.5,7.7-21.3,13.7-34.4,15.9c-13.2,2.2-26.5,0.5-35.7-5.1
						c-9.5-5.5-14.3-14.7-13.3-24c1.4,9,7.4,16.7,16.4,21.2c9,4.5,20.7,5.8,32.4,3.9c11.6-1.9,23-6.9,31.3-13.5
						C732.2,650.4,737.8,642.2,738.6,633.9z"/>
				</g>
			</g>
		</g>
		<g>
			<g>
				<g>
					<g>
						<path class="st15" d="M667.8,254.8c0.1-6.3,10.7-11.2,23.4-10.5c12.7,0.7,22.8,5.7,22.7,11.5L667.8,254.8z"/>
					</g>
					<g>
						<g>
							<path class="st15" d="M668.6,301.6c-0.9-15.7-1.1-31.2-0.8-46.8l46,1c-0.3,14.4-0.1,28.9,0.7,43.1L668.6,301.6z"/>
						</g>
						<g>
							<path class="st21" d="M713.8,261c0.3,3-0.1,6.2-1.1,9.1c-1.1,2.9-2.9,5.6-5.1,7.8c-4.5,4.4-10.5,6.8-16.5,7
								c-6.1,0.1-12.2-2-16.8-6.5c-2.3-2.2-4.2-5-5.3-8.2c-1.1-3.2-1.5-6.6-1.1-9.8c0.6,6.5,3.7,12.1,8.1,15.6c4.4,3.5,9.8,5.2,15,5
								c5.3-0.1,10.6-2,14.9-5.4C710,272.2,713,267,713.8,261z"/>
						</g>
					</g>
					<g>
						<g>
							<path class="st15" d="M673.9,349.1c-2.9-16-4.4-31.8-5.3-47.5l46-2.6c0.8,14.3,2.3,28.4,4.7,41.9L673.9,349.1z"/>
						</g>
						<g>
							<path class="st21" d="M714.9,304.1c0.6,2.9,0.4,6.1-0.4,9c-0.4,1.5-1,2.9-1.8,4.3c-0.7,1.4-1.6,2.6-2.6,3.8
								c-4.1,4.7-9.8,7.7-15.8,8.5c-6,0.7-12.4-0.8-17.4-4.9c-1.3-1-2.4-2.2-3.4-3.5c-1-1.3-1.9-2.8-2.6-4.3c-1.4-3.1-2-6.5-1.9-9.8
								c1.2,6.5,4.7,11.9,9.4,15c4.7,3.1,10.2,4.3,15.4,3.6c5.2-0.6,10.4-3,14.3-6.7C712.1,315.4,714.6,310.1,714.9,304.1z"/>
						</g>
					</g>
					<g>
						<g>
							<path class="st15" d="M690,398.8c-4.7-8.7-7.8-17.1-10.3-25.3c-2.5-8.3-4.3-16.4-5.7-24.4l45.3-8.2
								c1.2,6.7,2.7,13.3,4.5,19.4c1.8,6.1,4,11.8,6.5,16.3L690,398.8z"/>
						</g>
						<g>
							<path class="st21" d="M720.2,345.6c0.4,1.4,0.8,2.7,0.9,4.2c0.1,0.7,0.1,1.4,0.1,2.2c0,0.7-0.1,1.4-0.2,2.1
								c-0.2,1.4-0.6,2.9-1.1,4.2c-0.5,1.4-1.2,2.7-2,4c-1.7,2.6-3.6,4.8-6,6.7c-2.4,1.9-5,3.5-7.9,4.5c-2.9,1-5.9,1.5-9,1.2
								c-3.1-0.2-6.2-1.1-9.1-2.8c-1.4-0.8-2.8-1.9-4.1-3.1c-1.3-1.2-2.3-2.6-3.3-4.1c-0.5-0.8-0.9-1.6-1.3-2.4
								c-0.4-0.8-0.7-1.6-1-2.5c-0.6-1.7-1-3.4-1.1-5.1c2.1,6.6,6.5,11.8,11.7,14.2c2.6,1.2,5.3,1.9,8,2c2.7,0.1,5.4-0.3,7.9-1.1
								c2.5-0.8,4.9-2,7.1-3.6c2.2-1.6,4.2-3.4,5.8-5.5C718.8,356.6,720.6,351.3,720.2,345.6z"/>
						</g>
					</g>
					<g>
						<path class="st15" d="M690,398.8c0.9,1.7,2.6,3.1,4.5,4c1,0.4,2,0.7,3.1,0.9c1.1,0.2,2.4,0.2,3.6,0.1c5-0.3,10.2-3,15.1-7.1
							c4.9-4.1,8.6-8.7,11.2-12.2c0.6-0.9,1.2-1.7,1.7-2.5c0.5-0.8,0.9-1.6,1.1-2.2c0.5-1.4,0.6-2.4,0.1-3.4L690,398.8z"/>
					</g>
				</g>
			</g>
		</g>
		<g>
			<defs>
				<path id="SVGID_11_" d="M745,353c-11.3,32.4-51.5,34.7-77.4,27.9c-24-6.4-7-25.7-0.3-31.8c-33.2,8.7-41.9,19-41.9,19
					s-44.4,68.7-39.4,138.2c0,0,24.3,106.8,34.3,114.3c0.6,0.4,1.3,1,2.1,1.7c2.2-1.1,4-3.3,4.6-7.6c1.7-12.6-1.3-37.3,23.4-35.6
					c24.8,1.7,26,33.5,52.8,45.2c26.8,11.7,38.5,5,53.6-4.2c0,0,29.3-69.5,32.7-138.2C792.7,418.8,809.2,374.1,745,353z"/>
			</defs>
			<clipPath id="SVGID_6_">
				<use xlink:href="#SVGID_11_"  style="overflow:visible;"/>
			</clipPath>
			<rect x="578.7" y="334.5" class="st22" width="215" height="319.1"/>
			<polygon class="st23" points="598.7,414.1 678.3,375.6 746.1,441.4 813.1,383.1 736.1,341.2 651.5,341.2 603.7,364.7 			"/>
			<path class="st24" d="M795.5,390.6c0,0-13.4-18.4-31-10c-17.6,8.4-48.6,83.7-52.8,103.8c-4.2,20.1-7.8,71.1-7.3,83.7
				c0.6,13.7-2.2,64,35.2,68.1c37.4,4.1,70.1-82.4,70.1-82.4S843.3,397.3,795.5,390.6z"/>
			<path class="st24" d="M665.7,347.4c0,0-10.1,9.3-12.3,14.5c-2.4,5.5-5,15.4,14.2,19c19.3,3.6,7-27.9,7-27.9
				S683.3,344.3,665.7,347.4z"/>
			<path class="st24" d="M653.7,580.2c0,0-8.4-4.5-18.1-1.7c-7.2,2-10.3,14-10.9,19.5c-0.7,6.3,0,21.5-8.1,24
				c-8.1,2.5,21.8,9.2,21.8,9.2L653.7,580.2z"/>
			<g class="st25">
				<polygon class="st3" points="674.8,510.2 601.5,497.9 613.1,445.5 688.6,452.3 				"/>
				<g>
					<defs>
						<polygon id="SVGID_12_" points="675.3,508.2 605.2,496.5 616.4,446.4 688.4,452.9 						"/>
					</defs>
					<use xlink:href="#SVGID_12_"  style="overflow:visible;fill:#694D81;"/>
					<clipPath id="SVGID_7_">
						<use xlink:href="#SVGID_12_"  style="overflow:visible;"/>
					</clipPath>
					<polyline class="st26" points="605,477.2 618,463.2 623.2,480.9 627.8,472 628,485.7 638.2,461.1 639.6,485 650.8,468.6 
						655.3,486.6 665.8,463.5 663.1,495.3 671.9,477.1 672.1,490.5 686,468.2 					"/>
				</g>
			</g>
		</g>
		<path class="st15" d="M809.5,432c0,30.4-23.6,43.5-36.3,43.5c-12.6,0-22.9-19.5-22.9-43.5s10.2-43.5,22.9-43.5
			C785.8,388.4,809.5,401.6,809.5,432z"/>
		<g>
			<defs>
				<path id="SVGID_10_" d="M742.9,1295.1l26,3.8c0,0,4,0.1,12.3-4.2c5.4-2.8,7.4-6.4,8.2-4.6c5.4,11.7,7.1,28.5,4.6,31.8
					c-2.5,3.3-58.2,35.2-67.4,36c-9.2,0.8-47.7-5-46.9-10.9s31.4-15.1,36-20.5S734.1,1306.4,742.9,1295.1z"/>
			</defs>
			<clipPath id="SVGID_13_">
				<use xlink:href="#SVGID_10_"  style="overflow:visible;"/>
			</clipPath>
			<polygon class="st27" points="739.5,1290.7 700.3,1326.7 672.5,1344.7 686.5,1359 735.7,1362.3 802.9,1320.9 794.3,1280.2 			"/>
			<path class="st28" d="M677.5,1343c0,0,35,8.6,45.4,7.5c10.5-1,43.1-33.7,45.2-38.7c2.1-5,2.3-17.6,2.3-17.6l24.3-11.5l5.7,41.2
				l-70.3,36.8l-35.2-0.4l-20.1-12.6L677.5,1343z"/>
		</g>
		<g>
			<circle class="st15" cx="631.9" cy="543.3" r="17"/>
			<path class="st14" d="M646.2,556.6c0,0,1.6-13.2-5-22.1c-6.3-8.7-18.4-9.6-18.4-9.6l127.4-111.1c6.3-2.7,18.2-4.7,32.1,2.8
				c16.3,8.8,23.1,41.9,13.6,50.9L646.2,556.6z"/>
			<path class="st14" d="M610,372.7l19.2-1.1l22.1,168.6c0,0-5.8-2.5-18.2-1.5c-13,1-18.6,4.4-18.6,4.4L610,372.7z"/>
			<g>
				<g>
					<defs>
						<path id="SVGID_9_" d="M610,377L599,335c0,0-0.5-3.6,0.7-4.4c2.8-2.1,10.6-2.2,24.3,3.2c19.4,7.6,28.5,26.9,28.5,26.9
							L631.5,388L610,377z"/>
					</defs>
					<clipPath id="SVGID_15_">
						<use xlink:href="#SVGID_9_"  style="overflow:visible;"/>
					</clipPath>
					<polygon class="st29" points="627.2,393.8 659.9,357.2 620.2,327.9 594.5,332.7 605.7,382.8 					"/>
					<path class="st30" d="M622.5,404.2l16.1-20c0,0-14.4-11.8-25.3-12.8c-10.8-1-20.5,5-20.5,5l7,19.4L622.5,404.2z"/>
				</g>
				<path class="st15" d="M629.5,341c0,0-8.4-4.3-17.6-5.7c-11.1-1.7-12.3-0.1-12.3-0.1s-0.9-2.8,0.3-4.1c1.2-1.2,9.5-0.9,11.4-0.7
					c1.8,0.3,18.5,6.6,18.5,6.6L629.5,341z"/>
				<circle class="st15" cx="645.3" cy="355.1" r="8.5"/>
				<g>
					<path class="st14" d="M627.5,338.6c0,0-1.7,7.6,4.1,9.3c5.1,1.5,7.7-4.4,7.7-4.4l3.9-22.2c0,0,10.2-9.1,5.5-15.8l-14.9,8.5
						L627.5,338.6z"/>
					<path class="st13" d="M599.2,332.3l9.8-21.7l22.2-7.9l17.4,2.9l-14.9,8.5l-6.3,24.6c0,0-7.8-5.2-17-7.2
						C607,330.8,602,330.9,599.2,332.3z"/>
					<polygon class="st3" points="609,310.6 633.8,314 648.7,305.5 631.3,302.7 					"/>
				</g>
				
					<ellipse transform="matrix(0.9952 -9.768169e-02 9.768169e-02 0.9952 -30.335 63.5045)" class="st15" cx="633.4" cy="341.6" rx="4.8" ry="5.5"/>
				<g>
					<path class="st14" d="M653.9,325.8c7.7-3.7,14.1-1.5,14.1-1.5l-14,34c0,0-4.1,4.5-10.9,1.5c-6.3-2.8-5.8-8.4-5.8-8.4l6.8-13.9
						C644.1,337.5,649.1,328.1,653.9,325.8z"/>
					<path class="st3" d="M638.9,356.5c0-0.1,0-0.1,0-0.1l6.8-13.9c0,0,4.9-9.3,9.8-11.7c4.3-2.1,8.1-2.3,10.7-2.1l1.8-4.3
						c0,0-6.4-2.3-14.1,1.5c-4.9,2.4-9.8,11.7-9.8,11.7l-6.8,13.9C637.3,351.4,637.1,354,638.9,356.5z"/>
				</g>
			</g>
		</g>
		<g>
			<g>
				<g>
					
						<ellipse transform="matrix(0.1912 -0.9815 0.9815 0.1912 248.7663 805.7797)" class="st15" cx="613.3" cy="251.9" rx="14.4" ry="2.8"/>
					
						<ellipse transform="matrix(0.1912 -0.9815 0.9815 0.1912 253.8391 815.1375)" class="st15" cx="621.6" cy="253.5" rx="14.4" ry="2.8"/>
					
						<rect x="613.3" y="238.3" transform="matrix(0.9815 0.1912 -0.1912 0.9815 59.7313 -113.4226)" class="st15" width="8.3" height="28.8"/>
				</g>
				<g>
					
						<ellipse transform="matrix(0.3698 -0.9291 0.9291 0.3698 199.9566 876.6991)" class="st15" cx="746.2" cy="291" rx="14.4" ry="2.8"/>
					
						<ellipse transform="matrix(0.3698 -0.9291 0.9291 0.3698 197.9316 867.5237)" class="st15" cx="738.5" cy="287.9" rx="14.4" ry="2.8"/>
					
						<rect x="738.2" y="275" transform="matrix(-0.9291 -0.3698 0.3698 -0.9291 1325.0338 832.7946)" class="st15" width="8.3" height="28.8"/>
				</g>
				<g>
					<path class="st14" d="M620.4,256.1C620.4,256.1,620.4,256.1,620.4,256.1c-8.1,27.6,11.7,48.8,44.7,58.4
						c32.9,9.7,66.4,4.2,74.5-23.4c0,0,0,0,0,0L620.4,256.1z"/>
					
						<ellipse transform="matrix(0.2817 -0.9595 0.9595 0.2817 225.8443 849.0182)" class="st16" cx="680" cy="273.7" rx="16" ry="62.1"/>
				</g>
				<path class="st14" d="M745.9,285c0,0-25.4,8.3-71.9-5.4c-46.4-13.6-55.8-32.1-55.8-32.1l24.1-159.4l161.8,48.3L745.9,285z"/>
			</g>
			<g>
				<circle class="st31" cx="745.7" cy="229.7" r="27.6"/>
				<circle class="st20" cx="736.2" cy="224.2" r="13"/>
				<path class="st3" d="M753.4,203.1c0,0-25.7-8.1-34.4,21.6c0,0,19.1-12.2,31.3-9.9c17.7,3.3,23.7,19.9,23.7,19.9
					S776.3,209.9,753.4,203.1z"/>
				<path class="st13" d="M737.2,258.6c-16-4.7-25.1-21.5-20.4-37.4s21.5-25.1,37.4-20.4c16,4.7,25.1,21.5,20.4,37.4
					S753.1,263.3,737.2,258.6z M752.7,205.6c-13.3-3.9-27.3,3.7-31.2,17c-3.9,13.3,3.7,27.3,17,31.2c13.3,3.9,27.3-3.7,31.2-17
					C773.7,223.4,766,209.5,752.7,205.6z"/>
				<g>
					<path class="st20" d="M717.1,222.3c1.4-1.1,2.8-1.9,4.2-2.8c1.4-0.9,2.9-1.7,4.3-2.4c3-1.5,6-2.8,9.3-3.8
						c3.2-1,6.7-1.6,10.2-1.5c1.7,0,3.6,0.3,5.2,0.6c1.6,0.3,3.2,0.8,4.8,1.3c3.2,1.1,6.3,2.5,9,4.4c2.8,1.9,5.2,4.2,7.4,6.7
						c2.2,2.5,4,5.1,6,7.2c1,1,2.1,1.8,3.3,2c1.2,0.3,2.6,0,3.9-0.5c0.7-0.2,1.4,0.1,1.6,0.7c0.2,0.6-0.1,1.3-0.7,1.6
						c-1.6,0.7-3.4,1.2-5.4,0.9c-2-0.3-3.6-1.4-4.9-2.5c-2.5-2.3-4.4-4.9-6.5-7.1c-2.1-2.2-4.4-4.2-7-5.7c-2.5-1.5-5.3-2.7-8.2-3.5
						c-1.4-0.4-2.9-0.7-4.4-0.9c-1.5-0.3-2.8-0.4-4.3-0.3c-2.8,0.1-5.7,0.7-8.5,1.7c-2.8,1-5.5,2.3-8.1,3.8
						c-1.3,0.8-2.6,1.6-3.8,2.4c-1.2,0.8-2.5,1.8-3.6,2.6l0,0c-1.3,1.1-3.3,0.9-4.4-0.4c-1.1-1.3-0.9-3.3,0.4-4.4
						C717,222.4,717,222.3,717.1,222.3z"/>
				</g>
			</g>
			<g>
				<circle class="st31" cx="648.4" cy="201.1" r="27.6"/>
				<circle class="st20" cx="636.6" cy="194.9" r="13"/>
				<path class="st3" d="M656.2,174.6c0,0,26,7.1,17.3,36.8c0,0-9.5-20.5-21-25.2c-16.6-6.8-30.7,3.9-30.7,3.9
					S633.3,167.9,656.2,174.6z"/>
				<path class="st13" d="M639.9,230c-16-4.7-25.1-21.5-20.4-37.4c4.7-16,21.5-25.1,37.4-20.4c16,4.7,25.1,21.5,20.4,37.4
					C672.7,225.6,655.9,234.7,639.9,230z M655.5,177c-13.3-3.9-27.3,3.7-31.2,17c-3.9,13.3,3.7,27.3,17,31.2
					c13.3,3.9,27.3-3.7,31.2-17C676.4,194.9,668.8,180.9,655.5,177z"/>
				<g>
					<path class="st20" d="M670.5,212.4c-0.4-1.3-1-2.8-1.6-4.1c-0.6-1.4-1.2-2.8-1.9-4.1c-1.4-2.7-3-5.2-4.8-7.6
						c-1.8-2.3-3.9-4.4-6.2-6c-1.2-0.8-2.4-1.4-3.8-2c-1.4-0.6-2.8-1.1-4.2-1.6c-2.9-0.9-5.8-1.4-8.8-1.5c-3-0.1-6,0.3-8.9,1
						c-3,0.7-5.9,1.8-9.3,2.4c-1.7,0.3-3.7,0.3-5.5-0.5c-1.8-0.8-3.1-2.2-4-3.6c-0.4-0.6-0.2-1.4,0.4-1.7c0.6-0.4,1.3-0.2,1.7,0.3
						c0.9,1.2,1.9,2.1,3,2.5c1.1,0.4,2.5,0.4,3.9,0.1c2.8-0.6,5.8-1.9,9-2.8c3.1-0.9,6.5-1.6,9.8-1.6c3.4-0.1,6.8,0.3,10,1.2
						c1.6,0.4,3.2,0.9,4.8,1.5c1.5,0.6,3.2,1.3,4.7,2.3c3,1.8,5.5,4.2,7.7,6.8c2.2,2.6,4.1,5.3,5.8,8.2c0.8,1.4,1.6,2.9,2.3,4.4
						c0.7,1.5,1.4,3,2,4.7c0.6,1.6-0.2,3.4-1.8,4c-1.6,0.6-3.4-0.2-4-1.8C670.6,212.5,670.6,212.5,670.5,212.4L670.5,212.4z"/>
				</g>
			</g>
			<g>
				<path class="st13" d="M630.2,89c0,0,5,17.8,5.6,28c0.5,7.8-0.5,17.3-0.5,17.3s8,13.2,70.2,31.5c66.7,19.7,81.5,13,81.5,13
					s4.4-8.3,9.2-15.8c3.8-6,16.2-20.5,16.2-20.5L630.2,89z"/>
				
					<ellipse transform="matrix(0.2817 -0.9595 0.9595 0.2817 407.5283 774.9935)" class="st15" cx="721.4" cy="115.3" rx="13.4" ry="94.9"/>
				<path class="st14" d="M724.5,104.8c61.5,18.1,83.9,32.8,85.5,36.4l2.5,0.7c1.8-7.2-37.2-24.9-87.3-39.6
					c-50.1-14.7-92.5-20.9-94.8-13.9l2.5,0.7C636.2,87,662.9,86.7,724.5,104.8z"/>
				<g>
					<path class="st13" d="M648.2,58.4c0,0,4,23.9,4.2,29.6c0.2,5.6-0.3,24.2-0.3,24.2s2.5,13.7,59.5,30.6c59.7,17.6,70,7.5,70,7.5
						s9.7-15.9,12.7-20.3c3.3-4.7,19.6-22.9,19.6-22.9L648.2,58.4z"/>
				</g>
				
					<ellipse transform="matrix(0.2817 -0.9595 0.9595 0.2817 445.9307 760.6706)" class="st15" cx="731" cy="82.5" rx="12.2" ry="86.3"/>
				<path class="st14" d="M650.8,58.9c1.2-0.6,6.4-2.1,25.9,0.9c15.9,2.5,36.1,7.2,57,13.3c20.9,6.1,40.5,13.1,55.2,19.6
					c18.1,8,21.6,12.2,22.3,13.3c-0.1,0-0.2,0.1-0.3,0.1l2.8,0.8c0-0.1,0.1-0.1,0.1-0.2c1.9-6.5-33.6-22.6-79.3-36
					c-45.7-13.4-84.3-19.1-86.2-12.6c0,0.1,0,0.1,0,0.2l2.8,0.8C650.9,59.1,650.9,59,650.8,58.9z"/>
				<line class="st32" x1="736.3" y1="63.3" x2="727.4" y2="93.8"/>
				<circle class="st33" cx="738.5" cy="55.9" r="27.6"/>
				<path class="st14" d="M810,141.2C810,141.3,810,141.3,810,141.2c-2.9,2.3-29.6,2.8-91.6-15.4s-84.3-33-85.5-36.5
					c0,0,0.1,0,0.1-0.1l-2.5-0.7c0,0,0,0,0,0.1c-2.1,7.1,37,24.9,87.3,39.6c50.3,14.8,92.8,21,94.9,13.8c0,0,0-0.1,0-0.1L810,141.2z
					"/>
				<path class="st14" d="M810.9,106.2c-1.6,0.6-7.4,1.8-25.6-1c-15.9-2.5-36.1-7.2-57-13.3c-20.9-6.1-40.5-13.1-55.2-19.6
					c-16.9-7.5-21.1-11.6-22.1-13l-2.8-0.8c-1.1,6.6,34.1,22.5,79.4,35.8c45.3,13.3,83.5,18.9,86.1,12.8L810.9,106.2z"/>
			</g>
		</g>
		<path class="st14" d="M670.3,588.6l-1.8-22l-124.3-0.6c0,0-5.7,6.7-4.9,19c0.9,13,7.3,17.8,7.3,17.8L670.3,588.6z"/>
		<g>
			<g>
				<circle class="st15" cx="672" cy="587.6" r="7.9"/>
				<g>
					<path class="st13" d="M698.4,598.2c2.8,7.5,0.1,13.3,0.1,13.3l-30.3-16.1c0,0-3.8-4.2-0.4-10.2c3.2-5.6,8.3-4.7,8.3-4.7
						l12.3,7.6C688.5,588.1,696.7,593.5,698.4,598.2z"/>
					<path class="st3" d="M671.3,581.5c0.1,0,0.1,0,0.1,0l12.3,7.6c0,0,8.2,5.4,10,10.2c1.5,4.1,1.4,7.8,1,10.2l3.9,2.1
						c0,0,2.7-5.8-0.1-13.3c-1.8-4.7-10-10.2-10-10.2l-12.3-7.6C676.1,580.5,673.8,580,671.3,581.5z"/>
				</g>
			</g>
			<g>
				<defs>
					<path id="SVGID_8_" d="M658.3,565.7l37.2-3.1c0,0,3.3,0.1,4,1.3c1.6,2.9,0.5,10.1-6.4,22c-3.5,6.1-0.1,12.7-6.1,13.5
						c-16.7,2.3-40.3-8.1-40.3-8.1s-6.1-7.9-2.3-17C648,565.5,658.3,565.7,658.3,565.7z"/>
				</defs>
				<clipPath id="SVGID_17_">
					<use xlink:href="#SVGID_8_"  style="overflow:visible;"/>
				</clipPath>
				<polygon class="st34" points="637.2,580.2 666.4,615.5 699.1,583.1 698.3,558.7 650.5,561.8 				"/>
				<path class="st35" d="M636.4,585.8l16,16.5c0,0,13.1-10.4,15.6-20.2c2.5-9.9-1.6-19.7-1.6-19.7l-18.9,3.7L636.4,585.8z"/>
			</g>
			<path class="st15" d="M685.6,589.8c0,0,5.2-7.1,7.7-15.4c3.1-10,1.9-11.4,1.9-11.4s2.7-0.5,3.7,0.8c1,1.3-0.5,8.9-1,10.6
				c-0.5,1.6-8.7,16.2-8.7,16.2L685.6,589.8z"/>
			<g>
				<path class="st14" d="M688.2,588.3c0,0-6.8-2.7-9.2,2.5c-2.1,4.5,3,7.7,3,7.7l19.9,6.7c0,0,6.9,10.7,13.8,7.4l-5.7-15
					L688.2,588.3z"/>
				<path class="st13" d="M698,563.1l18.7,12.1l4.2,21.7l-5.1,15.7l-5.7-15l-21.8-9.3c0,0,6-6.4,9-14.7
					C698.3,570.6,698.9,565.9,698,563.1z"/>
				<polygon class="st3" points="716.7,575.3 710,597.7 715.7,612.6 720.8,596.9 				"/>
			</g>
			
				<ellipse transform="matrix(5.609369e-02 -0.9984 0.9984 5.609369e-02 53.7967 1243.5693)" class="st15" cx="684.6" cy="593.3" rx="4.5" ry="5.1"/>
		</g>
	</g>
</g>
<g id="Dolly">
</g>
<g id="Cosmo">
</g>
<g id="Belle">
</g>
<g id="Rivet">
</g>
<g id="Spring">
</g>
<g id="Eileen">
</g>
<g id="Levi">
</g>
<g id="Oscar">
</g>
<g id="Rex">
</g>
</svg>
