<?xml version="1.0" encoding="utf-8"?>
<!-- Generator: Adobe Illustrator 24.2.1, SVG Export Plug-In . SVG Version: 6.00 Build 0)  -->
<svg version="1.1" xmlns="http://www.w3.org/2000/svg" xmlns:xlink="http://www.w3.org/1999/xlink" x="0px" y="0px"
	 viewBox="0 0 1336.9 1389.3" style="enable-background:new 0 0 1336.9 1389.3;" xml:space="preserve">
<style type="text/css">
	.st0{fill:#3D2C4D;}
	.st1{clip-path:url(#SVGID_1_);fill:#8D66B3;}
	.st2{clip-path:url(#SVGID_1_);fill:#7A589A;}
	.st3{clip-path:url(#SVGID_2_);fill:#8D66B3;}
	.st4{clip-path:url(#SVGID_2_);fill:#7A589A;}
	.st5{clip-path:url(#SVGID_3_);fill:#A6BA50;}
	.st6{clip-path:url(#SVGID_3_);fill:#97A849;}
	.st7{fill:#3F3268;}
	.st8{clip-path:url(#SVGID_4_);fill:#8D66B3;}
	.st9{clip-path:url(#SVGID_4_);fill:#7A589A;}
	.st10{fill:none;stroke:#B8C1CA;stroke-width:4.8944;stroke-miterlimit:10;}
	.st11{fill:#8D66B3;}
	.st12{fill:#7A589A;}
	.st13{fill:#758239;}
	.st14{fill:#97A849;}
	.st15{fill:#D9D9D9;}
	.st16{fill:#818F3E;}
	.st17{fill:#4A3B7A;}
	.st18{clip-path:url(#SVGID_5_);fill:#4A3B7A;}
	.st19{clip-path:url(#SVGID_5_);fill:#C5E6F9;}
	.st20{clip-path:url(#SVGID_5_);fill:#1E1833;}
	.st21{display:none;clip-path:url(#SVGID_5_);fill:#8A96AB;}
	.st22{clip-path:url(#SVGID_5_);fill:#97A849;}
	.st23{fill:none;stroke:#1E1833;stroke-width:4.8944;stroke-miterlimit:10;}
	.st24{fill:#1E1833;}
</style>
<g id="Sergeant">
</g>
<g id="Elton">
</g>
<g id="Fred">
</g>
<g id="Bubbles">
</g>
<g id="Dolores">
</g>
<g id="Dolly">
</g>
<g id="Cosmo">
</g>
<g id="Belle">
</g>
<g id="Rivet">
</g>
<g id="Spring">
</g>
<g id="Eileen">
	<g>
		<g>
			<g>
				<circle class="st0" cx="572.8" cy="1197.1" r="65.8"/>
				<g>
					<defs>
						<path id="SVGID_68_" d="M645.2,1197.4c16.7-34.6,31.3-89.9,31.3-141.3c0-96-44.5-173.8-118.6-173.8
							c-74.1,0-115.8,78.5-108.8,173.8c3.8,51.3,22.2,111,50.9,141.3c0,0,21.4,13,73.2,13C624.1,1210.3,645.2,1197.4,645.2,1197.4z"
							/>
					</defs>
					<clipPath id="SVGID_1_">
						<use xlink:href="#SVGID_68_"  style="overflow:visible;"/>
					</clipPath>
					<rect x="440.4" y="868.2" class="st1" width="252.3" height="350.8"/>
					<path class="st2" d="M427.4,960.8c0,0,20,154.3,128.3,154.3s126.7-94.2,126.7-94.2l12.5,87.7l-41.1,108.3l-247.4,2.2l4.9-196.5
						L427.4,960.8z"/>
				</g>
			</g>
			<g>
				<circle class="st0" cx="1124.9" cy="1197.1" r="65.8"/>
				<g>
					<defs>
						<path id="SVGID_67_" d="M1052.8,1197.4c-16.7-34.6-31.3-89.9-31.3-141.3c0-96,44.5-173.8,118.6-173.8
							c74.1,0,115.8,78.5,108.8,173.8c-3.8,51.3-22.2,111-50.9,141.3c0,0-21.4,13-73.2,13
							C1073.9,1210.3,1052.8,1197.4,1052.8,1197.4z"/>
					</defs>
					<clipPath id="SVGID_2_">
						<use xlink:href="#SVGID_67_"  style="overflow:visible;"/>
					</clipPath>
					
						<rect x="1005.3" y="868.2" transform="matrix(-1 -4.483848e-11 4.483848e-11 -1 2262.8557 2087.2673)" class="st3" width="252.3" height="350.8"/>
					<path class="st4" d="M1256.7,869.3c0,0,17.3,158.9-108.3,184.9c-106,21.9-132.9-33.3-132.9-33.3l-12.5,87.7l41.1,108.3
						l247.4,2.2l-4.9-196.5L1256.7,869.3z"/>
				</g>
			</g>
			<g>
				<defs>
					<path id="SVGID_66_" d="M1124.1,1139.4l-225.7,65l-297.2-65c0,0-24.9-16.3-24.4-63.3c0.5-40.4,24.4-68.2,24.4-68.2
						s127.1-48.4,256.6-48.7c134.1-0.3,266.3,48.7,266.3,48.7s23,21.4,22.7,66.6C1146.6,1116.8,1124.1,1139.4,1124.1,1139.4z"/>
				</defs>
				<clipPath id="SVGID_3_">
					<use xlink:href="#SVGID_66_"  style="overflow:visible;"/>
				</clipPath>
				<polygon class="st5" points="583.3,977.1 856.2,928.3 1156.6,998.2 1155,1162.2 901.6,1240.1 555.7,1155.7 				"/>
				<path class="st6" d="M549.2,1059.9c0,0,6.5,26,81.2,40.6s259.3,42.2,259.3,42.2s237.6-35.7,271.7-92.6l-8.1,108.8l-263.1,77.1
					l-341-59.3V1059.9z"/>
			</g>
			<path class="st7" d="M979.6,981.1c0,8.5-48,15.4-107.2,15.4s-107.2-6.9-107.2-15.4c0-8.5,12.2-116.1,107.2-116.1
				S979.6,972.6,979.6,981.1z"/>
			<g>
				<ellipse class="st0" cx="890.3" cy="1300.6" rx="50.3" ry="64.6"/>
				<g>
					<defs>
						<path id="SVGID_65_" d="M963.4,1296.4c16.7-34.6,36.2-89.9,36.2-141.3c0-96-34.7-173.8-108.8-173.8
							c-74.1,0-108.8,77.8-108.8,173.8c0,51.4,21.7,106.6,36.2,141.3c0,0,21.4,13,73.2,13C942.4,1309.4,963.4,1296.4,963.4,1296.4z"
							/>
					</defs>
					<clipPath id="SVGID_4_">
						<use xlink:href="#SVGID_65_"  style="overflow:visible;"/>
					</clipPath>
					<rect x="763.6" y="967.3" class="st8" width="252.3" height="350.8"/>
					<path class="st9" d="M785.3,1107c0,0-2.7,88.2,105.6,88.2s109.9-88.2,109.9-88.2l17.3,100.7l-41.1,108.3l-198.1-2.2
						l-20.6-191.6L785.3,1107z"/>
				</g>
			</g>
			<g>
				<g>
					<path class="st7" d="M722,297.7c13.3,6.1,27.5,12.3,41.9,18.8c14.4,6.5,29,13.3,43.6,20.7c29.3,14.7,58.8,31.2,87.7,52.5
						c14.4,10.7,28.7,22.6,42.4,36.5c13.6,13.9,26.7,30,37.8,49c5.5,9.5,10.5,19.7,14.6,30.6c4.1,10.9,7.3,22.4,9.4,34.2
						c2.1,11.8,3.1,23.9,2.9,35.9c-0.2,11.9-1.4,23.7-3.5,35c-4.3,22.7-11.9,43.4-20.9,61.9c-2.2,4.7-4.7,9.2-7,13.6
						c-1.5,3.1-3.1,6.2-4.6,9.3c-3,6.2-5.8,12.5-8.5,18.7c-10.8,24.9-19.4,49.9-24.7,73.9c-2.6,12-4.4,23.7-5.3,35
						c-0.9,11.2-0.8,22,0.2,31.9c1,10,2.9,19.2,5.7,27.6c1.4,4.2,2.9,8.2,4.8,12.2c0.9,2,1.9,4,2.9,6.1c1,2.1,2.2,4.2,3.5,6.7
						l-175.7,73.4c-1.6-4.6-3.4-9.6-5-14.8c-1.6-5.2-3.1-10.5-4.5-15.8c-2.8-10.7-5-21.6-6.5-32.5c-3.2-21.8-3.8-43.5-2.6-64.3
						c1.3-20.8,4.4-40.9,8.9-60c4.5-19.1,10.2-37.3,16.8-54.7c13.3-34.8,29.8-66.4,47.9-95.8c4.6-7.3,9.2-14.6,13.9-21.7
						c2.3-3.6,4.8-7.1,7.2-10.6l1.2-1.7c0.4-0.5,0.8-1.1,1.1-1.6c0.7-1.1,1.4-2.2,2.1-3.2c5.5-8.6,9.5-16.8,11.9-24.2
						c2.5-7.5,3.5-14.1,3.3-20.9c-0.2-6.8-1.8-14.2-5.2-22.4c-3.5-8.2-8.9-17.1-15.9-26c-7-8.9-15.5-17.9-25-26.6
						c-9.5-8.7-20-17.2-31.2-25.4c-11.1-8.2-22.9-16.2-35.1-23.9c-12.2-7.8-24.8-15.4-37.8-22.9c-13-7.6-26.3-15.1-40.4-23.4
						L722,297.7z"/>
				</g>
				<g>
					<path class="st10" d="M749.3,874.3c0,0,89.2,41.6,186.1-1.1"/>
					<path class="st10" d="M750.8,869.6c0,0,36.7,18.5,88.3,20.4c28.9,1,61.6-3.6,94.8-18.4"/>
					<path class="st10" d="M752.7,859.7c0,0,36,19.9,86.8,22.9c29.1,1.7,61.1-3,93.3-17.4"/>
					<path class="st10" d="M755.1,844.4c0,0,35.3,21.3,85.1,25.4c29.2,2.4,60.7-2.3,91.8-16.4"/>
					<path class="st10" d="M758.5,824.2c0,0,34.4,22.7,83.3,28.1c29.4,3.2,60.3-1.5,90.4-15.2"/>
					<path class="st10" d="M763.3,799.4c0,0,33.5,24.2,81.4,30.9c29.4,4.1,59.9-0.5,89.1-14"/>
					<path class="st10" d="M769.8,770.6c0,0,32.4,25.7,79.2,33.8c29.5,5.1,59.6,0.6,87.9-12.5"/>
					<path class="st10" d="M778.4,738.2c0,0,31.1,27.2,76.9,36.8c29.5,6.2,59.2,1.9,86.7-11"/>
					<path class="st10" d="M785.7,717.8c0,0,28.6,29.9,72.6,42.9c29.1,8.6,58.7,5.6,85.9-5.9"/>
					<path class="st10" d="M794.3,698.4c0,0,26.6,31.7,69.1,46.7c28.8,10.2,58.2,7.8,84.9-3.1"/>
					<path class="st10" d="M803.7,679.8c0,0,25.1,32.9,66.4,49c28.7,11.2,57.8,8.8,83.8-2.2"/>
					<path class="st10" d="M813.4,661.9c0,0,24.2,33.6,64.5,50.1c28.7,11.8,57.6,8.9,82.8-2.7"/>
					<path class="st10" d="M823.3,644.7c0,0,23.7,33.9,63.2,50.2c28.8,11.9,57.5,8.2,81.7-4.4"/>
					<path class="st10" d="M832.8,628.3c0,0,23.7,33.9,62.6,49.6c29.2,11.7,57.6,6.7,80.7-7.1"/>
					<path class="st10" d="M841.8,612.7c0,0,24.1,33.6,62.7,48c29.7,11.1,57.7,4.5,79.5-11"/>
					<path class="st10" d="M849.9,598.3c0,0,25.1,32.9,63.5,45.5c30.3,9.9,57.8,1.3,78-16"/>
					<path class="st10" d="M856.9,585.4c0,0,26.7,31.5,65,41.6c31.1,8.1,57.7-3.1,75.8-22.5"/>
					<path class="st10" d="M862.8,574.1c0,0,29,29.4,67.3,35.9c31.9,5.4,57.1-9,72.3-30.9"/>
					<path class="st10" d="M869,571.4c0,0,33.8,22.5,72,21.1c31.4-1.2,52.9-19.7,63.6-43.8"/>
					<path class="st10" d="M873.2,568.9c0,0,36.9,15,73.5,6.1c29.7-7.3,46.9-28.9,53-54.4"/>
					<path class="st10" d="M874.8,562.1c0,0,38.4,8.1,72.1-7.1c27-12.1,40.2-35.7,42-61.7"/>
					<path class="st10" d="M873.1,550.9c0,0,38.4,2.1,69-17.6c24.1-15.6,33.7-40.1,32-66"/>
					<path class="st10" d="M867.6,537.3c0,0,37.7-2.6,65.1-25.6c21.3-17.9,28.1-42.7,23.6-68.1"/>
					<path class="st10" d="M858.6,523c0,0,36.6-6.2,61.1-31.3c18.8-19.2,23.5-43.9,16.9-68.7"/>
					<path class="st10" d="M846.9,508.4c0,0,35.3-8.8,57.4-35.3c16.7-20,19.8-44.3,11.8-68.5"/>
					<path class="st10" d="M833.3,494.2c0,0,34-10.8,54.1-38.1c14.9-20.2,17-44.1,7.9-67.8"/>
					<path class="st10" d="M818.4,480.7c0,0,32.8-12.2,51.2-39.9c13.4-20.2,14.8-43.5,5-66.9"/>
					<path class="st10" d="M802.9,468.2c0,0,31.6-13.2,48.6-41.1c12.2-19.9,13.1-42.7,2.8-65.8"/>
					<path class="st10" d="M787.6,456.8c0,0,30.5-13.9,46.4-41.8c11.1-19.5,11.9-41.8,1.2-64.7"/>
					<path class="st10" d="M773,446.7c0,0,29.5-14.4,44.4-42.1c10.2-19,11-40.8,0.1-63.5"/>
					<path class="st10" d="M759.8,438.1c0,0,28.6-14.6,42.7-42.1c9.5-18.4,10.4-39.7-0.6-62.4"/>
					<path class="st10" d="M748.7,431c0,0,27.8-14.8,41.2-41.9c8.8-17.7,10.1-38.6-0.9-61.3"/>
					<path class="st10" d="M740.1,425.6c0,0,26.9-14.8,39.9-41.5c8.3-17,9.9-37.4-1.1-60.1"/>
					<path class="st10" d="M734.7,421.9c0,0,26.2-14.7,38.7-40.9c7.8-16.3,9.8-36.3-1-59.1"/>
					<path class="st10" d="M733.1,420.1c0,0,65.3-37.3,36.8-98.3"/>
				</g>
				
					<ellipse transform="matrix(0.4564 -0.8898 0.8898 0.4564 74.3648 813.029)" class="st7" cx="702.5" cy="345.7" rx="51.5" ry="43.9"/>
			</g>
			<g>
				
					<ellipse transform="matrix(0.546 -0.8378 0.8378 0.546 30.5022 727.7571)" class="st11" cx="686.8" cy="335.7" rx="106.1" ry="55"/>
				<path class="st12" d="M700.2,344.5c-35.4,54.3-65.6,69-88.6,59.7c3.1,8,8.7,14.9,17.2,20.4c35.4,23.1,72-9.7,104-58.8
					c32-49.1,47.2-95.9,11.8-118.9c-8.5-5.5-17.1-7.8-25.6-7.5C738.7,257.8,735.6,290.2,700.2,344.5z"/>
			</g>
			<path class="st13" d="M677.6,295c0,0,10,13.4-3,33.4c-12.6,19.3-28.7,15.4-28.7,15.4L561,288.5l31.8-48.8L677.6,295z"/>
		</g>
		<g>
			<path class="st14" d="M699.3,42.3c30.5,23.1,31.5,60.5,14.2,83.4s-53.1,24.9-79.9,4.6c-26.8-20.3-34.5-55.3-17.1-78.2
				S672.5,22,699.3,42.3z"/>
			<path class="st11" d="M708.5,131.2L708.5,131.2c-0.4,1-0.9,1.9-1.4,2.9c0.5-0.9,0.9-1.9,1.3-2.8L708.5,131.2
				C708.5,131.2,708.5,131.2,708.5,131.2z"/>
			<path class="st11" d="M708.5,131.1c0.9-2.2,1.7-4.5,2.3-6.7C710.3,126.7,709.5,128.9,708.5,131.1z"/>
			<path class="st11" d="M678.4,61.4c2.5,1.7,5,3.5,7.3,5.3c19.2,15.1,30.5,34.3,25.7,55.4c-0.1,0.8-0.4,1.6-0.6,2.4
				c-0.6,2.2-1.4,4.4-2.3,6.7l0,0c0,0,0,0,0,0.1l0,0c-0.4,0.9-0.8,1.8-1.3,2.8l-0.1,0.2c-0.8,1.6-1.7,3.3-2.7,4.9
				c-0.4,0.8-1,1.5-1.5,2.3l-0.1,0.2c-0.6,0.8-1.1,1.6-1.7,2.4c-1.3,1.6-2.6,3.2-3.8,4.7c-4.6,5.1-9.6,8.9-14.9,11.4
				c-1.5,0.7-3,1.4-4.6,1.9c-3.4,1.2-6.8,1.9-10.4,2.2c-15.3,1.5-32-4.6-47.9-15.3c-29.8-20-45.6-48.7-24.5-80.1
				C616.2,37.5,648.6,41.4,678.4,61.4z"/>
			
				<ellipse transform="matrix(0.4914 -0.8709 0.8709 0.4914 229.4558 618.8527)" class="st14" cx="644.6" cy="113" rx="45.1" ry="55.5"/>
			<path class="st11" d="M664.2,88.3c0.3,0.2,0.7,0.5,1,0.7c0,0,0,0,0,0c0.4,0.3,0.8,0.6,1.2,0.9c0.8,0.6,1.6,1.3,2.4,1.9
				c0.5,0.4,1,0.8,1.5,1.3c0.9,0.8,1.8,1.6,2.6,2.4c1.1,1.1,2.1,2.1,3.1,3.2c0.2,0.2,0.4,0.4,0.5,0.6c0.8,0.9,1.5,1.8,2.2,2.7
				c0.3,0.4,0.5,0.8,0.8,1.2c0.6,0.8,1.1,1.6,1.6,2.4c1.4,2.3,2.5,4.6,3.4,6.8c0.4,0.9,0.7,1.9,1,2.8c0.9,2.7,1.3,5.3,1.6,7.9
				c0.2,2.4,0.2,4.7-0.1,6.9c-0.6,5-2.2,9.6-4.7,13.4c-0.3,0.6-0.7,1.1-1.1,1.7l-8.8,12.3l-5,7l-0.1,0.1l-23,32.2l0,0.1l-38.4,53.9
				l-59.5-36.6l-71.2-43.8c0,0,35.5-25.3,67.1-47.9c18.4-13.1,35.5-25.4,43.6-31.2c3.1-2.2,4.9-3.5,4.9-3.5
				c4.4-3.5,10.1-6.6,16.6-8.6C623.5,74.1,644.8,74.8,664.2,88.3z"/>
			<path class="st14" d="M607.4,142.8c0.2,0.2,0.4,0.3,0.6,0.4c22.3,16.3,33.9,36,36.3,53.6l0,0.1c0.2,1.2,0.3,2.4,0.4,3.6
				c0,0,0,0,0,0c0,1.2,0.1,2.4,0.1,3.6c0,2.3-0.3,4.6-0.6,6.9c-0.4,2.2-0.9,4.4-1.6,6.4c-0.4,1-0.7,2-1.2,2.9l-0.1,0.1
				c-0.4,1-0.9,1.9-1.4,2.8c-1.1,1.9-2.3,3.7-3.7,5.3c-0.1,0.1-0.2,0.2-0.3,0.3l-55,79.2l0,0.1l-50.4,72.5l-103.8-63.6l-100.1-61.3
				l173.3-115.5c0.2-0.2,0.4-0.5,0.6-0.6c10.6-8.5,25-15.6,41.9-17.3C561.1,120.6,583.4,125.5,607.4,142.8z"/>
			<path class="st14" d="M642.4,217.4c0.7-2,1.2-4.2,1.6-6.4C643.7,213.3,643.1,215.4,642.4,217.4z"/>
			<path class="st14" d="M644.2,196.8c0.2,1.2,0.3,2.5,0.3,3.7C644.5,199.3,644.4,198.1,644.2,196.8L644.2,196.8z"/>
			<path class="st14" d="M686.9,130.1c0.2-2.2,0.2-4.5,0.1-6.9C687.1,125.6,687.1,127.8,686.9,130.1z"/>
			<path class="st11" d="M686.9,130.1c0.2-2.2,0.2-4.5,0.1-6.9C687.1,125.6,687.1,127.8,686.9,130.1z"/>
			<polygon class="st11" points="681.1,145.2 672.4,157.4 672.3,157.4 			"/>
			<g>
				<path class="st11" d="M368.1,214.4c-0.1,0.1-0.1,0.1-0.2,0.2L89.4,401.8l171,62.2L428,572.3l148.3-230.7l-0.6-0.3
					c17.3-30.1-5.3-85.2-57.4-120.7C455.1,177.4,399.9,189.2,368.1,214.4z"/>
			</g>
			<path class="st12" d="M665.2,89.1C665.2,89.1,665.2,89.1,665.2,89.1c0.4,0.3,0.8,0.6,1.2,0.9c0.8,0.6,1.6,1.3,2.4,1.9
				c0.5,0.4,1,0.8,1.5,1.3c0.9,0.8,1.8,1.6,2.6,2.4c1.1,1.1,2.1,2.1,3.1,3.2c0.2,0.2,0.4,0.4,0.5,0.6c0.8,0.9,1.5,1.8,2.2,2.7
				c0.3,0.4,0.5,0.8,0.8,1.2c0.6,0.8,1.1,1.6,1.6,2.4c1.4,2.3,2.5,4.6,3.4,6.8c0.4,0.9,0.7,1.9,1,2.8c0.9,2.7,1.3,5.3,1.6,7.9
				c0.2,2.4,0.2,4.7-0.1,6.9c-0.6,5-2.2,9.6-4.7,13.4c-0.3,0.6-0.7,1.1-1.1,1.7l-8.8,12.3l-5,7l-0.1,0.1l-23,32.2
				c-2.4-17.5-14-37.2-36.3-53.6l4.7,1.1l4.3,1l14.4-17.1l33-39.2C664.3,89.1,664.6,89.2,665.2,89.1z"/>
			<path class="st15" d="M686.9,123.2c0.2,2.4,0.2,4.7-0.1,6.9C687.1,127.8,687.1,125.5,686.9,123.2z"/>
			<path class="st11" d="M684.1,159.4c-5.3,3-11,4.7-16.8,5.2l0-0.1C673.2,163.9,678.8,162.3,684.1,159.4z"/>
			<path class="st11" d="M607.9,73.2c-0.3,2-0.5,3.9-0.5,6c-3.4,1.1-6.5,2.4-9.4,4C600.6,79.2,604,75.8,607.9,73.2z"/>
			<path class="st14" d="M607.9,73.2c-0.3,2-0.5,3.9-0.5,6c-3.4,1.1-6.5,2.4-9.4,4C600.6,79.2,604,75.8,607.9,73.2z"/>
			<path class="st14" d="M642.4,217.4c0.7-2,1.2-4.2,1.6-6.4C643.7,213.3,643.1,215.4,642.4,217.4z"/>
			<path class="st14" d="M644.2,196.9L644.2,196.9c0.2,1.2,0.3,2.4,0.4,3.6C644.5,199.3,644.4,198.1,644.2,196.9z"/>
			<g>
				<path class="st11" d="M580.7,308.3L580.7,308.3c0.8,5.4,1,10.7,0.4,15.6C581.6,318.9,581.5,313.7,580.7,308.3z"/>
			</g>
			<path class="st16" d="M710.1,52.4c0.8,1,1.6,1.9,2.4,2.9c0.7,1,1.5,2,2.1,3c0.7,1,1.3,2,2,3.1c0.6,1.1,1.2,2.1,1.7,3.2
				c0.7,1.4,1.4,2.9,2,4.3c0.6,1.5,1.1,2.9,1.6,4.3c0.5,1.5,0.9,2.9,1.3,4.4c0,0,0,0.1,0,0.1c0.3,1.4,0.6,2.9,0.8,4.3
				c0.5,2.9,0.7,5.9,0.8,8.8c0,1.5,0,2.9-0.1,4.4c-0.1,1.4-0.2,2.7-0.4,4c0,0.3,0,0.5-0.1,0.6c-0.2,1.3-0.4,2.6-0.7,3.9
				c-0.1,0.2-0.1,0.3-0.1,0.5c-0.2,1-0.4,2-0.7,2.9c0,0.3-0.1,0.5-0.2,0.7c-0.3,1.2-0.7,2.4-1.2,3.6c-0.4,1.3-1,2.5-1.5,3.7
				c-0.2,0.5-0.5,1-0.7,1.5c-0.5,1-0.9,1.9-1.5,2.8c-1.2,2.1-2.5,4.2-4,6.2c-0.5,0.6-1,1.3-1.5,1.9c-0.3,0.4-0.6,0.7-0.9,1
				c-0.3,0.3-0.6,0.7-0.9,1c-0.6,0.6-1.2,1.2-1.8,1.8c0.9-2.2,1.7-4.5,2.3-6.7c0.2-0.8,0.4-1.6,0.6-2.4c4.7-21.1-6.5-40.3-25.7-55.4
				c0.1-0.4,0.2-0.6,0.2-0.6S703.4,63.8,710.1,52.4z"/>
			<path class="st12" d="M518.1,220.3l0.3,0.1c36.3,24.8,58.2,59,62.4,87.7l0,0.1c0.2,1.3,0.3,2.7,0.5,4c0,0,0,0,0,0
				c0.2,2.6,0.3,5.2,0.2,7.8c-0.1,1.2-0.1,2.5-0.3,3.8c-0.2,1.4-0.4,2.8-0.6,4.2c-0.1,0.6-0.3,1.3-0.5,2c-0.3,1.5-0.7,2.9-1.2,4.3
				c-0.1,0.4-0.3,0.9-0.5,1.3c-0.4,0.9-0.7,1.8-1.1,2.7c-0.4,0.9-0.9,1.8-1.3,2.7l-0.2,0.3l0.6,0.3L428,572.3L280.9,471l145.5-153.9
				L518.1,220.3z"/>
			<path class="st16" d="M671.9,76.9c23,15.8,32.4,43.1,21,63.3l-0.4,0.7c-4.6,7.7-11.6,13.3-20.1,16.5l8.7-12.2
				c0.4-0.5,0.8-1.1,1.1-1.7c2.5-3.9,4.1-8.5,4.7-13.4c0.2-2.2,0.3-4.5,0.1-6.9c-0.2-2.6-0.7-5.2-1.6-7.9c-0.3-0.9-0.6-1.8-1-2.8
				c-0.9-2.2-2-4.5-3.4-6.8c-0.5-0.8-1-1.6-1.6-2.4c-0.3-0.4-0.5-0.8-0.8-1.2c-0.7-0.9-1.4-1.8-2.2-2.7c-0.1-0.2-0.4-0.4-0.5-0.6
				c-1-1.1-2-2.2-3.1-3.2c-0.8-0.9-1.7-1.6-2.6-2.4c-0.5-0.4-1-0.8-1.5-1.3c-0.8-0.6-1.6-1.3-2.4-1.9c-0.4-0.3-0.8-0.6-1.2-0.9
				c0.4,0,0.8-0.1,1.3-0.3c0.3-0.1,0.6-0.3,0.9-0.5c0.6-0.3,1.2-0.8,1.8-1.5c0.3-0.3,0.5-0.5,0.7-0.9c0.4-0.5,0.7-1,1-1.6
				c0.3-0.6,0.6-1.2,0.8-1.7c0.1-0.2,0.2-0.5,0.3-0.8c0.2-0.6,0.3-1.2,0.3-1.7c0.1-0.4,0.1-0.8,0.1-1.1c0-0.3,0-0.6-0.1-0.8
				C672.3,77.5,672,77.1,671.9,76.9z"/>
			<polygon class="st15" points="681.1,145.2 672.4,157.4 672.3,157.4 			"/>
			<path class="st12" d="M685.7,66.7c19.2,15.1,30.5,34.3,25.7,55.4c-0.1,0.8-0.4,1.6-0.6,2.4c-0.6,2.2-1.4,4.4-2.3,6.7l0,0
				c0,0,0,0,0,0.1l0,0c-0.4,0.9-0.8,1.8-1.3,2.8l-0.1,0.2c-0.8,1.6-1.7,3.3-2.7,4.9c-0.4,0.8-1,1.5-1.5,2.3l-0.1,0.2
				c-0.6,0.8-1.1,1.6-1.7,2.4c-1.3,1.6-2.6,3.2-3.8,4.7c-4.6,5.1-9.6,8.9-14.9,11.4c-1.5,0.7-3,1.4-4.6,1.9
				c-3.4,1.2-6.8,1.9-10.4,2.2l4.9-6.9l0,0c8.5-3.2,15.6-8.8,20.2-16.5l0.4-0.7c11.4-20.2,2-47.5-21-63.3c0-0.1-0.1-0.1-0.1-0.1
				s3.5,0.9,8.6-3.2c3.3-2.6,4.7-5.4,5.2-6.7C685.7,66.9,685.7,66.8,685.7,66.7z"/>
			<path class="st12" d="M677.8,162.1c-3.4,1.3-6.8,2-10.4,2.4l0.1-0.1C671,164,674.4,163.3,677.8,162.1z"/>
			<path class="st12" d="M677.8,162.1c1.5-0.5,3.1-1.2,4.6-1.9C681,161,679.4,161.6,677.8,162.1z"/>
			<path class="st12" d="M682.3,160.2c5.3-2.5,10.2-6.3,14.9-11.4c-0.2,0.3-0.5,0.6-0.8,0.9c-1.2,1.3-2.3,2.4-3.6,3.5
				c-0.7,0.6-1.4,1.2-2.1,1.8c-0.7,0.6-1.5,1.1-2.2,1.6c-0.7,0.5-1.5,1-2.2,1.4c-0.8,0.5-1.5,0.9-2.3,1.3
				C683.5,159.7,683,160,682.3,160.2z"/>
			<path class="st12" d="M697.2,148.8c1.3-1.5,2.6-3,3.8-4.7c-0.5,0.7-1,1.4-1.5,2c-0.2,0.2-0.4,0.4-0.5,0.6
				C698.4,147.4,697.9,148.1,697.2,148.8z"/>
			<path class="st17" d="M65.6,427.5c-36.3,64.3,27,156,132.5,173.8l4.6-4.9c-100.7-17-164.7-104.8-130-166.2s151.3-51.6,251.9-56.5
				l5-5.5C224.2,373.4,101.9,363.2,65.6,427.5z"/>
			<path class="st16" d="M607.5,143c22.3,16.3,33.9,36.1,36.2,53.6l0,0c0.3,2.5,0.5,4.9,0.5,7.2c0,2.3-0.3,4.6-0.6,6.9
				c-0.4,2.2-0.9,4.4-1.6,6.4c-0.4,1-0.8,2-1.2,3c-0.4,1-0.9,1.9-1.4,2.8c-1.1,1.9-2.3,3.7-3.7,5.3c-0.1,0.2-0.3,0.2-0.3,0.4
				l-55,79.2l0,0.1l0-0.1l0-0.1c-4.2-28.7-26.1-62.9-62.4-87.6l-0.3-0.1l0.2-0.2l16.1,7.8l12-13.8l61.3-71L607.5,143z"/>
			<g>
				<defs>
					<path id="SVGID_64_" d="M329.7,368.6c89.4,50.5,132.5,143.5,96.2,207.9s-138.2,75.6-227.7,25.1
						C92.6,583.8,29.4,492.2,65.7,427.8S224.2,373.7,329.7,368.6z"/>
				</defs>
				<clipPath id="SVGID_5_">
					<use xlink:href="#SVGID_64_"  style="overflow:visible;"/>
				</clipPath>
				
					<rect x="102.1" y="276.1" transform="matrix(0.4914 -0.8709 0.8709 0.4914 -290.698 466.6489)" class="st18" width="304.1" height="412.1"/>
				
					<ellipse transform="matrix(0.4914 -0.8709 0.8709 0.4914 -295.1782 481.6243)" class="st19" cx="264.8" cy="493.5" rx="120.2" ry="160.8"/>
				
					<ellipse transform="matrix(0.4914 -0.8709 0.8709 0.4914 -311.6598 502.3449)" class="st20" cx="274.3" cy="518" rx="39.4" ry="64.1"/>
				<path class="st21" d="M132.1,390c-55.3,53.4-23.7,121.5,17.5,165.7l-1.3,1.7l49.9,44.3l4.6-4.9c0,0-58.2-47.5-30.1-116.8
					C198.8,415.5,270,386.7,327,390C327,390,205.8,318.8,132.1,390z"/>
				<path class="st20" d="M134.5,545.8c0,0,67,37.8,125.3-26.2c31.8-34.9,28.1-118.8,18.5-151.1c0,0-76.3-47.7-146.9,32.8
					C85.5,453.5,101.1,516.1,134.5,545.8z"/>
				<path class="st22" d="M134.5,545.8c0,0,59.7,33.7,120-33.4c32.9-36.6,30.3-123.4,21-156.7c0,0-77-48.2-149.9,36.1
					C78.1,446.5,100.9,515.6,134.5,545.8z"/>
			</g>
			<path class="st17" d="M65.7,427.8c-36.3,64.3,27,156,132.5,173.8l4.6-4.9c-100.7-17-164.7-104.8-130-166.2s151.3-51.6,251.9-56.5
				l5-5.5C224.2,373.7,102,363.5,65.7,427.8z"/>
			<path class="st23" d="M235.8,536.1c0,0-46.7,52-79.8,34.5"/>
			<circle class="st24" cx="142.3" cy="567.7" r="24.5"/>
			<path class="st23" d="M277.4,480c0,0-40.7,24.3-69.7,7.9"/>
			<g>
				<g>
					<path class="st23" d="M268.8,501.8c-13.5,15.1-44.5,51.3-113.8,16.6"/>
				</g>
				<circle class="st24" cx="141.7" cy="509" r="24.5"/>
			</g>
			<circle class="st24" cx="194.7" cy="480.5" r="24.5"/>
		</g>
	</g>
</g>
<g id="Levi">
</g>
<g id="Oscar">
</g>
<g id="Rex">
</g>
</svg>
