<?xml version="1.0" encoding="utf-8"?>
<!-- Generator: Adobe Illustrator 24.2.1, SVG Export Plug-In . SVG Version: 6.00 Build 0)  -->
<svg version="1.1" xmlns="http://www.w3.org/2000/svg" xmlns:xlink="http://www.w3.org/1999/xlink" x="0px" y="0px"
	 viewBox="0 0 1336.9 1389.3" style="enable-background:new 0 0 1336.9 1389.3;" xml:space="preserve">
<style type="text/css">
	.st0{fill:#6B3158;}
	.st1{clip-path:url(#SVGID_1_);fill:#BAB9B5;}
	.st2{clip-path:url(#SVGID_1_);fill:#979492;}
	.st3{clip-path:url(#SVGID_2_);fill:#BAB9B5;}
	.st4{clip-path:url(#SVGID_2_);fill:#979492;}
	.st5{fill:#913E78;}
	.st6{fill:#8A96AB;}
	.st7{clip-path:url(#SVGID_3_);fill:#5D717F;}
	.st8{clip-path:url(#SVGID_3_);fill:#485561;}
	.st9{clip-path:url(#SVGID_3_);fill:#4F5E6B;}
	.st10{clip-path:url(#SVGID_4_);fill:#BAB9B5;}
	.st11{clip-path:url(#SVGID_4_);fill:#979492;}
	.st12{fill:#522543;}
	.st13{fill:#5D717F;}
	.st14{clip-path:url(#SVGID_5_);fill:#5D717F;}
	.st15{clip-path:url(#SVGID_5_);fill:#4F5E6B;}
	.st16{fill:#BAB9B5;}
	.st17{fill:#979492;}
	.st18{fill:#A8A5A3;}
	.st19{fill:#7E8185;}
	.st20{clip-path:url(#SVGID_6_);fill:#C5E6F9;}
	.st21{clip-path:url(#SVGID_6_);fill:#3B464F;}
	.st22{clip-path:url(#SVGID_6_);fill:#4AA6C0;}
	.st23{clip-path:url(#SVGID_6_);fill:none;stroke:#AA5093;stroke-width:11.0124;stroke-miterlimit:10;}
	.st24{clip-path:url(#SVGID_7_);fill:#C5E6F9;}
	.st25{clip-path:url(#SVGID_7_);fill:#3B464F;}
	.st26{clip-path:url(#SVGID_7_);}
	.st27{fill:#4AA6C0;}
	.st28{clip-path:url(#SVGID_7_);fill:none;stroke:#AA5093;stroke-width:11.0124;stroke-miterlimit:10;}
</style>
<g id="Sergeant">
</g>
<g id="Elton">
	<g>
		<circle class="st0" cx="676.6" cy="647" r="58.7"/>
		<circle class="st0" cx="627.8" cy="386.1" r="51.5"/>
		<g>
			<defs>
				<path id="SVGID_15_" d="M736.8,629.4c0,0-23.5-0.7-64.3,6.7c-40.1,7.2-61.4,16-61.4,16l-34.3-249.6c0,0,18.3-8.3,51-14.2
					c33.4-6,53.9-4.8,53.9-4.8L736.8,629.4z"/>
			</defs>
			<use xlink:href="#SVGID_15_"  style="overflow:visible;fill:#BAB9B5;"/>
			<clipPath id="SVGID_1_">
				<use xlink:href="#SVGID_15_"  style="overflow:visible;"/>
			</clipPath>
			
				<rect x="572.1" y="352.3" transform="matrix(0.9841 -0.1778 0.1778 0.9841 -80.1801 123.5776)" class="st1" width="154.3" height="313.4"/>
			
				<rect x="662.2" y="367.9" transform="matrix(0.9841 -0.1778 0.1778 0.9841 -79.5463 135.7323)" class="st2" width="110.4" height="287.4"/>
		</g>
		<g>
			<g>
				<defs>
					<path id="SVGID_17_" d="M651.8,334.8c0,0,13,23.3-16.4,52.9c-28.8,28.9-52,15.8-52,15.8L473.6,281.5c0,0,21.5,4.6,40.6-14.6
						c19.7-19.7,15.3-41.4,15.3-41.4L651.8,334.8z"/>
				</defs>
				<use xlink:href="#SVGID_17_"  style="overflow:visible;fill:#BAB9B5;"/>
				<clipPath id="SVGID_2_">
					<use xlink:href="#SVGID_17_"  style="overflow:visible;"/>
				</clipPath>
				
					<rect x="506.7" y="214.4" transform="matrix(0.7061 -0.7081 0.7081 0.7061 -58.7328 491.963)" class="st3" width="113.3" height="204.6"/>
				
					<rect x="524.4" y="246.3" transform="matrix(0.7061 -0.7081 0.7081 0.7061 -81.4766 489.3251)" class="st4" width="48.8" height="193.1"/>
			</g>
			
				<ellipse transform="matrix(0.7061 -0.7081 0.7081 0.7061 -32.1562 429.7813)" class="st0" cx="501.7" cy="253.6" rx="39.5" ry="19.6"/>
		</g>
		<g>
			<path class="st5" d="M1101.3,1127.9c-1.7-71.9-46.8-121.5-100.8-110.9c-53.9,10.7-96.3,77.6-94.6,149.5
				c1.4,58.4,31.4,102.1,71.5,110.8l0,0l67.6,13.4l14.8-42l-2.9-0.1C1084.6,1220.1,1102.4,1175.1,1101.3,1127.9z"/>
			<g>
				<g>
					
						<ellipse transform="matrix(0.1813 -0.9834 0.9834 0.1813 -265.5177 2001.4921)" class="st0" cx="1069.3" cy="1160.2" rx="132.6" ry="96.3"/>
				</g>
				
					<ellipse transform="matrix(0.1813 -0.9834 0.9834 0.1813 -265.5177 2001.4921)" class="st6" cx="1069.3" cy="1160.2" rx="57.4" ry="41.7"/>
			</g>
		</g>
		<g>
			<path class="st5" d="M870.5,1176.5c-1.8-73.9-48.1-125-103.6-114s-99,79.8-97.3,153.7c1.4,60,32.3,105,73.5,113.9l0,0l69.5,13.8
				l15.2-43.2l-3-0.1C853.3,1271.3,871.6,1225,870.5,1176.5z"/>
			<g>
				<g>
					
						<ellipse transform="matrix(0.1813 -0.9834 0.9834 0.1813 -503.9008 1814.1669)" class="st0" cx="837.6" cy="1209.7" rx="136.4" ry="99"/>
				</g>
				
					<ellipse transform="matrix(0.1813 -0.9834 0.9834 0.1813 -503.9008 1814.1669)" class="st6" cx="837.6" cy="1209.7" rx="59" ry="42.9"/>
			</g>
		</g>
		<g>
			<path class="st5" d="M469.8,1098.6c-1.8-73.9-48.1-125-103.6-114c-55.5,11-99,79.8-97.3,153.7c1.4,60,32.3,105,73.5,113.9l0,0
				l69.5,13.8l15.2-43.2l-3-0.1C452.6,1193.3,470.9,1147,469.8,1098.6z"/>
			<g>
				<g>
					
						<ellipse transform="matrix(0.1813 -0.9834 0.9834 0.1813 -755.3015 1356.2841)" class="st0" cx="436.9" cy="1131.8" rx="136.4" ry="99"/>
				</g>
				
					<ellipse transform="matrix(0.1813 -0.9834 0.9834 0.1813 -755.3015 1356.2841)" class="st6" cx="436.9" cy="1131.8" rx="59" ry="42.9"/>
			</g>
		</g>
		<g>
			<defs>
				<path id="SVGID_19_" d="M378.9,825.6c74.5-2.8,266.3,50.3,370.3,95.8s74.7,139.7,74.7,139.7S361,1169.9,299.3,1161.7
					c-61.7-8.1-65-48.7-65-48.7s-2.2-117,0-155.9C237.1,908.4,248.9,830.5,378.9,825.6z"/>
			</defs>
			<clipPath id="SVGID_3_">
				<use xlink:href="#SVGID_19_"  style="overflow:visible;"/>
			</clipPath>
			<path class="st7" d="M268.4,814.2c-25.4,9.5-68.2,84.4-68.2,84.4l4.9,255l125,47.1L905,1090.3L890.4,923
				C890.4,923,416.2,758.8,268.4,814.2z"/>
			<path class="st8" d="M358.8,1150.2c0,0,0-157.5,0-191.6s32.5-94.7,133.2-77.9c107.2,17.9,290.7,61.7,315,89.3
				c24.4,27.6,24.4,131.5,24.4,131.5L358.8,1150.2z"/>
			<path class="st9" d="M481.4,988.2l-124.8,23.8l239.9,46.9c0,0,92.6-32.3,90.7-32.3C685.4,1026.6,481.4,988.2,481.4,988.2z"/>
		</g>
		<g>
			<g>
				<defs>
					<path id="SVGID_21_" d="M636.3,944.6c0,0-21.2-33.9-70.1-56.2c-48.2-22-87.3-15.5-87.3-15.5l138.9-245.3c0,0,24-13.3,64.8,5.2
						c41.4,18.8,47.6,45.9,47.6,45.9L636.3,944.6z"/>
				</defs>
				<use xlink:href="#SVGID_21_"  style="overflow:visible;fill:#BAB9B5;"/>
				<clipPath id="SVGID_4_">
					<use xlink:href="#SVGID_21_"  style="overflow:visible;"/>
				</clipPath>
				
					<rect x="512.2" y="617" transform="matrix(0.9101 0.4143 -0.4143 0.9101 379.9929 -186.4375)" class="st10" width="215.2" height="331.3"/>
				<polygon class="st11" points="693.3,627.8 567.1,914.4 655.3,940.4 757.2,657.5 				"/>
			</g>
			
				<ellipse transform="matrix(0.4143 -0.9101 0.9101 0.4143 -500.3702 1039.6857)" class="st12" cx="557.7" cy="908.6" rx="24.7" ry="86.4"/>
		</g>
		<path class="st13" d="M627.3,1214.5c0,0-95.8-17.5-155.9-30.4c-35.4-7.7-131.5-36.1-131.5-36.1v-140.5l287.4,55.2V1214.5z"/>
		<g>
			<ellipse class="st5" cx="458.2" cy="943.3" rx="58.3" ry="67"/>
			<polygon class="st5" points="614.7,912.5 467.8,877.2 445,1008.7 592.4,1044 			"/>
			<ellipse class="st0" cx="603.6" cy="978.2" rx="58.3" ry="67"/>
			<g>
				<path class="st0" d="M500.7,1021.8l-1.1-0.3C500,1021.6,500.3,1021.7,500.7,1021.8z"/>
				<path class="st0" d="M523.9,890.5c0,0.1-3.4-0.7-3.5-0.6c-2.8-0.5-5.6-0.7-8.6-0.7c-32.2,0-58.3,30-58.3,67
					c0,32.1,19.7,58.9,45.9,65.4l1.1,0.3l38.1,9.1l0,0c-6.9-1.5-13.3-4.5-19.1-8.5c-16.8-11.7-28-33-28-57.2
					c0-33.9,21.9-61.9,50.4-66.3c2.6-0.4,5.2-0.7,7.9-0.7c3.8,0,7.5,0.5,11.2,1.3l0,0L523.9,890.5z M536.5,895.4
					c0.4,0.2,0.7,0.4,1.1,0.6C537.2,895.8,536.9,895.6,536.5,895.4z M525.8,891.1c0.3,0.1,0.6,0.2,0.9,0.2
					C526.3,891.2,526.1,891.1,525.8,891.1z"/>
			</g>
		</g>
		<g>
			<defs>
				<path id="SVGID_23_" d="M741,900.3c74.5-2.8,266.3,50.3,370.3,95.8c103.9,45.5,74.7,139.7,74.7,139.7s-462.8,108.8-524.5,100.7
					c-61.7-8.1-65-48.7-65-48.7s-2.2-117,0-155.9C599.3,983.1,611.1,905.2,741,900.3z"/>
			</defs>
			<clipPath id="SVGID_5_">
				<use xlink:href="#SVGID_23_"  style="overflow:visible;"/>
			</clipPath>
			<polygon class="st14" points="572.1,1205.6 582.1,891.3 797.8,871.1 1224.9,1025.3 1226.6,1155.3 666.3,1278.7 			"/>
			<path class="st15" d="M728,1238.1c0,0,0-157.5,0-191.6c0-34.1,32.5-94.7,133.2-77.9c107.2,17.9,290.7,61.7,315,89.3
				c24.4,27.6,24.4,131.5,24.4,131.5L728,1238.1z"/>
		</g>
		<g>
			<g>
				<polygon class="st16" points="437.3,35.1 426.4,66.8 508,114.3 509.2,220.3 540.9,232.5 542.1,100.9 				"/>
				<polygon class="st17" points="508,114.3 380.1,126.1 290,85.3 426.4,66.8 				"/>
				<polygon class="st17" points="437.3,35.1 426.4,66.8 290,85.3 301.7,54.6 				"/>
				<polygon class="st18" points="380.1,126.1 386.2,222.7 509.2,220.3 508,114.3 				"/>
			</g>
			<g>
				<ellipse class="st0" cx="393.5" cy="242.8" rx="28" ry="32.9"/>
				<polygon class="st0" points="515.5,210.9 393.5,209.9 393.5,275.7 515.5,276.6 				"/>
				<ellipse class="st5" cx="515.5" cy="243.8" rx="28" ry="32.9"/>
			</g>
			<g>
				<polygon class="st17" points="493.7,251 366.1,245.8 297.3,331.3 410.9,332.9 				"/>
				<polygon class="st16" points="493.7,251 515.9,277.5 418.2,379.2 288.1,323.8 310,290.9 410.9,332.9 				"/>
				<polygon class="st17" points="190.1,286 168.2,318.9 288.1,323.8 310,290.9 				"/>
				<polygon class="st19" points="288.1,323.8 168.2,318.9 289.3,362.2 418.2,379.2 				"/>
			</g>
			
				<ellipse transform="matrix(0.9991 -4.250969e-02 4.250969e-02 0.9991 -9.8962 22.1327)" class="st5" cx="515.5" cy="243.8" rx="28" ry="32.9"/>
		</g>
		<g>
			<path class="st5" d="M382.5,871.8c0,0,16.9-10.8,28-13.8c19.5-5.3,28.8-4.9,28.8-4.9s12.7-154.1-110-99.5
				c-0.1-0.2,7.7,100.9,7.7,100.9L382.5,871.8z"/>
			<g>
				<defs>
					<path id="SVGID_25_" d="M302.5,855.6c0,0-7.6-113.1,42.6-103.9c51.2,9.3,37.4,120.2,37.4,120.2L302.5,855.6z"/>
				</defs>
				<use xlink:href="#SVGID_25_"  style="overflow:visible;fill:#4AA6C0;"/>
				<clipPath id="SVGID_6_">
					<use xlink:href="#SVGID_25_"  style="overflow:visible;"/>
				</clipPath>
				<rect x="281.8" y="734.2" class="st20" width="121.8" height="162"/>
				<ellipse class="st21" cx="342.3" cy="822.2" rx="16.3" ry="26.6"/>
				<path class="st22" d="M293.7,839.7c0,0,20.5-3.7,53.2,8.1c28.6,10.4,39.5,26,39.5,26s-26.4,18.9-51.6,8.5
					C309.5,872,303.7,861.2,293.7,839.7z"/>
				<path class="st22" d="M393.9,783.8c0,0-18.6-18.1-52.7-13.5c-43.3,5.8-58,42.3-58,42.3s8.6-53.6,58.3-56.1
					C368.7,755,377.6,766.5,393.9,783.8z"/>
				<path class="st23" d="M301.7,864.9c0,0-6.8-122.4,43.4-113.3c51.2,9.3,37.4,125,37.4,125"/>
			</g>
		</g>
		<g>
			<path class="st5" d="M758.4,950.6c0,0,16.9-10.8,28-13.8c19.5-5.3,28.8-4.9,28.8-4.9s12.7-154.1-110-99.5
				c-0.1-0.2,7.7,100.9,7.7,100.9L758.4,950.6z"/>
			<g>
				<defs>
					<path id="SVGID_27_" d="M678.5,934.3c0,0-7.6-113.1,42.6-103.9c51.2,9.3,37.4,120.2,37.4,120.2L678.5,934.3z"/>
				</defs>
				<clipPath id="SVGID_7_">
					<use xlink:href="#SVGID_27_"  style="overflow:visible;"/>
				</clipPath>
				<rect x="657.8" y="812.9" class="st24" width="121.8" height="162"/>
				<ellipse class="st25" cx="718.3" cy="900.9" rx="17.8" ry="29.1"/>
				<g id="Happy" class="st26">
					<path class="st27" d="M673,853.4c0,0,22-13.8,54.4-2.2c41.1,14.8,47.9,53.5,47.9,53.5s2.8-54.2-45.3-67.1
						C703.7,830.6,692.6,840,673,853.4z"/>
					<path class="st27" d="M776.4,932.7c0,0-18.2-10.2-52.9-9.8c-30.4,0.4-45.8,11.6-45.8,11.6s18.7,26.5,46,25
						C750.9,958,759.9,949.8,776.4,932.7z"/>
				</g>
				<path class="st28" d="M677.7,943.7c0,0-6.8-122.4,43.4-113.3c51.2,9.3,37.4,125,37.4,125"/>
			</g>
		</g>
		<path class="st12" d="M407.5,1079.4L407.5,1079.4c0,16.2,8.4,31.5,22.6,39.5c12.8,7.2,23.6,13.7,49.3,8.5
			c11.5-2.3,27.8-13.9,27.8-25.6l0,0L407.5,1079.4z"/>
	</g>
</g>
<g id="Fred">
</g>
<g id="Bubbles">
</g>
<g id="Dolores">
</g>
<g id="Dolly">
</g>
<g id="Cosmo">
</g>
<g id="Belle">
</g>
<g id="Rivet">
</g>
<g id="Spring">
</g>
<g id="Eileen">
</g>
<g id="Levi">
</g>
<g id="Oscar">
</g>
<g id="Rex">
</g>
</svg>
