<?xml version="1.0" encoding="utf-8"?>
<!-- Generator: Adobe Illustrator 24.2.1, SVG Export Plug-In . SVG Version: 6.00 Build 0)  -->
<svg version="1.1" xmlns="http://www.w3.org/2000/svg" xmlns:xlink="http://www.w3.org/1999/xlink" x="0px" y="0px"
	 viewBox="0 0 1336.9 1389.3" style="enable-background:new 0 0 1336.9 1389.3;" xml:space="preserve">
<style type="text/css">
	.st0{fill:#58448E;}
	.st1{fill:#328545;}
	.st2{fill:#266939;}
	.st3{clip-path:url(#SVGID_3_);fill:#266939;}
	.st4{clip-path:url(#SVGID_3_);fill:#328545;}
	.st5{fill:#87BD3C;}
	.st6{clip-path:url(#SVGID_4_);fill:#328545;}
	.st7{clip-path:url(#SVGID_4_);fill:#266939;}
	.st8{clip-path:url(#SVGID_4_);fill:#1C5130;}
	.st9{fill:#3F3268;}
	.st10{clip-path:url(#SVGID_5_);fill:#328545;}
	.st11{clip-path:url(#SVGID_5_);fill:#87BD3C;}
	.st12{clip-path:url(#SVGID_5_);fill:#1C5130;}
	.st13{clip-path:url(#SVGID_5_);fill:#266939;}
	.st14{clip-path:url(#SVGID_5_);fill:#328545;stroke:#266939;stroke-width:2.9302;stroke-miterlimit:10;}
	.st15{clip-path:url(#SVGID_5_);}
	.st16{fill:#DDDDDD;}
	.st17{clip-path:url(#SVGID_6_);fill:#669632;}
	.st18{clip-path:url(#SVGID_6_);fill:#87BD3C;}
	.st19{clip-path:url(#SVGID_6_);fill:#8A96AB;}
	.st20{clip-path:url(#SVGID_7_);fill:#87BD3C;}
	.st21{clip-path:url(#SVGID_7_);fill:#669632;}
	.st22{clip-path:url(#SVGID_8_);fill:#328545;}
	.st23{clip-path:url(#SVGID_8_);fill:#266939;}
	.st24{clip-path:url(#SVGID_9_);fill:#669632;}
	.st25{clip-path:url(#SVGID_9_);fill:#87BD3C;}
	.st26{clip-path:url(#SVGID_9_);fill:#8A96AB;}
	.st27{clip-path:url(#SVGID_10_);fill:#87BD3C;}
	.st28{clip-path:url(#SVGID_10_);fill:#669632;}
	.st29{clip-path:url(#SVGID_11_);fill:#328545;}
	.st30{clip-path:url(#SVGID_11_);fill:#266939;}
	.st31{clip-path:url(#SVGID_12_);fill:#328545;}
	.st32{clip-path:url(#SVGID_12_);fill:#266939;}
	.st33{clip-path:url(#SVGID_13_);fill:#669632;}
	.st34{clip-path:url(#SVGID_13_);fill:#87BD3C;}
	.st35{clip-path:url(#SVGID_14_);fill:#669632;}
	.st36{clip-path:url(#SVGID_14_);fill:#87BD3C;}
	.st37{fill:#38964A;}
	.st38{fill:#669632;}
	.st39{fill:none;stroke:#58448E;stroke-width:7.1136;stroke-linecap:round;stroke-miterlimit:10;}
	.st40{fill:#C5E6F9;}
	.st41{fill:none;stroke:#58448E;stroke-width:2.68;stroke-miterlimit:10;}
</style>
<g id="Sergeant">
</g>
<g id="Elton">
</g>
<g id="Fred">
	<g>
		<g>
			<g>
				<circle class="st0" cx="342.6" cy="370.8" r="12.3"/>
				<g>
					<path class="st1" d="M321,331.2c-12.1-3-20.5,2.2-20.5,2.2l30.3,44.1c0,0,7.1,5.1,15.9-1.2c8.1-5.9,5.7-13.6,5.7-13.6
						l-13.9-17.7C338.4,344.8,328.6,333.1,321,331.2z"/>
					<path class="st2" d="M351.6,370.3c0-0.1-0.1-0.2-0.1-0.2l-13.9-17.7c0,0-9.8-11.8-17.5-13.7c-6.7-1.7-12.2-0.8-15.9,0.3
						l-3.9-5.6c0,0,8.5-5.2,20.5-2.2c7.6,1.9,17.5,13.7,17.5,13.7l13.9,17.7C352.4,362.6,353.5,366.2,351.6,370.3z"/>
				</g>
			</g>
			<g>
				<defs>
					<path id="SVGID_2_" d="M370.9,366.8l-31.4-11c0,0-26.9,1.1-29.7,8.9c-4.3,11.8,2,23.6,2,23.6l52.8,6.3
						c7.6,0.9,14.6-4.3,15.8-11.9v0C381.4,375.9,377.4,369.2,370.9,366.8z"/>
				</defs>
				<clipPath id="SVGID_3_">
					<use xlink:href="#SVGID_2_"  style="overflow:visible;"/>
				</clipPath>
				
					<rect x="305.5" y="356.7" transform="matrix(0.9863 0.1649 -0.1649 0.9863 66.8976 -51.6347)" class="st3" width="77.9" height="41"/>
				<path class="st4" d="M309.7,388.3c0,0,10.1,0.7,12.8-7.7l59.6,12.8l-3.7,8.6L309.7,388.3z"/>
				<path class="st3" d="M393.9,365l-39.6-7.1c0,0,10.9,10.4,8.7,23.8c-2,12-9,16.4-9,16.4l33.5,4.8L393.9,365z"/>
			</g>
			<path class="st0" d="M313.9,384.8l-12.9-1.5l15.5-21.7c0,0,5.1,1.2,4.3,9.6S316.3,383.9,313.9,384.8z"/>
			<path class="st1" d="M307.8,388l-43.8-9.3L242.7,343c0,0,2-5.9,12.3-4.5c10.3,1.4,28.1,26.4,28.1,26.4l34.9,3.5L307.8,388z"/>
			<path class="st5" d="M311,379.4c0,0,12.2,2.3,15-7.8c2.4-8.8-7.3-12.9-7.3-12.9l-35.8-4.9c0,0-24.2-22.5-35-13.9l23.3,30.7
				L311,379.4z"/>
			<circle class="st0" cx="317.1" cy="369.1" r="5.1"/>
		</g>
		<g>
			<g>
				<defs>
					<path id="SVGID_1_" d="M665.6,919.6L665.6,919.6c-26.7-2-46.2-11.5-64-26.8c-19.9-17-44.2-41.6-51.5-69
						c-3.6-13.6-5-27.9-3.9-42.7l0.6-8.5l257.9,19l-0.6,8.5c-1.1,15.1-4.8,29.3-10.5,42.4c-9.3,21.2-31.8,38.7-48.7,52.1
						C722.9,912.3,697.4,921.9,665.6,919.6z"/>
				</defs>
				<clipPath id="SVGID_4_">
					<use xlink:href="#SVGID_1_"  style="overflow:visible;"/>
				</clipPath>
				
					<rect x="529.9" y="764.4" transform="matrix(0.9973 7.364547e-02 -7.364547e-02 0.9973 64.0534 -46.9313)" class="st6" width="277.1" height="161.4"/>
				<polygon class="st7" points="607.3,887.4 725.6,896.1 747.7,953.3 591.6,941.8 				"/>
				<path class="st8" d="M766.8,880.9c-27.5,26.9-56.8,41.6-65.4,32.8c-8.6-8.8,6.7-37.8,34.2-64.7c27.5-26.9,49.4-32.4,65.4-32.8
					C813.4,816,794.3,854,766.8,880.9z"/>
				<path class="st8" d="M571.5,866.5c23.3,30.7,50.1,49.5,59.9,42s-1.1-38.3-24.4-69c-23.3-30.7-46-39.4-59.9-42
					C535.1,795.2,548.3,835.9,571.5,866.5z"/>
			</g>
			
				<ellipse transform="matrix(7.364547e-02 -0.9973 0.9973 7.364547e-02 -154.024 1398.5038)" class="st2" cx="675.8" cy="782.2" rx="13.5" ry="129.3"/>
			<path class="st9" d="M790,879.4c0,0-3.9,9.5-9.5,14.6c-5.4,4.9-14.2,8.8-14.2,8.8l-32.1-32.5c0,0,1.6-7.8,9.8-16.2
				c6.9-7.2,14-7.2,14-7.2L790,879.4z"/>
			<path class="st9" d="M548.6,860.9c0,0,2.2,10,6.9,16.1c4.4,5.8,12.5,11.1,12.5,11.1l37.2-26.5c0,0-0.3-7.9-6.8-17.7
				c-5.6-8.3-12.5-9.5-12.5-9.5L548.6,860.9z"/>
		</g>
		<path class="st9" d="M772,788.9c0,0-22.7,9.9-92.5,3.1c-70.4-6.8-93.9-17.6-93.9-17.6l1.3-61.2l186.6,4.1L772,788.9z"/>
		<g>
			<g>
				<defs>
					<path id="SVGID_29_" d="M849.1,645.5c-2.4,62.8-7.8,75.9-43.3,104.9c-24.1-1.6-62.6-5.9-106.8-8.3
						c-45.9,8.3-85.7,14.7-109.2,18.8c-29.1-22.7-43.3-28.8-57.1-94.3c-10.8-51.4-6.1-134.6,9.5-193.8c-7-27.3-28.9-71.4-3.2-83.6
						c27.8-13.2,84.6-28.9,131.7-32c39.2-2.6,100.5,4.7,131.6,14.4c28.4,8.9,12.4,54.2,9.1,83.2
						C836.5,512.3,851.2,591.4,849.1,645.5z"/>
				</defs>
				<clipPath id="SVGID_5_">
					<use xlink:href="#SVGID_29_"  style="overflow:visible;"/>
				</clipPath>
				
					<rect x="487.7" y="333" transform="matrix(0.9978 -6.665778e-02 6.665778e-02 0.9978 -35.4489 46.9614)" class="st10" width="396.7" height="443.3"/>
				<polygon class="st11" points="565.3,491.1 668.5,408.7 788.4,476.2 853.1,415.9 782.3,332.9 532.1,350.6 519.9,459.6 				"/>
				<path class="st12" d="M727.6,379.6c1.3,18.9-30.1,40-55.9,50.5c-31.2-9.1-60.8-23.7-62.1-42.6s31-30.6,57.1-32.4
					C692.8,353.3,726.3,360.6,727.6,379.6z"/>
				<path class="st13" d="M520.4,424.7c0,0,3.4-36.3,14.5-30.2c11.1,6.1,35,49.5,35,94.8c-20.4,74-20.8,134.4-23.1,187.6
					c0,0,5.5,57.6,34.5,83.4c29,25.8-79.1-24.4-79.1-24.4l-14.4-157.4L520.4,424.7z"/>
				<path class="st13" d="M821.6,404.1c0,0,2.5-27.9-12.2-29.4c-12.6-1.2-33,55.5-26.9,100.4c30,70.6,47.5,129.8,56.8,182.3
					c0,0-6.8,58.4-32.1,87.9c-25.3,29.5,60.1-33.7,60.1-33.7l-7-157.9L821.6,404.1z"/>
				<path class="st12" d="M559,491.5c0,0,11.1-9-7.1-55.6c-11.2-28.6-16.2-24.2-17.7-16.4C532.8,427.5,541.6,493.7,559,491.5z"/>
				<path class="st12" d="M795.2,475.8c0,0-12.2-7.5-0.3-56c7.3-29.9,12.9-26.2,15.3-18.6c1.2,3.6,1.8,20.7,0.2,37.6
					C808.8,457.3,804.4,475.6,795.2,475.8z"/>
				<path class="st13" d="M884.1,753.8l-371.7,24.8l35.3-152c0,0,34.6,71,143.5,63.8c111.2-7.4,137.7-82.6,137.7-82.6L884.1,753.8z"
					/>
				
					<rect x="618" y="517.9" transform="matrix(0.9978 -6.665778e-02 6.665778e-02 0.9978 -36.7024 46.8569)" class="st14" width="131.5" height="111.1"/>
				<g class="st15">
					<circle class="st9" cx="654.7" cy="555.9" r="18.5"/>
					
						<rect x="686.2" y="537.2" transform="matrix(0.9978 -6.665778e-02 6.665778e-02 0.9978 -35.3706 47.4044)" class="st5" width="13" height="33.1"/>
					
						<rect x="713" y="535.4" transform="matrix(0.9978 -6.665778e-02 6.665778e-02 0.9978 -35.1914 49.1894)" class="st5" width="13" height="33.1"/>
					
						<rect x="641" y="593.2" transform="matrix(0.9978 -6.665778e-02 6.665778e-02 0.9978 -38.7614 44.7393)" class="st5" width="20.1" height="20.1"/>
					
						<rect x="675.1" y="590.9" transform="matrix(0.9978 -6.665778e-02 6.665778e-02 0.9978 -38.5335 47.0096)" class="st5" width="20.1" height="20.1"/>
					
						<rect x="709.3" y="588.6" transform="matrix(0.9978 -6.665778e-02 6.665778e-02 0.9978 -38.3055 49.2799)" class="st5" width="20.1" height="20.1"/>
				</g>
			</g>
			<path class="st9" d="M807.7,407.2c0,0-8.8,4.2-11.4,24.1c-2.6,20,1.4,31.1,4.5,33.5c3.1,2.4,40.5,3.8,46.8-18.7
				C855.1,419.3,832.3,406.5,807.7,407.2z"/>
			<path class="st9" d="M535.8,425.4c0,0,9.3,3,14.5,22.4s2.7,31,0,33.8c-2.7,2.8-39.7,9.1-48.9-12.3
				C490.4,443.7,511.3,428,535.8,425.4z"/>
		</g>
		<g>
			<g>
				<path class="st9" d="M722.9,278.4c0-0.1,0-0.1,0-0.2c0.2-17-23.5-31-53-31.4c-29.5-0.4-53.6,13.1-53.8,30.1c0,0.1,0,0.1,0,0.2
					L722.9,278.4z"/>
			</g>
			<g>
				
					<rect x="615.2" y="277.9" transform="matrix(1.255882e-02 -0.9999 0.9999 1.255882e-02 329.0807 995.9814)" class="st9" width="107.2" height="106.9"/>
				<g>
					<path class="st16" d="M722.8,285.3c1.3,8.1-3.9,16.6-14.1,22.6c-10,6.1-24.8,9.6-39.7,9.4c-14.9-0.2-29.6-4-39.5-10.4
						c-10.1-6.3-15-14.9-13.5-23c1.2,8.1,7.5,15.6,17.2,20.9c9.7,5.3,22.7,8.5,35.8,8.6c13.1,0.2,26.2-2.6,36-7.7
						C714.9,300.7,721.4,293.4,722.8,285.3z"/>
				</g>
				<g>
					<path class="st16" d="M722.2,337.4c1.3,8.1-3.9,16.6-14.1,22.6c-10,6.1-24.8,9.6-39.7,9.4c-14.9-0.2-29.6-4-39.5-10.4
						c-10.1-6.3-15-14.9-13.5-23c1.2,8.1,7.5,15.6,17.2,20.9c9.7,5.3,22.7,8.5,35.8,8.6c13.1,0.2,26.2-2.6,36-7.7
						C714.2,352.7,720.8,345.4,722.2,337.4z"/>
				</g>
			</g>
			<g>
				<path class="st9" d="M721.5,385.6c0,0.1,0,0.1,0,0.2c-0.2,17-24.3,30.4-53.8,30.1c-29.5-0.4-53.2-14.4-53-31.4
					c0-0.1,0-0.1,0-0.2L721.5,385.6z"/>
			</g>
		</g>
		<g>
			<circle class="st9" cx="588.2" cy="1267" r="20.9"/>
			<circle class="st9" cx="592.9" cy="1066" r="30.6"/>
			<g>
				<defs>
					<path id="SVGID_31_" d="M628.7,1051.4l11.6-127.5c0,0-3.2-29.5-61.6-82.6c-30.9-28.1-51.1-36.1-58.9-19.5
						c0.4,10.4,37.8,238.8,37.8,238.8s20.7,10.8,43.5,9.4C615.8,1069.1,625,1064.1,628.7,1051.4z"/>
				</defs>
				<clipPath id="SVGID_6_">
					<use xlink:href="#SVGID_31_"  style="overflow:visible;"/>
				</clipPath>
				<polygon class="st17" points="654.5,928.7 620.5,828.1 532.2,796.2 504.2,825.6 552.1,1066.2 594.9,1080.9 628.4,1076.7 				"/>
				<path class="st18" d="M522.3,797.3l51.3,274.4l69.2-4.1l14.3-183.5c0,0-9.3-26.7-41.4-53.8C595.1,812.9,522.3,797.3,522.3,797.3
					z"/>
				
					<ellipse transform="matrix(0.7093 -0.7049 0.7049 0.7093 -420.2934 670.2834)" class="st19" cx="602.5" cy="844.7" rx="7.1" ry="78.4"/>
			</g>
			<g>
				<defs>
					<path id="SVGID_33_" d="M564.3,1271.7c0,0,0.9,0,1.8-0.3c0.8-6.8,6.5-15.8,21.6-15.4c15.3,0.4,21.7,8.7,21.4,15.7
						c1.3,1,2.3,1,2.3,1s-0.2-16.8,2.6-38.7c3.6-28.2,11.7-64.6,12.6-81.5c1.1-19.6-2.1-78.5-2.1-78.5s-7.5,10.2-33.8,9.6
						c-27.4-0.6-30.7-11-30.7-11s-5.8,58.7-5.6,78.3c0.2,17.1,6.7,53.6,9.1,82C565.3,1254.6,564.3,1271.7,564.3,1271.7z"/>
				</defs>
				<clipPath id="SVGID_7_">
					<use xlink:href="#SVGID_33_"  style="overflow:visible;"/>
				</clipPath>
				
					<rect x="531.5" y="1048.5" transform="matrix(-0.9998 -2.204057e-02 2.204057e-02 -0.9998 1147.9758 2347.8833)" class="st20" width="110.8" height="238.2"/>
				<path class="st21" d="M572.1,1077.3c0,0-2.9,17.2-4.7,37.5c-1.7,19.4-5.8,58.5,5,98.7c10.8,40.1-5.6,79.6-5.6,79.6l-12-29.4
					l-11.2-199.9L572.1,1077.3z"/>
			</g>
			<g>
				
					<rect x="556.5" y="1055.4" transform="matrix(0.9998 2.204057e-02 -2.204057e-02 0.9998 23.711 -12.0849)" class="st0" width="7.2" height="28.4"/>
				
					<ellipse transform="matrix(2.204057e-02 -0.9998 0.9998 2.204057e-02 -524.9883 1602.3613)" class="st9" cx="556.5" cy="1069.5" rx="14.2" ry="2.9"/>
				
					<ellipse transform="matrix(2.204057e-02 -0.9998 0.9998 2.204057e-02 -518.136 1609.6825)" class="st0" cx="563.7" cy="1069.7" rx="14.2" ry="2.9"/>
			</g>
			<g>
				
					<rect x="621.2" y="1056.8" transform="matrix(-0.9998 -2.204057e-02 2.204057e-02 -0.9998 1225.8485 2155.5942)" class="st0" width="7.2" height="28.4"/>
				
					<ellipse transform="matrix(2.204057e-02 -0.9998 0.9998 2.204057e-02 -456.3485 1675.697)" class="st9" cx="628.3" cy="1071.1" rx="14.2" ry="2.9"/>
				
					<ellipse transform="matrix(2.204057e-02 -0.9998 0.9998 2.204057e-02 -463.2009 1668.3759)" class="st0" cx="621.2" cy="1071" rx="14.2" ry="2.9"/>
			</g>
			<g>
				<defs>
					<path id="SVGID_35_" d="M607.4,1275.4c0,0-6.6-9-18.3-9.6c-13.6-0.8-21.1,8.5-21.1,8.5l0.1-21.5l-3.5-0.1l-1.6,27
						c0,0-7.9,20.4-9.1,22.2c-4.8,7.4-6.5,17-4.3,24.1c1.6,5.2,56.5,9,67,2.4s-4.5-26.6-3.9-31.9c0.6-5.3,0.9-40.6,0.9-40.6
						l-4.4-0.8L607.4,1275.4z"/>
				</defs>
				<clipPath id="SVGID_8_">
					<use xlink:href="#SVGID_35_"  style="overflow:visible;"/>
				</clipPath>
				
					<rect x="546.7" y="1250.9" transform="matrix(-0.9998 -2.204057e-02 2.204057e-02 -0.9998 1141.6178 2598.9255)" class="st22" width="76.8" height="84.6"/>
				<path class="st23" d="M542.1,1312.8c0,0,4.4,6.6,38.1,7.3c33.7,0.7,28-3.6,28.1-8.5c0.1-4.9-8.3-26.3-7.4-32.9
					s3.3-31.4,3.3-31.4l16.1,20.5l14.1,66.1l-94-1.1L542.1,1312.8z"/>
			</g>
			<g>
				
					<rect x="561.8" y="1251.1" transform="matrix(0.9998 2.204057e-02 -2.204057e-02 0.9998 27.9041 -12.1248)" class="st9" width="4.4" height="17.3"/>
				
					<ellipse transform="matrix(2.204057e-02 -0.9998 0.9998 2.204057e-02 -710.001 1793.6962)" class="st0" cx="561.8" cy="1259.8" rx="8.7" ry="1.8"/>
				
					<ellipse transform="matrix(2.204057e-02 -0.9998 0.9998 2.204057e-02 -705.8231 1798.1599)" class="st9" cx="566.2" cy="1259.9" rx="8.7" ry="1.8"/>
			</g>
			<g>
				
					<rect x="611.7" y="1252.2" transform="matrix(-0.9998 -2.204057e-02 2.204057e-02 -0.9998 1199.9418 2535.0588)" class="st9" width="4.4" height="17.3"/>
				
					<ellipse transform="matrix(2.204057e-02 -0.9998 0.9998 2.204057e-02 -658.1275 1849.1185)" class="st0" cx="616.1" cy="1261" rx="8.7" ry="1.8"/>
				
					<ellipse transform="matrix(2.204057e-02 -0.9998 0.9998 2.204057e-02 -662.3054 1844.6548)" class="st9" cx="611.7" cy="1260.9" rx="8.7" ry="1.8"/>
			</g>
		</g>
		<g>
			<circle class="st9" cx="790.2" cy="1276.3" r="20.9"/>
			<circle class="st9" cx="770.7" cy="1076.1" r="30.6"/>
			<g>
				<defs>
					<path id="SVGID_37_" d="M733.9,1064.2l-21-126.3c0,0,1-29.7,55.4-86.9c28.7-30.3,48.3-39.8,57.3-23.7
						c0.4,10.4-20.1,241-20.1,241s-19.9,12.3-42.7,12.5C748.1,1080.9,738.5,1076.6,733.9,1064.2z"/>
				</defs>
				<clipPath id="SVGID_9_">
					<use xlink:href="#SVGID_37_"  style="overflow:visible;"/>
				</clipPath>
				<polygon class="st24" points="699.1,943.8 725.6,840.9 811.3,802.6 841.4,829.9 811.4,1073.3 769.8,1091.2 736,1089.5 				"/>
				<path class="st25" d="M821.3,803l-31,277.4l-69.4,1l-27.8-182c0,0,7.3-27.3,37.4-56.7C749.9,823.9,821.3,803,821.3,803z"/>
				
					<ellipse transform="matrix(0.6508 -0.7592 0.7592 0.6508 -389.923 864.4233)" class="st26" cx="744.8" cy="856.1" rx="78.4" ry="7.1"/>
			</g>
			<g>
				<defs>
					<path id="SVGID_39_" d="M813.8,1274c0,0-0.9,0.1-1.9-0.1c-1.3-6.5-7.7-14.9-22.6-13.4c-15.3,1.5-21,10.1-20.2,16.8
						c-1.2,1.1-2.2,1.2-2.2,1.2s-1-16.3-5.4-37.4c-5.6-27.1-16.2-61.9-18.3-78.2c-2.5-18.9-3.5-76.4-3.5-76.4s8,16.7,34.3,14.2
						c27.3-2.6,29.9-20.3,29.9-20.3s10,56.6,11.1,75.7c1,16.6-2.9,52.5-3.2,80.3C811.7,1257.5,813.8,1274,813.8,1274z"/>
				</defs>
				<clipPath id="SVGID_10_">
					<use xlink:href="#SVGID_39_"  style="overflow:visible;"/>
				</clipPath>
				
					<rect x="728.5" y="1058.6" transform="matrix(0.9954 -9.554876e-02 9.554876e-02 0.9954 -108.6451 80.2715)" class="st27" width="110.8" height="232"/>
				<path class="st28" d="M792.3,1085.8c0,0,4.1,16.5,7.4,36.1c3.1,18.7,10,56.4,2.1,96.2c-7.9,39.8,11.3,76.9,11.3,76.9l9.9-29.5
					l-3.1-195L792.3,1085.8z"/>
			</g>
			<g>
				
					<rect x="800" y="1063.1" transform="matrix(-0.9954 9.554876e-02 -9.554876e-02 -0.9954 1706.5697 2072.9495)" class="st0" width="7.2" height="28.4"/>
				
					<ellipse transform="matrix(0.9954 -9.554876e-02 9.554876e-02 0.9954 -99.2113 82.0528)" class="st9" cx="807.2" cy="1077" rx="2.9" ry="14.2"/>
				
					<ellipse transform="matrix(0.9954 -9.554876e-02 9.554876e-02 0.9954 -99.3095 81.374)" class="st0" cx="800" cy="1077.7" rx="2.9" ry="14.2"/>
			</g>
			<g>
				
					<rect x="735.6" y="1069.3" transform="matrix(0.9954 -9.554876e-02 9.554876e-02 0.9954 -100.1467 75.589)" class="st0" width="7.2" height="28.4"/>
				
					<ellipse transform="matrix(0.9954 -9.554876e-02 9.554876e-02 0.9954 -100.1942 75.2531)" class="st9" cx="735.7" cy="1083.8" rx="2.9" ry="14.2"/>
				
					<ellipse transform="matrix(0.9954 -9.554876e-02 9.554876e-02 0.9954 -100.096 75.9319)" class="st0" cx="742.8" cy="1083.2" rx="2.9" ry="14.2"/>
			</g>
			<g>
				<defs>
					<path id="SVGID_41_" d="M771.7,1280.9c0,0,5.9-9.4,17.5-11c13.5-1.8,21.7,7,21.7,7l-1.7-21.4l3.5-0.3l3.5,26.8
						c0,0,9.4,19.8,10.7,21.5c5.3,7.1,7.7,16.5,6.1,23.8c-1.2,5.3-55.6,13.2-66.6,7.4c-11-5.8,2.5-26.9,1.5-32.1s-3.9-40.4-3.9-40.4
						l4.3-1.1L771.7,1280.9z"/>
				</defs>
				<clipPath id="SVGID_11_">
					<use xlink:href="#SVGID_41_"  style="overflow:visible;"/>
				</clipPath>
				
					<rect x="756.8" y="1254.7" transform="matrix(0.9954 -9.554876e-02 9.554876e-02 0.9954 -120.2828 81.9185)" class="st29" width="76.8" height="84.6"/>
				<path class="st30" d="M839.6,1313.4c0,0-3.9,6.9-37.4,10.1s-28.1-1.5-28.6-6.4s6.4-26.8,4.9-33.4c-1.4-6.5-5.6-31-5.6-31
					l-14.5,21.6l-9.2,67l93.6-8L839.6,1313.4z"/>
			</g>
			<g>
				
					<rect x="811.5" y="1258.6" transform="matrix(-0.9954 9.554876e-02 -9.554876e-02 -0.9954 1744.869 2451.061)" class="st9" width="4.4" height="17.3"/>
				
					<ellipse transform="matrix(0.9954 -9.554876e-02 9.554876e-02 0.9954 -117.3362 83.7558)" class="st0" cx="815.9" cy="1267.1" rx="1.8" ry="8.7"/>
				
					<ellipse transform="matrix(0.9954 -9.554876e-02 9.554876e-02 0.9954 -117.396 83.3419)" class="st9" cx="811.6" cy="1267.5" rx="1.8" ry="8.7"/>
			</g>
			<g>
				
					<rect x="761.8" y="1263.4" transform="matrix(0.9954 -9.554876e-02 9.554876e-02 0.9954 -118.05 78.8218)" class="st9" width="4.4" height="17.3"/>
				
					<ellipse transform="matrix(0.9954 -9.554876e-02 9.554876e-02 0.9954 -118.0789 78.617)" class="st0" cx="761.9" cy="1272.3" rx="1.8" ry="8.7"/>
				
					<ellipse transform="matrix(0.9954 -9.554876e-02 9.554876e-02 0.9954 -118.0191 79.0309)" class="st9" cx="766.2" cy="1271.9" rx="1.8" ry="8.7"/>
			</g>
		</g>
		<g>
			<g>
				<g>
					<defs>
						<path id="SVGID_43_" d="M871.6,706.2l25.7,52.1c0,0,1.8,4.9,0.4,6.5c-3.3,3.9-14.3,6.4-35.4,3.2c-29.9-4.6-49-29-49-29
							l24-45.4L871.6,706.2z"/>
					</defs>
					<clipPath id="SVGID_12_">
						<use xlink:href="#SVGID_43_"  style="overflow:visible;"/>
					</clipPath>
					<polygon class="st31" points="838.7,683.9 804,746.2 869.6,775.2 904.5,760.1 872.8,692.6 					"/>
					<path class="st32" d="M830,685.9l-9.7,34.5c0,0,17.4,11.2,33.1,9.2s27.5-13.6,27.5-13.6l-16.1-25.2L830,685.9z"/>
				</g>
				<path class="st9" d="M852.2,759.5c0,0,13.3,3.4,26.7,2.5c16.3-1.2,17.5-3.7,17.5-3.7s2.2,3.7,0.9,5.8
					c-1.3,2.1-13.2,4.4-15.9,4.6s-28.4-3.4-28.4-3.4L852.2,759.5z"/>
				<circle class="st9" cx="825.3" cy="744.6" r="12.3"/>
				<g>
					<path class="st5" d="M855.8,762.3c0,0,0-11.3-8.8-11.9c-7.7-0.6-9.5,8.7-9.5,8.7l1.6,32.7c0,0-11.6,16.1-2.8,24.2l18.5-16.7
						L855.8,762.3z"/>
					<path class="st1" d="M897.9,762.2l-7,33.9l-29,18.3l-25.6,1.5l18.5-16.7l1.1-36.9c0,0,12.7,5,26.4,4.7
						C887.4,766.9,894.5,765.1,897.9,762.2z"/>
					<polygon class="st2" points="891,796.1 854.8,799.2 836.3,816 861.9,814.5 					"/>
				</g>
				<ellipse transform="matrix(0.9498 -0.3128 0.3128 0.9498 -195.2564 302.9782)" class="st9" cx="846.6" cy="760" rx="7" ry="8"/>
				<g>
					<path class="st1" d="M822.4,788.9c-9.7,7.7-19.6,6.6-19.6,6.6l9.1-52.7c0,0,4.4-7.6,15-5.5c9.8,1.9,10.9,10,10.9,10l-5.3,21.9
						C832.6,769.2,828.6,784,822.4,788.9z"/>
					<path class="st2" d="M834,740.6c0,0.1,0,0.2,0,0.2l-5.3,21.9c0,0-4,14.8-10.2,19.7c-5.4,4.3-10.8,5.8-14.5,6.4l-1.2,6.7
						c0,0,9.8,1.2,19.6-6.6c6.2-4.9,10.2-19.7,10.2-19.7l5.3-21.9C837.9,747.3,837.4,743.6,834,740.6z"/>
				</g>
			</g>
			<g>
				<g>
					<g>
						<g>
							<path class="st9" d="M839.2,416.4l-0.1-0.1c-6.5-2.6-13.7-1.8-19.4,1.7c-5.7,3.4-10,9.5-11.2,16.7
								c-1.2,7.3-0.7,14.2,1.2,19.7c1.9,5.5,5.1,9.7,9.7,11.5l0.1,0L839.2,416.4z"/>
						</g>
						<g>
							<path class="st9" d="M871.8,502c-7.4-7.8-15.5-14.9-24.3-21c-8.8-6.1-18.3-11.2-28-15.1l19.8-49.7
								c13.7,5.5,26.6,12.4,38.6,20.7c12,8.2,23.1,17.9,33,28.4L871.8,502z"/>
							<g>
								<path class="st16" d="M844.5,418.5c6.4,2,11.7,7.5,13.4,14.3c1,3.3,1,7,0.4,10.6c-0.6,3.6-2,7.1-3.9,10.2
									c-1.9,3.2-4.4,6-7.1,8.4c-2.7,2.4-5.6,4.2-8.5,5.5c-5.8,2.5-11.4,2.6-15.5,0.1c4.6,1.3,10,0.4,15.2-2.3
									c5.2-2.7,10.3-7.3,13.6-13c3.4-5.6,4.8-12.4,3.6-18.6C854.3,427.4,850.3,421.8,844.5,418.5z"/>
							</g>
							<g>
								<path class="st16" d="M881.4,439.6c5.7,3.3,9.7,9.8,10,16.8c0.2,3.5-0.5,7-1.8,10.4c-1.4,3.4-3.5,6.5-6,9.2
									c-2.6,2.7-5.6,4.9-8.7,6.7c-3.1,1.7-6.4,3-9.5,3.6c-6.2,1.2-11.7,0.1-15.2-3.3c2.1,1.2,4.6,1.8,7.2,2
									c2.6,0.2,5.4-0.2,8.2-0.9c5.6-1.5,11.6-5,16-9.8c4.5-4.8,7.3-11.1,7.4-17.5c0-3.2-0.6-6.3-1.9-9.3
									C885.8,444.4,883.8,441.8,881.4,439.6z"/>
							</g>
						</g>
						<g>
							<path class="st9" d="M905.9,557.5c-8.1-20.8-19.4-39.8-34.2-55.5l39-36.5l1.9,2l1.8,2l3.6,4.1c2.3,2.8,4.5,5.6,6.8,8.5
								c2.1,2.9,4.3,5.8,6.3,8.8l3,4.5c1,1.5,2,3,2.9,4.6c7.5,12.2,13.7,25.1,18.8,38.2L905.9,557.5z"/>
							<g>
								<path class="st16" d="M914.5,469.6c2.4,2.2,4.3,5.1,5.3,8.3c1,3.2,1.4,6.6,0.7,10.1c-1.1,6.9-5.7,13.2-11.8,17.4
									c-6.1,4.2-13.7,6.3-20,6.1c-3.1-0.1-6.1-0.7-8.5-1.8c-2.4-1.2-4.4-2.7-5.7-4.8c3.7,3.2,8.9,4.7,14.9,4.4
									c5.8-0.2,12.4-2.3,17.7-6.1c5.4-3.8,9.5-9.3,11-15.5C919.6,481.7,918.4,474.9,914.5,469.6z"/>
							</g>
							<g>
								<path class="st16" d="M939.1,503.6c1,1.3,1.8,2.7,2.4,4.3c0.6,1.5,1,3.2,1.2,4.8c0.4,3.3,0.1,6.7-1.2,10
									c-2.4,6.5-8,11.9-14.8,14.9c-6.8,3-14.6,3.8-20.8,2.3c-3.1-0.7-5.9-1.9-8.1-3.4c-1.1-0.8-2-1.7-2.8-2.7c-0.8-1-1.5-2-2-3.2
									c0.8,1,1.7,1.9,2.7,2.6c1,0.8,2,1.5,3.2,2.2c2.3,1.2,5.1,2,8,2.5c5.8,0.9,12.6,0,18.6-2.7c6-2.7,11-7.4,13.7-13.2
									c1.3-2.9,1.9-6,2-9.1c0-1.6-0.1-3.2-0.4-4.7C940.3,506.6,939.8,505.1,939.1,503.6z"/>
							</g>
						</g>
						<g>
							<path class="st9" d="M955.8,538.2l0,0.1c1.1,3.1,1.5,6.4,1.2,9.5c-0.1,0.8-0.2,1.6-0.4,2.3c-0.2,0.8-0.4,1.5-0.7,2.3
								c-0.5,1.5-1.2,2.9-2.1,4.3c-3.3,5.5-9,9.7-16.1,11.7c-7.1,2-14.2,1.6-19.9-0.4c-1.4-0.5-2.8-1.1-4-1.8
								c-0.6-0.4-1.2-0.7-1.8-1.1c-0.6-0.4-1.1-0.8-1.6-1.2c-2.1-1.7-3.6-3.9-4.5-6.4l0-0.1L955.8,538.2z"/>
						</g>
					</g>
				</g>
			</g>
			<g>
				<defs>
					<path id="SVGID_45_" d="M882,723.9c0,0-10.9,8.2-36.5-6c-18.4-10.2-15.3-21.1-15.3-21.1l31.2-140.7c0,0,21.8-21.2,95.9-38.9
						c37.5-9,48.4-10.5,46.3,2.4c-1.2,7.1-1.6,27.2-35.7,84.2C926,673.9,882,723.9,882,723.9z"/>
				</defs>
				<clipPath id="SVGID_13_">
					<use xlink:href="#SVGID_45_"  style="overflow:visible;"/>
				</clipPath>
				<polygon class="st33" points="1022.7,505.2 989.7,601.4 885.7,740.5 801.7,708.4 834.9,535.6 956.5,462.9 				"/>
				<path class="st34" d="M860.8,519.6c-22.4,21-49,211.1-49,211.1l33.2,9.7c0,0,53.9-54.1,105.4-177.4c18.5-44.2,13.3-68,13.3-68
					S883.3,498.6,860.8,519.6z"/>
			</g>
		</g>
		<g>
			<g>
				<g>
					<g>
						<path class="st9" d="M547.7,471.7l0.1-0.1c2.9-7.1,2.4-14.7-0.7-20.9c-3.1-6.2-8.7-11-15.8-12.9c-7.1-1.9-14.2-1.2-20.1,1.2
							c-5.9,2.5-10.5,6.7-12.9,12.5l0,0.1L547.7,471.7z"/>
					</g>
					<g>
						<path class="st9" d="M457.2,513c8.6-7.1,16.4-16.5,23.3-27.1c6.9-10.5,12.8-22.2,17.7-34.4l49.5,20.2
							c-6.1,14.9-13.4,29.4-22.4,43.4c-9.1,13.9-20,27.4-33.9,39L457.2,513z"/>
						<g>
							<path class="st16" d="M545.3,477.4c-2.3,7-8,13-15,15.4c-7,2.6-15,1.6-21.4-2.2c-6.4-3.7-11.4-9.9-13.6-16.3
								c-2.3-6.4-1.9-13,1-18.2c-1.8,5.7-1.2,11.9,1.3,17.6c2.5,5.7,7.1,11,12.8,14.1c5.7,3.2,12.7,4.2,19.1,2.4
								C535.9,488.5,541.8,483.9,545.3,477.4z"/>
						</g>
						<g>
							<path class="st16" d="M522.5,519.2c-3.7,6.6-10.9,11.7-18.4,12.6c-3.8,0.6-7.6,0.1-11.1-1.1c-3.5-1.2-6.7-3.3-9.3-5.9
								c-5.3-5.2-8.6-12.3-9.5-18.9c-1-6.6,0.5-12.6,4.3-16.9c-2.6,5-3.2,10.9-1.9,16.9c1.3,6,4.5,12.1,9.3,16.6
								c4.8,4.5,11.3,7.1,18.1,6.6C510.8,528.7,517.7,525.1,522.5,519.2z"/>
						</g>
					</g>
					<g>
						<path class="st9" d="M398.9,526c21.9,5.8,41,1.5,58.2-13l34.2,41.1c-6.9,5.8-14.6,11-23,15.4c-8.4,4.3-17.5,7.8-27,9.8
							c-9.4,2.1-19.1,3-28.6,2.6c-9.4-0.4-18.6-1.9-27.3-4.1L398.9,526z"/>
						<g>
							<path class="st16" d="M485.9,558.4c-3.1,2.7-7,4.8-11.1,5.9c-1,0.3-2.1,0.5-3.1,0.7c-1,0.1-2.1,0.2-3.1,0.2c-1,0-2,0-3-0.1
								c-1-0.1-2-0.3-3-0.5c-1.9-0.4-3.8-1.1-5.5-2.1c-1.7-0.9-3.2-2-4.6-3.3c-2.7-2.6-4.7-5.8-6-9.3c-1.3-3.5-1.9-7.2-2.1-10.8
								c-0.1-1.8,0-3.6,0.1-5.3c0.2-1.7,0.4-3.3,0.7-4.9c1.3-6.3,4.1-10.8,8.5-13.3c-3.5,3.5-5.6,8.4-6.4,14.3
								c-0.8,5.9-0.5,12.7,2.1,18.8c2.4,6.1,7.4,11.2,14.2,13.2C470.4,564,478.9,562.9,485.9,558.4z"/>
						</g>
						<g>
							<path class="st16" d="M435.8,580.3c-2.1,0.5-4.3,0.8-6.5,0.8c-1.1,0-2.2,0-3.3-0.1c-1.1-0.1-2.2-0.3-3.2-0.6
								c-1.1-0.2-2.1-0.5-3.1-0.9c-1-0.4-2-0.8-2.9-1.3s-1.8-1-2.6-1.5c-0.8-0.6-1.6-1.2-2.3-1.9c-3-2.6-5-6-6.2-9.5
								c-1.2-3.5-1.4-7.3-0.9-11c0.5-3.7,1.7-7.2,3.3-10.5c1.6-3.2,3.6-6.1,5.7-8.5c0.5-0.6,1.1-1.2,1.6-1.7
								c0.5-0.6,1.1-1.1,1.6-1.5c0.5-0.5,1.1-0.9,1.6-1.3c0.5-0.4,1.1-0.8,1.6-1.1c0.5-0.3,1.1-0.6,1.7-0.8c0.5-0.3,1.1-0.5,1.7-0.7
								c1.1-0.3,2.2-0.5,3.4-0.5c-1.1,0.3-2.1,0.9-3.1,1.4c-1,0.6-2,1.3-3,2.1c-2,1.6-3.9,3.6-5.7,6c-1.8,2.3-3.4,5.1-4.7,8.1
								c-1.3,2.9-2.2,6.1-2.5,9.4c-0.4,3.3-0.1,6.6,0.9,9.8c1,3.2,2.7,6.1,5.2,8.7c2.5,2.5,5.7,4.6,9.5,5.8c1.9,0.7,3.9,1.1,6,1.3
								C431.4,580.6,433.6,580.5,435.8,580.3z"/>
						</g>
					</g>
					<g>
						<path class="st9" d="M385.5,577.7l-0.2,0c-8.3-2.2-14.5-7.7-17.3-14.1c-2.9-6.5-2.7-13.8,0.5-20.4c3.2-6.7,8.5-11.5,14-14.5
							c5.5-2.9,11.2-4,16.3-2.7l0.1,0L385.5,577.7z"/>
					</g>
				</g>
			</g>
		</g>
		<g>
			<defs>
				<path id="SVGID_47_" d="M330.8,398c0,0,1.6-13.5,29.5-22.3c20-6.3,25.8,3.4,25.8,3.4l80.7,119.4c0,0,0.4,30.4-37.7,96.4
					c-19.3,33.4-25.7,42.4-33.6,32c-4.4-5.8-18.7-19.9-36.6-83.8C336.9,464.3,330.8,398,330.8,398z"/>
			</defs>
			<clipPath id="SVGID_14_">
				<use xlink:href="#SVGID_47_"  style="overflow:visible;"/>
			</clipPath>
			<polygon class="st35" points="392.7,650.5 345.6,560.4 316.2,389.2 397.3,350.3 499.9,493.3 469,631.6 			"/>
			<path class="st36" d="M493.7,523.2c0.2-30.7-119.5-180.8-119.5-180.8l-29.9,17.4c0,0,2.1,76.3,56.2,198.5
				c19.4,43.8,40.2,56.4,40.2,56.4S493.5,553.9,493.7,523.2z"/>
		</g>
		<g>
			<path class="st1" d="M525.9,132.4l141.8,55.4l-3.7,165.3l-133.3-58.8c0,0-5.6-39.2-7.8-73.6C520.2,178.3,525.9,132.4,525.9,132.4
				z"/>
			<path class="st37" d="M525.9,132.4l141.8,55.4l189.7-19.3l-159-54c0,0-33.9-1.3-66.4,0.7C562.8,119.2,525.9,132.4,525.9,132.4z"
				/>
			<path class="st2" d="M819.6,327.8l37.9-159.3c0,0-39.7-4.5-92.5,1.9c-51,6.2-97.2,17.4-97.2,17.4s-6.8,33.2-7,77.1
				c-0.1,45.5,3.3,88.2,3.3,88.2L819.6,327.8z"/>
			<path class="st9" d="M765.4,244c-17-3.2-37.8,11.6-38.7,35.8c0,0-4,29.3-11.7,33.7c-7.7,4.4-39.8,24.6-79.2,2.6
				c0,0,1.3,61.4,45.8,63.4c44.6,2,97.9-18.9,106.6-88C792.6,268.5,782.4,247.2,765.4,244z"/>
			<path class="st0" d="M495,255.2l9-0.7l144.8,62.6l-8.3,1.7c0,0-3.9,19.2-4.7,18.8s-131.1-62.1-131.1-62.1L495,255.2z"/>
			<path class="st5" d="M495,255.2l145.6,63.6c0,0,17.9,45.3,33,60.6c-34.5-13-158.2-65.8-158.2-65.8S481.5,298.3,495,255.2z"/>
			<path class="st38" d="M770.2,246.7c-17-3.2-37.8,11.6-38.7,35.8c0,0-4,29.3-11.7,33.7c-7.1,4.1-43,27.2-71.1,1
				c-2.1,0.4-5.4,1-8.1,1.7c0,0,1.3,61.4,45.8,63.4c44.6,2,97.9-18.9,106.6-88C797.4,271.2,787.2,249.9,770.2,246.7z"/>
			<g>
				<path class="st0" d="M777.7,283.1c0.7-5.5-1-10.7-4.1-14l0.3-2.6l-6.9-0.9c0,0-0.1,0-0.1,0c-7.1-0.9-13.7,5.5-14.8,14.3
					c-1.1,8.8,3.7,16.6,10.8,17.5l7,0.9l0.3-2.6C774.1,293.2,777,288.6,777.7,283.1z"/>
				
					<ellipse transform="matrix(0.1242 -0.9923 0.9923 0.1242 395.8963 1013.2587)" class="st9" cx="771.9" cy="282.4" rx="16" ry="12.9"/>
			</g>
			<line class="st39" x1="632" y1="132.3" x2="605.6" y2="52.1"/>
			<line class="st39" x1="718.2" y1="160" x2="764.7" y2="103.5"/>
			<circle class="st0" cx="769.3" cy="100" r="18.1"/>
			<circle class="st0" cx="604.1" cy="47.4" r="18.1"/>
			<g>
				<path class="st9" d="M666.1,219.1c-14.9-5-29,6.8-31.6,26.4s7.5,39.5,22.4,44.5c14.9,5,29-6.8,31.6-26.4
					C691,244.1,680.9,224.1,666.1,219.1z"/>
				<polygon class="st9" points="668.6,290.5 660.2,292.8 646.7,220.7 655.1,218.4 				"/>
				<g>
					<g>
						
							<ellipse transform="matrix(0.991 -0.1339 0.1339 0.991 -28.5359 89.62)" class="st40" cx="652.2" cy="257" rx="25" ry="33.9"/>
						<path class="st5" d="M647.6,292.5c-14.9-5-24.9-25-22.4-44.5s16.7-31.4,31.6-26.4c14.9,5,24.9,25,22.4,44.5
							C676.6,285.7,662.5,297.5,647.6,292.5z M656.1,227c-12.6-4.2-24.5,5.8-26.7,22.3s6.3,33.4,18.9,37.7
							c12.6,4.2,24.5-5.8,26.7-22.3S668.7,231.3,656.1,227z"/>
					</g>
					
						<ellipse transform="matrix(0.991 -0.1339 0.1339 0.991 -28.5359 89.62)" class="st9" cx="652.2" cy="257" rx="14.8" ry="20.1"/>
				</g>
			</g>
			<g>
				<path class="st9" d="M531.7,168.7c-14.9-5-29,6.8-31.6,26.4s7.5,39.5,22.4,44.5c14.9,5,29-6.8,31.6-26.4
					S546.6,173.7,531.7,168.7z"/>
				<polygon class="st9" points="534.2,240.1 525.9,242.4 512.3,170.3 520.7,168 				"/>
				<g>
					<g>
						
							<ellipse transform="matrix(0.991 -0.1339 0.1339 0.991 -22.9952 71.177)" class="st40" cx="517.8" cy="206.6" rx="25" ry="33.9"/>
						<path class="st5" d="M513.2,242.1c-14.9-5-24.9-25-22.4-44.5s16.7-31.4,31.6-26.4c14.9,5,24.9,25,22.4,44.5
							C542.2,235.2,528.1,247.1,513.2,242.1z M521.7,176.6c-12.6-4.2-24.5,5.8-26.7,22.3s6.3,33.4,18.9,37.7
							c12.6,4.2,24.5-5.8,26.7-22.3S534.3,180.8,521.7,176.6z"/>
					</g>
					
						<ellipse transform="matrix(0.991 -0.1339 0.1339 0.991 -22.9952 71.177)" class="st9" cx="517.8" cy="206.6" rx="14.8" ry="20.1"/>
				</g>
			</g>
			<path class="st41" d="M614.1,39.2c-0.3,12.2,3.9,18.5,13.9,19.7c14,1.7,24.2-10.6,24.3-23.9c0-2-0.2-4-1.2-5.7
				c-1.9-3.4-6.4-4.8-10.1-3.8s-6.7,4-8.5,7.5c-2.8,5.4-2.9,11.8-1.6,17.7c1.9,8.3,7.7,23.1,16.6,26.1c14.3,5,26-14.9,28.7-26.1
				c0.8-3.4,1-7.4-1.5-9.8c-1.5-1.4-3.6-2.1-5.7-2.3c-2.5-0.1-5.9,0.9-7.8,4.2c-5.3,9-3,15.8,4,24.2c4.5,5.4,11.1,8.8,18,10.1
				c5,0.9,10.5,0.7,14.6-2.2c4.7-3.3,6.5-9.3,7.4-14.9c0.5-3.2,0.7-6.7-0.9-9.5c-2-3.4-6.9-4.3-9.3-0.9c-1.8,2.6-1.4,6.9-1.1,9.8
				c0.5,6,1.9,14.2,5.4,19.3c6.7,9.4,17.8,12.5,26.9,9.8c10.7-3.2,24.6-23.8,14.1-30.4c-8.8-5.4-12.2,17.5-7,27.8
				s11.3,11.3,16.8,9.5c4.5-1.4,11.1-5.8,13.3-10.7c3.4-7.5,0.7-17.1-4.2-17.8c-15.7-2.2-1.8,37.2,11.2,36.8"/>
		</g>
	</g>
</g>
<g id="Bubbles">
</g>
<g id="Dolores">
</g>
<g id="Dolly">
</g>
<g id="Cosmo">
</g>
<g id="Belle">
</g>
<g id="Rivet">
</g>
<g id="Spring">
</g>
<g id="Eileen">
</g>
<g id="Levi">
</g>
<g id="Oscar">
</g>
<g id="Rex">
</g>
</svg>
