<?xml version="1.0" encoding="utf-8"?>
<!-- Generator: Adobe Illustrator 24.2.1, SVG Export Plug-In . SVG Version: 6.00 Build 0)  -->
<svg version="1.1" xmlns="http://www.w3.org/2000/svg" xmlns:xlink="http://www.w3.org/1999/xlink" x="0px" y="0px"
	 viewBox="0 0 1336.9 1389.3" style="enable-background:new 0 0 1336.9 1389.3;" xml:space="preserve">
<style type="text/css">
	.st0{fill:#0C2A51;}
	.st1{clip-path:url(#SVGID_1_);fill:#D4AC3F;}
	.st2{clip-path:url(#SVGID_1_);fill:#EABD46;}
	.st3{clip-path:url(#SVGID_2_);fill:#D4AC3F;}
	.st4{clip-path:url(#SVGID_2_);fill:#EABD46;}
	.st5{fill:#265F8E;}
	.st6{fill:#3B79B0;}
	.st7{clip-path:url(#SVGID_3_);fill:#3B79B0;}
	.st8{clip-path:url(#SVGID_3_);fill:#DDDDDD;}
	.st9{fill:#4793D6;}
	.st10{fill:none;stroke:#0C2A51;stroke-width:2.523;stroke-miterlimit:10;}
	.st11{fill:#EABD46;}
	.st12{fill:#F4F4F4;}
	.st13{fill:#B1963A;}
	.st14{fill:#D4AC3F;}
	.st15{clip-path:url(#SVGID_4_);fill:#4793D6;}
	.st16{clip-path:url(#SVGID_4_);fill:#3B79B0;}
	.st17{clip-path:url(#SVGID_4_);fill:none;stroke:#265F8E;stroke-width:2.523;stroke-miterlimit:10;}
	.st18{clip-path:url(#SVGID_4_);fill:#265F8E;}
	.st19{clip-path:url(#SVGID_5_);fill:#EABD46;}
	.st20{clip-path:url(#SVGID_5_);fill:#D4AC3F;}
	.st21{clip-path:url(#SVGID_6_);fill:#EABD46;}
	.st22{clip-path:url(#SVGID_6_);fill:#D4AC3F;}
	.st23{clip-path:url(#SVGID_7_);fill:#EABD46;}
	.st24{clip-path:url(#SVGID_7_);fill:#D4AC3F;}
	.st25{clip-path:url(#SVGID_8_);fill:#EABD46;}
	.st26{clip-path:url(#SVGID_8_);fill:#D4AC3F;}
	.st27{clip-path:url(#SVGID_9_);fill:#EABD46;}
	.st28{clip-path:url(#SVGID_9_);fill:#D4AC3F;}
	.st29{fill:#234E82;}
	.st30{fill:none;stroke:#8995AB;stroke-width:15.1378;stroke-linecap:round;stroke-miterlimit:10;}
	.st31{fill:#676F80;}
	.st32{fill:#C5E6F9;}
</style>
<g id="Sergeant">
</g>
<g id="Elton">
</g>
<g id="Fred">
</g>
<g id="Bubbles">
</g>
<g id="Dolores">
</g>
<g id="Dolly">
</g>
<g id="Cosmo">
</g>
<g id="Belle">
</g>
<g id="Rivet">
</g>
<g id="Spring">
</g>
<g id="Eileen">
</g>
<g id="Levi">
	<g>
		<g>
			
				<ellipse transform="matrix(0.1497 -0.9887 0.9887 0.1497 -278.7387 1110.8636)" class="st0" cx="506.5" cy="717.5" rx="60.3" ry="45.5"/>
			<g>
				<circle class="st0" cx="409.1" cy="594.1" r="38.9"/>
				<g>
					<defs>
						<path id="SVGID_77_" d="M375.3,621.1c0,0,19.7-5.4,39.4-21.2c19.1-15.3,28.2-32.8,28.2-32.8L550.5,682c0,0,1.4,20.3-32.2,47.3
							c-34.6,27.8-54.7,22.1-54.7,22.1L375.3,621.1z"/>
					</defs>
					<use xlink:href="#SVGID_77_"  style="overflow:visible;fill:#EABD46;"/>
					<clipPath id="SVGID_1_">
						<use xlink:href="#SVGID_77_"  style="overflow:visible;"/>
					</clipPath>
					<polygon class="st1" points="574.7,690.6 469.2,782.3 357,612.6 451.9,540.6 					"/>
					<polygon class="st2" points="502.3,758.8 378.6,599.9 346.1,606.7 468.4,773.4 					"/>
				</g>
				<g>
					<g>
						<defs>
							<path id="SVGID_76_" d="M370.7,594.8c0,0,15.9,5.4,38.4,0.3c22.1-5,37.9-18.6,37.9-18.6l-42-119.8c0,0-10.7-5.5-24.5-2.5
								c-15.2,3.3-23.7,13.4-23.7,13.4L370.7,594.8z"/>
						</defs>
						<clipPath id="SVGID_2_">
							<use xlink:href="#SVGID_76_"  style="overflow:visible;"/>
						</clipPath>
						<polygon class="st3" points="458.2,588.8 345.8,614.5 345.5,459.3 419.1,448.9 						"/>
						<polygon class="st4" points="393,605.7 374.6,464.9 343.3,460.2 359.2,601.4 						"/>
					</g>
					
						<ellipse transform="matrix(0.9822 -0.1876 0.1876 0.9822 -79.8276 79.5008)" class="st5" cx="380.1" cy="461.5" rx="22.4" ry="5.9"/>
				</g>
				<g>
					<g>
						<g>
							<path class="st5" d="M370.5,375.7c13.3,7.1,21.5,30.1,18.3,51.2c-3.2,21.1-16.6,32.5-29.9,25.3l2-13.3
								c8.7,4.7,17.4-2.8,19.5-16.5c2.1-13.8-3.3-28.8-11.9-33.4L370.5,375.7z"/>
						</g>
						<g>
							
								<ellipse transform="matrix(0.996 -8.887140e-02 8.887140e-02 0.996 -38.381 33.4159)" class="st5" cx="356.1" cy="447.7" rx="11.1" ry="18.1"/>
						</g>
					</g>
					<polygon class="st6" points="368.5,389 405.8,384.3 407.8,371 370.5,375.7 					"/>
					<path class="st5" d="M368.5,389l11.7,3.3l5.5,27.9l-6.2,17.2l28.7,1.1l13.8-16.1c0,0-1.3-9.6-2.6-25.1c-1-11.6-13.5-13-13.5-13
						L368.5,389z"/>
					<g>
						<defs>
							<path id="SVGID_75_" d="M377,389.2l-2.6,22.8l8.1,26.1l-29.1,3.6l-1.1,7.1c-2.7-1.4-5.1-3.5-7.3-6l0,0l0,0
								c-8.8-10.2-13.5-28.3-11-45.1c2.5-16.3,11-26.7,20.9-27.4l0-0.1l36.5-4.6l-3.2,4.7L377,389.2z"/>
						</defs>
						<clipPath id="SVGID_3_">
							<use xlink:href="#SVGID_75_"  style="overflow:visible;"/>
						</clipPath>
						<polygon class="st7" points="340,448 323.6,415.9 326.9,385.9 343,367.6 399.3,360.2 398.2,373.4 378.8,395.2 380.4,422.4 
							390.9,443 						"/>
						<path class="st8" d="M330.2,380.9c0.7-0.1,57.8-8.2,57.8-8.2l13-10.1c0,0-55.3,4.8-56,4.9S330.2,380.9,330.2,380.9z"/>
					</g>
					<polygon class="st5" points="357.8,465.8 395.6,461 382.6,438.1 345.1,442.8 					"/>
					<g>
						<g>
							<path class="st9" d="M401.4,367.5c-13.3-7.1-26.7,4.2-29.9,25.3c-3.2,21.1,5,44.1,18.3,51.2l2-13.3
								c-8.7-4.7-14-19.6-11.9-33.4s10.8-21.2,19.5-16.5L401.4,367.5z"/>
						</g>
						<g>
							<path class="st9" d="M407.8,371c13.3,7.1,21.5,30.1,18.3,51.2c-3.2,21.1-16.6,32.5-29.9,25.3l2-13.3
								c8.7,4.7,17.4-2.8,19.5-16.5c2.1-13.8-3.3-28.8-11.9-33.4L407.8,371z"/>
						</g>
						<g>
							
								<ellipse transform="matrix(0.996 -8.887140e-02 8.887140e-02 0.996 -37.813 36.7159)" class="st6" cx="393.4" cy="443" rx="11.1" ry="18.1"/>
						</g>
					</g>
				</g>
			</g>
		</g>
		<line class="st10" x1="755" y1="69.1" x2="755" y2="639.1"/>
		<path class="st9" d="M689.6,670.3L689.6,670.3c-17,0-30.8-13.8-30.8-30.8V32c0-17,13.8-30.8,30.8-30.8h0c17,0,30.8,13.8,30.8,30.8
			v607.5C720.4,656.5,706.6,670.3,689.6,670.3z"/>
		<path class="st5" d="M698,671.4L698,671.4c-17,0-30.8-13.8-30.8-30.8V33.1c0-17,13.8-30.8,30.8-30.8h0c17,0,30.8,13.8,30.8,30.8
			v607.5C728.8,657.7,715,671.4,698,671.4z"/>
		<ellipse class="st0" cx="700.3" cy="552.1" rx="18.4" ry="25.1"/>
		<ellipse class="st0" cx="700.3" cy="58.2" rx="18.4" ry="25.1"/>
		<polygon class="st0" points="702.8,33.4 811.4,50.1 807.2,99.8 697.5,83 		"/>
		<ellipse class="st0" cx="301.7" cy="1153.2" rx="48.2" ry="53.9"/>
		<ellipse class="st0" cx="968.9" cy="1193.4" rx="48.2" ry="53.9"/>
		<g>
			<g>
				<path class="st11" d="M991.6,602.9l-802-370.4l0.6-0.2l-4.1-1.4l-1-0.5c-27.7-12.8-62.3-6-77.5,22.6l0,0
					c-15.2,28.5-5.3,68,22.4,80.8l806.5,372.5c27.7,12.8,63.2,4.7,78.4-23.9l0,0C1030.1,653.8,1019.3,615.7,991.6,602.9z"/>
				<polygon class="st12" points="982.8,707.8 971.1,710 956.5,700.2 993.2,702.2 				"/>
			</g>
			<path class="st13" d="M1029.2,687.4L1029.2,687.4c-15.2,28.5-50.7,36.7-78.4,23.9L144.3,338.7c-27.7-12.8-35.1-52.2-19.9-80.7
				l0,0c15.2-28.5,47.3-35.4,75-22.6l806.5,372.5C1033.6,620.7,1044.4,658.8,1029.2,687.4z"/>
			
				<ellipse transform="matrix(0.9991 -4.138737e-02 4.138737e-02 0.9991 -11.7718 7.4045)" class="st0" cx="172.9" cy="288" rx="18.7" ry="23.4"/>
			<polygon class="st0" points="176,265 255,289.8 247.7,335.6 169.5,311 			"/>
		</g>
		<polyline class="st10" points="166.5,723.7 166.5,273.3 758.3,44.8 		"/>
		<g>
			<g>
				<path class="st11" d="M1069.7,627.5L267.7,257l0.6-0.2l-4.1-1.4l-1-0.5c-27.7-12.8-62.3-6-77.5,22.6
					c-15.2,28.5-5.3,68,22.4,80.8l806.5,372.5c27.7,12.8,63.2,4.7,78.4-23.9l0,0C1108.2,678.4,1097.4,640.3,1069.7,627.5z"/>
				<polygon class="st12" points="1060.9,732.4 1049.2,734.6 1034.7,724.7 1071.3,726.8 				"/>
			</g>
			<path class="st14" d="M1107.3,711.9L1107.3,711.9c-15.2,28.5-50.7,36.7-78.4,23.9L222.4,363.2c-27.7-12.8-35.1-52.2-19.9-80.7
				l0,0c15.2-28.5,47.3-35.4,75-22.6L1084,632.5C1111.7,645.3,1122.5,683.4,1107.3,711.9z"/>
			
				<ellipse transform="matrix(0.9991 -4.138737e-02 4.138737e-02 0.9991 -12.7211 10.6591)" class="st0" cx="251.1" cy="312.6" rx="18.7" ry="23.4"/>
		</g>
		<g>
			<polygon class="st11" points="693.3,1218.1 257.8,1067.2 609.3,961.2 1026.2,1104.6 			"/>
			<polygon class="st14" points="257.8,1067.2 275.4,1148.6 690.9,1292.6 693.3,1218.1 			"/>
			<polygon class="st13" points="693.3,1218.1 690.9,1292.6 1008.6,1184.6 1026.2,1104.6 			"/>
		</g>
		<path class="st9" d="M798.5,687.1L798.5,687.1c-17,0-30.8-13.8-30.8-30.8V48.8c0-17,13.8-30.8,30.8-30.8h0
			c17,0,30.8,13.8,30.8,30.8v607.5C829.2,673.3,815.5,687.1,798.5,687.1z"/>
		<path class="st6" d="M806.8,688.2L806.8,688.2c-17,0-30.8-13.8-30.8-30.8V49.9c0-17,13.8-30.8,30.8-30.8h0
			c17,0,30.8,13.8,30.8,30.8v607.5C837.6,674.4,823.8,688.2,806.8,688.2z"/>
		<ellipse class="st0" cx="809.1" cy="568.8" rx="18.4" ry="25.1"/>
		<ellipse class="st0" cx="809.1" cy="74.9" rx="18.4" ry="25.1"/>
		<g>
			<defs>
				<path id="SVGID_74_" d="M601.2,581.2c-9.9-3.7-22-1.4-33.7,8.5L434.4,701.9c-18.9,15.9-29,45.9-23.5,69.6L444,898.3l-9.1,165.9
					l243.3,83.7l171.9-499.9L601.2,581.2z"/>
			</defs>
			<clipPath id="SVGID_4_">
				<use xlink:href="#SVGID_74_"  style="overflow:visible;"/>
			</clipPath>
			<path class="st15" d="M632.8,578.4l-70.3-10.9L385.8,722.4l28.5,349.1c0,0,271.2,92.9,271.2,90.4c0-2.5,190.9-527.4,190.9-527.4
				L632.8,578.4z"/>
			<polygon class="st16" points="397.6,766.4 666.3,843.4 687.6,977.3 444,898.3 			"/>
			<polygon class="st17" points="461.2,809.1 602.6,851.8 622.7,933.8 484.6,891.1 			"/>
			
				<rect x="402.6" y="1099.7" transform="matrix(0.9462 0.3236 -0.3236 0.9462 388.4043 -120.1331)" class="st18" width="305.8" height="16.7"/>
		</g>
		<path class="st5" d="M869.3,1089.5l-191,58.5l9.3-170.6L653.1,845c-5.7-24.5,4.8-55.5,24.3-72l137.7-116.1
			c27.3-23,57.1-6.2,56.9,32.2L869.3,1089.5z"/>
		<g>
			<ellipse class="st0" cx="686.8" cy="1309.8" rx="30.9" ry="57.5"/>
			<g>
				<defs>
					<path id="SVGID_73_" d="M724.5,1322.7c8.6-17.9,18.7-46.3,18.7-72.8c0-49.5-17.9-89.6-56.1-89.6c-38.2,0-56.1,40.1-56.1,89.6
						c0,26.5,11.2,55,18.7,72.8c0,0,11,6.7,37.7,6.7C713.7,1329.4,724.5,1322.7,724.5,1322.7z"/>
				</defs>
				<clipPath id="SVGID_5_">
					<use xlink:href="#SVGID_73_"  style="overflow:visible;"/>
				</clipPath>
				<rect x="621.5" y="1153" class="st19" width="130" height="180.8"/>
				<path class="st20" d="M632.6,1225c0,0-1.4,45.5,54.4,45.5s56.6-45.5,56.6-45.5l8.9,51.9l-21.2,55.8l-102.1-1.1l-10.6-98.8
					L632.6,1225z"/>
			</g>
		</g>
		<g>
			<defs>
				<path id="SVGID_72_" d="M953.7,1097.9c0,0,0.8,7.5,10.6,10.9c10.5,3.6,33.5,5,33.5,5s-5.9,48.6-22.6,82.9c0,0-6.2,16,16.7,26
					c25.7,11.2,33.5-3.3,33.5-3.3s26.5-37.9,36.8-87.1c4.8-22.7,0.5-52.7-18.7-67.2C1018.8,1046.3,976.7,1048,953.7,1097.9z"/>
			</defs>
			<clipPath id="SVGID_6_">
				<use xlink:href="#SVGID_72_"  style="overflow:visible;"/>
			</clipPath>
			<polygon class="st21" points="942.9,1097.5 968.9,1046 1053.8,1043.1 1083.6,1112.5 1023.7,1236.4 961.3,1223 975.6,1136.8 			
				"/>
			<path class="st22" d="M952,1213.4c0,0,25.5-65.9,33.5-96c6.7-25.2,63.6-16.7,58-52.5c48,30,9.1,139.7,9.1,139.7l-36,32.2
				L952,1213.4z"/>
		</g>
		<g>
			<defs>
				<path id="SVGID_71_" d="M316.9,1057.7c0,0-0.8,7.5-10.6,10.9c-10.5,3.6-33.5,5-33.5,5s5.9,48.6,22.6,82.9c0,0,6.2,16-16.7,26
					c-25.7,11.2-33.5-3.3-33.5-3.3s-26.5-37.9-36.8-87.1c-4.8-22.7-0.5-52.7,18.7-67.2C251.8,1006.1,293.9,1007.8,316.9,1057.7z"/>
			</defs>
			<clipPath id="SVGID_7_">
				<use xlink:href="#SVGID_71_"  style="overflow:visible;"/>
			</clipPath>
			<polygon class="st23" points="327.7,1057.3 301.7,1005.8 216.8,1002.9 187.1,1072.4 246.9,1196.2 309.3,1182.8 295,1096.6 			"/>
			<path class="st24" d="M318.6,1173.2c0,0-25.5-65.9-33.5-96c-6.7-25.2-63.6-16.7-58-52.5c-48.9,24.6-9.1,139.7-9.1,139.7l36,32.2
				L318.6,1173.2z"/>
		</g>
		
			<ellipse transform="matrix(1.943989e-02 -0.9998 0.9998 1.943989e-02 -11.7247 1581.0895)" class="st0" cx="800.2" cy="796.5" rx="60.3" ry="45.5"/>
		<g>
			<circle class="st0" cx="902.7" cy="676" r="38.9"/>
			<g>
				<defs>
					<path id="SVGID_70_" d="M935.7,704c0,0-19.5-6-38.7-22.4c-18.7-15.8-27.2-33.6-27.2-33.6L758.8,759.7c0,0-2,20.3,30.7,48.2
						c33.7,28.8,54.1,23.7,54.1,23.7L935.7,704z"/>
				</defs>
				<clipPath id="SVGID_8_">
					<use xlink:href="#SVGID_70_"  style="overflow:visible;"/>
				</clipPath>
				<path class="st25" d="M848.2,845.4c0,0-71.4-10-88.7-31.8c-8.1-10.2-14.5-26.8-19.5-45.8c-5-19,118.3-136.7,120.5-137.8
					s94.3,77.6,94.3,77.6L848.2,845.4z"/>
				<polygon class="st26" points="809.7,837.5 926.9,681.8 962,695.2 844.8,856 				"/>
			</g>
			<g>
				<g>
					<defs>
						<path id="SVGID_69_" d="M941.2,677.9c0,0-16.1,4.9-38.4-0.8c-22-5.7-37.3-19.7-37.3-19.7L911,538.9c0,0,10.9-5.2,24.6-1.8
							c15.1,3.8,23.3,14.1,23.3,14.1L941.2,677.9z"/>
					</defs>
					<clipPath id="SVGID_9_">
						<use xlink:href="#SVGID_69_"  style="overflow:visible;"/>
					</clipPath>
					<path class="st27" d="M844.3,663.4c0,0,97.1,36.3,109.4,26.2s21.8-151.2,21.8-151.2l-77.6-11.7L844.3,663.4z"/>
					<polygon class="st28" points="909,693.6 945.9,532.8 971.5,548.5 951.4,694.1 					"/>
				</g>
				
					<ellipse transform="matrix(0.2167 -0.9762 0.9762 0.2167 201.5173 1339.7883)" class="st29" cx="935.7" cy="544.3" rx="5.9" ry="22.4"/>
			</g>
			<g>
				<g>
					
						<ellipse transform="matrix(0.4116 -0.9114 0.9114 0.4116 62.5552 1148.177)" class="st5" cx="920.5" cy="525.6" rx="18.1" ry="11.1"/>
				</g>
				<path class="st5" d="M1000.4,512.8c-6.5,14.2-10.1,23.1-10.1,23.1l-19.9,7.2l-18.9-11.6c-11.6,9.5-24.2,9.8-30.8-0.6l8.3-10.6
					c5.3,8.3,16.5,6.1,25.1-4.8c8.6-11,11.3-26.7,6-35l8.3-10.6c2.7,4.2,4,9.6,4.1,15.6l22.5,9.2
					C995,494.8,1005.2,502.3,1000.4,512.8z"/>
				<polygon class="st6" points="960.1,480.6 995,494.8 1003.2,484.2 968.4,470 				"/>
				<polygon class="st5" points="913.2,542.2 948.4,556.6 948.3,530.3 913.4,515.9 				"/>
				<polygon class="st5" points="962.6,523.2 928.1,509.1 916.7,521.7 950.4,535.8 				"/>
				<path class="st6" d="M930.5,506.7l-1,21.7l2.2,16.5l-34.6-14.4l0-0.1c-2.2-1-4.3-2.6-6.2-4.7c-8.6-9.7-10-35.5,7.8-54.4
					l35.1,14.6L930.5,506.7z"/>
				<g>
					<g>
						<path class="st9" d="M933.8,486c-17.8,18.9-16.9,43.5-7.8,54.4c7.8,9.3,19.2,8.3,31.6-5.6c1.1-1.2,1.3-3.6,0.4-5.5l0,0
							c-1-2.1-3-2.8-4.2-1.4c-7.9,8.1-13.5,9.9-19.6,2.5c-6-7.3-3.5-25.5,4.9-35.8L933.8,486z"/>
					</g>
					<g>
						<path class="st9" d="M1003.2,484.2c8.1,12.7,3.9,36.8-9.2,53.6c-13.2,16.8-30.4,20.1-38.5,7.4l8.3-10.6
							c5.3,8.3,16.5,6.1,25.1-4.8c8.6-11,11.3-26.7,6-35L1003.2,484.2z"/>
					</g>
					<g>
						
							<ellipse transform="matrix(0.4116 -0.9114 0.9114 0.4116 70.1068 1188.3044)" class="st6" cx="955.3" cy="539.9" rx="18.1" ry="11.1"/>
					</g>
				</g>
			</g>
		</g>
		<g>
			<path class="st30" d="M166.5,725.9v21.8l15.5,29c0,0-0.5,21.8-18,21.8s-19-21.8-19-21.8"/>
			<ellipse class="st31" cx="165.9" cy="727.2" rx="17.6" ry="9.2"/>
		</g>
		<path class="st0" d="M604.3,724.4c-3.5,3.8-30.8,6.9-45,3.5c-14.1-3.9-14-11.7-12.8-17.8c1-5.1,10.1-2.6,29.1,2.5
			C594.5,717.8,607.8,721,604.3,724.4z"/>
		<g>
			<g>
				<path class="st5" d="M631.1,647.9l18.2,4.8l2.9-3.5l-17.5-4.9c3.7-3.5,5.7-5.8,5.8-6c0.8-0.9,1.1-1.9,0.8-2.8
					c-0.3-0.9-1-1.6-2.2-2l-116.3-33.4c-1.5-0.4-3.4-0.1-4.7,1c-2.1,1.5-50.3,38-46.4,65.6c1.6,11.5,11.9,19.7,30.7,24.3
					c7,1.7,13.8,2.6,20.6,2.9C572,696,613.2,664.2,631.1,647.9L631.1,647.9z"/>
				<path class="st5" d="M790.4,675.6l-118.5-34c-1.5-0.4-3.4-0.1-4.7,1c-2.1,1.6-51.5,38.9-47.5,67.2c1.7,11.8,12.2,20.2,31.4,24.8
					c7.1,1.7,14.2,2.7,21.1,3c67,2.9,119.9-56.2,120.4-56.9c0.5-0.6-0.1,0.6,0,0l0.9-1.9l-0.9-4.6L790.4,675.6z"/>
			</g>
			<g>
				<path class="st13" d="M640.5,631.9c-0.3-0.9-1-1.6-2.2-2l-116.3-33.4c-1.5-0.4-3.4-0.1-4.7,1c-2.1,1.5-50.3,38-46.4,65.6
					c1.6,11.5,11.9,19.7,30.7,24.3c7,1.7,13.8,2.6,20.6,2.9c65.4,2.8,117-54.9,117.5-55.5C640.5,633.9,640.8,632.8,640.5,631.9z"/>
				<polygon class="st11" points="640.5,633.4 641.5,626.2 632.8,633.1 637.8,635.6 				"/>
				<g>
					<path class="st32" d="M630.7,627.9c-13.3,13.4-64.9,60.2-124.2,45.8c-15.9-3.9-24.6-10.5-25.9-19.6c-3-21,31.9-50.2,41-57.5
						L630.7,627.9z"/>
					<path class="st11" d="M641.6,624.7c-0.3-0.9-1.1-1.6-2.2-2l-116.3-33.3c-1.5-0.4-3.4-0.1-4.7,1c-2.1,1.5-50.3,38-46.4,65.6
						c1.6,11.5,11.9,19.7,30.7,24.2c7,1.7,13.8,2.6,20.5,2.9c65.4,2.8,117-54.9,117.5-55.5C641.5,626.7,641.8,625.7,641.6,624.7z
						 M506.4,673.7c-15.9-3.9-24.6-10.5-25.9-19.6c-3-21,31.9-50.2,41-57.5l109.1,31.3C617.4,641.2,565.8,688.1,506.4,673.7z"/>
				</g>
			</g>
			
				<ellipse transform="matrix(0.7951 -0.6065 0.6065 0.7951 -276.2667 467.1257)" class="st0" cx="553.1" cy="642.4" rx="19" ry="9.4"/>
			<polygon class="st13" points="628.4,639.2 630.3,644.3 648.5,649.1 651.4,645.6 			"/>
			<polygon class="st11" points="658.4,647.5 627.2,639.1 632.9,629.8 664.2,638.2 			"/>
			<g>
				<g>
					<path class="st13" d="M792.4,674.2c-0.3-0.9-1-1.6-2.2-2L671,638c-1.5-0.4-3.4-0.1-4.7,1c-2.1,1.6-51.5,38.9-47.5,67.2
						c1.7,11.8,12.2,20.2,31.4,24.8c7.1,1.7,14.2,2.7,21.1,3c67,2.9,119.9-56.2,120.4-56.9C792.4,676.1,792.7,675.1,792.4,674.2z"/>
					<polygon class="st13" points="792.5,675.1 793.6,667.5 787.7,674 					"/>
					<g>
						<path class="st32" d="M782.6,669.8c-12.1,12.2-55.8,52.1-108.6,49.8c-6.2-0.3-12.6-1.1-19.1-2.7c-16.3-4-25.3-10.7-26.6-20.2
							c-3-21.6,32.9-51.7,42.2-59.1L782.6,669.8z"/>
						<path class="st11" d="M793.5,666.7c-0.3-0.9-1.1-1.6-2.2-1.9l-119.3-34.2c-1.5-0.4-3.4-0.1-4.7,1
							c-2.1,1.6-51.5,38.9-47.5,67.2c1.7,11.8,12.2,20.2,31.4,24.8c7.2,1.7,14.2,2.7,21.1,3c67,2.9,119.9-56.2,120.4-56.9
							C793.5,668.6,793.8,667.6,793.5,666.7z M655,716.9c-16.3-4-25.3-10.7-26.6-20.2c-3-21.6,32.9-51.7,42.2-59.1l112.1,32.1
							c-12.1,12.2-55.8,52.1-108.6,49.8C667.8,719.4,661.4,718.5,655,716.9z"/>
					</g>
				</g>
			</g>
			
				<ellipse transform="matrix(0.754 -0.6568 0.6568 0.754 -280.7129 608.8365)" class="st0" cx="672.6" cy="679.2" rx="19" ry="9.4"/>
			
				<ellipse transform="matrix(0.6247 -0.7808 0.7808 0.6247 -307.3018 657.8542)" class="st32" cx="530.8" cy="648.6" rx="9.4" ry="19"/>
			
				<ellipse transform="matrix(0.9993 -3.793222e-02 3.793222e-02 0.9993 -25.8989 26.0006)" class="st32" cx="672.3" cy="695.5" rx="19" ry="9.4"/>
		</g>
	</g>
</g>
<g id="Oscar">
</g>
<g id="Rex">
</g>
</svg>
