<?xml version="1.0" encoding="utf-8"?>
<!-- Generator: Adobe Illustrator 24.2.1, SVG Export Plug-In . SVG Version: 6.00 Build 0)  -->
<svg version="1.1" xmlns="http://www.w3.org/2000/svg" xmlns:xlink="http://www.w3.org/1999/xlink" x="0px" y="0px"
	 viewBox="0 0 1336.9 1389.3" style="enable-background:new 0 0 1336.9 1389.3;" xml:space="preserve">
<style type="text/css">
	.st0{fill:#E86121;}
	.st1{fill:#AF4C1B;}
	.st2{fill:#D2581D;}
	.st3{fill:#823B17;}
	.st4{fill:#F26933;}
	.st5{fill:#1B5780;}
	.st6{fill:#B8C1C9;}
	.st7{clip-path:url(#SVGID_1_);fill:#E86121;}
	.st8{clip-path:url(#SVGID_1_);fill:#D2581D;}
	.st9{clip-path:url(#SVGID_2_);fill:#E86121;}
	.st10{clip-path:url(#SVGID_2_);fill:#D2581D;}
	.st11{fill:#144261;}
	.st12{fill:#E6E6E6;}
	.st13{fill:#1A1A1A;}
	.st14{clip-path:url(#SVGID_3_);fill:#1A1A1A;}
</style>
<g id="Sergeant">
</g>
<g id="Elton">
</g>
<g id="Fred">
</g>
<g id="Bubbles">
</g>
<g id="Dolores">
</g>
<g id="Dolly">
</g>
<g id="Cosmo">
</g>
<g id="Belle">
</g>
<g id="Rivet">
</g>
<g id="Spring">
</g>
<g id="Eileen">
</g>
<g id="Levi">
</g>
<g id="Oscar">
	<g>
		<g>
			<path class="st0" d="M696.6,1106.8L696.6,1106.8c-54.3,38.8-124.3,27.2-156.3-26L382.5,818.7c-32-53.2-13.9-127.8,40.5-166.6l0,0
				c54.3-38.8,124.3-27.2,156.3,26L737,940.1C769,993.3,750.9,1067.9,696.6,1106.8z"/>
			<polygon class="st0" points="508.4,630.3 554.1,639.5 647.4,1135.7 603.7,1127 386.6,757.5 			"/>
			<path class="st1" d="M736.5,1114.7L736.5,1114.7c-54.3,38.8-124.3,27.2-156.3-26L422.5,826.6c-32-53.2-13.9-127.8,40.5-166.6l0,0
				c54.3-38.8,124.3-27.2,156.3,26L777,948.1C809,1001.2,790.9,1075.8,736.5,1114.7z"/>
		</g>
		<g>
			
				<ellipse transform="matrix(0.4353 -0.9003 0.9003 0.4353 135.0176 1313.4948)" class="st2" cx="1114.6" cy="549.1" rx="86.5" ry="56.6"/>
			
				<rect x="1068.6" y="452.1" transform="matrix(0.9003 0.4353 -0.4353 0.9003 343.4761 -422.0228)" class="st2" width="48.5" height="173.2"/>
			
				<ellipse transform="matrix(0.4353 -0.9003 0.9003 0.4353 129.3527 1262.7671)" class="st3" cx="1071.3" cy="528.3" rx="86.5" ry="56.6"/>
		</g>
		<g>
			<ellipse class="st2" cx="677.3" cy="1306.6" rx="268.2" ry="54"/>
			<polygon class="st2" points="980.7,1157.2 373.8,1157.2 409.3,1308.4 945.2,1308.4 			"/>
			<ellipse class="st4" cx="677.3" cy="1157.2" rx="303.8" ry="61.2"/>
			<ellipse class="st2" cx="677.3" cy="1157.2" rx="161.9" ry="29"/>
			<polygon class="st2" points="839.8,1157.5 516.1,1157.5 500.2,968.9 855.7,968.9 			"/>
			<path class="st4" d="M855.7,968.9c0,17.6-79.8,32-178.3,32S499,986.5,499,968.9c0-17.6,58.7-64.6,178.3-64.6
				S855.7,951.2,855.7,968.9z"/>
		</g>
		<path class="st0" d="M782.1,342.3c-35.1-19.8-82.5-2.2-105.9,39.2c-9.2,16.4-13.3,34.1-12.7,50.8L467.2,781
			c-16,28.5-5.9,64.6,22.5,80.6l0,0c28.5,16,64.6,5.9,80.6-22.5l196.4-348.8c14.5-8.1,27.6-20.7,36.8-37.2
			C826.8,411.7,817.3,362,782.1,342.3z"/>
		<g>
			<path class="st1" d="M502.3,864.8L502.3,864.8c-28.5-16-38.6-52.1-22.5-80.6l202.6-359.9l103.1,58L582.9,842.3
				C566.8,870.7,530.8,880.8,502.3,864.8z"/>
			
				<ellipse transform="matrix(0.4906 -0.8714 0.8714 0.4906 16.8818 869.8611)" class="st1" cx="752.4" cy="420.5" rx="86.1" ry="73"/>
			
				<ellipse transform="matrix(0.4906 -0.8714 0.8714 0.4906 16.8818 869.8611)" class="st5" cx="752.4" cy="420.5" rx="48.5" ry="41.1"/>
		</g>
		<g>
			<path class="st6" d="M1040.5,588L830.4,486.2l59.2-122L1099.7,466c0,0,4.2,6.2,0.1,14.7c-4.1,8.4-11.9,9.6-11.9,9.6l-185.7-90.1
				l-35.6,73.4l185.7,90.1c0,0,3.7,6.5-0.2,15.2C1048.4,586.9,1040.5,588,1040.5,588z"/>
		</g>
		<g>
			<path class="st0" d="M502.4,866.6L665,909l19.3-62.6l-209.5-63.8c0,0-9.9,12.7-8.9,35.4C466.8,842.4,502.4,866.6,502.4,866.6z"/>
			<polygon class="st0" points="622,827.9 465.9,787.5 645.3,467.1 801.3,507.5 			"/>
		</g>
		<g>
			<g>
				<defs>
					<path id="SVGID_80_" d="M982.8,396c-0.1,0-0.2-0.1-0.3-0.1l0-0.1L731.1,274.2l-75.4,155.9l251.6,121.6l0,0
						c0.1,0,0.2,0.1,0.3,0.1c28.2,13.6,67.9-10.2,88.7-53.2C1017,455.6,1011,409.7,982.8,396z"/>
				</defs>
				<clipPath id="SVGID_1_">
					<use xlink:href="#SVGID_80_"  style="overflow:visible;"/>
				</clipPath>
				<polygon class="st7" points="722.7,245.2 1010.3,392.6 1032,506 935.1,577.1 624.8,432.8 				"/>
				<polygon class="st8" points="667,350.3 1017.5,520.4 979.4,594.6 612.4,431.8 				"/>
			</g>
			
				<ellipse transform="matrix(0.4353 -0.9003 0.9003 0.4353 74.4965 823.4315)" class="st3" cx="693.7" cy="352.3" rx="86.5" ry="56.6"/>
		</g>
		<path class="st0" d="M934,381.1c-35.1-19.8-82.5-2.2-105.9,39.2c-9.2,16.4-13.3,34.1-12.7,50.8L619.1,819.9
			c-16,28.5-5.9,64.6,22.5,80.6l0,0c28.5,16,64.6,5.9,80.6-22.5l196.4-348.8c14.5-8.1,27.6-20.7,36.8-37.2
			C978.7,450.5,969.2,400.9,934,381.1z"/>
		<g>
			<path class="st1" d="M652.6,903.3L652.6,903.3c-28.5-16-38.6-52.1-22.5-80.6l202.6-359.9l103.1,58L733.2,880.8
				C717.1,909.3,681.1,919.4,652.6,903.3z"/>
			
				<ellipse transform="matrix(0.4906 -0.8714 0.8714 0.4906 59.8647 1020.4594)" class="st1" cx="902.7" cy="459" rx="86.1" ry="73"/>
			
				<ellipse transform="matrix(0.4906 -0.8714 0.8714 0.4906 59.8647 1020.4594)" class="st5" cx="902.7" cy="459" rx="48.5" ry="41.1"/>
		</g>
		<g>
			<path class="st0" d="M931.6,1131.5L931.6,1131.5c-54.3,38.8-124.3,27.2-156.3-26L617.6,843.4c-32-53.2-13.9-127.8,40.5-166.6l0,0
				c54.3-38.8,124.3-27.2,156.3,26l157.7,262.1C1004.1,1018.1,985.9,1092.7,931.6,1131.5z"/>
			<polygon class="st0" points="743.4,655.1 789.2,664.2 882.5,1160.4 838.8,1151.7 621.7,782.3 			"/>
			<path class="st1" d="M971.6,1139.4L971.6,1139.4c-54.3,38.8-124.3,27.2-156.3-26L657.5,851.3c-32-53.2-13.9-127.8,40.5-166.6l0,0
				c54.3-38.8,124.3-27.2,156.3,26L1012,972.8C1044,1026,1025.9,1100.6,971.6,1139.4z"/>
			
				<ellipse transform="matrix(0.4906 -0.8714 0.8714 0.4906 -295.4398 1057.6021)" class="st5" cx="756.8" cy="781.5" rx="55.7" ry="47.3"/>
		</g>
		<path class="st6" d="M685.9,377.8l-184.2-86.5l23.2-49.5l184.2,86.5c0,0,11.6,9.1,1.5,30.5C700.4,380.8,685.9,377.8,685.9,377.8z"
			/>
		<g>
			<defs>
				<path id="SVGID_79_" d="M565.2,402.8c-0.5,0.9-57.4-30.5-105.8-60.9C409.9,310.7,329,249.7,329,249.7l52.8-112.4
					c0,0,98.7,22.8,154.2,41.5c53,17.8,114.2,43,114.2,43s36.2,29.8,8.2,100.4C629.2,396,565.2,402.8,565.2,402.8z"/>
			</defs>
			<clipPath id="SVGID_2_">
				<use xlink:href="#SVGID_79_"  style="overflow:visible;"/>
			</clipPath>
			<polygon class="st9" points="377.3,101.1 305,261.5 594.2,444.4 678.2,336.6 694.5,198.4 			"/>
			<path class="st10" d="M333.4,206.7c0,0,91.4,57.1,166.3,94.8c76.3,38.5,158.4,68.1,158.4,68.1l-70.3,65.7L305,261.5L333.4,206.7z
				"/>
		</g>
		<g>
			<polygon class="st0" points="362.5,142.7 323.2,222.1 268.4,179.2 302.8,121.7 			"/>
			<polygon class="st2" points="302.8,121.7 268.4,179.2 210,148.9 246.4,86 			"/>
		</g>
		
			<ellipse transform="matrix(0.4251 -0.9051 0.9051 0.4251 29.5283 436.1709)" class="st3" cx="358.1" cy="194.8" rx="62.1" ry="34.8"/>
		<g>
			<g>
				<path class="st5" d="M381.2,145.4c-0.8-0.4-1.5-0.9-2.3-1.2c-1.6-0.8-3.3-1.4-5-2c-26.4-9.4-56.1,2.6-68.3,28.5
					c-12.2,26-2.3,56.7,22,70.9c1.4,0.8,2.9,1.7,4.5,2.4c0.7,0.3,1.4,0.6,2.1,0.9c11.6,1.2,35.8-11.1,47.9-40
					C393.8,176.7,387.6,154.3,381.2,145.4z"/>
			</g>
		</g>
		<path class="st11" d="M561.6,1114.5l38.6,4.4c0,0-5.1,18.2-19,16.8C567.4,1134.2,560.8,1120.3,561.6,1114.5z"/>
		<g>
			<polygon class="st2" points="312.6,225.5 363.4,215.8 324.7,246.5 262.9,254.5 			"/>
			<polygon class="st0" points="363.4,215.8 368.2,223.4 325.7,258.5 264,235.1 270.2,224.5 324.7,246.5 			"/>
			<polygon class="st2" points="264,235.1 191.3,243.7 199.1,233.8 270.2,224.5 			"/>
			<polygon class="st1" points="191.3,243.7 264,235.1 325.7,258.5 252.6,264.1 			"/>
		</g>
		<g>
			<polygon class="st2" points="364.5,140.7 376.3,181.5 405.5,136.5 390.9,88.8 			"/>
			<polygon class="st3" points="390.9,88.8 405.5,136.5 396,91.9 375.3,36.6 			"/>
			<polygon class="st0" points="375.3,36.6 396,91.9 407.5,88.3 384.4,32.3 			"/>
			<polygon class="st1" points="407.5,88.3 396,91.9 405.5,136.5 376.3,181.5 386.1,184.8 416.8,139.5 			"/>
		</g>
		<path class="st11" d="M627.8,1013.5c4.6-7.3,11.1-12.3,18.1-15.4c7-3.1,14.7-4.3,22.2-3.3c1.9,0.1,3.7,0.7,5.6,1.1
			c1.8,0.5,3.7,0.9,5.5,1.8c1.8,0.8,3.5,1.6,5.3,2.5c1.7,1,3.3,2.2,4.9,3.4c3.3,2.1,6,5.4,8.8,8.3c2.6,3.2,4.9,6.8,6.9,10.6
			c-3.7-1.1-6.8-2.8-10.1-4.1c-3.3-1.1-6.3-2.8-9.6-3.6c-1.6-0.5-3.1-1.1-4.6-1.6c-1.6-0.3-3.1-0.8-4.7-1.2c-1.5-0.5-3.1-0.7-4.6-1
			c-1.5-0.3-3.1-0.8-4.6-0.8c-6.2-0.9-12.4-0.9-18.9-0.3C641.5,1010.6,635,1011.8,627.8,1013.5z"/>
		<path class="st11" d="M502,1001.9c0.2-3.6,1.7-6.7,4.1-9.3c2.9-3.1,7-5.3,11.9-5.6c1.3-0.2,2.7,0,4,0.1c1.4,0.2,2.8,0.3,4.2,0.8
			c1.4,0.5,2.8,1,4.1,1.6c1.3,0.7,2.5,1.6,3.7,2.5c2.5,1.6,4.2,4.1,6,6.3c1.4,2.4,2.4,4.8,3,7.3c-2.8-0.7-4.9-1.7-7.3-2.5
			c-2.3-0.6-4.3-1.6-6.5-2c-1-0.3-2-0.6-3-0.9c-1-0.1-2-0.4-2.9-0.6c-0.9-0.3-1.9-0.3-2.8-0.4c-0.9-0.1-1.8-0.3-2.6-0.3
			c-3.3-0.3-6.3,0.1-9.1,0.7C506.3,1000.1,504.1,1000.9,502,1001.9z"/>
		<g>
			<ellipse class="st11" cx="660.8" cy="1067.6" rx="41.9" ry="38.8"/>
			<ellipse class="st5" cx="654.6" cy="1067.6" rx="35.7" ry="38.8"/>
			<ellipse class="st12" cx="654.6" cy="1067.6" rx="28.8" ry="31.3"/>
			<ellipse class="st13" cx="667.5" cy="1053.7" rx="11.4" ry="12.4"/>
		</g>
		<g>
			<path class="st11" d="M510.1,1019.5l24.9,8.6c0,0,24.9,22.9,0,62.9h-24.9V1019.5z"/>
			<ellipse class="st5" cx="511.7" cy="1055.2" rx="13.9" ry="35.7"/>
			<ellipse class="st12" cx="509.7" cy="1055.2" rx="8.9" ry="28.1"/>
			<g>
				<defs>
					<ellipse id="SVGID_78_" cx="509.7" cy="1055.2" rx="8.9" ry="28.1"/>
				</defs>
				<clipPath id="SVGID_3_">
					<use xlink:href="#SVGID_78_"  style="overflow:visible;"/>
				</clipPath>
				<ellipse class="st14" cx="514" cy="1044.8" rx="4.7" ry="11.9"/>
			</g>
		</g>
	</g>
</g>
<g id="Rex">
</g>
</svg>
