<?xml version="1.0" encoding="utf-8"?>
<!-- Generator: Adobe Illustrator 24.2.1, SVG Export Plug-In . SVG Version: 6.00 Build 0)  -->
<svg version="1.1" xmlns="http://www.w3.org/2000/svg" xmlns:xlink="http://www.w3.org/1999/xlink" x="0px" y="0px"
	 viewBox="0 0 1336.9 1389.3" style="enable-background:new 0 0 1336.9 1389.3;" xml:space="preserve">
<style type="text/css">
	.st0{fill:#0E3B72;}
	.st1{fill:#8A96AB;}
	.st2{clip-path:url(#SVGID_1_);fill:#B98C02;}
	.st3{clip-path:url(#SVGID_1_);fill:#D8B405;}
	.st4{clip-path:url(#SVGID_1_);fill:#09518C;}
	.st5{fill:#D8B405;}
	.st6{fill:#B98C02;}
	.st7{fill:#09518C;}
	.st8{fill:#89680C;}
	.st9{clip-path:url(#SVGID_2_);fill:#0063A3;}
	.st10{fill:#B8C1CA;}
	.st11{clip-path:url(#SVGID_3_);fill:#0063A3;}
	.st12{clip-path:url(#SVGID_3_);fill:#09518C;}
	.st13{fill:#E2BE27;}
	.st14{clip-path:url(#SVGID_4_);fill:#0E3B72;}
	.st15{clip-path:url(#SVGID_4_);}
	.st16{fill:none;stroke:#B8C1CA;stroke-width:3.0212;stroke-miterlimit:10;}
	.st17{clip-path:url(#SVGID_5_);fill:#0063A3;}
	.st18{clip-path:url(#SVGID_5_);fill:#D8B405;}
	.st19{clip-path:url(#SVGID_5_);fill:#09518C;}
	.st20{clip-path:url(#SVGID_5_);fill:#B98C02;}
	.st21{clip-path:url(#SVGID_6_);fill:#0063A3;}
	.st22{clip-path:url(#SVGID_7_);fill:#D8B405;}
	.st23{clip-path:url(#SVGID_7_);fill:#B98C02;}
	.st24{clip-path:url(#SVGID_7_);fill:#8A96AB;}
	.st25{fill:#D43D40;}
	.st26{fill:#B52D35;}
	.st27{clip-path:url(#SVGID_8_);fill:#0063A3;}
	.st28{clip-path:url(#SVGID_8_);fill:#0973AD;}
	.st29{fill:#0063A3;}
	.st30{fill:none;stroke:#D8B405;stroke-width:2.8574;stroke-miterlimit:10;}
	.st31{clip-path:url(#SVGID_9_);fill:#F4F4F4;}
	.st32{clip-path:url(#SVGID_9_);fill:#0E3B72;}
	.st33{clip-path:url(#SVGID_9_);fill:#0973AD;}
	.st34{clip-path:url(#SVGID_10_);fill:#F4F4F4;}
	.st35{clip-path:url(#SVGID_10_);fill:#0E3B72;}
	.st36{clip-path:url(#SVGID_10_);fill:#0973AD;}
</style>
<g id="Sergeant">
</g>
<g id="Elton">
</g>
<g id="Fred">
</g>
<g id="Bubbles">
</g>
<g id="Dolores">
</g>
<g id="Dolly">
</g>
<g id="Cosmo">
</g>
<g id="Belle">
</g>
<g id="Rivet">
</g>
<g id="Spring">
</g>
<g id="Eileen">
</g>
<g id="Levi">
</g>
<g id="Oscar">
</g>
<g id="Rex">
	<g>
		<g>
			<g>
				<g>
					<g>
						<path class="st0" d="M490.2,428.8c3.2-1.5,7.4,0,11.2,3.6c3.8,3.6,7.3,9.3,9.4,16.2c2.1,6.9,3.4,13.3,3.6,18.3
							c0.2,5-0.5,8.4-2.6,9.4L490.2,428.8z"/>
					</g>
					<g>
						<g>
							<path class="st0" d="M447.3,457.7c6.4-6.2,13.3-11.6,20.4-16.4c7.2-4.8,14.6-8.9,22.5-12.5l21.6,47.5
								c-5.2,2.4-10.4,5.3-15.2,8.5c-4.8,3.2-9.3,6.7-13.2,10.6L447.3,457.7z"/>
						</g>
						<g>
							<path class="st1" d="M508.1,478c-1,0.7-2.1,1.3-3.3,1.7c-1.2,0.4-2.5,0.6-3.8,0.7c-2.7,0.1-5.6-0.4-8.6-1.6
								c-5.8-2.2-11.7-6.5-15.8-11.9c-4.1-5.5-6.4-12.4-5.2-19.5c0.6-3.4,2.1-6.9,4.4-9.7c1.2-1.4,2.5-2.7,4-3.7
								c1.5-1.1,3.1-1.9,4.8-2.5c-6.1,4-9.6,10.1-10.1,16.2c-0.5,6.1,1.6,12.2,5,17c3.4,4.9,8.3,8.8,13.3,11.4
								C498.1,478.7,503.4,479.5,508.1,478z"/>
						</g>
					</g>
					<g>
						<g>
							<path class="st0" d="M417.1,502.8l1.2-3.2c0.4-1.1,0.9-2.1,1.4-3.2c1-2.1,1.9-4.2,3-6.3l3.4-6c1.2-2,2.5-3.9,3.7-5.8
								c5.1-7.6,11-14.5,17.4-20.6l36.1,37.6c-4,3.8-7.5,8-10.4,12.3c-0.7,1.1-1.5,2.2-2.1,3.3c-0.6,1.1-1.3,2.3-1.9,3.4
								c-0.6,1.1-1.1,2.3-1.7,3.5c-0.3,0.6-0.6,1.1-0.8,1.8l-0.7,1.8L417.1,502.8z"/>
						</g>
						<g>
							<path class="st1" d="M480.7,498.1c-0.3,0.5-0.7,0.9-1.1,1.3c-0.4,0.4-0.8,0.8-1.2,1.2c-0.9,0.7-2,1.3-3.1,1.8
								c-2.3,1-5.3,1.3-8.3,1.3c-3.1,0-6.4-0.5-9.6-1.3c-3.2-0.8-6.5-2.1-9.5-3.8c-3-1.7-5.7-4-7.8-6.7c-2.2-2.7-3.7-5.8-4.4-9.4
								c-0.8-3.6-0.4-7.4,0.8-11.1c0.6-1.8,1.6-3.5,2.7-5.1c0.5-0.8,1.1-1.6,1.8-2.3c0.6-0.7,1.3-1.3,2.1-1.9
								c-0.6,0.7-1.1,1.5-1.6,2.3c-0.5,0.8-0.9,1.6-1.2,2.4c-0.7,1.6-1.3,3.3-1.7,4.9c-0.6,3.4-0.5,6.7,0.4,9.6
								c1.8,6.1,6,10.8,11.1,14c5.1,3.2,11.1,5,16.6,5.6c2.8,0.3,5.5,0.2,7.9-0.3c1.2-0.2,2.4-0.6,3.5-1c0.5-0.2,1-0.5,1.5-0.8
								C479.7,498.7,480.2,498.4,480.7,498.1z"/>
						</g>
					</g>
					<g>
						<g>
							<path class="st0" d="M409.6,556.3l-0.3-6.6l-0.1-3.3l0.1-3.4l0.3-6.7c0.2-2.3,0.5-4.5,0.8-6.8l0.4-3.4
								c0.2-1.1,0.4-2.3,0.7-3.4c0.5-2.2,0.9-4.5,1.4-6.7c1.3-4.4,2.4-8.9,4.2-13.2l48.7,18.5c-1,2.4-1.6,4.9-2.4,7.4
								c-0.3,1.3-0.5,2.6-0.8,3.8l-0.4,1.9l-0.2,2c-0.1,1.3-0.3,2.6-0.5,4l-0.1,4.1l-0.1,2l0.1,2.1l0.1,4.2L409.6,556.3z"/>
						</g>
						<g>
							<path class="st1" d="M464.6,524.8c-0.1,2.2-1.3,4.2-2.8,6.1c-0.8,0.9-1.9,1.8-3,2.6c-1.2,0.8-2.4,1.6-3.7,2.3
								c-2.8,1.4-5.9,2.5-9.3,3.2c-3.2,0.7-6.7,1-10.1,0.8c-3.4-0.2-6.8-1-10-2.5c-3.1-1.4-5.9-3.6-8.1-6.4c-1.1-1.4-2.1-3-2.8-4.7
								c-0.7-1.7-1.1-3.6-1.4-5.5c-0.6-3.9,0.2-7.9,1.7-11.5c-1.6,7.7,0.6,14.9,4.8,19.4c4.3,4.6,10.2,7,16.1,7.5
								c5.9,0.6,12.2-0.4,17.3-2.4C458.6,531.6,462.6,528.6,464.6,524.8z"/>
						</g>
					</g>
					<g>
						<g>
							<path class="st0" d="M420.8,605.5c-0.8-1.9-1.4-3.9-2-5.8l-1.9-5.9c-0.7-1.9-1.2-4-1.7-6l-1.6-6.1c-0.6-2-0.9-4.1-1.3-6.2
								l-1.2-6.3c-0.4-2.1-0.5-4.3-0.8-6.4c-0.2-2.2-0.5-4.3-0.7-6.5l52-3.6c0.8,11.2,3.7,23,8,34.7L420.8,605.5z"/>
						</g>
						<g>
							<path class="st1" d="M462,556.7c0.3,1.2,0.5,2.4,0.4,3.6c0,1.2-0.2,2.5-0.6,3.8c-0.8,2.6-2.5,5.2-4.5,7.6
								c-4.1,4.8-10.2,8.7-16.8,10.6c-6.6,1.8-13.8,1.5-20-1.9c-3.2-1.6-5.6-4.3-7.6-7.4c-0.9-1.6-1.7-3.3-2.2-5.1
								c-0.4-1.8-0.6-3.7-0.6-5.5c0.4,1.8,1,3.5,1.7,5.1c0.7,1.6,1.7,3,2.7,4.2c2.1,2.5,4.6,4.5,7.3,5.8c5.6,2.5,12,2.7,17.8,1.2
								c5.8-1.5,11.2-4.6,15.3-8.5c2.1-2,3.8-4.1,5-6.4c0.6-1.1,1-2.3,1.3-3.5C461.7,559.1,462,558,462,556.7z"/>
						</g>
					</g>
					<g>
						<path class="st0" d="M420.8,605.5c1.2,3.1,5,4.8,10.1,4.9c5.1,0.1,11.6-1.3,18.2-4.2c6.6-2.9,12.2-6.5,15.9-9.9
							c3.7-3.4,5.6-6.6,4.7-9L420.8,605.5z"/>
					</g>
				</g>
			</g>
		</g>
		<g>
			<g>
				<defs>
					<path id="SVGID_90_" d="M467,712.3c0,0,16.5,17.6,42.5,6.5c18.7-8,20.6-31.6,20.6-31.6l-13.4-82.1c0,0-15.2-50-82.8-48.8
						c-33.7,0.6-44.5,31.7-44.5,39.4c0,4.3-2.6,16.7,20.6,48.6C438.8,683.8,467,712.3,467,712.3z"/>
				</defs>
				<clipPath id="SVGID_1_">
					<use xlink:href="#SVGID_90_"  style="overflow:visible;"/>
				</clipPath>
				<polygon class="st2" points="362.3,558 390.9,652.9 487.3,792.2 570.3,764 544.2,594.4 428.3,519.1 				"/>
				<path class="st3" d="M519.1,564.6c21.1,21.2,40.1,207.5,40.1,207.5l-38.6-27.5c0,0-59.4-26.8-105.1-148.8
					c-16.4-43.8-4.5-55.5-4.5-55.5S498,543.4,519.1,564.6z"/>
				
					<ellipse transform="matrix(0.9017 -0.4324 0.4324 0.9017 -253.3817 283.4687)" class="st2" cx="496.6" cy="698.9" rx="30.6" ry="27.3"/>
				
					<ellipse transform="matrix(0.9304 -0.3664 0.3664 0.9304 -221.5499 230.5847)" class="st4" cx="496.6" cy="698.9" rx="23.5" ry="20.9"/>
			</g>
			<g>
				<g>
					<polygon class="st5" points="515.9,694.6 484.1,707.7 496,731.8 525.7,716.7 					"/>
					<polygon class="st6" points="525.7,716.7 496,731.8 505.5,755.4 538.6,739.3 					"/>
				</g>
				<g>
					<g>
						<path class="st7" d="M515.9,689.7c0.1,0.3,0.3,0.6,0.4,0.9c0.3,0.7,0.5,1.3,0.7,2c2.9,10.5-2.5,21.7-12.9,25.7
							c-10.4,4-22-0.6-26.9-10.4c-0.3-0.6-0.6-1.2-0.8-1.8c-0.1-0.3-0.2-0.6-0.3-0.8c-0.2-4.5,5.3-13.6,16.8-17.5
							C504.1,684,512.6,687,515.9,689.7z"/>
					</g>
				</g>
				<g>
					<polygon class="st6" points="482.5,711.7 487.6,692.3 474.7,706.5 469.9,730.2 					"/>
					<polygon class="st5" points="487.6,692.3 484.8,690.3 470.1,705.8 477.5,730.3 481.7,728.2 474.7,706.5 					"/>
					<polygon class="st6" points="477.5,730.3 472.2,758.2 476.2,755.5 481.7,728.2 					"/>
					<polygon class="st8" points="472.2,758.2 477.5,730.3 470.1,705.8 465.9,734 					"/>
				</g>
				<g>
					<polygon class="st8" points="547.4,724.5 543.4,725.4 532.4,704.8 514.3,694.2 515,690.2 535.5,701.9 					"/>
					<polygon class="st8" points="534.3,718.5 530.3,719.4 519.3,698.8 501.3,688.3 501.9,684.2 522.5,695.9 					"/>
					<polygon class="st5" points="534.3,718.5 547.4,724.5 535.5,701.9 522.5,695.9 					"/>
					<polygon class="st6" points="501.9,684.2 515,690.2 535.5,701.9 522.5,695.9 					"/>
					<polygon class="st6" points="547.4,724.5 543.4,725.4 530.3,719.4 534.3,718.5 					"/>
				</g>
			</g>
		</g>
		<g>
			<circle class="st7" cx="543.6" cy="1210" r="29.4"/>
			<g>
				<g>
					<defs>
						<path id="SVGID_89_" d="M571.2,791c0.2-1.5,0.4-2.9,0.5-4.4l23.8-23.5l-37.5-7.1l0,0c-5.3-1.3-11.8,0.3-18.8,5.2
							c-18.1,12.6-32.7,42.4-32.7,66.5l5.8,197.1c-1.6,5.1,40.3,14.7,40.3,14.7L571.2,791z"/>
					</defs>
					<use xlink:href="#SVGID_89_"  style="overflow:visible;fill:#DDDDDD;"/>
					<clipPath id="SVGID_2_">
						<use xlink:href="#SVGID_89_"  style="overflow:visible;"/>
					</clipPath>
					<path class="st9" d="M554.1,741.6L508,778.2c0,0-19,65.7-18.3,67.6c0.6,1.9,3.2,288.2,3.2,288.2l70.8,17.7l29.1-345.1
						l15.8-44.9L554.1,741.6z"/>
				</g>
				<g>
					
						<ellipse transform="matrix(0.4052 -0.9142 0.9142 0.4052 -399.0012 1010.8824)" class="st7" cx="577.4" cy="812.1" rx="52.5" ry="27.1"/>
					<polygon class="st7" points="575.8,1032.3 547.8,1039 544.7,835 600,796.3 					"/>
					
						<ellipse transform="matrix(0.4052 -0.9142 0.9142 0.4052 -613.8306 1128.8066)" class="st10" cx="560.6" cy="1036.1" rx="27.9" ry="14.4"/>
				</g>
			</g>
			<g>
				<path class="st5" d="M512.7,1201.1l-38.4-205.7c0,0-4.7-33.7,20.9-32.7c25.6,0.9,106.7,43.1,104.8,108.6
					c-1.9,65.4-26.5,153.1-26.5,153.1s-25.3-16.3-41.4-21S512.7,1201.1,512.7,1201.1z"/>
				<path class="st6" d="M599.9,1071.2c1-33.1-19.3-60.3-42.9-79.1c2,5.8,0.4,42.7,0.7,50.2c0.9,19.4-4.8,128.9-11.4,166.8
					c13.5,6.5,27,15.2,27,15.2S598,1136.6,599.9,1071.2z"/>
			</g>
			<g>
				<path class="st5" d="M513.2,1213.6c0,0-32.6,37.9-46.1,50.9c-9.3,8.9-46.9,22-50.7,31.7c-1.8,4.5,20.4,20.2,66.9,18.8
					c65.7-2.1,52.5-21.4,84.1-25.5c34-4.3,14.6-61.7,14.6-61.7s-1.3-7.2-4.8-10.9c-2.1-2.3-5-3.3-8.8-0.9c0,0-4.7,8.8-28.5,6.6
					C516.1,1220.4,513.2,1213.6,513.2,1213.6z"/>
				<path class="st6" d="M556.3,1235.2c-3.8,7.1-7.1,37.4-17.1,48.4c-8.2,9-39.3,34.1-87.2,21.3c-14.6-3.9-28.4-10.4-27-16.7
					c-4.4,2.8-7.6,5.5-8.6,8c-1.8,4.5,20.4,20.2,66.9,18.8c65.7-2.1,52.5-21.4,84.1-25.5c34-4.3,14.6-61.7,14.6-61.7
					s-1.3-7.2-4.8-10.9C570.4,1225.6,560.1,1228.1,556.3,1235.2z"/>
			</g>
		</g>
		<g>
			<g>
				<defs>
					<path id="SVGID_88_" d="M503.9,761.7c0,0,35.1,74.6,65.9,85.3c30.8,10.7,95,22.2,95,22.2s24.3-4.7,33.9-17.9
						c13-17.7,24.5-42,41.2-89.9C647.4,773.6,503.9,761.7,503.9,761.7z"/>
				</defs>
				<clipPath id="SVGID_3_">
					<use xlink:href="#SVGID_88_"  style="overflow:visible;"/>
				</clipPath>
				<path class="st11" d="M489.1,746.8c2.8,0.5,263,8,263,8l-45.3,125.9l-150.8-19.3L489.1,746.8z"/>
				<path class="st12" d="M686.2,871.3c-2.4,0-26.9,2.4-34.9-12.3s-8-76.4-8-76.4L746,756.3l-38.7,114.5L686.2,871.3z"/>
			</g>
			<path class="st5" d="M502.6,718.6V757c0,20.3,53.3,36.8,119.1,36.8c65.8,0,119.1-16.5,119.1-36.8v-38.4H502.6z"/>
			<path class="st6" d="M644.2,793.2c55-3.2,96.7-18.2,96.7-36.2v-38.4h-96.7V793.2z"/>
			<ellipse class="st13" cx="621.7" cy="718.6" rx="119.1" ry="36.8"/>
		</g>
		<path class="st0" d="M577.2,385.1c0,0,58.1,1.9,137.2,25.3l-64.5,41.7l-79,9.5l-24.7-29.1l1.3-29.1L577.2,385.1z"/>
		<g>
			<g>
				<g>
					<g>
						<path class="st0" d="M578.2,328.6c-1-7.5,13.2-15.6,31.8-18.1c18.6-2.4,34.4,1.7,35.4,9.2L578.2,328.6z"/>
					</g>
					<g>
						<g>
							
								<rect x="581.6" y="323.9" transform="matrix(0.9914 -0.1307 0.1307 0.9914 -40.739 83.4614)" class="st0" width="67.8" height="56.4"/>
						</g>
						<g>
							<path class="st1" d="M646.3,326.4c1.1,3.8,1,8-0.1,12c-1.1,4-3.3,7.8-6.3,10.9c-5.9,6.4-14.4,10.4-23.3,11.6
								c-8.9,1.1-18.1-0.5-25.5-5.2c-3.7-2.3-6.8-5.4-8.9-8.9c-2.1-3.6-3.2-7.6-3.2-11.5c2.1,7.7,7.3,13.8,14.2,17.2
								c6.9,3.4,15,4.7,22.7,3.6c7.7-1,15.2-4.3,21-9.4C642.8,341.6,646.3,334.3,646.3,326.4z"/>
						</g>
					</g>
					<g>
						<g>
							
								<rect x="589" y="379.8" transform="matrix(0.9914 -0.1307 0.1307 0.9914 -47.9806 84.903)" class="st0" width="67.8" height="56.4"/>
						</g>
						<g>
							<path class="st1" d="M653.6,382.3c1.1,3.8,1,8-0.1,12c-1.1,4-3.3,7.8-6.3,10.9c-5.9,6.4-14.4,10.4-23.3,11.6
								c-8.9,1.1-18.1-0.5-25.5-5.2c-3.7-2.3-6.8-5.4-8.9-8.9c-2.1-3.6-3.2-7.6-3.2-11.5c2.1,7.7,7.3,13.8,14.2,17.2
								c6.9,3.4,15,4.7,22.7,3.6c7.7-1,15.2-4.3,21-9.4C650.1,397.5,653.6,390.2,653.6,382.3z"/>
						</g>
					</g>
					<g>
						<path class="st0" d="M593,440.4c1,7.5,16.8,11.6,35.4,9.2c18.6-2.4,32.8-10.5,31.8-18.1L593,440.4z"/>
					</g>
				</g>
			</g>
		</g>
		<g>
			<defs>
				<path id="SVGID_87_" d="M705.7,721.3c0,0-7,17.8-85.6,17.7c-76.9,0-83.6-17.7-83.6-17.7V594.4h169.2V721.3z"/>
			</defs>
			<clipPath id="SVGID_4_">
				<use xlink:href="#SVGID_87_"  style="overflow:visible;"/>
			</clipPath>
			<rect x="528.6" y="591.2" class="st14" width="183.7" height="155.8"/>
			<g class="st15">
				<path class="st16" d="M707.3,700.4c0,0-7.1,18.1-87.2,18.1c-78.3,0-85.2-18.1-85.2-18.1"/>
				<path class="st16" d="M707.3,671.9c0,0-7.1,18.1-87.2,18.1c-78.3,0-85.2-18.1-85.2-18.1"/>
				<path class="st16" d="M707.3,643.4c0,0-7.1,18.1-87.2,18.1c-78.3,0-85.2-18.1-85.2-18.1"/>
				<path class="st16" d="M707.3,614.9c0,0-7.1,18.1-87.2,18.1c-78.3,0-85.2-18.1-85.2-18.1"/>
				<path class="st16" d="M707.3,586.3c0,0-7.1,18.1-87.2,18.1c-78.3,0-85.2-18.1-85.2-18.1"/>
			</g>
		</g>
		<g>
			<defs>
				<path id="SVGID_86_" d="M474.8,407.9c0,0,52-22,95-28.4l7.4,5.6c0,0-27.5,11.1-22.1,37.3c3.5,17,20.9,27.8,20.9,27.8
					s39.4,5.8,86-27.2c41.1-29.1,63.2-16.4,63.2-16.4l67,32.2c0,0,5.1,7.6,3.8,24.6c-1.5,20.5-18.3,41.7-18.3,41.7
					s-34.8,135.9-61.3,151.1c-26.5,15.2-74.6,29.7-102.4-6.3c-27.8-36-80.9-43-85.3-29.1c-2.6,8.1-7,28.4-15.2,22.1
					c-8.2-6.3-32.2-74.6-36.7-91c-4.4-16.4,7-69.5,7-72.7C483.6,476.1,462.8,440.7,474.8,407.9z"/>
			</defs>
			<clipPath id="SVGID_5_">
				<use xlink:href="#SVGID_86_"  style="overflow:visible;"/>
			</clipPath>
			<polygon class="st17" points="557.6,374.4 457.1,392.7 458.3,550.1 506.4,663.2 656.2,678.4 732.7,666.4 818,435.1 681.5,387 			
				"/>
			<polygon class="st18" points="476,481.8 591.7,435.7 690.9,526.1 823,467.3 808.5,431.3 630.3,366.2 453.9,390.8 			"/>
			<path class="st19" d="M806,474.2c0,0-0.7-37.1-21.8-34.4c-34.8,4.4-82.5,38.9-92,55.3c-9.5,16.4-34.8,59.4-38.6,77.1
				c-3.6,16.7-23.4,99.9,25.3,98.6s61.3-31,61.3-31L806,474.2z"/>
			<path class="st20" d="M569.7,379.5c0,0-19.9,10.7-22.3,23.9c-2.4,13.3-2.8,37.1,28.4,46.8c31.3,9.6,18.5-64.3,18.5-64.3
				L569.7,379.5z"/>
		</g>
		<path class="st0" d="M717,524.8c-10.4,24.8-6.7,50,8.2,56.3c15,6.3,43.1-5.8,53.5-30.6c10.4-24.8-0.8-52.8-15.8-59.1
			C748,485,727.5,500,717,524.8z"/>
		<path class="st0" d="M704.4,515.3c0,0,41.7-37.9,64.9-37c23.2,0.9,13.7,18,13.7,18l-5.5,8.8c0,0-5.4-11.1-19.6-11.1
			C743.7,494.2,704.4,515.3,704.4,515.3z"/>
		<g>
			<g>
				<g>
					<g>
						<path class="st0" d="M744.7,535.2c-2.9-1.1-4.5-4.7-5-9.8c-0.5-5.1,0.2-11.7,2.1-18.6c1.9-6.9,5.3-12.8,9.2-16.5
							c3.9-3.7,8.3-5.3,12-3.9L744.7,535.2z"/>
					</g>
					<g>
						<g>
							<path class="st0" d="M784.3,556c-11.5-8.4-25.3-15.4-39.6-20.7l18.2-48.9c9.1,3.4,17.9,7.3,26.6,11.8
								c8.7,4.5,17.2,9.6,25.5,15.6L784.3,556z"/>
						</g>
						<g>
							<path class="st1" d="M769.4,488.9c3.9,1.1,7.6,3.2,10.7,6c3,2.8,5.3,6.2,6.5,9.8c2.6,7.2,1.5,14.5-1.9,20.5
								c-3.5,5.9-9.1,10.6-15.6,13c-3.2,1.2-6.7,1.8-10,1.6c-3.3-0.2-6.6-1.1-9.3-2.7c6.2,1.7,12.6,0.9,18.1-1.8
								c5.4-2.7,10.1-7,13-12.3c2.9-5.2,3.9-11.6,2.3-17.9C781.5,498.8,776.6,492.7,769.4,488.9z"/>
						</g>
					</g>
					<g>
						<g>
							<path class="st0" d="M808.9,584.2c-2.1-5-5.3-9.9-9.5-14.7c-4.2-4.8-9.3-9.3-15.1-13.5l30.7-42.1c8.2,6,16.2,12.9,23.5,21.2
								c7.2,8.2,13.8,17.8,18.4,28.8L808.9,584.2z"/>
						</g>
						<g>
							<path class="st1" d="M820.9,518.3c3.6,2.3,6.9,5.8,9.1,9.6c1.1,1.9,2,4,2.5,6c0.6,2.1,0.9,4.1,0.9,6.1
								c0.2,8-3.8,14.5-9.4,18.5c-2.8,2-6,3.5-9.2,4.5c-3.3,1.1-6.6,1.7-9.9,1.8c-3.3,0.2-6.4-0.2-9.3-1.2c-2.8-1-5.3-2.6-7.3-4.8
								c5,3,10.8,3.9,16.6,3c5.8-0.9,11.8-3.2,16.4-6.9c4.7-3.7,8-9.3,8.5-16c0.3-3.4-0.4-7-1.9-10.6
								C826.4,524.8,824,521.3,820.9,518.3z"/>
						</g>
					</g>
					<g>
						<g>
							<path class="st0" d="M809.4,616.8c0.9-3,1.7-6,2.2-8.8c0.5-2.9,0.7-5.7,0.6-8.3c-0.1-5.4-1.1-10.4-3.3-15.5l48-20.4
								c2.3,5.5,4.2,11.2,5.4,17.2c1.2,5.9,1.9,11.9,2,17.9c0.1,6-0.4,11.8-1.3,17.5c-0.9,5.7-2.3,11.1-4,16.4L809.4,616.8z"/>
						</g>
						<g>
							<path class="st1" d="M859.9,571.8c1.9,4.6,2.7,10,2.2,15c-0.2,1.2-0.4,2.4-0.6,3.6c-0.3,1.2-0.7,2.3-1.1,3.4
								c-0.8,2.1-2,4-3.2,5.7c-2.6,3.3-5.7,5.5-9,6.7c-3.3,1.2-6.8,1.6-10.2,1.3c-6.9-0.8-13.4-4-18.5-7.6c-1.3-0.9-2.4-1.9-3.6-2.8
								c-0.5-0.5-1-1-1.5-1.5c-0.5-0.5-0.9-1-1.3-1.5c-1.6-2-2.5-4-2.7-6.3c1,2,2.5,3.7,4.4,5.4c0.9,0.8,1.9,1.6,3,2.4
								c1.1,0.8,2.3,1.5,3.6,2.2c5,2.7,10.9,5,16.9,5.2c5.9,0.3,12.2-1.6,16.9-6.8c1.2-1.3,2.2-2.8,3.1-4.5c0.8-1.7,1.5-3.7,2-5.8
								C861,581.6,861,576.7,859.9,571.8z"/>
						</g>
					</g>
					<g>
						<path class="st0" d="M809.4,616.8c-0.8,2.4,1.1,5.6,4.7,9.2c3.6,3.6,9,7.5,15.5,10.5c6.5,3,13.1,4.4,18.5,3.7
							c5.4-0.6,9.6-3.3,10.9-7.5L809.4,616.8z"/>
					</g>
				</g>
			</g>
		</g>
		<g>
			<circle class="st7" cx="705.4" cy="1248.5" r="29.4"/>
			<g>
				<g>
					<defs>
						<path id="SVGID_85_" d="M733,829.6c0.2-1.5,0.4-2.9,0.5-4.4l23.8-23.5l-37.5-7.1l0,0c-5.3-1.3-11.8,0.3-18.8,5.2
							c-18.1,12.6-32.7,42.4-32.7,66.5l5.8,197.1c-1.6,5.1,40.3,14.7,40.3,14.7L733,829.6z"/>
					</defs>
					<clipPath id="SVGID_6_">
						<use xlink:href="#SVGID_85_"  style="overflow:visible;"/>
					</clipPath>
					<path class="st21" d="M715.9,780.1l-46.1,36.7c0,0-19,65.7-18.3,67.6c0.6,1.9,3.2,288.2,3.2,288.2l70.8,17.7l29.1-345.1
						l15.8-44.9L715.9,780.1z"/>
				</g>
				<g>
					
						<ellipse transform="matrix(0.4052 -0.9142 0.9142 0.4052 -338.0065 1181.7427)" class="st7" cx="739.2" cy="850.6" rx="52.5" ry="27.1"/>
					<polygon class="st7" points="737.6,1070.9 709.6,1077.5 706.5,873.5 761.8,834.8 					"/>
					
						<ellipse transform="matrix(0.4052 -0.9142 0.9142 0.4052 -552.8359 1299.6669)" class="st10" cx="722.4" cy="1074.7" rx="27.9" ry="14.4"/>
				</g>
			</g>
			<g>
				<path class="st5" d="M674.5,1239.7l-38.4-205.7c0,0-4.7-33.7,20.9-32.7c25.6,0.9,106.7,43.1,104.8,108.6
					c-1.9,65.4-26.5,153.1-26.5,153.1s-25.3-16.3-41.4-21S674.5,1239.7,674.5,1239.7z"/>
				<path class="st6" d="M761.7,1109.8c1-33.1-19.3-60.3-42.9-79.1c2,5.8,0.4,42.7,0.7,50.2c0.9,19.4-4.8,128.9-11.4,166.8
					c13.5,6.5,27,15.2,27,15.2S759.8,1175.2,761.7,1109.8z"/>
			</g>
			<g>
				<path class="st5" d="M675.1,1252.2c0,0-32.6,37.9-46.1,50.9c-9.3,8.9-46.9,22-50.7,31.7c-1.8,4.5,20.4,20.2,66.9,18.8
					c65.7-2.1,52.5-21.4,84.1-25.5c34-4.3,14.6-61.7,14.6-61.7s-1.3-7.2-4.8-10.9c-2.1-2.3-5-3.3-8.8-0.9c0,0-4.7,8.8-28.5,6.6
					C677.9,1258.9,675.1,1252.2,675.1,1252.2z"/>
				<path class="st6" d="M718.1,1273.8c-3.8,7.1-7.1,37.4-17.1,48.4c-8.2,9-39.3,34.1-87.2,21.3c-14.6-3.9-28.4-10.4-27-16.7
					c-4.4,2.8-7.6,5.5-8.6,8c-1.8,4.5,20.4,20.2,66.9,18.8c65.7-2.1,52.5-21.4,84.1-25.5c34-4.3,14.6-61.7,14.6-61.7
					s-1.3-7.2-4.8-10.9C732.2,1264.2,721.9,1266.7,718.1,1273.8z"/>
			</g>
		</g>
		<g>
			<g>
				<defs>
					<path id="SVGID_84_" d="M760.4,636.8c1.4-3.6,3.6-6.9,6.4-9.7c8.4-8.3,28.6-25.3,59.2-33c23.4-5.9,41,1.2,52.6,9.5
						c4.9,3.5,8.4,8.5,10.1,13.9c2.1,6.6,1.7,13.9-1.6,20.4c-14.2,28.4-47.4,86.2-101.1,131.9c-5.2,4.4-11.8,6.9-18.7,6.7
						c-5.2-0.2-11.5-1.3-17.6-4.7c-3.3-1.9-6.1-3.8-8.5-5.7c-7.5-6.1-10.9-15.7-9.4-25.2C734.6,722.7,742.2,684.3,760.4,636.8z"/>
				</defs>
				<clipPath id="SVGID_7_">
					<use xlink:href="#SVGID_84_"  style="overflow:visible;"/>
				</clipPath>
				<polygon class="st22" points="858.3,577.4 800,579.4 761.3,614.7 731,685.9 717.1,763 776.4,799.2 857.5,709 910.1,609.3 				
					"/>
				<path class="st23" d="M864.4,585.6c0,0-14,46-32.7,78.7c-19.6,34.3-73.1,107.7-74,106.4l22.3,17.8c0,0,123.4-119.7,128.9-148.1
					C914.2,611.8,864.4,585.6,864.4,585.6z"/>
				
					<ellipse transform="matrix(0.4531 -0.8915 0.8915 0.4531 -270.6636 1092.1472)" class="st24" cx="754.8" cy="766.7" rx="10" ry="23"/>
			</g>
			<g>
				<g>
					<polygon class="st8" points="739.3,757 768.7,768.5 757.2,792.2 732.6,782.3 					"/>
					<polygon class="st6" points="724.1,797.7 732.6,782.3 757.2,792.2 752.3,809.2 					"/>
					<polygon class="st8" points="724.1,797.7 752.3,809.2 750,811.5 723.9,800.8 					"/>
				</g>
				<g>
					<path class="st7" d="M775.7,776.4c1.7-5-5.3-13.2-16.2-18.7c-11.1-5.6-22-6.4-24.8-1.8c-0.3,0.9-0.5,1.8-0.7,2.6
						c-1.3,6.8,0.5,14.1,5.4,19.7c8.5,9.6,23.2,10.5,32.8,2c0.5-0.4,0.9-0.8,1.3-1.3C774.3,778.1,775,777.3,775.7,776.4z"/>
				</g>
				<g>
					<polygon class="st6" points="706.1,797.6 712.3,793.6 719.5,769.2 710.7,771.7 					"/>
					<polygon class="st5" points="735.2,757 706.1,768.2 699.3,795.9 706.1,797.6 712.2,773.4 736.6,765.4 					"/>
					<polygon class="st8" points="712.2,773.4 718.9,772.8 733.8,767.9 736.6,765.4 					"/>
				</g>
				<g>
					<polygon class="st5" points="775.7,776.5 759.7,773.2 765.3,800.1 783.9,801.5 					"/>
					<polygon class="st6" points="771.4,822.7 751.1,821.7 765.3,800.1 783.9,801.5 					"/>
					<polygon class="st8" points="759.7,773.2 756.3,777 760.8,799.3 747.7,818.7 751.1,821.7 765.3,800.1 					"/>
				</g>
			</g>
		</g>
		<g>
			<path class="st1" d="M501.9,395.8c-1,0.3-2.1,0.7-3.2,1.1s-2.1,0.8-3.1,1.3l-14.1,5.4l2.4,6.3l0,0c1.4,3.5,10.2,3.4,19.7-0.2
				c9.5-3.6,16.1-9.5,14.8-13l0,0l-2.4-6.3L501.9,395.8z"/>
			
				<ellipse transform="matrix(0.9341 -0.3571 0.3571 0.9341 -108.8738 204.3243)" class="st25" cx="498.8" cy="397" rx="18.5" ry="6.9"/>
		</g>
		<g>
			<path class="st1" d="M738.1,420.9c-0.9-0.6-1.9-1.1-2.9-1.6c-1-0.5-2-1-3-1.4l-13.5-6.8l-3.1,6l0,0c-1.7,3.4,4.3,9.9,13.4,14.4
				c9.1,4.6,17.9,5.6,19.6,2.2l0,0l3.1-6L738.1,420.9z"/>
			
				<ellipse transform="matrix(0.4506 -0.8927 0.8927 0.4506 29.4849 886.6704)" class="st25" cx="735.1" cy="419.4" rx="6.9" ry="18.5"/>
		</g>
		<g>
			<polygon class="st26" points="647.4,518.3 644.5,518.3 601,503.2 601,491.2 603.9,491.2 650.3,506.4 			"/>
			<polygon class="st26" points="607.4,534.5 604.3,534.5 604.7,516.4 607.8,516.4 			"/>
			<path class="st26" d="M633.9,524.7c-0.6-0.2-1.3-0.3-1.9-0.3l-3.1,0l0,0.8c-2.1,1.1-3.7,3.1-4.4,5.9c-1.1,4.3,0.7,8.8,4,10.6
				l0,0.8l3.1,0c3.4,0,6.5-2.6,7.5-6.6C640.3,531,637.9,526,633.9,524.7z"/>
			<g>
				<path class="st26" d="M609.5,516.7c-4-1.3-8.3,1.5-9.4,6.3c-1.2,4.8,1.1,9.8,5.2,11.1c4,1.3,8.3-1.5,9.4-6.3
					C615.9,523,613.6,518.1,609.5,516.7z"/>
				<path class="st26" d="M603.3,542.2c-0.6-0.2-1.2-0.3-1.9-0.3l-3.1,0l0,0.8c-2.1,1-3.8,3.1-4.4,5.9c-1.1,4.4,0.7,8.8,4.1,10.6
					l0,0.8l3.1,0c3.3,0,6.5-2.6,7.4-6.6C609.7,548.5,607.4,543.5,603.3,542.2z"/>
				<path class="st26" d="M627.7,550.2c-0.6-0.2-1.2-0.3-1.8-0.3l-3.1,0l0,0.7c-2.1,1-3.8,3.1-4.5,5.9c-1.1,4.4,0.8,8.9,4.1,10.6
					l0,0.8l3.1,0c3.3,0,6.4-2.6,7.4-6.6C634,556.5,631.7,551.5,627.7,550.2z"/>
			</g>
			<g>
				
					<ellipse transform="matrix(5.023821e-02 -0.9987 0.9987 5.023821e-02 49.3674 1102.8651)" class="st25" cx="604.6" cy="525.5" rx="9.1" ry="7.6"/>
				
					<ellipse transform="matrix(5.023821e-02 -0.9987 0.9987 5.023821e-02 64.5508 1134.7731)" class="st25" cx="628.9" cy="533.4" rx="9.1" ry="7.6"/>
				
					<ellipse transform="matrix(5.023821e-02 -0.9987 0.9987 5.023821e-02 18.0562 1120.825)" class="st25" cx="598.3" cy="550.9" rx="9.1" ry="7.6"/>
				
					<ellipse transform="matrix(5.023821e-02 -0.9987 0.9987 5.023821e-02 33.2395 1152.733)" class="st25" cx="622.7" cy="558.9" rx="9.1" ry="7.6"/>
			</g>
			<polygon class="st25" points="644.5,518.3 598.1,503.2 601,491.2 647.4,506.4 			"/>
		</g>
		<g>
			<g>
				<defs>
					<path id="SVGID_83_" d="M785.1,108.7L611.2,33c-1.8-0.8-3.8-1.3-6-1.3c-13,0-35.5,16.1-39.3,18.6c-3.8,2.5-32.5,26.3-40.8,46.3
						c-8.2,20-6.7,72.6-4,100.2c2.7,27.8-9.9,60.8-14,74.7c-4.3,14.3-13.4,50.4,7.5,57.4L671,398.3L785.1,108.7z"/>
				</defs>
				<clipPath id="SVGID_8_">
					<use xlink:href="#SVGID_83_"  style="overflow:visible;"/>
				</clipPath>
				<path class="st27" d="M611.8,24.1l-48.8,11l-54.7,63.3l-2.1,128.3l-12.4,93.1c0,0,21.9,40.4,23.3,40.7
					c1.4,0.2,163.9,50,163.9,50L802.6,98.1L611.8,24.1z"/>
				<path class="st28" d="M521.4,85.1c0,0,42.1,27.8,87.2,46s114.9,38.4,114.9,38.4l83.3-55.9L608.6,23.1c0,0-33.2,6.4-50.4,18.4
					C533.9,58.3,521.4,85.1,521.4,85.1z"/>
			</g>
			<path class="st7" d="M780.4,107.6c-13-0.8-36.4,13.9-40.3,16.2s-34.1,24.3-43.5,43.8s-11.1,72.1-10,99.8
				c1,28-13.5,60.1-18.5,73.7c-6.8,18.6-24.5,74.8,35.3,55.6c47.5-15.3,50.2-70.9,55.2-94C760.1,295.5,826.4,110.3,780.4,107.6z"/>
			<g>
				<path class="st6" d="M735.1,271.3l0.9-1.5l-6.8-2.9l0,0c-1.5-0.6-3.1-1.1-4.9-1.4c-29.3-4.4-40,54.3-42.1,60.9
					c-8,24.8-20.2,34.7-34,32.7c-13.8-2-7.9-61-7.9-61l-7.8,6.7c-6.6,32.7-5.8,73.5,5,85.2c12.5,13.5,30.8,14,38.3,13.3
					c13.8-1.3,33.5-5.6,49.3-47.4C738.2,321.7,746.9,285.4,735.1,271.3z"/>
				<path class="st29" d="M496.7,336.5c0.2,0.1,0.4,0.2,0.6,0.2l159.9,69.2l-19-98.8l-155.2-66.7c0.4-5.8,0.7-9.8,0.7-9.8l-7.8,6.7
					c-6.6,32.7,1.2,80.7,12,92.4c2.7,2.9,5.3,4.8,7.8,6.1c0,0,0.1,0.1,0.1,0.1L496.7,336.5z"/>
				<path class="st7" d="M729.8,267.8c26.2,4,16.7,48.7,0.9,90.4c-15.9,41.7-31.4,45.5-45.7,48c-7.5,1.3-23.1,6.6-37.8-6.7
					c-11.7-10.7-15.7-59.7-9.1-92.4l7.8-6.7c0,0-6,59.1,7.9,61c13.8,2,26-7.9,34-32.7C689.9,322.2,700.6,263.4,729.8,267.8z"/>
				<polygon class="st5" points="645.9,300.4 483.7,230.7 475.9,237.5 638.1,307.2 				"/>
			</g>
			<g>
				<path class="st25" d="M740,302.4c1.2-5.8-0.1-11.5-3.1-15.2l0.6-2.8l-7.3-1.5c0,0-0.1,0-0.1,0c-7.4-1.6-15,4.6-17,13.9
					c-1.9,9.2,2.5,18,9.9,19.5l7.4,1.6l0.6-2.8C735.3,312.8,738.8,308.2,740,302.4z"/>
				
					<ellipse transform="matrix(0.2059 -0.9786 0.9786 0.2059 288.1636 957.3522)" class="st26" cx="734" cy="301.1" rx="17.1" ry="13.7"/>
			</g>
			<g>
				<g>
					<g>
						<path class="st5" d="M558,83.5c0,0-5.2-0.1-7-0.1c-1.8,0-7.3-0.1-7.3-0.1l0.2-17.2c0,0,5.5,0.1,7.3,0.1c1.7,0,7,0.1,7,0.1
							L558,83.5z"/>
						
							<ellipse transform="matrix(1.072160e-02 -0.9999 0.9999 1.072160e-02 478.7861 616.5537)" class="st13" cx="551" cy="66.3" rx="2.2" ry="7.1"/>
						
							<ellipse transform="matrix(1.072160e-02 -0.9999 0.9999 1.072160e-02 461.3606 633.4276)" class="st5" cx="550.8" cy="83.5" rx="2.2" ry="7.1"/>
					</g>
					<g>
						<path class="st5" d="M604.7,105.5c0,0-5.2-0.3-6.9-0.4c-1.8-0.1-7.3-0.4-7.3-0.4l1-17.2c0,0,5.5,0.3,7.3,0.4
							c1.7,0.1,6.9,0.4,6.9,0.4L604.7,105.5z"/>
						
							<ellipse transform="matrix(5.678211e-02 -0.9984 0.9984 5.678211e-02 476.691 680.5259)" class="st13" cx="598.5" cy="88" rx="2.2" ry="7.1"/>
						
							<ellipse transform="matrix(5.678211e-02 -0.9984 0.9984 5.678211e-02 458.6169 695.755)" class="st5" cx="597.5" cy="105.2" rx="2.2" ry="7.1"/>
					</g>
					<g>
						<path class="st5" d="M651.4,127.4c0,0-5.2-0.5-6.9-0.7c-1.8-0.2-7.3-0.8-7.3-0.8l1.8-17.1c0,0,5.5,0.6,7.3,0.8
							c1.7,0.2,6.9,0.7,6.9,0.7L651.4,127.4z"/>
						
							<ellipse transform="matrix(0.1028 -0.9947 0.9947 0.1028 470.5344 740.9797)" class="st13" cx="646" cy="109.7" rx="2.2" ry="7.1"/>
						
							<ellipse transform="matrix(0.1028 -0.9947 0.9947 0.1028 451.921 754.5765)" class="st5" cx="644.3" cy="126.8" rx="2.2" ry="7.1"/>
					</g>
					<g>
						<path class="st5" d="M698.1,149.3c0,0-5.2-0.8-6.9-1c-1.8-0.3-7.2-1.1-7.2-1.1l2.6-17.1c0,0,5.4,0.8,7.2,1.1
							c1.7,0.3,6.9,1,6.9,1L698.1,149.3z"/>
						
							<ellipse transform="matrix(0.1485 -0.9889 0.9889 0.1485 460.6586 797.6677)" class="st13" cx="693.5" cy="131.3" rx="2.2" ry="7.1"/>
						
							<ellipse transform="matrix(0.1485 -0.9889 0.9889 0.1485 441.6135 809.6547)" class="st5" cx="691" cy="148.4" rx="2.2" ry="7.1"/>
					</g>
				</g>
				<path class="st30" d="M598.7,88.4c0,0,7.8-25.3,27.6-39.4c18.1-13,39.6-10.1,32.9,4.9"/>
				<path class="st30" d="M550.9,65.9c0,0,6.9-25.4,29.1-39.7c18.8-12,48.6-4.5,41.5,11.3"/>
				<path class="st30" d="M646.2,109.4c0,0,6.9-25.4,29.1-39.7c18.8-12,46.9-7.2,39.8,8.5"/>
				<path class="st30" d="M694.2,130.9c0,0,6.9-25.4,29.1-39.7c18.8-12,49-7,41.9,8.7"/>
			</g>
			<g>
				<polygon class="st6" points="567.1,140.5 560.4,144.3 507.2,149.4 496.7,128.2 503.4,124.3 563.4,115.4 				"/>
				
					<rect x="498.2" y="123.6" transform="matrix(0.989 -0.1476 0.1476 0.989 -14.3232 79.5063)" class="st5" width="60.6" height="25.4"/>
			</g>
			<g>
				<polygon class="st6" points="689.1,206.4 681.8,204.8 637.5,171.2 640.3,146.7 647.6,148.3 699.2,183.5 				"/>
				<polygon class="st5" points="681.8,204.8 630.3,169.6 640.3,146.7 691.9,181.8 				"/>
			</g>
			<g>
				<path class="st7" d="M586.3,238.2l-39.4-17.1c0,0-8.6-76.1,18.6-64.3C593.1,168.8,586.3,238.2,586.3,238.2z"/>
				<g>
					<defs>
						<path id="SVGID_82_" d="M586.5,234.3L551.1,219c0,0-7.8-68.3,16.7-57.7C592.6,172,586.5,234.3,586.5,234.3z"/>
					</defs>
					<clipPath id="SVGID_9_">
						<use xlink:href="#SVGID_82_"  style="overflow:visible;"/>
					</clipPath>
					<polygon class="st31" points="589.5,242.1 548.2,224.1 547.3,147.7 588.7,165.7 					"/>
					
						<ellipse transform="matrix(0.9259 -0.3778 0.3778 0.9259 -29.3554 231.0111)" class="st32" cx="574.1" cy="190.3" rx="13.1" ry="21.1"/>
					<path class="st33" d="M583.8,180.7c0,0-8.5-13.3-20.2-13.9c-12.2-0.6-15.5,12.1-15.5,12.1l-5.3-25.3l35.6,1.8L583.8,180.7z"/>
				</g>
			</g>
			<g>
				<path class="st7" d="M658.8,268.9l-39.4-17.1c0,0-8.6-76.1,18.6-64.3C665.6,199.5,658.8,268.9,658.8,268.9z"/>
				<g>
					<defs>
						<path id="SVGID_81_" d="M658.9,265l-35.4-15.4c0,0-7.8-68.3,16.7-57.7C665,202.7,658.9,265,658.9,265z"/>
					</defs>
					<clipPath id="SVGID_10_">
						<use xlink:href="#SVGID_81_"  style="overflow:visible;"/>
					</clipPath>
					<polygon class="st34" points="662,272.8 620.6,254.8 619.7,178.4 661.1,196.4 					"/>
					
						<ellipse transform="matrix(0.9259 -0.3778 0.3778 0.9259 -35.5856 260.6459)" class="st35" cx="646.6" cy="221" rx="13.1" ry="21.1"/>
					<path class="st36" d="M656.2,211.4c0,0-8.5-13.3-20.2-13.9c-12.2-0.6-15.5,12.1-15.5,12.1l-5.3-25.3l35.6,1.8L656.2,211.4z"/>
				</g>
			</g>
		</g>
	</g>
</g>
</svg>
