<?xml version="1.0" encoding="utf-8"?>
<!-- Generator: Adobe Illustrator 24.2.1, SVG Export Plug-In . SVG Version: 6.00 Build 0)  -->
<svg version="1.1" xmlns="http://www.w3.org/2000/svg" xmlns:xlink="http://www.w3.org/1999/xlink" x="0px" y="0px"
	 viewBox="0 0 1336.9 1389.3" style="enable-background:new 0 0 1336.9 1389.3;" xml:space="preserve">
<style type="text/css">
	.st0{fill:#B8C1CA;}
	.st1{fill:#F4F4F4;}
	.st2{fill:#DDDDDD;}
	.st3{fill:#B89A20;}
	.st4{fill:#E6C815;}
	.st5{fill:#324F6B;}
	.st6{fill:#3F6C91;}
	.st7{fill:#4AA6C0;}
	.st8{fill:#2F6E91;}
	.st9{fill:none;stroke:#2F6E91;stroke-width:7.0061;stroke-miterlimit:10;}
	.st10{clip-path:url(#SVGID_1_);fill:#C5E6F9;}
	.st11{clip-path:url(#SVGID_1_);fill:#4AA6C0;}
	.st12{clip-path:url(#SVGID_1_);}
	.st13{fill:#D82577;}
	.st14{fill:none;stroke:#808285;stroke-width:3.5031;stroke-miterlimit:10;}
	.st15{fill:#185068;}
	.st16{fill:#C5E6F9;}
	.st17{fill:#231F20;}
</style>
<g id="Sergeant">
</g>
<g id="Elton">
</g>
<g id="Fred">
</g>
<g id="Bubbles">
</g>
<g id="Dolores">
</g>
<g id="Dolly">
</g>
<g id="Cosmo">
</g>
<g id="Belle">
</g>
<g id="Rivet">
	<g>
		<g>
			<g>
				<g>
					<polygon class="st0" points="481.7,767.2 468.1,780.7 499,795.1 518.7,784.9 					"/>
					<polygon class="st1" points="480.9,759.1 481.7,767.2 518.7,784.9 530.6,818.3 536.8,815.1 523.2,779.5 					"/>
					<polygon class="st2" points="530.6,818.3 508.2,818.9 499,795.1 518.7,784.9 					"/>
				</g>
				<circle class="st3" cx="455" cy="783.1" r="35.1"/>
				<g>
					<polygon class="st0" points="492.5,847.8 486.2,839.3 451.3,831 455.6,843.2 					"/>
					<polygon class="st1" points="432.6,809.9 451.1,849.8 490.8,857.4 492.5,847.8 457.9,840.9 444.3,807.2 					"/>
					<polygon class="st0" points="457.9,840.9 456.4,831.6 448.1,811 444.3,807.2 					"/>
				</g>
				<g>
					<polygon class="st1" points="453.6,804.4 477.1,779.7 507.9,802.6 475.3,833.9 					"/>
					<polyline class="st2" points="505.8,804.5 507.9,802.6 525.5,827.2 500.4,852.8 475.3,833.9 505.8,804.5 					"/>
				</g>
			</g>
			<g>
				<g>
					<g>
						<g>
							<path class="st4" d="M459,527.5c4.6-2.3,10.7-0.3,16.6,4.7c5.9,5,11.5,13.1,15.4,22.9c3.9,9.8,6.1,19.3,6.5,26.7
								c0.3,7.4-1.1,12.8-4.7,14.6L459,527.5z"/>
						</g>
						<g>
							<g>
								<path class="st4" d="M393.8,568.9c10.4-8.6,21-16.1,31.9-22.9c10.9-6.8,21.9-12.9,33.3-18.5l33.7,68.9
									c-18.1,8.9-35.6,19.6-49.8,31.4L393.8,568.9z"/>
							</g>
							<g>
								<path class="st3" d="M486.3,599.6c-3.4,2.5-7.6,4-12.1,4.5c-4.5,0.4-9.2-0.2-13.8-1.8c-9.2-3.2-17.6-9.6-23.4-18
									c-5.6-8.4-8.4-18.8-6.2-29.1c1.1-5.1,3.5-10.2,7-14.3c3.5-4.1,8.1-7.4,13.1-9.3c-8.9,5.9-14.3,14.9-15.3,24
									c-1.1,9.1,1.5,18.1,6.3,25.5c4.8,7.4,11.9,13.4,19.7,17C469.5,601.8,478.3,602.5,486.3,599.6z"/>
							</g>
						</g>
						<g>
							<g>
								<path class="st4" d="M341.6,641.1c2.5-8.3,5.9-16,9.8-23c3.9-7,8.3-13.4,12.8-19.2c9.2-11.7,19.3-21.4,29.6-30l49,59
									c-7.2,5.9-13.4,12.2-18.3,18.4c-2.4,3.1-4.5,6.2-6.1,9.1c-1.6,2.9-2.8,5.7-3.6,8.3L341.6,641.1z"/>
							</g>
							<g>
								<path class="st3" d="M437.9,632.1c-2.4,3-5.5,5.2-9.2,6.5c-3.7,1.3-8.1,1.7-12.6,1.4c-1.1-0.1-2.3-0.2-3.5-0.3
									c-1.2-0.1-2.3-0.3-3.5-0.5c-2.4-0.4-4.8-1-7.1-1.7c-4.7-1.4-9.5-3.4-13.7-6.1c-4.2-2.8-8-6.2-10.9-10.5
									c-1.4-2.1-2.6-4.4-3.5-6.9c-0.4-1.2-0.8-2.5-1.1-3.9c-0.3-1.3-0.5-2.7-0.6-4.1c-0.5-5.6,0.6-11.5,3.1-17
									c2.6-5.4,6.6-10.2,11.2-13.6c-3.9,4.3-6.7,9.2-8.3,14.3c-1.6,5-2,10.1-1.2,14.8c0.8,4.7,2.6,9,5.1,12.7
									c2.5,3.7,5.7,6.9,9.3,9.4c3.6,2.6,7.5,4.6,11.6,6.2c4.1,1.6,8.3,2.7,12.4,3.4C423.8,637.3,431.5,636.3,437.9,632.1z"/>
							</g>
						</g>
						<g>
							<g>
								<path class="st4" d="M359.2,738.8L356,734c-0.5-0.8-1-1.6-1.6-2.4L353,729c-1-1.7-2-3.4-2.9-5.2l-2.7-5.5
									c-3.4-7.5-6.3-15.6-8.2-24.2c-1.9-8.6-2.6-17.8-2.2-26.8c0.4-9,2-17.9,4.6-26.2l73.3,22.5c-0.8,2.6-1.2,5-1.3,7.3
									c-0.1,2.3,0.1,4.6,0.6,7.1c0.6,2.5,1.5,5.2,2.8,8c0.4,0.7,0.7,1.4,1.1,2.2c0.4,0.7,0.9,1.5,1.3,2.2l0.6,1.1
									c0.2,0.4,0.5,0.8,0.8,1.1l1.5,2.3L359.2,738.8z"/>
							</g>
							<g>
								<path class="st3" d="M414,667.2c0.1,1.1,0,2-0.4,3c-0.1,0.5-0.4,1-0.7,1.5l-0.3,0.4l-0.2,0.4c-0.2,0.3-0.4,0.5-0.6,0.8
									c-1,1-2,2.2-3.4,3.4c-1.3,1.2-2.8,2.6-4.4,3.9c-1.6,1.4-3.3,2.9-5.2,4.3c-1.9,1.5-3.7,2.9-5.8,4.3
									c-4.1,2.8-8.5,5.4-13.2,7.2c-4.7,1.7-9.8,2.7-14.9,2.2c-2.6-0.2-5.2-0.8-7.7-1.7c-2.5-1-5-2.4-7.4-4.3
									c-2.3-1.9-4.5-4.2-6.4-7c-1.8-2.8-3.5-6.1-4.4-9.6c-0.3-0.9-0.5-1.8-0.7-2.7l-0.3-1.4l-0.2-1.4c-0.2-1.9-0.4-3.8-0.5-5.7
									c0.1-3.8,0.4-7.7,1.5-11.3c-0.4,3.7-0.3,7.4,0.1,10.9c0.3,1.7,0.6,3.4,1,5c0.2,0.8,0.4,1.6,0.7,2.4c0.3,0.8,0.6,1.5,0.9,2.3
									c0.6,1.5,1.3,2.9,2,4.2c0.7,1.3,1.6,2.5,2.5,3.6c1.7,2.2,3.6,4.1,5.8,5.5c2.1,1.5,4.2,2.6,6.4,3.4c2.2,0.8,4.5,1.3,6.7,1.5
									c4.5,0.5,8.9-0.1,13.1-1.3c4.2-1.2,8.3-3.1,12.2-5.2c1.9-1.1,3.8-2.2,5.5-3.3c1.8-1.1,3.6-2.3,5.2-3.4
									c1.6-1.1,3.2-2.2,4.6-3.2c0.7-0.5,1.3-1,2-1.5c0.7-0.5,1.3-1,1.8-1.5c0.3-0.2,0.5-0.5,0.8-0.7c0.3-0.2,0.5-0.5,0.8-0.7
									c0.5-0.5,0.9-0.9,1.3-1.3C412.9,669,413.4,668.1,414,667.2z"/>
							</g>
						</g>
						<g>
							<g>
								<path class="st4" d="M418.2,794.9c-10.4-7.3-20.7-15.2-30.7-24.3c-10-9.1-19.6-19.4-28.3-31.8l63-43.7
									c4.4,6.2,10.3,12.7,17.1,18.9c6.8,6.2,14.6,12.2,22.8,18L418.2,794.9z"/>
							</g>
							<g>
								<path class="st3" d="M425.6,699.6c2.6,2.2,4.5,5.4,5.7,9.3c0.6,1.9,1,4.1,1.2,6.3c0.2,2.2,0.2,4.5,0,6.9
									c-0.1,1.2-0.3,2.4-0.5,3.6c-0.2,1.2-0.4,2.4-0.7,3.6c-0.6,2.4-1.3,4.8-2.2,7.1c-1.9,4.7-4.4,9.1-7.6,13
									c-3.3,3.9-7.2,7.2-11.6,9.6c-2.2,1.2-4.6,2.2-7.1,2.9c-1.2,0.4-2.5,0.7-3.8,0.9c-1.3,0.2-2.6,0.3-3.9,0.4
									c-2.7,0.1-5.4-0.1-8.2-0.7c-2.7-0.6-5.5-1.7-8.1-3c-5.2-2.8-9.9-7.1-13.2-12.3c1.1,1.1,2.2,2.1,3.3,3.1
									c1.1,1,2.3,1.9,3.5,2.6c2.4,1.5,4.8,2.8,7.2,3.7c2.5,0.9,4.9,1.4,7.3,1.7c1.2,0.1,2.4,0.2,3.6,0.2c1.2,0,2.4-0.1,3.5-0.3
									c4.6-0.6,8.9-2.1,12.8-4.3c3.9-2.2,7.3-5.1,10.2-8.5c2.9-3.3,5.3-7.1,7.2-11.1c1.9-4,3.3-8.2,4.1-12.4
									c0.2-1,0.4-2.1,0.5-3.1c0.1-1,0.2-2.1,0.3-3.1c0.1-2,0-4-0.3-5.9c-0.2-1.9-0.5-3.8-1.1-5.5c-0.3-0.9-0.6-1.7-0.9-2.5
									C426.4,701.1,426,700.3,425.6,699.6z"/>
							</g>
						</g>
						<g>
							<path class="st4" d="M418.2,794.9c2.1,1.5,4.7,2,7.6,1.6c2.9-0.4,6.1-1.7,9.3-3.7c6.5-4.1,13.2-11.1,18.8-20.1
								c5.6-9,9.2-18.1,10.7-25.4c0.7-3.7,0.9-6.9,0.5-9.5c-0.4-2.6-1.4-4.6-3-5.8L418.2,794.9z"/>
						</g>
					</g>
				</g>
			</g>
		</g>
		<path class="st5" d="M516.5,520c23.9,12.3,23.2,81.1,12,106.3c-5.2,11.7-18.2,31.2-41.4,32.9c-7.8,0.6-16.9-0.4-26.9-5.3
			c-53.5-26.3-62-69.2-60.2-99.6c1.3-21.5,17.4-38.9,38.7-41.9C462.1,509.2,493.6,508.2,516.5,520z"/>
		<g>
			<path class="st5" d="M479.5,1312.5c0,0,18.9,6.9,49.1-0.6c28.2-7,40.6-21.8,40.6-21.8l-77.3-309.7c0,0-17.9-7.2-46.1-0.1
				c-30.2,7.5-43.6,22.5-43.6,22.5L479.5,1312.5z"/>
			
				<ellipse transform="matrix(0.9702 -0.2423 0.2423 0.9702 -266.0566 144.7181)" class="st5" cx="455.4" cy="1154.1" rx="74.8" ry="163.3"/>
			
				<ellipse transform="matrix(0.9702 -0.2423 0.2423 0.9702 -260.5771 158.9685)" class="st6" cx="516" cy="1138.9" rx="74.8" ry="163.3"/>
		</g>
		<g>
			<path class="st5" d="M531.4,1168.9c45.4-59.2,104.3-87.6,104.9-87.9c0,0,9.2-13.1-0.3-33.1c-9.3-19.6-25-20.8-25-20.8
				c-2.7,1.3-55.7,26.5-105.4,80.1c-17.8,19.2-14.6,49.7,6.9,64.7h0C518.6,1176.1,526.9,1174.8,531.4,1168.9z"/>
		</g>
		<g>
			<path class="st7" d="M819.2,1029.3c0,91.6-74.3,165.9-165.9,165.9s-165.9-74.3-165.9-165.9
				C555.7,1029.3,738.8,1029.3,819.2,1029.3z"/>
			<ellipse class="st8" cx="653.3" cy="1029.3" rx="165.6" ry="39.6"/>
		</g>
		<g>
			<path class="st7" d="M823,1011.4c0,0-28.5,41.8-168.5,41.9c-141.9,0.1-170.9-41.9-170.9-41.9s-61-193.5-61-262.6
				c0-61.6,56.5-246.4,56.5-246.4s33.6-37.1,172-37.2c141.8-0.1,176.5,37.2,176.5,37.2S884,687.2,884,748.8
				C884,818,823,1011.4,823,1011.4z"/>
			<path class="st9" d="M596.8,514.8c0,0-49.6,171.2-49.6,268.1c0,86.3,32.5,266.6,32.5,266.6"/>
			<ellipse class="st8" cx="653" cy="516.7" rx="153.8" ry="44.6"/>
		</g>
		<g>
			<g>
				<defs>
					<path id="SVGID_60_" d="M822.9,219.9l-118.3-88.8c-31.7-23.8-75.3-23.5-106.7,0.5l-115,88.1c-29.2,22.4-41.5,60.6-30.8,95.9
						l59.3,179.8c0,0,39.7,42.8,138.5,43c103.4,0.2,145.5-43,145.5-43l59.1-179.1C865.3,280.8,852.7,242.2,822.9,219.9z"/>
				</defs>
				<clipPath id="SVGID_1_">
					<use xlink:href="#SVGID_60_"  style="overflow:visible;"/>
				</clipPath>
				<polygon class="st10" points="638.2,74.7 384.8,239.7 517.3,567.5 796.3,588.4 896.2,272.3 				"/>
				<path class="st11" d="M880.5,242.1c0,36.6-101.7,62.8-227.2,62.8S426,278.7,426,242.1S527.8,101,653.3,101
					S880.5,205.5,880.5,242.1z"/>
				<g class="st12">
					<g>
						<path class="st13" d="M446.5,378.9c8.4,8.6,17.8,16.4,27.7,23.3c4.9,3.4,9.9,6.5,15.1,9.3c5.7,3.2,11.8,6.7,18.5,7.1
							c5.5,0.3,11.5-1.2,16.2-4c2.2-1.3,4.4-3,6.2-4.9c0.8-0.8,1.6-1.7,2.3-2.6c0.6-0.8,1.2-1.6,1.8-2.4c-0.8,1.1,0.2-0.3,0.6-0.6
							c0.9-1,1.8-1.9,2.8-2.8c0.3-0.3,1.4-1.1,0.5-0.4c0.6-0.4,1.1-0.8,1.7-1.2c0.5-0.3,1-0.6,1.5-0.8c0.3-0.1,0.5-0.3,0.8-0.4
							c-0.1,0-1.1,0.3-0.4,0.2c0.5-0.1,1.1-0.3,1.6-0.4c0.8-0.3-0.5,0-0.5,0c0.2-0.1,0.8-0.1,1-0.1c0.3,0,0.5,0.1,0.8,0
							c0.9-0.1-0.7,0-0.6-0.1c0.3-0.3,1.7,0.8,0.3,0c0.5,0.3,1,0.5,1.4,0.8c-1.1-0.9,0.7,1,0.3,0.4c-0.3-0.4,0.5,0.9,0.7,1.2
							c0.3,0.6,0.6,1.1,0.9,1.7c0.1,0.3,0.8,1.9,0.3,0.7c-0.5-1.1,0.1,0.3,0.2,0.6c5.1,13.9,3.6,29.4,9.3,43
							c2.9,6.9,8.6,12.4,16.5,12.4c9.9,0,15.8-7.5,19.1-16c3.1-7.8,4.2-16.4,5.1-24.7c0.1-0.8,0.2-1.5,0.3-2.3
							c-0.1,1.3-0.1,0.4,0.1-0.3c0.1-0.6,0.3-1.3,0.5-1.9c0.2-0.5,0.3-1.1,0.5-1.6c0.2-0.5,0.8-2,0.2-0.7c0.5-1.1,1.1-2.2,1.7-3.3
							c0.3-0.5,0.6-1,0.9-1.4c0.2-0.2,0.3-0.5,0.5-0.7c0,0.1-0.8,0.9-0.2,0.3c0.8-0.9,1.6-1.7,2.4-2.5c0.9-0.9-0.9,0.5,0.2-0.2
							c0.4-0.3,0.8-0.5,1.3-0.8c0.2-0.1,0.5-0.2,0.7-0.3c0.7-0.5-0.6,0.3-0.6,0.2c0.1-0.2,1.4-0.4,1.6-0.5c0.7-0.3-0.7,0.2-0.7,0.1
							c0,0,0.7,0,0.7,0c0.2,0,0.5,0,0.7,0c0.6,0,0.4,0.3,0,0c-0.3-0.3-0.6-0.2,0,0c0.2,0.1,0.5,0.2,0.7,0.2c0.7,0.1-0.3-0.2-0.5-0.2
							c0.4,0.2,0.8,0.5,1.3,0.7c0.6,0.3,0-0.1-0.2-0.2c0.2,0.2,0.5,0.4,0.7,0.6c0.2,0.2,1.3,1.4,0.9,0.9c-0.4-0.5,0.5,0.8,0.7,1.1
							c0.4,0.6,0.7,1.2,1,1.9c0.2,0.4,0.7,1.7,0.3,0.6c0.2,0.6,0.4,1.2,0.6,1.8c0.4,1.3,0.8,2.6,1.1,3.9c0.6,2.6,1.1,5.1,1.5,7.7
							c0.9,5.4,1.9,10.8,4,15.9c2.3,5.5,5.7,10,10.5,13.5c8.5,6.4,20.7,7.7,30.5,3.6c4.9-2.1,9.1-5.5,12.6-9.5
							c1.9-2.1,3.6-4.4,5.2-6.7c0.8-1,1.5-2,2.3-3.1c0.3-0.5,0.7-0.9,1-1.4c0.3-0.4,1.3-1.7,0.5-0.7c1.5-1.9,3.1-3.7,4.8-5.4
							c0.4-0.4,0.8-0.8,1.3-1.2c0.2-0.2,0.4-0.4,0.7-0.6c-0.1,0.1-0.9,0.6-0.2,0.2c1.1-0.8,2.2-1.5,3.4-2.2c0.5-0.3,1.1-0.6,1.6-0.8
							c0.4-0.2,1.7-0.7,0.6-0.3c1.3-0.5,2.7-1,4-1.4c1.2-0.3,2.4-0.6,3.6-0.9c0.6-0.1,1.2-0.2,1.8-0.3c0.3-0.1,0.6-0.1,0.9-0.2
							c0.1,0,1.4-0.2,0.6-0.1c-0.8,0.1,0.2,0,0.3,0c0.3,0,0.6-0.1,0.9-0.1c0.6-0.1,1.3-0.1,1.9-0.2c1.4-0.1,2.8-0.2,4.1-0.3
							c2.7-0.1,5.3-0.2,8-0.2c5.1-0.1,10.3-0.2,15.4-0.6c20.4-1.5,40.7-5.5,59.7-13c19-7.5,36.9-18.2,50.8-33.3
							c3.5-3.8,6.8-8,9.8-12.2c2.1-3,0.7-7.9-2.5-9.6c-3.6-1.9-7.3-0.7-9.6,2.5c-0.7,1-1.3,1.9-2,2.8c-0.1,0.2-1.3,1.7-0.3,0.4
							c-0.4,0.5-0.7,0.9-1.1,1.4c-1.6,1.9-3.2,3.8-4.9,5.6c-3.3,3.5-6.8,6.8-10.5,9.8c-0.4,0.4-0.9,0.7-1.4,1.1
							c-1.5,1.2,1.1-0.8-0.4,0.3c-0.9,0.7-1.9,1.4-2.8,2.1c-2,1.5-4.1,2.9-6.3,4.2c-4.1,2.6-8.4,5-12.8,7.1c-2.1,1-4.3,2-6.4,3
							c-1.8,0.8,1.3-0.5-0.5,0.2c-0.5,0.2-1.1,0.5-1.6,0.7c-1.3,0.5-2.6,1-3.9,1.5c-4.7,1.7-9.4,3.3-14.2,4.6
							c-4.8,1.3-9.6,2.5-14.5,3.5c-2.3,0.5-4.7,0.9-7,1.3c-1.2,0.2-2.3,0.4-3.5,0.5c-0.6,0.1-1.2,0.2-1.8,0.3
							c1.8-0.3-0.8,0.1-1.1,0.1c-10,1.2-20,1.5-30.1,1.8c-11.1,0.3-22.8,1.2-32.6,6.9c-4.6,2.7-8.5,6.4-11.8,10.6
							c-1.7,2.1-3.3,4.3-5,6.6c-0.6,0.8-1.2,1.6-1.7,2.4c-0.3,0.5-0.7,0.9-1.1,1.4c1-1.3-0.5,0.6-0.7,0.9c-1.5,1.8-3,3.5-4.7,5
							c-0.2,0.2-1.7,1.3-0.4,0.3c-0.5,0.3-0.9,0.7-1.4,1c-0.5,0.3-1,0.6-1.5,0.9c-0.3,0.2-2.5,1.1-0.8,0.4c-1,0.4-2,0.7-3.1,1
							c-0.4,0.1-1.1,0.4-1.6,0.3c1.7,0.2,0.3,0-0.3,0c-1.1,0.1-2.2,0.1-3.2,0c-0.5,0-1.1-0.1-1.6-0.1c2,0.2-0.4-0.1-0.8-0.2
							c-1.1-0.2-2.1-0.6-3.1-0.9c-1.7-0.5,1.3,0.7-0.3-0.1c-0.5-0.2-1-0.5-1.4-0.7c-0.9-0.5-1.8-1.1-2.7-1.7c1.4,1,0,0-0.2-0.3
							c-0.5-0.5-1-1-1.5-1.5c-0.2-0.2-1.3-1.6-0.3-0.2c-0.4-0.5-0.7-1-1-1.5c-0.7-1-1.2-2.1-1.7-3.2c-0.9-1.8,0.4,1.3-0.2-0.6
							c-0.2-0.6-0.4-1.2-0.6-1.7c-0.4-1.4-0.8-2.8-1.1-4.2c-2.5-10.7-2.8-22.8-10.6-31.4c-4.2-4.6-10.6-6.7-16.7-5.4
							c-5,1-9.4,4.4-12.5,8.3c-3.4,4.3-6.1,9.4-7.2,14.9c-0.4,2.2-0.6,4.5-0.9,6.7c-0.1,0.9-0.2,1.7-0.3,2.6c-0.1,0.7-0.6,1.5,0-0.1
							c-0.2,0.5-0.2,1.3-0.3,1.9c-0.6,4-1.4,8.1-2.5,12c-0.3,0.9-0.6,1.8-0.9,2.7c-0.2,0.4-0.3,0.9-0.5,1.3c-0.6,1.5,0.7-1.4,0,0
							c-0.4,0.8-0.8,1.6-1.2,2.3c-0.2,0.4-0.4,0.7-0.7,1.1c-0.1,0.2-0.3,0.5-0.5,0.7c-0.4,0.6-0.3,0.4,0.4-0.5
							c-0.1,0.5-1.2,1.3-1.6,1.7c-0.9,1,1.4-0.8,0.3-0.2c-0.3,0.2-0.6,0.4-0.9,0.6c-1.3,0.8,0.2-0.4,0.4-0.1c0,0-1,0.3-1,0.3
							c-1.1,0.4-0.6-0.4,0.4,0c-0.3-0.1-1,0.1-1.3,0.1c-0.3,0-0.6,0-0.9,0c-1.2,0,1.8,0.5,0.7,0.1c-0.4-0.1-1-0.4-1.4-0.4
							c1.5,0.1,1.4,0.7,0.7,0.2c-0.2-0.1-0.5-0.3-0.7-0.4c-1-0.5,1.3,1.2,0.5,0.4c-0.3-0.3-0.6-0.5-0.8-0.8
							c-0.2-0.2-0.4-0.5-0.6-0.7c1.2,0.8,0.9,1.2,0.4,0.4c-0.3-0.5-0.7-1.1-1-1.6c-0.2-0.3-0.3-0.6-0.4-0.9
							c-0.6-1.2,0.3-0.2,0.1,0.4c0.1-0.4-0.7-2-0.9-2.4c-1.1-3.3-1.7-6.7-2.3-10c-1.3-7.4-2-15-3.6-22.4
							c-2.2-9.9-6.9-21.4-18.4-22.6c-6-0.7-11.7,2.3-16.3,5.9c-1.9,1.5-3.6,3.2-5.1,5.1c-0.6,0.8-1.2,1.6-1.8,2.3
							c-1.2,1.6,0.9-1-0.4,0.5c-0.9,1-1.7,1.9-2.7,2.8c-0.2,0.2-1.7,1.3-0.2,0.3c-0.4,0.3-0.8,0.6-1.3,0.9c-0.9,0.6-1.8,1-2.7,1.5
							c1.7-0.8,0.1-0.1-0.3,0c-0.5,0.2-1,0.3-1.5,0.4c-0.5,0.1-1.1,0.2-1.6,0.3c-0.8,0.1-0.7,0.1,0.2,0c-0.4,0-0.8,0.1-1.2,0.1
							c-0.6,0.1-1.3,0-1.9,0.1c-1.8,0.1,0.8,0.4-0.9-0.1c-0.7-0.2-1.4-0.3-2.1-0.6c0,0-2.2-0.9-1-0.4c-2.8-1.2-5.5-2.7-8.1-4.2
							c-5.1-2.8-10-5.9-14.8-9.1c-2.3-1.6-4.5-3.2-6.8-4.9c-1.8-1.4,1,0.8-0.8-0.6c-0.5-0.4-1.1-0.9-1.6-1.3c-1.3-1-2.5-2.1-3.8-3.1
							c-4.2-3.6-8.3-7.4-12.2-11.4c-2.6-2.6-7.4-2.8-9.9,0C444,371.8,443.8,376.1,446.5,378.9L446.5,378.9z"/>
					</g>
				</g>
			</g>
		</g>
		<g>
			<path class="st5" d="M848.6,1238.6c-45.4-59.2-104.3-87.6-104.9-87.9c0,0-9.2-13.1,0.3-33.1c9.3-19.6,25-20.8,25-20.8
				c2.7,1.3,55.7,26.5,105.4,80.1c17.8,19.2,14.6,49.7-6.9,64.7l0,0C861.4,1245.9,853.1,1244.5,848.6,1238.6z"/>
		</g>
		<g>
			
				<ellipse transform="matrix(0.2423 -0.9702 0.9702 0.2423 -539.9188 1693.6245)" class="st5" cx="814.3" cy="1192.5" rx="163.3" ry="74.8"/>
			<path class="st5" d="M850.9,1366.1c0,0-18.9,6.9-49.1-0.6c-28.2-7-40.6-21.8-40.6-21.8l77.3-309.7c0,0,17.9-7.2,46.1-0.1
				c30.2,7.5,43.6,22.5,43.6,22.5L850.9,1366.1z"/>
			
				<ellipse transform="matrix(0.2423 -0.9702 0.9702 0.2423 -508.6442 1763.9768)" class="st6" cx="875" cy="1207.6" rx="163.3" ry="74.8"/>
		</g>
		<g>
			<g>
				<polygon class="st0" points="828.3,820.4 841.1,836 807,847.8 787.5,834.8 				"/>
				<polygon class="st1" points="830.1,811.9 828.3,820.4 787.5,834.8 771.3,868.6 765.2,864.5 783.4,828.7 				"/>
				<polygon class="st2" points="771.3,868.6 794.7,871.6 807,847.8 787.5,834.8 				"/>
			</g>
			<circle class="st3" cx="854.6" cy="840" r="37.1"/>
			<g>
				<polygon class="st0" points="808,903.8 815.6,895.5 853.2,890.7 847.4,903 				"/>
				<polygon class="st1" points="875.2,870.5 851.3,910.5 808.8,914 808,903.8 845.2,900.4 863.2,866.5 				"/>
				<polygon class="st0" points="845.2,900.4 847.8,890.8 858.8,870 863.2,866.5 				"/>
			</g>
			<g>
				<polygon class="st1" points="853.7,862.5 831.7,834 796.9,854.6 827.7,891.1 				"/>
				<polyline class="st2" points="798.8,856.8 796.9,854.6 775.7,878.5 799.2,908.2 827.7,891.1 798.8,856.8 				"/>
			</g>
		</g>
		<g>
			<path class="st5" d="M826.6,542.2c-26.2,6.4-41.6,73.4-36.6,100.5c2.3,12.6,10.4,34.6,32.5,41.7c7.4,2.4,16.6,3.8,27.4,1.1
				c53.5-13.4,73.1-70.3,79.9-100.3c2.5-11.1-3.3-22.4-13.6-27.1C894.6,548.6,856.7,534.9,826.6,542.2z"/>
			<path class="st5" d="M849.9,685.6c53.5-13.4,73.1-70.3,79.9-100.3c1.5-6.8-0.1-13.8-4-19.1c-5.5,0-12,0.3-17.5,1.9
				c-12.2,3.5-54.6,19.2-74.4,56.4c-13.3,25-14,48.2-12.7,59.5c0.5,0.2,0.9,0.4,1.3,0.5C829.9,686.8,839.1,688.3,849.9,685.6z"/>
			<g>
				<g>
					<g>
						<g>
							<path class="st4" d="M817.4,648.7c-3.5-1.2-5.4-6.3-5.7-13.7c-0.3-7.4,0.8-17,3.6-27.2c2.7-10.2,7.2-19,12.2-24.7
								c5-5.8,10.4-8.5,14.8-7L817.4,648.7z"/>
						</g>
						<g>
							<g>
								<path class="st4" d="M867.5,671.2c-15.2-8.9-32.5-16.5-50.1-22.5l24.9-72.6c11,3.8,21.7,8,32.3,12.7
									c10.6,4.8,21.2,10,31.6,16.1L867.5,671.2z"/>
							</g>
							<g>
								<path class="st3" d="M850.1,578.9c4.7,1.1,9.3,3.5,12.9,7c3.6,3.5,6.3,8,7.8,12.8c3,9.7,1.5,20.2-2.8,29.3
									c-4.5,9.1-11.7,16.8-19.9,21.4c-4.1,2.3-8.5,3.7-12.7,4c-4.2,0.2-8.2-0.6-11.7-2.6c7.7,1.6,15.8-0.5,22.7-5.3
									c6.9-4.8,12.9-11.9,16.6-19.9c3.7-8,5.2-17.2,3.3-25.8C864.6,591.2,858.8,583.3,850.1,578.9z"/>
							</g>
						</g>
						<g>
							<g>
								<path class="st4" d="M903,700.6c-1.7-2.5-3.9-5-6.4-7.6c-1.2-1.3-2.6-2.6-3.9-3.8c-1.4-1.3-2.8-2.5-4.4-3.8
									c-1.5-1.3-3.1-2.5-4.7-3.7c-1.7-1.2-3.3-2.4-5.1-3.6c-1.7-1.2-3.5-2.3-5.3-3.5c-1.9-1.1-3.7-2.3-5.6-3.4l38.7-66.2
									c2.6,1.5,5.2,3.1,7.8,4.7c2.6,1.7,5.2,3.3,7.7,5.1c2.6,1.7,5.1,3.6,7.7,5.5c2.5,1.9,5.1,3.9,7.6,6c2.5,2,5,4.2,7.5,6.4
									c2.4,2.3,4.9,4.6,7.3,7.1c4.8,5,9.4,10.3,13.7,16.4L903,700.6z"/>
							</g>
							<g>
								<path class="st3" d="M913.6,609.4c4.6,2.2,8.9,5.7,11.9,10.2c0.8,1.1,1.4,2.3,2,3.5c0.6,1.2,1.1,2.5,1.6,3.7
									c0.9,2.5,1.4,5.2,1.6,7.7c0.2,2.6,0.1,5.2-0.4,7.7c-0.4,2.5-1.1,5-2.1,7.3c-1.9,4.7-4.8,8.9-8.2,12.6
									c-3.5,3.7-7.5,6.8-11.7,9.3c-2.1,1.3-4.3,2.4-6.5,3.4c-2.2,1-4.3,1.8-6.6,2.5c-2.2,0.7-4.3,1.1-6.4,1.3
									c-1,0.1-2.1,0.2-3.1,0.2c-1,0-2,0-3-0.2c-3.8-0.5-7.2-2-9.9-4.5c6.7,2.8,14.4,2.3,22.1-0.8c3.8-1.5,7.6-3.6,11.2-6.1
									c3.6-2.5,7-5.4,9.8-8.7c2.9-3.3,5.4-7.1,7.1-11.2c1.7-4.1,2.7-8.5,2.8-13C926.1,625.4,921.7,615.9,913.6,609.4z"/>
							</g>
						</g>
						<g>
							<g>
								<path class="st4" d="M908.5,727.4c0.7-2.6,1.2-4.9,1.2-7.1c0-0.3,0.1-0.5,0.1-0.8c0-0.3,0-0.5,0-0.8c0-0.5,0.1-1.1,0-1.6
									c-0.1-0.5-0.1-1-0.1-1.5c-0.1-0.5-0.2-1-0.3-1.5c-0.4-2-1.1-4.1-2.1-6.4c-1-2.2-2.5-4.6-4.2-7.1l62.4-44.6
									c4.3,6,8.3,12.6,11.6,19.9c3.3,7.3,5.9,15.1,7.6,23.3c0.4,2.1,0.7,4.1,1.1,6.2c0.2,2.1,0.4,4.2,0.6,6.3
									c0.2,2.1,0.2,4.2,0.2,6.3l0,3.1c0,1-0.1,2.1-0.1,3.1c-0.3,8.3-1.9,16.2-3.9,23.8L908.5,727.4z"/>
							</g>
							<g>
								<path class="st3" d="M971.3,665c0.9,1.3,1.8,2.7,2.6,4.1c0.8,1.4,1.4,3,2.1,4.6c0.3,0.8,0.6,1.6,0.8,2.4
									c0.3,0.8,0.4,1.7,0.6,2.5c0.4,1.7,0.6,3.3,0.8,5c0.1,1.7,0.1,3.4,0,5c-0.1,1.6-0.3,3.2-0.7,4.8c-0.4,1.6-0.8,3.1-1.3,4.5
									c-0.3,0.7-0.5,1.4-0.9,2.1c-0.3,0.7-0.7,1.3-1.1,2c-1.5,2.5-3.2,4.7-5.1,6.5c-2,1.8-4.2,3.3-6.4,4.4
									c-4.5,2.3-9.6,3.3-14.7,3.6c-5,0.2-10.1-0.4-15-1.2c-2.4-0.4-4.8-0.9-7-1.4c-2.2-0.5-4.5-1-6.4-1.5c-1.9-0.5-3.9-1-5.5-1.5
									c-0.8-0.3-1.6-0.5-2.3-0.8c-0.7-0.3-1.4-0.6-2-0.9c-0.6-0.3-1.2-0.6-1.7-1c-0.2-0.2-0.4-0.4-0.7-0.6
									c-0.2-0.2-0.4-0.4-0.6-0.6c-0.4-0.4-0.7-0.9-0.9-1.4c-0.3-0.5-0.5-1-0.7-1.6c0.4,0.4,0.9,0.8,1.4,1.2c0.5,0.4,1,0.7,1.5,1
									c1.2,0.6,2.4,1.1,3.8,1.5c2.8,0.9,6.2,1.5,10.1,2.1c1.9,0.3,4,0.6,6,0.8c2.1,0.2,4.2,0.5,6.4,0.6c2.2,0.2,4.4,0.2,6.6,0.2
									c2.2,0,4.4-0.1,6.6-0.4c2.2-0.3,4.4-0.7,6.5-1.3c2.1-0.6,4.2-1.4,6.1-2.5c2-1.1,3.8-2.3,5.6-3.9c1.8-1.5,3.3-3.3,4.6-5.4
									c2.8-4.1,4.4-9.3,4.6-15.1c0.1-2.9-0.1-5.9-0.8-8.9c-0.3-1.5-0.7-3.1-1.2-4.5C972.5,668,971.9,666.5,971.3,665z"/>
							</g>
						</g>
						<g>
							<g>
								<path class="st4" d="M884.8,763.7c6-6.3,11.2-12.7,15.3-18.9c4.2-6.2,6.9-12.3,8.4-17.4l73.9,20.5
									c-4.2,14.9-10.8,27.9-18.2,39c-7.4,11.2-15.5,20.9-24,29.7L884.8,763.7z"/>
							</g>
							<g>
								<path class="st3" d="M979,758.2c-0.4,1.5-0.9,3-1.5,4.5c-0.6,1.4-1.3,2.8-2.1,4.1c-0.8,1.3-1.6,2.7-2.6,3.8
									c-1,1.2-2,2.3-3,3.3c-1.1,1-2.2,2-3.4,2.8c-1.2,0.8-2.4,1.5-3.6,2.1c-1.2,0.6-2.5,1.2-3.8,1.6c-0.6,0.2-1.3,0.4-1.9,0.6
									c-0.7,0.2-1.3,0.3-2,0.4c-5.3,0.9-10.4,0.6-15.2-0.8c-4.9-1.4-9.4-3.8-13.4-6.9c-4-3.1-7.5-6.8-10.5-10.7
									c-2.9-3.9-5.5-8.2-7.2-12.3c-0.2-0.5-0.4-1-0.6-1.5c-0.2-0.5-0.4-1-0.6-1.5c-0.4-1-0.7-2-1-3c-0.3-1-0.5-1.9-0.6-2.8
									c-0.2-0.9-0.3-1.8-0.4-2.6c-0.1-0.8-0.1-1.6,0-2.4c0.1-0.8,0.1-1.5,0.2-2.2c0.1-0.7,0.4-1.3,0.6-1.9
									c0.2-0.6,0.5-1.1,0.9-1.7c-0.1,0.6-0.1,1.3-0.1,2c0,0.7,0,1.4,0.1,2.1c0.1,0.7,0.2,1.5,0.4,2.2c0.1,0.8,0.3,1.6,0.5,2.4
									c0.2,0.8,0.5,1.6,0.8,2.5c0.3,0.9,0.7,1.7,1,2.6c0.7,1.7,1.6,3.5,2.6,5.3c2.1,3.6,4.5,7.1,7.3,10.4c2.9,3.3,6.1,6.4,9.7,8.9
									c3.6,2.5,7.6,4.6,11.8,5.9c4.2,1.3,8.8,1.9,13.3,1.3c2.3-0.3,4.6-0.8,6.8-1.7c2.3-0.8,4.4-2.1,6.6-3.6
									c1.1-0.8,2.1-1.6,3.1-2.5c1-1,1.9-2,2.8-3.1s1.8-2.3,2.6-3.5C977.6,761,978.3,759.6,979,758.2z"/>
							</g>
						</g>
						<g>
							<g>
								<path class="st4" d="M842.5,799.3c3.9-2.8,7.8-5.6,11.5-8.5c1.9-1.5,3.8-2.9,5.6-4.3l5.4-4.4c7.1-6,13.8-12.1,19.8-18.3
									l55.5,53c-8.4,8.8-17.2,16.7-26.1,24.2l-6.7,5.5c-2.2,1.9-4.5,3.5-6.8,5.3c-4.5,3.5-9.1,6.8-13.7,10.1L842.5,799.3z"/>
							</g>
							<g>
								<path class="st3" d="M934.2,822.8c-1.5,2-3.4,3.7-5.5,5.2c-2.1,1.5-4.3,2.8-6.7,3.7c-4.8,1.7-10,2.3-14.9,1.4
									c-10-1.6-18.8-7.5-25.1-15.4c-6.2-8-10.1-17.9-10.5-27.3c-0.2-4.7,0.3-9.3,1.9-13.1c0.8-1.9,1.7-3.7,2.9-5.2
									c1.2-1.5,2.6-2.8,4.1-3.9c-1.1,1.5-2.1,3.1-2.8,4.9c-0.8,1.7-1.3,3.6-1.7,5.5c-0.9,3.8-1,7.9-0.3,12.1
									c1.3,8.3,4.9,16.8,10.5,23.6c5.5,6.8,13.2,12.2,21.7,14.3c4.3,1.1,8.8,1.2,13.3,0.3c2.2-0.5,4.5-1.3,6.6-2.3
									C930.1,825.6,932.2,824.4,934.2,822.8z"/>
							</g>
						</g>
						<g>
							<path class="st4" d="M842.5,799.3c-3.1,2.3-3.6,7.7-1.9,15c1.8,7.2,5.7,16.1,11.6,24.9c5.9,8.8,12.7,15.8,19,19.9
								c6.3,4.1,12.2,5.3,15.9,2.6L842.5,799.3z"/>
						</g>
					</g>
				</g>
			</g>
			<path class="st6" d="M833.9,624.4c19.8-37.2,62.2-52.9,74.4-56.4c5.5-1.6,12-1.9,17.5-1.9c-2.4-3.4-5.7-6.1-9.7-7.9
				c-21.5-9.7-59.4-23.4-89.5-16c-26.2,6.4-41.6,73.4-36.6,100.5c2.2,12.3,10.1,33.7,31.1,41.2C819.9,672.6,820.6,649.4,833.9,624.4
				z"/>
		</g>
		<g>
			<g>
				<path class="st14" d="M514.9,52.2c0,0,75.3,14.1,78.8,86.2"/>
				<g>
					<path class="st15" d="M477.6,101.1l-16.7,0L455,81.3c1.4-2.6,14.4-26,43.5-42.1c29.9-16.5,55.8-12.8,56.9-12.6l-3.2,34.8
						c-0.1,0-20-2.6-42.8,10C487.5,83.5,477.7,100.9,477.6,101.1z"/>
				</g>
				<polygon class="st15" points="549.8,26.2 531.1,26.1 535.8,31.2 				"/>
				<g>
					<path class="st8" d="M460.9,101.1l-22.6-19.8c1.4-2.6,14.4-26,43.5-42.1c29.9-16.5,55.8-12.8,56.9-12.6l-3.2,34.8
						c-0.1,0-20-2.6-42.8,10C470.8,83.5,461,100.9,460.9,101.1z"/>
				</g>
			</g>
			<polygon class="st8" points="741.3,202.7 747.3,163.2 718.8,139.2 			"/>
			<g>
				<path class="st14" d="M701.8,70.4c0,0,42.2,23.1,45.7,95.1"/>
				<g>
					<path class="st15" d="M732.3,118.9l22.6-19.8c-1.4-2.6-14.4-26-43.5-42.1c-29.9-16.5-55.8-12.8-56.9-12.6L647.7,68l10.1,11.2
						c0.1,0,20-2.6,42.8,10C722.5,101.3,732.3,118.7,732.3,118.9z"/>
				</g>
				<polygon class="st15" points="722.3,107.7 736.4,89.6 732.3,118.9 				"/>
				<g>
					<path class="st8" d="M722.3,107.7l22.6-19.8c-1.4-2.6-14.4-26-43.5-42.1c-29.9-16.5-55.8-12.8-56.9-12.6l3.2,34.8
						c0.1,0,20-2.6,42.8,10C712.4,90,722.2,107.5,722.3,107.7z"/>
				</g>
			</g>
			<g>
				<ellipse class="st16" cx="681.8" cy="190.9" rx="55.6" ry="60.4"/>
				<path class="st7" d="M717.8,235.7l-71.1,1.2c0,0,7.7,17.3,33.2,15.9C705.2,251.3,711.1,245.7,717.8,235.7z"/>
				<path class="st5" d="M621.3,190.9c0-36.2,27.1-65.7,60.4-65.7c33.3,0,60.4,29.5,60.4,65.7s-27.1,65.7-60.4,65.7
					C648.4,256.6,621.3,227.1,621.3,190.9z M631,190.9c0,30.4,22.8,55.2,50.8,55.2c28,0,50.8-24.8,50.8-55.2s-22.8-55.2-50.8-55.2
					C653.8,135.7,631,160.5,631,190.9z"/>
				<ellipse class="st17" cx="680.7" cy="191.5" rx="27.9" ry="30.3"/>
			</g>
			<polygon class="st8" points="517.5,115.1 597.9,131.7 551.3,217.2 			"/>
			<g>
				<ellipse class="st16" cx="509.9" cy="180.1" rx="46.1" ry="60.4"/>
				<path class="st7" d="M539.8,224.8l-59,1.2c0,0,6.4,17.3,27.5,15.9C529.4,240.4,534.3,234.8,539.8,224.8z"/>
				<path class="st5" d="M459.8,180.1c0-36.2,22.5-65.7,50.1-65.7c27.6,0,50.1,29.5,50.1,65.7s-22.5,65.7-50.1,65.7
					C482.3,245.8,459.8,216.3,459.8,180.1z M467.8,180.1c0,30.4,18.9,55.2,42.1,55.2c23.2,0,42.1-24.8,42.1-55.2
					s-18.9-55.2-42.1-55.2C486.7,124.9,467.8,149.6,467.8,180.1z"/>
				<ellipse class="st17" cx="509" cy="180.7" rx="23.1" ry="30.3"/>
			</g>
		</g>
	</g>
</g>
<g id="Spring">
</g>
<g id="Eileen">
</g>
<g id="Levi">
</g>
<g id="Oscar">
</g>
<g id="Rex">
</g>
</svg>
