<?xml version="1.0" encoding="utf-8"?>
<!-- Generator: Adobe Illustrator 24.2.1, SVG Export Plug-In . SVG Version: 6.00 Build 0)  -->
<svg version="1.1" xmlns="http://www.w3.org/2000/svg" xmlns:xlink="http://www.w3.org/1999/xlink" x="0px" y="0px"
	 viewBox="0 0 1336.9 1389.3" style="enable-background:new 0 0 1336.9 1389.3;" xml:space="preserve">
<style type="text/css">
	.st0{clip-path:url(#SVGID_1_);fill:#324F6B;}
	.st1{clip-path:url(#SVGID_1_);}
	.st2{fill:none;stroke:#273844;stroke-width:6.3617;stroke-miterlimit:10;}
	.st3{fill:#A3642B;}
	.st4{fill:#324F6B;}
	.st5{fill:#8A96AB;}
	.st6{fill:#B8C1CA;}
	.st7{fill:#228A54;}
	.st8{fill:#25985D;}
	.st9{fill:#155D41;}
	.st10{clip-path:url(#SVGID_2_);fill:#228A54;}
	.st11{clip-path:url(#SVGID_2_);fill:#25985D;}
	.st12{fill:#1C784C;}
	.st13{clip-path:url(#SVGID_3_);fill:#324F6B;}
	.st14{clip-path:url(#SVGID_3_);}
	.st15{fill:#E8863D;}
	.st16{clip-path:url(#SVGID_4_);fill:#C5E6F9;}
	.st17{clip-path:url(#SVGID_4_);fill:none;stroke:#0071BC;stroke-width:6.9295;stroke-miterlimit:10;}
	.st18{clip-path:url(#SVGID_5_);fill:#273844;}
	.st19{clip-path:url(#SVGID_5_);fill:#A3642B;}
	.st20{clip-path:url(#SVGID_5_);fill:#E8863D;}
	.st21{clip-path:url(#SVGID_6_);fill:#273844;}
	.st22{clip-path:url(#SVGID_6_);fill:#A3642B;}
	.st23{clip-path:url(#SVGID_6_);fill:#E8863D;}
</style>
<g id="Sergeant">
	<g>
		<g>
			<g>
				<defs>
					<path id="SVGID_179_" d="M707.2,719.6c-15.5-4.6-33.2-4.6-51.9,1.1L197,859.5C136.6,877.8,88.2,947.4,89,1015l0.1,7.1
						c0.5,50.1,27.9,85,66.5,92.3l182.6,44.7l514.9-227.8l38.7-166.6L707.2,719.6z"/>
				</defs>
				<clipPath id="SVGID_1_">
					<use xlink:href="#SVGID_179_"  style="overflow:visible;"/>
				</clipPath>
				<polygon class="st0" points="102.1,882.3 660.5,699.7 706.9,696.6 944.4,770.4 941.2,965.7 320.6,1169.4 81,1114.5 64.2,960.4 
									"/>
				<g class="st1">
					<line class="st2" x1="81" y1="1071.2" x2="309" y2="1126.1"/>
					<line class="st2" x1="62" y1="1005.8" x2="290" y2="1060.7"/>
					<line class="st2" x1="78.9" y1="935.1" x2="306.9" y2="990"/>
					<line class="st2" x1="133.8" y1="874.9" x2="361.8" y2="929.8"/>
					<line class="st2" x1="226.7" y1="838" x2="454.6" y2="892.9"/>
					<line class="st2" x1="552.8" y1="862.3" x2="324.8" y2="807.4"/>
					<line class="st2" x1="421.9" y1="776.8" x2="649.9" y2="831.7"/>
					<line class="st2" x1="518" y1="747.2" x2="745.9" y2="802.1"/>
					<line class="st2" x1="614" y1="720.8" x2="842" y2="775.7"/>
				</g>
			</g>
			<g>
				<path class="st3" d="M844.8,1018.5l-458.2,138.8c-60.4,18.3-109.9-21.7-110.7-89.3l-0.1-7.1c-0.7-67.6,47.6-137.3,108-155.5
					L842,766.5c60.4-18.3,109.9,21.7,110.7,89.3l0.1,7.1C953.5,930.5,905.1,1000.2,844.8,1018.5z"/>
				<path class="st4" d="M383.2,1134c-47.3,14.3-86.3-19.7-86.9-75.8s37.4-113.5,84.7-127.8l464.4-140.6
					c47.3-14.3,86.3,19.7,86.9,75.8c0.6,56.1-37.4,113.5-84.7,127.8L383.2,1134z"/>
				
					<ellipse transform="matrix(0.4154 -0.9096 0.9096 0.4154 -716.1475 950.8845)" class="st5" cx="381.7" cy="1032.6" rx="109.6" ry="80"/>
				<path class="st6" d="M388.1,1096.1c-34.9,14.7-64.5-11.1-61.4-53.6c2.3-31.4,22.9-62.5,48.7-73.4c34.9-14.7,64.5,11.1,61.4,53.6
					C434.6,1054.1,413.9,1085.2,388.1,1096.1z"/>
				
					<ellipse transform="matrix(0.4154 -0.9096 0.9096 0.4154 -316.1996 1291.5831)" class="st5" cx="846.8" cy="891.8" rx="109.6" ry="80"/>
				
					<ellipse transform="matrix(0.4137 -0.9104 0.9104 0.4137 -315.4324 1293.8069)" class="st6" cx="846.8" cy="891.8" rx="70.4" ry="51.6"/>
				
					<ellipse transform="matrix(0.4154 -0.9096 0.9096 0.4154 -516.1735 1121.2338)" class="st5" cx="614.3" cy="962.2" rx="109.6" ry="80"/>
				
					<ellipse transform="matrix(0.4137 -0.9104 0.9104 0.4137 -515.8672 1123.3955)" class="st7" cx="614.3" cy="962.2" rx="70.4" ry="51.6"/>
			</g>
		</g>
		<path class="st8" d="M706,510.1c-38.5-21.7-90.4-2.4-116,42.9c-10.1,18-14.6,37.4-13.9,55.6L361.1,990.7
			c-17.6,31.2-6.5,70.7,24.7,88.3l0,0c31.2,17.6,70.7,6.5,88.3-24.7l215.1-382.1c15.9-8.9,30.2-22.7,40.3-40.7
			C755,586.1,744.5,531.7,706,510.1z"/>
		<g>
			<path class="st9" d="M399.5,1082.5L399.5,1082.5c-31.2-17.6-42.2-57.1-24.7-88.3l222-394.3l113,63.6l-222,394.3
				C470.2,1089,430.7,1100,399.5,1082.5z"/>
			
				<ellipse transform="matrix(0.4906 -0.8714 0.8714 0.4906 -176.0554 890.3704)" class="st9" cx="673.5" cy="595.8" rx="94.3" ry="80"/>
			
				<ellipse transform="matrix(0.4906 -0.8714 0.8714 0.4906 -176.0554 890.3704)" class="st4" cx="673.5" cy="595.8" rx="53.1" ry="45"/>
		</g>
		<g>
			
				<ellipse transform="matrix(0.4906 -0.8714 0.8714 0.4906 -128.969 1055.3459)" class="st7" cx="838.1" cy="638" rx="53.1" ry="45"/>
			<g>
				
					<ellipse transform="matrix(0.4906 -0.8714 0.8714 0.4906 -176.0554 890.3704)" class="st3" cx="673.5" cy="595.8" rx="53.1" ry="45"/>
				<polygon class="st3" points="689.1,545.5 854.6,587.9 823.4,688.5 656.2,645.6 				"/>
			</g>
		</g>
		<g>
			<defs>
				<path id="SVGID_181_" d="M788.2,529.4c0,0,30.3,58-23.3,101.5c-54.5,44.3-111.7,7.7-111.7,7.7l-236.9-333c0,0,32,10.5,65.8-16.6
					c35.2-28.2,30.1-60.9,30.1-60.9L788.2,529.4z"/>
			</defs>
			<clipPath id="SVGID_2_">
				<use xlink:href="#SVGID_181_"  style="overflow:visible;"/>
			</clipPath>
			<polygon class="st10" points="354,293.5 558.7,168.9 856.3,548.9 755,707.2 594.6,677.6 			"/>
			<polygon class="st11" points="463.7,228 795.1,612.2 833.1,498.2 508.1,183.7 			"/>
		</g>
		<g>
			<path class="st8" d="M399.6,1084.5l178.1,46.4l21.1-68.6l-229.5-69.9c0,0-10.8,13.9-9.8,38.8
				C360.6,1057.9,399.6,1084.5,399.6,1084.5z"/>
			<polygon class="st8" points="530.6,1042.1 359.6,997.8 556.1,646.8 727.1,691.1 			"/>
		</g>
		<path class="st12" d="M385.8,1079c6.6,3.7,13.6,6.1,20.7,7.3l171.3,44.7l0.4-1.4c24.6,2.2,49.4-9.8,62.3-32.7l12.5-22.2
			l-295.1-77.2C345.2,1027.4,356.8,1062.6,385.8,1079z"/>
		<path class="st8" d="M872.4,552.6c-38.5-21.7-90.4-2.4-116,42.9c-10.1,18-14.6,37.4-13.9,55.6l-215.1,382.1
			c-17.6,31.2-6.5,70.7,24.7,88.3l0,0c31.2,17.6,70.7,6.5,88.3-24.7l215.1-382.1c15.9-8.9,30.2-22.7,40.3-40.7
			C921.4,628.7,910.9,574.3,872.4,552.6z"/>
		<g>
			<path class="st12" d="M564.1,1124.7L564.1,1124.7c-31.2-17.6-42.2-57.1-24.7-88.3l222-394.3l113,63.6l-222,394.3
				C634.8,1131.2,595.3,1142.3,564.1,1124.7z"/>
			
				<ellipse transform="matrix(0.4906 -0.8714 0.8714 0.4906 -128.969 1055.3459)" class="st12" cx="838.1" cy="638" rx="94.3" ry="80"/>
			
				<ellipse transform="matrix(0.4906 -0.8714 0.8714 0.4906 -128.969 1055.3459)" class="st3" cx="838.1" cy="638" rx="53.1" ry="45"/>
		</g>
		<g>
			<g>
				<defs>
					<path id="SVGID_183_" d="M1057.5,807.2c-15.5-4.6-33.2-4.6-51.9,1.1L547.4,947.1c-60.4,18.3-108.7,87.9-108,155.5l0.1,7.1
						c0.5,50.1,27.9,85,66.5,92.3l182.6,44.7l514.9-227.8l38.7-166.6L1057.5,807.2z"/>
				</defs>
				<clipPath id="SVGID_3_">
					<use xlink:href="#SVGID_183_"  style="overflow:visible;"/>
				</clipPath>
				<polygon class="st13" points="452.5,969.9 1010.8,787.3 1057.3,784.2 1294.7,858 1291.6,1053.3 671,1257 431.4,1202.1 
					414.5,1048 				"/>
				<g class="st14">
					<line class="st2" x1="431.4" y1="1158.8" x2="659.4" y2="1213.7"/>
					<line class="st2" x1="412.4" y1="1093.4" x2="640.4" y2="1148.3"/>
					<line class="st2" x1="429.3" y1="1022.7" x2="657.3" y2="1077.6"/>
					<line class="st2" x1="484.2" y1="962.5" x2="712.2" y2="1017.4"/>
					<line class="st2" x1="577.1" y1="925.6" x2="805" y2="980.5"/>
					<line class="st2" x1="675.2" y1="895" x2="903.2" y2="949.9"/>
					<line class="st2" x1="772.3" y1="864.4" x2="1000.3" y2="919.3"/>
					<line class="st2" x1="868.4" y1="834.8" x2="1096.3" y2="889.7"/>
					<line class="st2" x1="964.4" y1="808.4" x2="1192.4" y2="863.3"/>
				</g>
			</g>
			<g>
				<path class="st3" d="M1195.2,1106.1l-458.2,138.8c-60.4,18.3-109.9-21.7-110.7-89.3l-0.1-7.1c-0.7-67.6,47.6-137.3,108-155.5
					l458.2-138.8c60.4-18.3,109.9,21.7,110.7,89.3l0.1,7.1C1303.9,1018.1,1255.5,1087.8,1195.2,1106.1z"/>
				<path class="st4" d="M733.6,1221.6c-47.3,14.3-86.3-19.7-86.9-75.8c-0.6-56.1,37.4-113.5,84.7-127.8l464.4-140.6
					c47.3-14.3,86.3,19.7,86.9,75.8c0.6,56.1-37.4,113.5-84.7,127.8L733.6,1221.6z"/>
				
					<ellipse transform="matrix(0.4154 -0.9096 0.9096 0.4154 -591.0019 1320.8167)" class="st5" cx="732.1" cy="1120.2" rx="109.6" ry="80"/>
				<path class="st6" d="M738.5,1183.7c-34.9,14.7-64.5-11.1-61.4-53.6c2.3-31.4,22.9-62.5,48.7-73.4c34.9-14.7,64.5,11.1,61.4,53.6
					C784.9,1141.7,764.3,1172.8,738.5,1183.7z"/>
				
					<ellipse transform="matrix(0.4154 -0.9096 0.9096 0.4154 -191.054 1661.5153)" class="st5" cx="1197.2" cy="979.4" rx="109.6" ry="80"/>
				
					<ellipse transform="matrix(0.4137 -0.9104 0.9104 0.4137 -189.7464 1664.1693)" class="st6" cx="1197.2" cy="979.4" rx="70.4" ry="51.6"/>
				
					<ellipse transform="matrix(0.4154 -0.9096 0.9096 0.4154 -391.028 1491.1659)" class="st5" cx="964.7" cy="1049.8" rx="109.6" ry="80"/>
				
					<ellipse transform="matrix(0.4137 -0.9104 0.9104 0.4137 -390.1812 1493.7581)" class="st6" cx="964.7" cy="1049.8" rx="70.4" ry="51.6"/>
			</g>
		</g>
		<g>
			<circle class="st15" cx="426.5" cy="221.4" r="96.1"/>
			<path class="st3" d="M469.3,135.4c-7.1-3.5-14.8-6.2-22.8-7.9c-45.4,0-83.8,40-83.8,86.1c0,46.2,34.1,101.8,83.8,101.8
				c8-1.7,15.6-4.4,22.8-7.9c-34.4,0-66.8-43.4-66.8-86C402.5,178.8,439.1,135.4,469.3,135.4z"/>
		</g>
		<g>
			<g>
				<g>
					<g>
						<path class="st12" d="M123.7,442.9c-40.3-21.2-12.9-65.7,61-99.2c73.9-33.5,166.8-43.5,207-22.3l-46.6,21.1
							c-26.3-13.8-86.9-7.3-135.1,14.6s-66.1,50.9-39.8,64.7L123.7,442.9z"/>
					</g>
				</g>
				<path class="st12" d="M149.2,389.2l23.2-31.7l96-32l79.9,4.9l-39-123.5c0,0-84.4-2.8-85.5-2.5c-1.1,0.4-97.8,39.4-97.8,39.4
					s-23.6,47.8-22.2,48.9C105.2,293.8,149.2,389.2,149.2,389.2z"/>
				<polygon class="st7" points="105.9,424 70.8,300.9 97.9,294.2 123.9,442.2 				"/>
				<g>
					<g>
						<path class="st8" d="M88.6,320.8c-40.3-21.2-12.9-65.7,61-99.2c73.9-33.5,166.8-43.5,207-22.3L310,220.4
							c-26.3-13.8-86.9-7.3-135.1,14.6s-66.1,50.9-39.8,64.7L88.6,320.8z"/>
					</g>
				</g>
				<polygon class="st9" points="171.4,421.5 123.9,442.2 87.6,320.3 135.1,299.6 				"/>
			</g>
			
				<ellipse transform="matrix(0.9648 -0.263 0.263 0.9648 -74.6188 112.5185)" class="st5" cx="382.9" cy="334.9" rx="48.4" ry="18.8"/>
			<polygon class="st3" points="301.2,226.3 336.4,348.7 429.9,322.8 394.4,199.8 			"/>
			<g>
				<polygon class="st9" points="356.3,230.2 390,351.5 425.9,347.8 394.2,229.6 				"/>
				<path class="st12" d="M478.6,358.8l0.2-0.2L443,232.6l-28.1,19.7l-45.4,46.1L302.6,329L203,347.6l35.2,122.1
					c68.6,4.3,164.1-24.2,212.8-63.6C472.3,388.8,481.2,372.3,478.6,358.8z"/>
				<g>
					<g>
						<path class="st8" d="M203,347.6C271.6,352,367,323.4,415.8,284c48.7-39.4,32.6-75-36-79.3L349,229.5
							c44.8,2.8,55.3,26,23.5,51.8c-31.8,25.7-94.1,44.3-138.9,41.5L203,347.6z"/>
					</g>
				</g>
			</g>
			
				<ellipse transform="matrix(0.9648 -0.263 0.263 0.9648 -43.7476 98.9662)" class="st15" cx="347.7" cy="212.9" rx="48.4" ry="18.8"/>
		</g>
		<g>
			<g>
				<polygon class="st9" points="558.7,914.9 458.8,890.8 506.2,803.6 605.9,828.1 				"/>
				<g>
					<defs>
						<polygon id="SVGID_185_" points="558.7,914.9 462.6,891.5 508.7,807.3 604.7,830.6 						"/>
					</defs>
					<clipPath id="SVGID_4_">
						<use xlink:href="#SVGID_185_"  style="overflow:visible;"/>
					</clipPath>
					<polygon class="st16" points="566.1,926 449.6,897.9 501.3,796.2 617.8,824.3 					"/>
					<path class="st17" d="M483.3,844.9c2.8-4.7,8.6-7.7,14.2-7.4c5.6,0.3,10.8,3.9,12.6,8.8c1.9,5.1,0.4,10.8,0.4,16.2
						c0,5.5,2.8,11.8,8.6,12.4c6,0.6,10.6-5,13.8-9.9c3.3-4.9,8.4-10.4,14.2-9.1c4.1,0.9,6.4,4.9,7.3,8.8c0.9,3.8,1.1,8,3,11.4
						c3,5.3,10.4,7.9,16.6,5.8c6.2-2.1,19.2-8.6,18.3-14.5"/>
				</g>
			</g>
			<g>
				<polygon class="st9" points="527.5,764.4 556.3,772.2 598.2,696.8 569.4,689.1 				"/>
				<g>
					<defs>
						<polygon id="SVGID_187_" points="532.6,765.8 556.5,772.2 596.4,700.2 572.5,693.8 						"/>
					</defs>
					<clipPath id="SVGID_5_">
						<use xlink:href="#SVGID_187_"  style="overflow:visible;"/>
					</clipPath>
					<polygon class="st18" points="561.6,776.5 524.6,766.6 567.7,689 604.6,698.9 					"/>
					<polygon class="st19" points="541.1,729 585.6,741 604.9,706.2 560.4,694.3 					"/>
					<polygon class="st20" points="542.9,725.8 587.4,737.7 612.5,692.4 568.1,680.5 					"/>
				</g>
			</g>
			<g>
				<polygon class="st9" points="602.8,782.7 631.6,790.5 673.5,715.1 644.7,707.4 				"/>
				<g>
					<defs>
						<polygon id="SVGID_189_" points="607.9,784.1 631.8,790.5 671.7,718.5 647.8,712.1 						"/>
					</defs>
					<clipPath id="SVGID_6_">
						<use xlink:href="#SVGID_189_"  style="overflow:visible;"/>
					</clipPath>
					<polygon class="st21" points="636.9,794.8 599.9,784.9 642.9,707.3 679.9,717.2 					"/>
					<polygon class="st22" points="616.4,747.3 660.9,759.3 680.2,724.5 635.7,712.6 					"/>
					<polygon class="st23" points="618.2,744.1 662.7,756 687.8,710.7 643.3,698.8 					"/>
				</g>
			</g>
			<g>
				<path class="st3" d="M637.2,820.7L637.2,820.7l-0.2-0.2c0,0,0,0-0.1,0l-4.2-3.3l-0.9,1.2c-6.1-0.8-12.7,3.7-15.2,10.4
					c-1.2,3.4-1.2,6.7-0.1,9.4l-0.9,1.2l4.2,3.3l0,0c1,0.8,2.2,1.4,3.6,1.7c6.4,1.4,13.6-3.2,16.2-10.3
					C641.6,828.7,640.4,823.6,637.2,820.7z"/>
				
					<ellipse transform="matrix(0.605 -0.7962 0.7962 0.605 -412.9276 824.2335)" class="st15" cx="624.3" cy="828.3" rx="14" ry="11.5"/>
			</g>
			<g>
				<path class="st3" d="M504.6,781.5L504.6,781.5l-0.2-0.2c0,0,0,0-0.1,0l-4.2-3.3l-0.9,1.2c-6.1-0.8-12.7,3.7-15.2,10.4
					c-1.2,3.4-1.2,6.7-0.1,9.4l-0.9,1.2l4.2,3.3l0,0c1,0.8,2.2,1.4,3.6,1.7c6.4,1.4,13.6-3.2,16.2-10.3
					C509,789.5,507.8,784.4,504.6,781.5z"/>
				
					<ellipse transform="matrix(0.605 -0.7962 0.7962 0.605 -434.1187 703.1809)" class="st15" cx="491.7" cy="789.1" rx="14" ry="11.5"/>
			</g>
		</g>
	</g>
</g>
<g id="Elton">
</g>
<g id="Fred">
</g>
<g id="Bubbles">
</g>
<g id="Dolores">
</g>
<g id="Dolly">
</g>
<g id="Cosmo">
</g>
<g id="Belle">
</g>
<g id="Rivet">
</g>
<g id="Spring">
</g>
<g id="Eileen">
</g>
<g id="Levi">
</g>
<g id="Oscar">
</g>
<g id="Rex">
</g>
</svg>
