<?xml version="1.0" encoding="utf-8"?>
<!-- Generator: Adobe Illustrator 24.2.1, SVG Export Plug-In . SVG Version: 6.00 Build 0)  -->
<svg version="1.1" xmlns="http://www.w3.org/2000/svg" xmlns:xlink="http://www.w3.org/1999/xlink" x="0px" y="0px"
	 viewBox="0 0 1336.9 1389.3" style="enable-background:new 0 0 1336.9 1389.3;" xml:space="preserve">
<style type="text/css">
	.st0{fill:#C5E6F9;}
	.st1{fill:#E8DB1E;}
	.st2{fill:#324F6B;}
	.st3{clip-path:url(#SVGID_1_);}
	.st4{fill:none;stroke:#DDDDDD;stroke-width:3.0982;stroke-miterlimit:10;}
	.st5{fill:#8A96AB;}
	.st6{fill:#DDDDDD;}
	.st7{clip-path:url(#SVGID_2_);}
	.st8{fill:#8F8712;}
	.st9{clip-path:url(#SVGID_3_);fill:#BFA13D;}
	.st10{clip-path:url(#SVGID_3_);fill:#DDBA46;}
	.st11{clip-path:url(#SVGID_3_);fill:#324F6B;}
	.st12{fill:#897E36;}
	.st13{fill:#C7BC1A;}
	.st14{fill:#3F6C91;}
	.st15{fill:none;stroke:#324F6B;stroke-width:3.0982;stroke-miterlimit:10;}
	.st16{fill:#A39B15;}
	.st17{fill:none;stroke:#666666;stroke-width:3.0982;stroke-miterlimit:10;}
	.st18{fill:none;stroke:#324F6B;stroke-width:6.1964;stroke-miterlimit:10;}
	.st19{fill:#BFA13D;}
	.st20{fill:#DDBA46;}
</style>
<g id="Sergeant">
</g>
<g id="Elton">
</g>
<g id="Fred">
</g>
<g id="Bubbles">
</g>
<g id="Dolores">
</g>
<g id="Dolly">
</g>
<g id="Cosmo">
</g>
<g id="Belle">
</g>
<g id="Rivet">
</g>
<g id="Spring">
	<g>
		<g>
			<path class="st0" d="M654.4,709.3c0,0,17.2-186,45.5-210.9c28.3-24.9,105.1-14.6,174.6,42.6S964.3,719.8,977,793.8L654.4,709.3z"
				/>
			<path class="st0" d="M692.4,509.4c0,0,16.3-32.4,74.4-43.7c54.4-10.6,123.8-13.9,195,11.3c73.4,26,114.1,90.5,148.4,153.2
				c15.1,27.7,25.4,142.5,25.4,142.5L709.9,594.5C709.9,594.5,682.1,544.3,692.4,509.4z"/>
			<path class="st1" d="M869.2,735c0,0-7.7-189.9,20.6-214.8s103-7.6,172.4,49.6c69.5,57.1,89.8,178.9,102.6,252.9L869.2,735z"/>
			
				<ellipse transform="matrix(0.1128 -0.9936 0.9936 0.1128 134.6183 1333.8158)" class="st2" cx="814.2" cy="591.5" rx="30.8" ry="17.1"/>
			<ellipse transform="matrix(0.134 -0.991 0.991 0.134 51.8867 1214.8501)" class="st2" cx="721" cy="577.7" rx="30.8" ry="17.1"/>
			<path class="st2" d="M740.2,631.6l41.6,6.3c0,0-7.4,20-25.7,16C737.9,649.9,740.2,631.6,740.2,631.6z"/>
		</g>
		<g>
			<g>
				<defs>
					<path id="SVGID_63_" d="M916.7,1017.4l52.7-29.4l-122.9-18.5c-8.7-1.6-17.7-2.1-27.1-1.5l-520.5,38.7
						c-72.7,5.4-131.9,71.6-131.2,147.7l0.1,7.9c0.6,66.7,46.9,117.7,107.3,124.3l124.4,18.5l62.5-34.8l359.8-36.5
						c64.7-6.6,116-69,115.4-139.5l-0.1-7.4C936.8,1060.8,929.3,1036.8,916.7,1017.4z"/>
				</defs>
				<use xlink:href="#SVGID_63_"  style="overflow:visible;fill:#324F6B;"/>
				<clipPath id="SVGID_1_">
					<use xlink:href="#SVGID_63_"  style="overflow:visible;"/>
				</clipPath>
				<g class="st3">
					<line class="st4" x1="497.8" y1="1296.3" x2="106.1" y2="1238.7"/>
					<line class="st4" x1="485.5" y1="1240.7" x2="93.8" y2="1183.2"/>
					<line class="st4" x1="491.6" y1="1180.1" x2="100" y2="1122.5"/>
					<line class="st4" x1="519.4" y1="1123.6" x2="127.7" y2="1066"/>
					<line class="st4" x1="554.3" y1="1077.3" x2="162.7" y2="1019.7"/>
					<line class="st4" x1="604.7" y1="1044.4" x2="213" y2="986.8"/>
					<line class="st4" x1="713.7" y1="1031" x2="322" y2="973.5"/>
					<line class="st4" x1="838.1" y1="1021.8" x2="446.4" y2="964.2"/>
					<line class="st4" x1="951.1" y1="1013.9" x2="559.5" y2="956.3"/>
					<line class="st4" x1="1031.3" y1="1002.9" x2="639.7" y2="945.4"/>
				</g>
			</g>
			<g>
				<path class="st0" d="M952.2,1253.6l-520.4,52.9c-72.7,7.4-132.9-48.3-133.5-124.4l-0.1-7.9c-0.6-76.1,58.5-142.3,131.2-147.7
					L950,987.7c64.7-4.8,117,48.5,117.6,119l0.1,7.4C1068.2,1184.6,1016.9,1247,952.2,1253.6z"/>
				<path class="st2" d="M427.9,1279.9c-56.9,5.6-104.2-41-104.7-104c-0.5-63,45.8-117.9,102.8-122.3l527.5-40.6
					c50.7-3.9,92,40.7,92.5,99.3c0.5,58.7-40,110.4-90.7,115.4L427.9,1279.9z"/>
				<path class="st5" d="M528.4,1158.2c0.5,61.9-44.4,116.6-100.8,122.2c-57.1,5.6-104.2-40.9-104.8-104.1
					c-0.5-63.1,45.8-117.9,102.8-122.3C482.1,1049.7,527.8,1096.3,528.4,1158.2z"/>
				<path class="st6" d="M434,1239c-41.9,8.6-77.5-26.8-73.7-73.5c2.8-34.5,27.9-64.3,58.9-70.2c41.6-8,76.6,27.5,72.8,73.6
					C489.3,1203,464.7,1232.7,434,1239z"/>
				<path class="st5" d="M1046.4,1112.6c0.5,58.8-39.9,110.5-90.8,115.5c-51.4,5.1-93.8-39.3-94.3-99.2
					c-0.5-59.9,41.1-111.7,92.5-115.6C1004.7,1009.4,1045.9,1053.9,1046.4,1112.6z"/>
				<path class="st6" d="M961.4,1188.9c-37.7,8-69.8-25.8-66.3-70.1c2.5-32.8,25.1-60.9,53-66.4c37.5-7.4,69,26.4,65.6,70.1
					C1011.2,1155,989.1,1183.1,961.4,1188.9z"/>
				<path class="st5" d="M794.1,1134.8c0.5,60.3-42.1,113.4-95.6,118.7c-54.1,5.4-98.8-40.1-99.3-101.6
					c-0.5-61.5,43.4-114.7,97.5-118.9C750.2,1029,793.6,1074.6,794.1,1134.8z"/>
				<path class="st6" d="M704.6,1213.3c-39.7,8.3-73.5-26.3-69.9-71.8c2.7-33.6,26.4-62.6,55.8-68.3c39.5-7.7,72.6,27,69.1,71.8
					C757.1,1178.3,733.8,1207.2,704.6,1213.3z"/>
			</g>
		</g>
		<g>
			<g>
				<defs>
					<path id="SVGID_62_" d="M1186,1057.9l52.7-29.4l-122.9-18.5c-8.7-1.6-17.7-2.1-27.1-1.5l-520.5,38.7
						c-72.7,5.4-131.9,71.6-131.2,147.7l0.1,7.9c0.6,66.7,46.9,117.7,107.3,124.3l124.4,18.5l62.5-34.8l359.8-36.5
						c64.7-6.6,116-69,115.4-139.5l-0.1-7.4C1206.1,1101.2,1198.7,1077.3,1186,1057.9z"/>
				</defs>
				<use xlink:href="#SVGID_62_"  style="overflow:visible;fill:#324F6B;"/>
				<clipPath id="SVGID_2_">
					<use xlink:href="#SVGID_62_"  style="overflow:visible;"/>
				</clipPath>
				<g class="st7">
					<line class="st4" x1="767.1" y1="1336.7" x2="375.5" y2="1279.1"/>
					<line class="st4" x1="754.8" y1="1281.2" x2="363.1" y2="1223.6"/>
					<line class="st4" x1="761" y1="1220.5" x2="369.3" y2="1163"/>
					<line class="st4" x1="788.7" y1="1164" x2="397.1" y2="1106.4"/>
					<line class="st4" x1="823.7" y1="1117.7" x2="432" y2="1060.2"/>
					<line class="st4" x1="874" y1="1084.8" x2="482.4" y2="1027.3"/>
					<line class="st4" x1="983" y1="1071.5" x2="591.3" y2="1013.9"/>
					<line class="st4" x1="1107.4" y1="1062.2" x2="715.7" y2="1004.7"/>
					<line class="st4" x1="1220.5" y1="1054.3" x2="828.8" y2="996.8"/>
					<line class="st4" x1="1300.6" y1="1043.4" x2="909" y2="985.8"/>
				</g>
			</g>
			<g>
				<path class="st0" d="M1221.6,1294l-520.4,52.9c-72.7,7.4-132.9-48.3-133.5-124.4l-0.1-7.9c-0.6-76.1,58.5-142.3,131.2-147.7
					l520.5-38.7c64.7-4.8,117,48.5,117.6,119l0.1,7.4C1337.5,1225,1286.2,1287.4,1221.6,1294z"/>
				<path class="st2" d="M697.3,1320.3c-56.9,5.6-104.2-41-104.7-104c-0.5-63,45.8-117.9,102.8-122.3l527.5-40.6
					c50.7-3.9,92,40.7,92.5,99.3c0.5,58.7-40,110.4-90.7,115.4L697.3,1320.3z"/>
				<path class="st5" d="M797.7,1198.7c0.5,61.9-44.4,116.6-100.8,122.2c-57.1,5.6-104.2-40.9-104.8-104.1
					c-0.5-63.1,45.8-117.9,102.8-122.3C751.4,1090.1,797.2,1136.8,797.7,1198.7z"/>
				<path class="st6" d="M703.3,1279.5c-41.9,8.6-77.5-26.8-73.7-73.5c2.8-34.5,27.9-64.3,58.9-70.2c41.6-8,76.6,27.5,72.8,73.6
					C758.6,1243.4,734.1,1273.2,703.3,1279.5z"/>
				<path class="st5" d="M1315.7,1153.1c0.5,58.8-39.9,110.5-90.8,115.5c-51.4,5.1-93.8-39.3-94.3-99.2
					c-0.5-59.9,41.1-111.7,92.5-115.6C1274,1049.8,1315.3,1094.3,1315.7,1153.1z"/>
				<path class="st6" d="M1230.7,1229.3c-37.7,8-69.8-25.8-66.3-70.1c2.5-32.8,25.1-60.9,53-66.4c37.5-7.4,69,26.4,65.6,70.1
					C1280.5,1195.4,1258.5,1223.5,1230.7,1229.3z"/>
				<path class="st5" d="M1063.4,1175.3c0.5,60.3-42.1,113.4-95.6,118.7c-54.1,5.4-98.8-40.1-99.3-101.6
					c-0.5-61.5,43.4-114.7,97.5-118.9C1019.5,1069.4,1062.9,1115,1063.4,1175.3z"/>
				<path class="st6" d="M973.9,1253.8c-39.7,8.3-73.5-26.3-69.9-71.8c2.7-33.6,26.4-62.6,55.8-68.3c39.5-7.7,72.6,27,69.1,71.8
					C1026.4,1218.8,1003.1,1247.7,973.9,1253.8z"/>
			</g>
		</g>
		<g>
			<path class="st1" d="M805.2,973.3l-449.3,32.1L316,769.2c-12.1-71.9,29-142.3,78.5-134.3l422.1,122.7
				c14.5,4.2,23.3,25.8,19.3,47.6L805.2,973.3z"/>
			<polygon class="st1" points="394.5,634.9 481.9,648.3 443.2,1018.7 355.9,1005.4 			"/>
			<path class="st8" d="M892.6,986.7l-449.3,32.1l-39.8-236.2c-12.1-71.9,29-142.3,78.5-134.3L903.9,771
				c14.5,4.2,23.3,25.8,19.3,47.6L892.6,986.7z"/>
		</g>
		<g>
			<g>
				<defs>
					<path id="SVGID_61_" d="M563.5,609L228.5,95.3l31.1-46.2l-78.1-10.7l0,0c-6.7-0.7-13.9,1.2-19.4,6.2v0
						c-26.7,24.6-36.2,63.2-17.5,94.3l162.3,269.8c0.7,1.2,1.4,2.5,1.9,3.8L416.8,713c-6.5,16.8-10.9,35.1-12.8,54.3
						c-8.9,91.9,44,170.9,118.6,178.3l72.8,9.9l-19.9-17C630,918.2,673,859.3,680,787.1C688.8,696.1,637,617.7,563.5,609z"/>
				</defs>
				<use xlink:href="#SVGID_61_"  style="overflow:visible;fill:#B8A340;"/>
				<clipPath id="SVGID_3_">
					<use xlink:href="#SVGID_61_"  style="overflow:visible;"/>
				</clipPath>
				<path class="st9" d="M243.8,0c9.3,3.1,539.7,650.7,539.7,650.7l-24.7,246.7l-175.8,175.8c0,0-191.2-141.9-197.4-154.2
					S77.3,111,77.3,111l83.6-89.4L243.8,0z"/>
				<path class="st10" d="M160.9,21.6L301.4,47c0,0-73.3,82.2-78.8,81.6c-5.5-0.7-112-14.4-112-14.4L160.9,21.6z"/>
				<path class="st11" d="M207.6,41.5c0,0-6.5-1.3-13.7,2c-14.2,6.5-36.2,25.2-37.5,62.4l26.4,3.1c0,0,5.7-52.9,42.7-64.2
					S207.6,41.5,207.6,41.5z"/>
			</g>
			<g>
				
					<ellipse transform="matrix(0.1439 -0.9896 0.9896 0.1439 -250.1305 1285.8086)" class="st12" cx="618.1" cy="787.5" rx="169.6" ry="138.2"/>
				<path class="st12" d="M653.1,689.8L527.3,819L384.8,422.8c-0.6-1.3-1.2-2.6-1.9-3.8L220.6,149.3c-18.7-31-9.2-69.7,17.5-94.3
					l0,0c10.7-9.8,28-7.9,35.4,2.9l384.7,589.9C666.4,660.4,664.1,679.4,653.1,689.8z"/>
			</g>
		</g>
		<g>
			<path class="st1" d="M1062.9,1010.3l-449.3,32.1l-39.8-236.2c-12.1-71.9,29-142.3,78.5-134.3l422.1,122.7
				c14.5,4.2,23.3,25.8,19.3,47.6L1062.9,1010.3z"/>
			<polygon class="st1" points="652.2,671.9 739.6,685.3 700.9,1055.7 613.5,1042.4 			"/>
			<path class="st13" d="M1150.3,1023.7l-449.3,32.1l-39.8-236.2c-12.1-71.9,29-142.3,78.5-134.3L1161.6,808
				c14.5,4.2,23.3,25.8,19.3,47.6L1150.3,1023.7z"/>
			<ellipse class="st2" cx="756.2" cy="807.2" rx="40.7" ry="49.6"/>
		</g>
		<g>
			<path class="st2" d="M181.3,725.4c0,0-3.8,3.1-13.7,3.1c-8.9,0-11.7-3.1-11.7-3.1v-28.8c0,0,3.5,3.1,12.7,3.1
				c9.7,0,12.7-3.1,12.7-3.1V725.4z"/>
			<ellipse class="st14" cx="168.6" cy="696.8" rx="12.6" ry="3.1"/>
		</g>
		<path class="st15" d="M168.8,724.7V115.1c0-7.3,5.2-13.6,12.4-15h0"/>
		<g>
			<path class="st13" d="M115.8,770.5l-34.4,4.9l-2.4-7.5l-36.7,18.5c0,0-18.8,27.4-14.4,61.7s26,64.4,52.1,68.2
				c12.5,1.8,34.3-1.1,53.6-4.6c9,12.1,19.9,21.9,32.2,28.1l6.7-36.4c-27.7-13.9-44.6-55.8-37.7-93.5c2.5-13.6,7.9-24.8,14.9-32.9
				c9.9-6.7,19.6-12,23.5-14c5.7-1,11.7-0.7,17.7,1.1L193,726C161.4,716.8,131.1,734.8,115.8,770.5z"/>
			
				<ellipse transform="matrix(0.9886 -0.1508 0.1508 0.9886 -110.732 40.6606)" class="st2" cx="212.7" cy="750.2" rx="24.2" ry="34.6"/>
			<polygon class="st13" points="164.2,724.9 74.8,737.2 112,743.4 201.2,729.2 			"/>
			<path class="st13" d="M231.9,733.2c39.5,1,76.5,43.6,84.9,100.3c9.1,61.2-18.4,116-61.3,122.2l-5.7-38.6c28-4,45.9-39.8,40-79.7
				c-5.6-37.9-30.7-66.1-57.2-65.5L231.9,733.2z"/>
			<polygon class="st2" points="216.5,784.5 126.2,797.2 114.5,729 206.2,716.2 			"/>
			<path class="st13" d="M139.5,746l92.4-12.8l52.7,48.8c0,0,27.2,33.9,21.1,84.3c-6.2,50.4-50.2,89.4-50.2,89.4L163,968.5
				c0,0,26-15.9,37.8-49.3c11.8-33.4,14.4-73.9,6.7-96.6C194.7,784.5,139.5,746,139.5,746z"/>
			<polyline class="st16" points="73.3,952.6 165.9,939.8 172.6,903.4 80,916.3 			"/>
			<g>
				<g>
					<g>
						<path class="st1" d="M73.3,952.6C30.8,931.3,4.9,867,15.6,809.3c10.7-57.7,53.9-87.3,96.4-66l-6.7,36.4
							c-27.7-13.9-56,5.4-62.9,43.1c-7,37.6,10,79.6,37.7,93.5L73.3,952.6z"/>
					</g>
				</g>
				<g>
					<g>
						<path class="st1" d="M163,968.5c42.9-6.2,70.4-61,61.3-122.2c-9.1-61.2-51.3-106-94.2-99.8l5.7,38.6c28-4,55.5,25.2,61.5,65.1
							c5.9,39.9-12,75.7-40,79.7L163,968.5z"/>
					</g>
				</g>
				
					<ellipse transform="matrix(0.9886 -0.1508 0.1508 0.9886 -113.7347 26.7746)" class="st14" cx="119.6" cy="763.1" rx="24.2" ry="34.6"/>
			</g>
		</g>
		<g>
			<path class="st17" d="M883,346.3c-19.1,3.6-36.6-3.7-38.8-15.4c-2.2-11.7,11.2-25.5,29.8-31.9c18.6-6.4,35.2-3.2,37,6.1
				c1.8,9.4-12.4,19.1-31.6,22.7"/>
			<path class="st17" d="M886.5,364.8c-19.1,3.6-36.6-3.7-38.8-15.4c-2.2-11.7,11.2-25.5,29.8-31.9c18.6-6.4,35.2-3.2,37,6.1
				c1.8,9.4-12.4,19.1-31.6,22.7"/>
			<path class="st17" d="M890,383.2c-19.1,3.6-36.6-3.7-38.8-15.4c-2.2-11.7,11.2-25.5,29.8-31.9c18.6-6.4,35.2-3.2,37,6.1
				c1.8,9.4-12.4,19.1-31.6,22.7"/>
			<path class="st17" d="M893.5,401.7c-19.1,3.6-36.6-3.7-38.8-15.4c-2.2-11.7,11.2-25.5,29.8-31.9s35.2-3.2,37,6.1
				s-12.4,19.1-31.6,22.7"/>
			<path class="st17" d="M897,420.2c-19.1,3.6-36.6-3.7-38.8-15.4c-2.2-11.7,11.2-25.5,29.8-31.9c18.6-6.4,35.2-3.2,37,6.1
				c1.8,9.4-12.4,19.1-31.6,22.7"/>
			<path class="st17" d="M900.5,438.6c-19.1,3.6-36.6-3.7-38.8-15.4c-2.2-11.7,11.2-25.5,29.8-31.9c18.6-6.4,35.2-3.2,37,6.1
				c1.8,9.4-12.4,19.1-31.6,22.7"/>
		</g>
		<g>
			<path class="st17" d="M1008.2,424.4c13.9,13.6,17.8,32.2,9.5,40.6c-8.3,8.5-27.4,5.3-43.2-6.3c-15.9-11.6-22.7-27.1-16-33.9
				s22.8-0.7,36.6,13c0,0,26,32,5.5,39.5c-23.6,8.7-44.7-14.4-44.7-14.4"/>
			<path class="st17" d="M1021.4,411c13.9,13.6,17.8,32.2,9.5,40.6c-8.3,8.5-27.4,5.3-43.2-6.3c-15.9-11.6-22.7-27.1-16-33.9
				s22.8-0.7,36.6,13"/>
			<path class="st17" d="M1034.6,397.6c13.9,13.6,17.8,32.2,9.5,40.6c-8.3,8.5-27.4,5.3-43.2-6.3c-15.9-11.6-22.7-27.1-16-33.9
				s22.8-0.7,36.6,13"/>
			<path class="st17" d="M1047.8,384.2c13.9,13.6,17.8,32.2,9.5,40.6c-8.3,8.5-27.4,5.3-43.2-6.3c-15.9-11.6-22.7-27.1-16-33.9
				s22.8-0.7,36.6,13"/>
			<path class="st17" d="M1061,370.8c13.9,13.6,17.8,32.2,9.5,40.6c-8.3,8.5-27.4,5.3-43.2-6.3c-15.9-11.6-22.7-27.1-16-33.9
				c6.7-6.8,22.8-0.7,36.6,13"/>
			<path class="st17" d="M1074.1,357.4c13.9,13.6,17.8,32.2,9.5,40.6c-8.3,8.5-27.4,5.3-43.2-6.3c-15.9-11.6-22.7-27.1-16-33.9
				c6.7-6.8,22.8-0.7,36.6,13"/>
		</g>
		<g>
			<path class="st17" d="M976.1,300.8c-18.9-4.4-31.9-18.2-29.2-29.7s20.6-18.8,40.2-17.2s33.5,11.3,31.4,20.6
				c-2.2,9.3-19.1,12.4-38,8"/>
			<path class="st17" d="M971.9,319.1c-18.9-4.4-31.9-18.2-29.2-29.7s20.6-18.8,40.2-17.2s33.5,11.3,31.4,20.6
				c-2.2,9.3-19.1,12.4-38,8"/>
			<path class="st17" d="M967.6,337.4c-18.9-4.4-31.9-18.2-29.2-29.7s20.6-18.8,40.2-17.2s33.5,11.3,31.4,20.6
				c-2.2,9.3-19.1,12.4-38,8"/>
			<path class="st17" d="M963.3,355.7c-18.9-4.4-31.9-18.2-29.2-29.7c2.7-11.6,20.6-18.8,40.2-17.2c19.6,1.6,33.5,11.3,31.4,20.6
				c-2.2,9.3-19.1,12.4-38,8"/>
			<path class="st17" d="M959.1,374c-18.9-4.4-31.9-18.2-29.2-29.7c2.7-11.6,20.6-18.8,40.2-17.2c19.6,1.6,33.5,11.3,31.4,20.6
				c-2.2,9.3-19.1,12.4-38,8"/>
			<path class="st17" d="M954.8,392.3c-18.9-4.4-31.9-18.2-29.2-29.7s20.6-18.8,40.2-17.2c19.6,1.6,33.5,11.3,31.4,20.6
				c-2.2,9.3-19.1,12.4-38,8"/>
			<path class="st17" d="M950.5,410.6c-18.9-4.4-31.9-18.2-29.2-29.7s20.6-18.8,40.2-17.2s33.5,11.3,31.4,20.6
				c-2.2,9.3-19.1,12.4-38,8"/>
			<path class="st17" d="M946.3,428.9c-18.9-4.4-31.9-18.2-29.2-29.7s20.6-18.8,40.2-17.2s33.5,11.3,31.4,20.6
				c-2.2,9.3-19.1,12.4-38,8"/>
			<path class="st17" d="M942,447.2c-18.9-4.4-31.9-18.2-29.2-29.7s20.6-18.8,40.2-17.2s33.5,11.3,31.4,20.6
				c-2.2,9.3-19.1,12.4-38,8"/>
		</g>
		<path class="st18" d="M827.6,577.7c0,0,11.4,3.6,20.6-15"/>
		<path class="st18" d="M715,565.8c0,0-12.4-3.1-15.5-21.7"/>
		<g>
			<path class="st19" d="M872.5,521.9c1.5-0.4-26.4-62.3-60.5-68.5l-6.2,40.3c0,0,32.1,1.4,61,34.8
				C867.7,527.7,872.5,521.9,872.5,521.9z"/>
			<circle class="st20" cx="883.2" cy="537" r="18.6"/>
		</g>
		<g>
			<path class="st19" d="M697.1,501.4c-1-0.4,24.1-37.8,55.1-44l-3.7,32.7c0,0-24.2,1.4-48.2,16.7
				C699.7,506.2,697.1,501.4,697.1,501.4z"/>
			<circle class="st20" cx="687.4" cy="510.8" r="13.5"/>
		</g>
		<path class="st2" d="M963.7,484.2l-67.5-17.5c-11.2-2.9-17.9-14.3-15-25.5v0c2.9-11.2,14.3-17.9,25.5-15l67.5,17.5
			c11.2,2.9,17.9,14.3,15,25.5v0C986.2,480.4,974.9,487.1,963.7,484.2z"/>
	</g>
</g>
<g id="Eileen">
</g>
<g id="Levi">
</g>
<g id="Oscar">
</g>
<g id="Rex">
</g>
</svg>
