<?xml version="1.0" encoding="utf-8"?>
<!-- Generator: Adobe Illustrator 24.2.1, SVG Export Plug-In . SVG Version: 6.00 Build 0)  -->
<svg version="1.1" id="Layer_1" xmlns="http://www.w3.org/2000/svg" xmlns:xlink="http://www.w3.org/1999/xlink" x="0px" y="0px"
	 viewBox="0 0 1010.8 522.5" style="enable-background:new 0 0 1010.8 522.5;" xml:space="preserve">
<style type="text/css">
	.st0{fill:#F0C808;}
	.st1{fill:#FFFFFF;}
	.st2{fill:#00BFF3;}
	.st3{fill:#FF715B;}
	.st4{fill:#4C5B5C;}
	.st5{fill:#FF583D;}
</style>
<g id="RED_LOGOMARK">
	<g>
		<circle class="st0" cx="103.9" cy="429.3" r="8.7"/>
		<circle class="st0" cx="906.4" cy="429.3" r="8.7"/>
		<path class="st1" d="M943.4,291.3V339h-46.5v-54.4c0-1.7-1.3-3-3-3h-94c-1.7,0-3,1.3-3,3V339h-46.5v-43.6c2.7,0.9,5.5,1.3,8.5,1.3
			c12.8,0,23.6-8.6,27-20.2h24c1.7,0,3-1.3,3-3v-17.7c0-10-9.4-18.2-21-18.2c-7.1,0-13.4,3.1-17.2,7.8c-4.5-3.1-10-4.9-15.8-4.9
			c-3,0-5.8,0.5-8.5,1.3v-8.2h190.7c-6.9,7.3-11.1,17-11.1,27.8C930,273.2,935.1,283.9,943.4,291.3z M922.9,273.5v-17.7
			c0-10-9.4-18.2-21-18.2s-21,8.2-21,18.2v17.7c0,1.7,1.3,3,3,3h36C921.5,276.5,922.9,275.1,922.9,273.5z"/>
		<rect x="750.4" y="152.1" class="st1" width="193" height="10.8"/>
		<path class="st1" d="M697.9,283.6V339H567.2v-19h114.4c1.7,0,3-1.3,3-3v-33c0-1.7-1.3-3-3-3H567.2v-28.5c2.5,1,5.2,1.6,8,1.6
			c3.9,0,7.5-1,10.7-2.9h53c1.8,13.8,13.6,24.5,27.9,24.5c6.5,0,12.4-2.2,17.2-5.9L697.9,283.6z M680.4,213.7h-95.9l11.3,17.4
			c0.4,0.5,0.5,1.2,0.5,1.8c0,0.1,0,0.2,0,0.3c0,4.5-1.4,8.6-3.9,12h46.3c1.2-14.4,13.3-25.8,28-25.8c15.5,0,28.1,12.6,28.1,28.1
			c0,6.6-2.3,12.7-6.1,17.5l9,8.9v-42C690.3,227.9,684.1,221.5,680.4,213.7z M525.4,152.1v14.7h27c1,0,2,0.5,2.5,1.4l4.3,6.6h122.5
			c0.4,0,0.7,0.1,1,0.2c3.8-6,9-10.9,15.2-14.2v-8.6L525.4,152.1L525.4,152.1z"/>
		<path class="st1" d="M561.2,320v19h-61.4v-19.3c5.4-1.1,9.5-6,9.5-11.7s-4.1-10.6-9.5-11.7V274c0-1.7-1.3-3-3-3h-43
			c-1.6,0-3,1.3-3,3v65h-58.4v-86.9c4.5-2.1,8.1-5.7,10.2-10.2c3.3,7.2,10.7,12.2,19.2,12.2c6.7,0,12.7-3.1,16.5-8
			c1-1.3,1.9-2.7,2.6-4.3c0.9,1.9,2,3.6,3.4,5.1c3.9,4.4,9.5,7.1,15.8,7.1c8.5,0,15.8-5,19.2-12.2c3.3,7.2,10.7,12.2,19.2,12.2
			s15.8-5,19.2-12.2c0.5,1,1,2,1.6,2.9c1.6,2.3,3.6,4.4,6,5.9c3.3,2.2,7.3,3.4,11.5,3.4c3.9,0,7.5-1.1,10.7-2.9
			c2.6-1.5,4.8-3.6,6.6-6c0.7-1.1,1.4-2.2,1.9-3.3c0.5,1.2,1.2,2.3,1.9,3.3c0.9,1.3,2,2.5,3.2,3.6v2.4V281v6v27L561.2,320L561.2,320
			z M543.9,293.5v-9c0-1.2-0.2-2.4-0.5-3.5c-1.5-5.2-6.3-9-12-9c-2.2,0-4.2,0.6-6,1.5c-2.9,1.6-5.1,4.3-6,7.5
			c-0.3,1.1-0.5,2.3-0.5,3.5v9c0,1.2,0.2,2.4,0.5,3.5c0.9,3.2,3.1,5.9,6,7.5c1.8,1,3.8,1.5,6,1.5c2.7,0,5.2-0.9,7.2-2.3
			C541.8,301.4,543.9,297.7,543.9,293.5z M434.9,293.5v-9c0-6.9-5.6-12.5-12.5-12.5s-12.5,5.6-12.5,12.5v9c0,6.9,5.6,12.5,12.5,12.5
			S434.9,300.4,434.9,293.5z"/>
		<path class="st0" d="M560.4,236.2H590c-0.8,3.7-2.9,6.9-5.9,9c-2.5,1.8-5.6,2.9-8.9,2.9c-2.9,0-5.7-0.8-8-2.3
			c-0.3-0.2-0.6-0.4-0.9-0.6c-2.2-1.6-4-3.9-5.1-6.4C560.9,238,560.6,237.1,560.4,236.2z"/>
		<path class="st0" d="M522.1,236.2h29.6c-0.8,3.7-2.9,6.9-5.9,9c-2.5,1.8-5.6,2.9-8.9,2.9c-0.2,0-0.4,0-0.5,0
			c-4.4-0.1-8.3-2.2-11-5.3C523.7,240.9,522.6,238.7,522.1,236.2z"/>
		<path class="st0" d="M483.7,236.2h29.6c-1.4,6.8-7.5,11.9-14.8,11.9S485.1,243,483.7,236.2z"/>
		<path class="st0" d="M445.4,236.2H475c-1.4,6.8-7.5,11.9-14.8,11.9C452.9,248.1,446.8,243,445.4,236.2z"/>
		<path class="st0" d="M368.7,236.2h29.6c-0.8,3.6-2.9,6.8-5.8,9c-1.8,1.3-3.8,2.2-6,2.7c-1,0.2-2,0.3-3,0.3
			C376.2,248.1,370.1,243,368.7,236.2z"/>
		<path class="st0" d="M407,236.2h29.6c-1.4,6.8-7.5,11.9-14.8,11.9S408.4,243,407,236.2z"/>
		<path class="st1" d="M273.4,275.7V339h-20v-67.9l1.3-1.3c4.8,3.7,10.7,5.9,17.2,5.9C272.4,275.7,272.9,275.7,273.4,275.7z"/>
		<path class="st1" d="M386.5,253.9V339h-21.6v-19.4c5.2-1.3,9-6,9-11.6s-3.8-10.3-9-11.6V274c0-1.7-1.3-3-3-3h-43c-1.6,0-3,1.3-3,3
			v65h-36.5v-64.3c11.9-3.3,20.6-14.2,20.6-27.1c0-9.9-5.1-18.5-12.8-23.6h80.2l-4.6,7.1c-0.4,0.6-0.5,1.2-0.5,1.8
			c0,0.1,0,0.2,0,0.3c0,11.5,9.5,20.9,21.1,20.9C384.5,254.1,385.5,254,386.5,253.9z M253.4,33v138c5.6,6.9,8.9,15.7,8.9,25.3
			s-3.3,18.3-8.9,25.3v4.8c5-4.3,11.4-7,18.5-7c0.5,0,1,0,1.5,0V188c0-1.7,1.3-3,3-3h116.5l8-12.3V162H290c-1.7,0-3-1.3-3-3v-24
			h-11.2c-1.7,0-3-1.3-3-3V99c0-1.7,1.3-3,3-3h140c1.7,0,3,1.3,3,3v33c0,1.7-1.3,3-3,3H293v21h110.8c1.7,0,3,1.3,3,3v7.8h31.5V33
			H253.4z M408.1,80.6c-7.9,0-14.3-7.6-14.3-16.9s6.4-16.9,14.3-16.9s14.3,7.6,14.3,16.9S416,80.6,408.1,80.6z M375,83V44h6v39H375z
			 M345.9,80.6c-7.9,0-14.3-7.6-14.3-16.9s6.4-16.9,14.3-16.9s14.3,7.6,14.3,16.9S353.8,80.6,345.9,80.6z M304.3,80.6
			c-7.9,0-14.3-7.6-14.3-16.9s6.4-16.9,14.3-16.9s14.3,7.6,14.3,16.9S312.2,80.6,304.3,80.6z M269.3,83V44h6v39H269.3z M399.8,63.7
			c0,6,3.7,10.9,8.3,10.9c4.6,0,8.3-4.9,8.3-10.9s-3.7-10.9-8.3-10.9C403.5,52.8,399.8,57.7,399.8,63.7z M296,63.7
			c0,6,3.7,10.9,8.3,10.9c4.6,0,8.3-4.9,8.3-10.9s-3.7-10.9-8.3-10.9C299.8,52.8,296,57.7,296,63.7z M337.6,63.7
			c0,6,3.7,10.9,8.3,10.9c4.6,0,8.3-4.9,8.3-10.9s-3.7-10.9-8.3-10.9C341.3,52.8,337.6,57.7,337.6,63.7z"/>
		<path class="st1" d="M193.4,293.3V339h-16.8l-0.3-42.5c1.2,0.2,2.4,0.2,3.6,0.2C184.7,296.7,189.3,295.5,193.4,293.3z M87.9,303.4
			l65.9-24.4c-1.3-3.2-2-6.8-2-10.4c0-7.2,2.7-13.8,7.2-18.7L88,280L87.9,303.4L87.9,303.4z M181.5,196.3c0-11.2,4.6-21.3,11.9-28.6
			v-50.6L64.9,177.3v51.9c9.7,7.4,15.9,19,15.9,32.1s-6.2,24.7-15.9,32.1V339h17v-61c0-1.2,0.7-2.3,1.8-2.8l87.7-37.2v-33.4
			l-85.3,38.1c-0.9,0.4-2,0.3-2.9-0.2s-1.4-1.5-1.4-2.5v-35c0-1.2,0.7-2.2,1.7-2.7l71-33c-0.2-0.8-0.3-1.7-0.3-2.5
			c0-6.6,5.4-12,12-12s12,5.4,12,12s-5.4,12-12,12c-3.6,0-6.8-1.6-9-4.1L87.7,207v28.4l85.3-38.1c0.9-0.4,2-0.3,2.9,0.2
			c0.9,0.6,1.4,1.5,1.4,2.5v40c0,0.2,0,0.4-0.1,0.5c0.8-0.1,1.7-0.1,2.6-0.1c4.9,0,9.5,1.2,13.5,3.5v-19
			C186,217.6,181.5,207.5,181.5,196.3z"/>
		<path class="st0" d="M166.4,160.8c3.3,0,6,2.7,6,6s-2.7,6-6,6c-1.1,0-2.2-0.3-3.1-0.9c-1.7-1-2.9-3-2.9-5.1v-0.1
			C160.4,163.4,163.1,160.8,166.4,160.8z"/>
		<path class="st0" d="M849.9,308.8c1.8,1,3,3,3,5.2s-1.2,4.2-3,5.2c-0.9,0.5-1.9,0.8-3,0.8s-2.1-0.3-3-0.8c-1.8-1-3-3-3-5.2
			s1.2-4.2,3-5.2c0.9-0.5,1.9-0.8,3-0.8S849,308.3,849.9,308.8z"/>
		<path class="st2" d="M843.9,325.6V339h-41v-51.4h41v14.8c-5.2,1.3-9,6-9,11.6S838.7,324.3,843.9,325.6z"/>
		<path class="st2" d="M890.9,287.6V339h-41v-13.4c5.2-1.3,9-6,9-11.6s-3.8-10.3-9-11.6v-14.8H890.9z"/>
		<path class="st0" d="M806.9,255.7v14.7H787c0.1-0.6,0.1-1.3,0.1-1.9c0-7.5-3-14.4-7.8-19.4c2.7-3.4,7.3-5.6,12.6-5.6
			C800.1,243.5,806.9,249,806.9,255.7z"/>
		<path class="st0" d="M916.9,255.7v14.7h-30v-14.7c0-6.7,6.7-12.2,15-12.2C910.1,243.5,916.9,249,916.9,255.7z"/>
		<path class="st3" d="M1004,261.3c0,17.4-13.3,31.7-30.2,33.4v-24c3.9-1.4,6.6-5.1,6.6-9.4c0-5.5-4.5-10-10-10s-10,4.5-10,10
			c0,4.3,2.8,8,6.6,9.4v24c-6.6-0.7-12.7-3.3-17.6-7.2c-2.3-1.8-4.3-3.9-6-6.2c-4.2-5.6-6.6-12.5-6.6-20s2.5-14.4,6.6-20
			c1.7-2.3,3.7-4.4,6-6.2c0.7-0.6,1.4-1.1,2.2-1.6c3.8-2.6,8.1-4.4,12.8-5.2c1.9-0.4,3.9-0.5,6-0.5
			C988.9,227.7,1004,242.8,1004,261.3z"/>
		<polygon class="st3" points="930.9,120.1 930.9,146.1 893.8,146.1 893.4,106.3 		"/>
		<path class="st2" d="M915.1,187.8c4.6,0,8.3,4.9,8.3,10.9s-3.7,10.9-8.3,10.9s-8.3-4.9-8.3-10.9S910.5,187.8,915.1,187.8z
			 M844.6,198.7c0,6,3.7,10.9,8.3,10.9s8.3-4.9,8.3-10.9s-3.7-10.9-8.3-10.9S844.6,192.7,844.6,198.7z M803,198.7
			c0,6,3.7,10.9,8.3,10.9s8.3-4.9,8.3-10.9s-3.7-10.9-8.3-10.9C806.8,187.8,803,192.7,803,198.7z M746.5,168.9
			c6.6,7.2,10.7,16.8,10.7,27.4c0,12.6-5.8,23.8-14.8,31.2h205.8c3.1-2,6.5-3.6,10.1-4.8v-53.8L746.5,168.9L746.5,168.9z
			 M915.1,215.6c-7.9,0-14.3-7.6-14.3-16.9s6.4-16.9,14.3-16.9s14.3,7.6,14.3,16.9S923,215.6,915.1,215.6z M882,218v-39h6v39H882z
			 M852.9,215.6c-7.9,0-14.3-7.6-14.3-16.9s6.4-16.9,14.3-16.9c7.9,0,14.3,7.6,14.3,16.9S860.8,215.6,852.9,215.6z M811.3,215.6
			c-7.9,0-14.3-7.6-14.3-16.9s6.4-16.9,14.3-16.9c7.9,0,14.3,7.6,14.3,16.9S819.2,215.6,811.3,215.6z M776.3,218v-39h6v39H776.3z"/>
		<path class="st0" d="M724.9,196.8c0,3.2-1.9,6-4.6,7.2c-1,0.5-2.2,0.8-3.4,0.8s-2.4-0.3-3.4-0.8c-2.7-1.3-4.6-4.1-4.6-7.2
			c0-4.4,3.6-8,8-8C721.3,188.8,724.9,192.4,724.9,196.8z"/>
		<path class="st3" d="M780.2,268.6c0,0.6,0,1.3-0.1,1.9c-0.2,2.1-0.7,4.1-1.4,6c-3.1,7.9-10.8,13.4-19.8,13.4c-3,0-5.9-0.6-8.5-1.8
			c-1.4-0.6-2.6-1.3-3.8-2.2l3.8-3.8l5.8-5.8c0.8,0.3,1.8,0.5,2.7,0.5c4.4,0,8-3.6,8-8s-3.6-8-8-8s-8,3.6-8,8c0,1,0.2,1.9,0.5,2.7
			l-1,1l-6,6l-2.7,2.7c-2.6-3.5-4.2-7.9-4.2-12.6c0-6.2,2.6-11.8,6.9-15.7c1.8-1.6,3.8-2.9,6-3.9c2.6-1.1,5.5-1.8,8.5-1.8
			c4.7,0,9.1,1.5,12.6,4.1c2.1,1.6,4,3.5,5.4,5.7C779,260.4,780.2,264.4,780.2,268.6z"/>
		<path class="st3" d="M736.3,168.9c8.6,6.1,14.2,16.1,14.2,27.4c0,11.7-6,22-15.1,28c-1.9,1.2-3.9,2.3-6,3.2
			c-2.9,1.1-5.9,1.9-9.1,2.2v-19.4c4-1,7.3-3.7,9.1-7.3c1-1.9,1.5-4,1.5-6.3s-0.5-4.4-1.5-6.3c-2.3-4.6-7-7.7-12.5-7.7
			c-5.9,0-10.9,3.6-13,8.8c-0.7,1.6-1,3.4-1,5.2s0.3,3.6,1,5.2c1.6,4.1,5.2,7.3,9.6,8.4v19.4c-3.4-0.3-6.6-1.2-9.6-2.5
			c-2.1-0.9-4.1-2-6-3.3c-6.3-4.3-11.1-10.8-13.2-18.3c-0.9-3-1.4-6.1-1.4-9.4s0.5-6.4,1.4-9.4c2.2-7.5,6.9-13.9,13.2-18.3
			c1.9-1.3,3.9-2.4,6-3.3c4-1.7,8.4-2.6,13-2.6c4.4,0,8.7,0.9,12.6,2.5C731.9,166.2,734.2,167.4,736.3,168.9z"/>
		<path class="st3" d="M688.2,247.6c0,4.7-1.6,9.1-4.2,12.6l-9.7-9.7c0.3-0.8,0.5-1.8,0.5-2.7c0-4.4-3.6-8-8-8
			c-3.5,0-6.5,2.2-7.6,5.4c-0.3,0.8-0.4,1.7-0.4,2.6c0,1.2,0.3,2.4,0.8,3.4c1.3,2.7,4,4.6,7.2,4.6c0.9,0,1.9-0.2,2.7-0.5l9.6,9.6
			c-3.5,2.5-7.7,4-12.3,4c-10.5,0-19.3-7.7-21-17.7c-0.2-1.2-0.3-2.4-0.3-3.6c0-0.8,0-1.6,0.1-2.4c1.2-10.7,10.2-19,21.2-19
			C678.6,226.2,688.2,235.8,688.2,247.6z"/>
		<rect x="567.2" y="287" class="st3" width="111.4" height="27"/>
		<path class="st0" d="M678.6,180.7v2.6c-1.4,4.1-2.2,8.5-2.2,13c0,3.9,0.6,7.8,1.6,11.4h-97.5l-17.6-27H678.6z"/>
		<path class="st2" d="M698.3,127.2H524.4c1.9-37.7,40.2-67.9,86.9-67.9C658.1,59.3,696.3,89.5,698.3,127.2z M650.9,116.5V79.7h-6
			v36.8H650.9z M631.9,97.6c0-11-9.4-19.8-21-19.8s-21,8.9-21,19.8s9.4,19.8,21,19.8C622.5,117.5,631.9,108.6,631.9,97.6z
			 M577.9,116.5V79.7h-6v36.8H577.9z"/>
		<ellipse class="st0" cx="610.9" cy="97.6" rx="15" ry="13.8"/>
		<path class="st3" d="M450,190.3c4.2,0,6.8,3.6,5.7,8.4c-1.2,5.3-6.3,10-11.3,10.1h-0.1c-3.5,0-5.6-2.3-5.9-5.5c0-0.5,0-1,0-1.6
			c0.1-1,0.3-2,0.7-3.1c1.1-2.7,3-5,5.3-6.5C446.2,191,448.1,190.3,450,190.3z M519.4,198.2c-2-4.5-6.6-7.8-10.7-7.8
			c-4.2,0-6.8,3.6-5.7,8.4c1.2,5.3,6.4,10.1,11.4,10.1c2.2,0,3.9-0.9,4.9-2.5c1.2-1.9,1.4-4.7,0.3-7.6
			C519.5,198.6,519.5,198.4,519.4,198.2z M573.5,207.7l-17.6-27l-3.9-6l-1.3-1.9H444.4h-6H408l-1.1,1.7l-6,9.2L400,185l-3.9,6
			l-7.3,11.2l-2.3,3.6l-7.9,12.2l-3.9,6l-3.7,5.8h67.5H588l-10.5-16.1L573.5,207.7z M551.7,218l-2.6-4.3l-3.6-6l-1-1.7l-6-10.1
			l-6.8-11.4h5.1l1.6,2.5l6,9.2l7.5,11.5l3.9,6l2.8,4.3H551.7z M519.4,215c-0.9,0.2-1.9,0.3-2.9,0.3c-9.1,0-18-8-19.4-16.5
			c-1.3-7.3,3.5-12.5,10.4-12.5c4,0,8.3,1.7,11.9,4.6c2.5,2,4.6,4.5,6,7.4c0.1,0.2,0.2,0.3,0.2,0.5c2.1,4.7,1.9,9.2-0.2,12.3
			C524,213,522,214.4,519.4,215z M475.8,218l1-33.5h5.2l1,33.5H475.8z M444.4,215.1c-0.7,0.1-1.4,0.1-2.1,0.1
			c-1.4,0-2.7-0.2-3.9-0.6c-6.2-2-8.5-8.8-5.2-15.9c1.2-2.7,3-5.1,5.2-7.1c1.8-1.6,3.9-2.9,6-3.9c2.3-1,4.7-1.6,6.9-1.6
			c6.9,0,11.6,5.2,10.4,12.5C460.3,206.6,452.7,214,444.4,215.1z M413.4,207.3L407,218h-7.1l13.5-20.7l6-9.2l2.4-3.6h5.1l-7.5,12.7
			L413.4,207.3z"/>
		<path class="st0" d="M499.9,302.6c2.1,0.9,3.5,3,3.5,5.5s-1.4,4.5-3.5,5.5c-0.8,0.4-1.6,0.5-2.5,0.5c-1.3,0-2.5-0.4-3.5-1.1
			c-1.5-1.1-2.5-2.9-2.5-4.9s1-3.8,2.5-4.9c1-0.7,2.2-1.1,3.5-1.1C498.2,302,499.1,302.2,499.9,302.6z"/>
		<path class="st2" d="M493.9,319.5V339h-37v-62h37v19.5c-4.9,1.5-8.5,6.1-8.5,11.5S488.9,318,493.9,319.5z"/>
		<path class="st0" d="M537.9,284.5v9c0,3.6-2.9,6.5-6.5,6.5c-2.7,0-5-1.6-6-4c-0.3-0.8-0.5-1.6-0.5-2.5v-9c0-0.9,0.2-1.7,0.5-2.5
			c1-2.4,3.3-4,6-4C534.9,278,537.9,280.9,537.9,284.5z"/>
		<path class="st0" d="M428.9,284.5v9c0,3.6-2.9,6.5-6.5,6.5s-6.5-2.9-6.5-6.5v-9c0-3.6,2.9-6.5,6.5-6.5
			C425.9,278,428.9,280.9,428.9,284.5z"/>
		<path class="st0" d="M364.9,302.8c1.8,1,3,3,3,5.2s-1.2,4.2-3,5.2c-0.9,0.5-1.9,0.8-3,0.8s-2.1-0.3-3-0.8c-1.8-1-3-3-3-5.2
			s1.2-4.2,3-5.2c0.9-0.5,1.9-0.8,3-0.8S364,302.3,364.9,302.8z"/>
		<path class="st3" d="M358.9,319.6V339h-37v-62h37v19.4c-5.2,1.3-9,6-9,11.6S353.7,318.3,358.9,319.6z"/>
		<polygon class="st2" points="388.9,191 371.4,218 279.4,218 279.4,191 		"/>
		<rect x="278.9" y="102" class="st0" width="134" height="27"/>
		<rect x="240.4" y="6" class="st3" width="211" height="21"/>
		<path class="st3" d="M279.4,227.6c8.1,3,13.9,10.8,13.9,20s-5.8,16.9-13.9,20c-1.9,0.7-3.9,1.2-6,1.3c-0.5,0-1,0.1-1.5,0.1
			c-4.6,0-8.8-1.5-12.3-4l9.6-9.6c0.9,0.3,1.8,0.5,2.7,0.5c0.5,0,1,0,1.5-0.1c2.8-0.5,5-2.5,6-5.1c0.3-0.9,0.5-1.8,0.5-2.8
			s-0.2-1.9-0.5-2.8c-1-2.6-3.2-4.5-6-5.1c-0.5-0.1-1-0.1-1.5-0.1c-4.4,0-8,3.6-8,8c0,1,0.2,1.9,0.5,2.7l-9.7,9.7
			c-0.5-0.6-0.9-1.3-1.3-2c-1.8-3.1-2.9-6.7-2.9-10.6s1-7.5,2.9-10.6c3.7-6.4,10.6-10.7,18.5-10.7c0.5,0,1,0,1.5,0.1
			C275.5,226.4,277.5,226.9,279.4,227.6z"/>
		<path class="st3" d="M199.4,259.9c1.2,2.6,1.9,5.6,1.9,8.7s-0.7,6-1.9,8.6c-0.6,1.4-1.4,2.8-2.3,4l-3.7-3.7l-6-6
			c0.3-0.8,0.5-1.8,0.5-2.7c0-4.4-3.6-8-8-8s-8,3.6-8,8c0,1.2,0.2,2.3,0.7,3.2c0.7,1.6,2,3,3.6,3.8c1.1,0.6,2.4,0.9,3.7,0.9
			c0.9,0,1.9-0.2,2.7-0.5l9.6,9.6c-3.5,2.5-7.7,4-12.3,4c-1.2,0-2.5-0.1-3.6-0.3c-2.1-0.4-4.2-1-6-2c-2.7-1.4-5.1-3.3-7-5.7
			c-1.3-1.6-2.3-3.3-3.1-5.2c-1-2.5-1.6-5.2-1.6-8.1c0-11.8,9.6-21.4,21.3-21.4c5.1,0,9.8,1.8,13.5,4.8
			C195.9,254.1,198,256.8,199.4,259.9z"/>
		<path class="st0" d="M229.9,196.8c0,3.4-2.1,6.3-5.1,7.4c-0.8,0.3-1.7,0.5-2.6,0.5c-0.1,0-0.2,0-0.3,0c-1.2,0-2.4-0.3-3.4-0.8
			c-0.2-0.1-0.3-0.1-0.5-0.2c-2.4-1.4-4.1-4-4.1-7c0-4.4,3.6-8,8-8S229.9,192.4,229.9,196.8z"/>
		<path class="st3" d="M253.4,184.6c1.4,3.6,2.1,7.6,2.1,11.7c0,4.1-0.7,8-2.1,11.7c-1.4,3.8-3.4,7.2-6,10.2
			c-5.5,6.4-13.3,10.7-22.1,11.6v-19.4c6.1-1.5,10.6-7,10.6-13.6c0-7.7-6.3-14-14-14s-14,6.3-14,14c0,6.4,4.3,11.8,10.1,13.4
			c0.2,0.1,0.3,0.1,0.5,0.1v19.4c-7.3-0.7-13.9-3.8-19.1-8.5c-2.3-2.1-4.3-4.5-6-7.1c-3.2-5.2-5.1-11.2-5.1-17.8
			c0-6.5,1.9-12.6,5.1-17.8c1.7-2.7,3.7-5.1,6-7.1c6-5.4,13.9-8.7,22.5-8.7c10.2,0,19.3,4.6,25.5,11.8
			C249.9,177.5,252,180.9,253.4,184.6z"/>
		<path class="st0" d="M131.6,314c1.2,0.9,2,2.4,2,4s-0.8,3.1-2,4c-0.8,0.6-1.9,1-3,1s-2.2-0.4-3-1c-1.2-0.9-2-2.4-2-4s0.8-3.1,2-4
			c0.8-0.6,1.9-1,3-1S130.8,313.4,131.6,314z"/>
		<path class="st2" d="M125.8,339H87.9v-29.2l37.8-14v12.7c-4.1,1.3-7,5.1-7,9.5s2.9,8.3,7,9.5V338
			C125.6,338.4,125.7,338.7,125.8,339z"/>
		<path class="st2" d="M170.3,295l0.3,44h-39.1c0.1-0.3,0.2-0.6,0.2-1v-10.5c4.1-1.3,7-5.1,7-9.5s-2.9-8.3-7-9.5v-14.9l24.9-9.2
			C159.9,289.2,164.6,293,170.3,295z"/>
		<path class="st0" d="M75.9,54.5c0,2-0.9,3.8-2.2,5.1c-1,0.9-2.2,1.6-3.6,1.8c-0.4,0.1-0.8,0.1-1.2,0.1c-3.9,0-7-3.1-7-7s3.1-7,7-7
			S75.9,50.7,75.9,54.5z"/>
		<path class="st3" d="M116.1,69.6c7.2,15,2,33.3-12.6,42c-7.4,4.5-16.2,5.8-24.6,3.7c-7.5-1.9-13.9-6.2-18.4-12.3l26.2-15.8
			l2.1-1.2L116.1,69.6z"/>
		<path class="st3" d="M74,261.3c0,8.9-3.5,17-9.1,23c-1.8,1.9-3.8,3.6-6,5.1c-4.4,2.9-9.6,4.8-15.1,5.4v-24
			c3.8-1.4,6.6-5.1,6.6-9.4c0-5.5-4.5-10-10-10s-10,4.5-10,10c0,4.3,2.8,8,6.6,9.4v24c-16.9-1.7-30.2-16-30.2-33.4
			c0-18.5,15.1-33.6,33.6-33.6c6.8,0,13.2,2.1,18.5,5.6c2.2,1.5,4.2,3.1,6,5.1C70.5,244.4,74,252.5,74,261.3z"/>
		<path class="st4" d="M922.9,255.7v17.7c0,1.7-1.3,3-3,3h-36c-1.7,0-3-1.3-3-3v-17.7c0-10,9.4-18.2,21-18.2
			C913.4,237.5,922.9,245.7,922.9,255.7z M916.9,270.5v-14.7c0-6.7-6.7-12.2-15-12.2s-15,5.5-15,12.2v14.7H916.9z M915.1,181.8
			c7.9,0,14.3,7.6,14.3,16.9s-6.4,16.9-14.3,16.9s-14.3-7.6-14.3-16.9S907.2,181.8,915.1,181.8z M923.4,198.7c0-6-3.7-10.9-8.3-10.9
			s-8.3,4.9-8.3,10.9s3.7,10.9,8.3,10.9S923.4,204.7,923.4,198.7z M882,179v39h6v-39H882z M852.9,181.8c7.9,0,14.3,7.6,14.3,16.9
			s-6.4,16.9-14.3,16.9c-7.9,0-14.3-7.6-14.3-16.9S845,181.8,852.9,181.8z M861.2,198.7c0-6-3.7-10.9-8.3-10.9s-8.3,4.9-8.3,10.9
			s3.7,10.9,8.3,10.9C857.5,209.6,861.2,204.7,861.2,198.7z M811.3,181.8c7.9,0,14.3,7.6,14.3,16.9s-6.4,16.9-14.3,16.9
			c-7.9,0-14.3-7.6-14.3-16.9S803.5,181.8,811.3,181.8z M819.7,198.7c0-6-3.7-10.9-8.3-10.9s-8.3,4.9-8.3,10.9s3.7,10.9,8.3,10.9
			C815.9,209.6,819.7,204.7,819.7,198.7z M776.3,179v39h6v-39H776.3z M704.4,130.2c0,1.7-1.3,3-3,3h-180c-1.7,0-3-1.3-3-3
			c0-41.6,40.1-75.5,90-76.8V27.6c-5.2-1.3-9-6-9-11.6c0-6.6,5.4-12,12-12s12,5.4,12,12c0,5.6-3.8,10.3-9,11.6v25.7
			C664.3,54.7,704.4,88.6,704.4,130.2z M524.4,127.2h173.8c-1.9-37.7-40.2-67.9-86.9-67.9C564.6,59.3,526.4,89.5,524.4,127.2z
			 M644.9,79.7v36.8h6V79.7H644.9z M610.9,77.8c11.6,0,21,8.9,21,19.8s-9.4,19.8-21,19.8s-21-8.9-21-19.8S599.3,77.8,610.9,77.8z
			 M625.9,97.6c0-7.6-6.7-13.8-15-13.8s-15,6.2-15,13.8c0,7.6,6.7,13.8,15,13.8C619.1,111.5,625.9,105.3,625.9,97.6z M571.9,79.7
			v36.8h6V79.7H571.9z M543.9,284.5v9c0,4.2-2.1,7.9-5.2,10.2c-2,1.5-4.6,2.3-7.2,2.3c-2.2,0-4.2-0.6-6-1.5c-2.9-1.6-5.1-4.3-6-7.5
			c-0.3-1.1-0.5-2.3-0.5-3.5v-9c0-1.2,0.2-2.4,0.5-3.5c0.9-3.2,3.1-5.9,6-7.5c1.8-1,3.8-1.5,6-1.5c5.7,0,10.5,3.8,12,9
			C543.7,282.1,543.9,283.3,543.9,284.5z M537.9,293.5v-9c0-3.6-2.9-6.5-6.5-6.5c-2.7,0-5,1.7-6,4c-0.3,0.8-0.5,1.6-0.5,2.5v9
			c0,0.9,0.2,1.7,0.5,2.5c1,2.4,3.3,4,6,4C534.9,300,537.9,297.1,537.9,293.5z M434.9,284.5v9c0,6.9-5.6,12.5-12.5,12.5
			s-12.5-5.6-12.5-12.5v-9c0-6.9,5.6-12.5,12.5-12.5S434.9,277.6,434.9,284.5z M428.9,293.5v-9c0-3.6-2.9-6.5-6.5-6.5
			s-6.5,2.9-6.5,6.5v9c0,3.6,2.9,6.5,6.5,6.5C425.9,300,428.9,297.1,428.9,293.5z M552.1,207.7l-7.5-11.5l-6-9.2l-1.6-2.5h-5.1
			l6.8,11.4l6,10.1l1,1.7l3.6,6l2.6,4.3h7.1l-2.8-4.3L552.1,207.7z M525.6,198.8c2.1,4.7,1.9,9.2-0.2,12.3c-1.3,1.9-3.3,3.3-6,3.9
			c-0.9,0.2-1.9,0.3-2.9,0.3c-9.1,0-18-8-19.4-16.5c-1.3-7.3,3.5-12.5,10.4-12.5c4,0,8.3,1.7,11.9,4.6c2.5,2,4.6,4.5,6,7.4
			C525.4,198.4,525.5,198.6,525.6,198.8z M519.4,206.4c1.2-1.9,1.4-4.7,0.3-7.6c-0.1-0.2-0.2-0.4-0.3-0.6c-2-4.5-6.6-7.8-10.7-7.8
			c-4.2,0-6.8,3.6-5.7,8.4c1.2,5.3,6.4,10.1,11.4,10.1C516.7,208.8,518.4,207.9,519.4,206.4z M476.8,184.5l-1,33.5h7.1l-1-33.5
			H476.8z M451.3,186.3c6.9,0,11.6,5.2,10.4,12.5c-1.4,7.8-9,15.3-17.3,16.4c-0.7,0.1-1.4,0.1-2.1,0.1c-1.4,0-2.7-0.2-3.9-0.6
			c-6.2-2-8.5-8.8-5.2-15.9c1.2-2.7,3-5.1,5.2-7.1c1.8-1.6,3.9-2.9,6-3.9C446.6,186.8,449,186.3,451.3,186.3z M455.7,198.8
			c1.1-4.8-1.5-8.4-5.7-8.4c-1.9,0-3.9,0.7-5.7,1.9c-2.2,1.5-4.2,3.8-5.3,6.5c-0.4,1.1-0.7,2.1-0.7,3.1c0,0.5,0,1.1,0,1.6
			c0.3,3.2,2.4,5.5,5.9,5.5h0.1C449.3,208.8,454.5,204,455.7,198.8z M421.7,184.5l-2.4,3.6l-6,9.2L399.9,218h7.1l6.4-10.7l6-10.1
			l7.5-12.7H421.7z M408.1,46.8c7.9,0,14.3,7.6,14.3,16.9s-6.4,16.9-14.3,16.9s-14.3-7.6-14.3-16.9S400.2,46.8,408.1,46.8z
			 M416.4,63.7c0-6-3.7-10.9-8.3-10.9c-4.6,0-8.3,4.9-8.3,10.9s3.7,10.9,8.3,10.9C412.7,74.6,416.4,69.7,416.4,63.7z M375,44v39h6
			V44H375z M345.9,46.8c7.9,0,14.3,7.6,14.3,16.9s-6.4,16.9-14.3,16.9s-14.3-7.6-14.3-16.9S338,46.8,345.9,46.8z M354.2,63.7
			c0-6-3.7-10.9-8.3-10.9c-4.6,0-8.3,4.9-8.3,10.9s3.7,10.9,8.3,10.9S354.2,69.7,354.2,63.7z M304.3,46.8c7.9,0,14.3,7.6,14.3,16.9
			s-6.4,16.9-14.3,16.9S290,73,290,63.7S296.5,46.8,304.3,46.8z M312.7,63.7c0-6-3.7-10.9-8.3-10.9c-4.6,0-8.3,4.9-8.3,10.9
			s3.7,10.9,8.3,10.9C308.9,74.6,312.7,69.7,312.7,63.7z M269.3,44v39h6V44H269.3z M6.8,261.3c0,17.4,13.3,31.7,30.2,33.4v-24
			c-3.9-1.4-6.6-5.1-6.6-9.4c0-5.5,4.5-10,10-10s10,4.5,10,10c0,4.3-2.8,8-6.6,9.4v24c5.5-0.6,10.7-2.5,15.1-5.4
			c2.2-1.4,4.2-3.1,6-5.1c5.6-6,9.1-14.1,9.1-23s-3.5-17-9.1-23c-1.8-1.9-3.8-3.6-6-5.1c-5.3-3.5-11.7-5.6-18.5-5.6
			C21.8,227.7,6.8,242.8,6.8,261.3z M1010.8,261.3c0,21.1-16.3,38.5-37,40.2V339h22.1c1.7,0,3,1.3,3,3v87.5c0,1.7-1.3,3-3,3h-74.5
			c-1.5,6.9-7.7,12.1-15,12.1c-8.5,0-15.3-6.9-15.3-15.3S898,414,906.4,414c7.5,0,13.8,5.4,15.1,12.6h71.4V345h-45.5h-2.1H17.9v81.5
			h70.9c1.3-7.1,7.6-12.6,15.1-12.6c8.5,0,15.3,6.9,15.3,15.3s-6.9,15.3-15.3,15.3c-7.3,0-13.5-5.2-15-12.1h-74c-1.7,0-3-1.3-3-3
			V342c0-1.7,1.3-3,3-3H37v-37.4c-20.7-1.7-37-19.1-37-40.2C0,239.1,18.1,221,40.4,221c6.7,0,13,1.6,18.5,4.5v-45.3l-13.6,6.3
			c0.1,0.4,0.1,0.8,0.1,1.3c0,6.6-5.4,12-12,12s-12-5.4-12-12s5.4-12,12-12c4.1,0,7.6,2,9.8,5.1l77.5-36.3l-16.5-26.4
			c-5.4,2.8-11.4,4.2-17.4,4.2c-3.1,0-6.3-0.4-9.4-1.2c-10-2.5-18.4-8.7-23.7-17.6c-0.8-1.4-0.4-3.3,1-4.1l27.4-16.4l-9.9-15.9
			c-1.1,0.3-2.2,0.4-3.3,0.4c-7.2,0-13-5.8-13-13s5.8-13,13-13s13,5.8,13,13c0,3.9-1.7,7.3-4.4,9.7L87.2,80l28.5-17.1
			c0.7-0.4,1.5-0.5,2.3-0.3s1.4,0.7,1.8,1.4c10.4,17.3,5.6,39.5-10.5,51.1l16.8,27l77.6-36.3c-0.2-0.9-0.4-1.9-0.4-2.9
			c0-6.6,5.4-12,12-12s12,5.4,12,12s-5.4,12-12,12c-3.5,0-6.6-1.5-8.8-3.8l-7.2,3.4V163c6.4-4.3,14.2-6.9,22.5-6.9
			c9.7,0,18.5,3.4,25.5,9.1V33h-10c-1.7,0-3-1.3-3-3V3c0-1.7,1.3-3,3-3h217c1.7,0,3,1.3,3,3v27c0,1.7-1.3,3-3,3h-10v133.8h75v-17.7
			c0-1.7,1.3-3,3-3h178.5c1.7,0,3,1.3,3,3v9c4.1-1.4,8.5-2.1,13-2.1c8.4,0,16.2,2.6,22.7,7h4.8v-13.8c0-1.7,1.3-3,3-3h140.5l-0.4-42
			l-7.9-2.9c-1.5,1.7-3.7,2.8-6.1,2.8c-4.4,0-8-3.6-8-8s3.6-8,8-8c4.2,0,7.7,3.3,8,7.5l66,24.3c1.5-1.7,3.6-2.8,6-2.8
			c4.4,0,8,3.6,8,8s-3.6,8-8,8c-4.3,0-7.8-3.4-8-7.6l-8.5-3.1v23.8h9.5c1.7,0,3,1.3,3,3V163h12c1.7,0,3,1.4,3,3v55.4
			c2-0.3,4-0.4,6-0.4C992.6,220.9,1010.8,239,1010.8,261.3z M973.8,294.7c16.9-1.7,30.2-16,30.2-33.4c0-18.5-15.1-33.6-33.6-33.6
			c-2.1,0-4.1,0.2-6,0.5c-4.7,0.9-9,2.7-12.8,5.2c-0.8,0.5-1.5,1-2.2,1.6c-2.3,1.8-4.3,3.9-6,6.2c-4.2,5.6-6.6,12.5-6.6,20
			s2.5,14.4,6.6,20c1.7,2.3,3.7,4.4,6,6.2c4.9,4,11,6.5,17.6,7.2v-24c-3.8-1.4-6.6-5.1-6.6-9.4c0-5.5,4.5-10,10-10s10,4.5,10,10
			c0,4.3-2.8,8-6.6,9.4L973.8,294.7L973.8,294.7z M967,339v-37.4c-6.4-0.5-12.4-2.6-17.6-5.8V339H967z M958.4,222.7v-53.8H746.5
			c6.6,7.2,10.7,16.8,10.7,27.4c0,12.6-5.8,23.8-14.8,31.2h205.8C951.4,225.5,954.7,223.9,958.4,222.7z M943.4,339v-47.7
			c-8.2-7.4-13.4-18.1-13.4-30c0-10.8,4.2-20.5,11.1-27.8H750.4v8.2c2.7-0.9,5.5-1.3,8.5-1.3c5.9,0,11.3,1.8,15.8,4.9
			c3.8-4.7,10.1-7.8,17.2-7.8c11.6,0,21,8.2,21,18.2v17.7c0,1.7-1.3,3-3,3h-24c-3.4,11.7-14.2,20.2-27,20.2c-3,0-5.8-0.5-8.5-1.3
			V339h46.5v-54.4c0-1.7,1.3-3,3-3h94c1.7,0,3,1.3,3,3V339H943.4z M943.4,162.9v-10.8h-193v10.8H943.4z M930.9,146.1v-26l-37.5-13.8
			l0.4,39.8H930.9z M915,429.3c0-4.8-3.9-8.7-8.7-8.7s-8.7,3.9-8.7,8.7s3.9,8.7,8.7,8.7C911.1,437.9,915,434,915,429.3z M890.9,339
			v-51.4h-41v14.8c5.2,1.3,9,6,9,11.6s-3.8,10.3-9,11.6V339H890.9z M852.9,314c0-2.2-1.2-4.2-3-5.2c-0.9-0.5-1.9-0.8-3-0.8
			s-2.1,0.3-3,0.8c-1.8,1-3,3-3,5.2s1.2,4.2,3,5.2c0.9,0.5,1.9,0.8,3,0.8s2.1-0.3,3-0.8C851.6,318.2,852.9,316.2,852.9,314z
			 M843.9,339v-13.4c-5.2-1.3-9-6-9-11.6s3.8-10.3,9-11.6v-14.8h-41V339H843.9z M806.9,270.5v-14.7c0-6.7-6.7-12.2-15-12.2
			c-5.3,0-10,2.2-12.6,5.6c4.8,5,7.8,11.9,7.8,19.4c0,0.6,0,1.3-0.1,1.9L806.9,270.5L806.9,270.5z M780.1,270.5
			c0.1-0.6,0.1-1.3,0.1-1.9c0-4.2-1.2-8.1-3.3-11.5c-1.4-2.2-3.2-4.2-5.4-5.7c-3.5-2.6-7.9-4.1-12.6-4.1c-3,0-5.9,0.6-8.5,1.8
			c-2.2,1-4.2,2.3-6,3.9c-4.2,3.9-6.9,9.5-6.9,15.7c0,4.7,1.6,9.1,4.2,12.6l2.7-2.7l6-6l1-1c-0.3-0.8-0.5-1.8-0.5-2.7
			c0-4.4,3.6-8,8-8s8,3.6,8,8s-3.6,8-8,8c-1,0-1.9-0.2-2.7-0.5l-5.8,5.8l-3.8,3.8c1.2,0.8,2.5,1.6,3.8,2.2c2.6,1.1,5.5,1.8,8.5,1.8
			c9,0,16.7-5.6,19.8-13.4C779.4,274.6,779.9,272.6,780.1,270.5z M750.5,196.3c0-11.3-5.6-21.3-14.2-27.4c-2.1-1.5-4.4-2.8-6.8-3.8
			c-3.9-1.6-8.2-2.5-12.6-2.5c-4.6,0-9,0.9-13,2.6c-2.1,0.9-4.1,2-6,3.3c-6.3,4.3-11.1,10.8-13.2,18.3c-0.9,3-1.4,6.2-1.4,9.4
			s0.5,6.4,1.4,9.4c2.2,7.5,6.9,13.9,13.2,18.3c1.9,1.3,3.9,2.4,6,3.3c3,1.3,6.2,2.1,9.6,2.5v-19.4c-4.4-1.1-8-4.3-9.6-8.4
			c-0.7-1.6-1-3.4-1-5.2s0.3-3.6,1-5.2c2.1-5.2,7.1-8.8,13-8.8c5.5,0,10.2,3.1,12.5,7.7c1,1.9,1.5,4,1.5,6.3s-0.5,4.4-1.5,6.3
			c-1.8,3.6-5.1,6.3-9.1,7.3v19.4c3.2-0.3,6.2-1.1,9.1-2.2c2.1-0.9,4.1-1.9,6-3.2C744.4,218.3,750.5,208,750.5,196.3z M744.4,339
			v-46.3c-0.9-0.6-1.8-1.2-2.7-1.9l-21.4,21.4V339H744.4z M744.4,244.5v-10.9h-11.8c-3.9,1.6-8,2.7-12.4,3.1v66l16.5-16.6
			c-3.8-4.8-6.1-10.9-6.1-17.5C730.7,258.4,736.2,249.4,744.4,244.5z M720.3,204.1c2.7-1.3,4.6-4.1,4.6-7.2c0-4.4-3.6-8-8-8
			s-8,3.6-8,8c0,3.2,1.9,6,4.6,7.2c1,0.5,2.2,0.8,3.4,0.8C718.1,204.8,719.2,204.6,720.3,204.1z M713.5,339v-39.8l-9.6-9.6V339
			H713.5z M713.5,289.6v-53c-3.3-0.3-6.5-1-9.6-2V280L713.5,289.6z M697.9,339v-55.4l-13.8-13.8c-4.8,3.7-10.7,5.9-17.2,5.9
			c-14.3,0-26.1-10.7-27.9-24.5h-53c-3.1,1.8-6.8,2.9-10.7,2.9c-2.8,0-5.5-0.6-8-1.6V281h114.4c1.7,0,3,1.3,3,3v33c0,1.7-1.3,3-3,3
			H567.2v19H697.9z M697.9,274v-42c-7.6-4.1-13.7-10.5-17.5-18.3h-95.9l11.3,17.4c0.4,0.5,0.5,1.2,0.5,1.8c0,0.1,0,0.2,0,0.3
			c0,4.5-1.4,8.6-3.9,12h46.3c1.2-14.4,13.3-25.8,28-25.8c15.5,0,28.1,12.6,28.1,28.1c0,6.6-2.3,12.7-6.1,17.5L697.9,274z
			 M697.9,160.7v-8.6H525.4v14.7h27c1,0,2,0.5,2.5,1.4l4.3,6.6h122.5c0.4,0,0.7,0.1,1,0.2C686.4,168.9,691.6,164,697.9,160.7z
			 M684,260.2c2.6-3.5,4.2-7.9,4.2-12.6c0-11.8-9.6-21.4-21.3-21.4c-11,0-20,8.3-21.2,19c-0.1,0.8-0.1,1.6-0.1,2.4
			c0,1.2,0.1,2.5,0.3,3.6c1.7,10,10.5,17.7,21,17.7c4.6,0,8.8-1.5,12.3-4l-9.6-9.6c-0.8,0.3-1.8,0.5-2.7,0.5c-3.2,0-6-1.9-7.2-4.6
			c-0.5-1-0.8-2.2-0.8-3.4c0-0.9,0.1-1.8,0.4-2.6c1.1-3.1,4.1-5.4,7.6-5.4c4.4,0,8,3.6,8,8c0,1-0.2,1.9-0.5,2.7L684,260.2z
			 M678.6,314v-27H567.2v27H678.6z M678.6,183.3v-2.6H563.1l17.6,27h97.5c-1.1-3.6-1.6-7.4-1.6-11.4
			C676.5,191.8,677.2,187.4,678.6,183.3z M590.1,236.2h-29.6c0.2,0.9,0.5,1.8,0.8,2.6c1.1,2.6,2.8,4.8,5.1,6.4
			c0.3,0.2,0.6,0.4,0.9,0.6c2.3,1.4,5.1,2.3,8,2.3c3.3,0,6.4-1.1,8.9-2.9C587.1,243.1,589.3,239.9,590.1,236.2z M587.8,229.8
			l-10.5-16.1l-3.9-6l-17.6-27l-3.9-6l-1.3-1.9H444.4h-6H408l-1.1,1.7l-6,9.2L400,185l-3.9,6l-7.3,11.2l-2.3,3.6l-7.9,12.2l-3.9,6
			l-3.7,5.8h67.5H587.8z M561.2,339v-19v-6v-27v-6v-29.8v-2.4c-1.2-1.1-2.3-2.3-3.2-3.6c-0.7-1-1.4-2.2-1.9-3.3
			c-0.5,1.2-1.2,2.3-1.9,3.3c-1.7,2.4-4,4.5-6.6,6c-3.1,1.8-6.8,2.9-10.7,2.9c-4.3,0-8.2-1.3-11.5-3.4c-2.4-1.6-4.4-3.6-6-5.9
			c-0.6-0.9-1.2-1.9-1.6-2.9c-3.3,7.2-10.7,12.2-19.2,12.2s-15.8-5-19.2-12.2c-3.3,7.2-10.7,12.2-19.2,12.2c-6.3,0-12-2.8-15.8-7.1
			c-1.4-1.5-2.5-3.2-3.4-5.1c-0.7,1.5-1.6,3-2.6,4.3c-3.9,4.8-9.8,8-16.5,8c-8.5,0-15.8-5-19.2-12.2c-2.1,4.5-5.7,8.1-10.2,10.2V339
			h58.4v-65c0-1.7,1.4-3,3-3h43c1.7,0,3,1.3,3,3v22.3c5.4,1.1,9.5,6,9.5,11.7s-4.1,10.6-9.5,11.7V339H561.2z M551.7,236.2h-29.6
			c0.5,2.5,1.7,4.8,3.3,6.6c2.7,3.1,6.6,5.1,11,5.3c0.2,0,0.4,0,0.5,0c3.3,0,6.4-1.1,8.9-2.9C548.8,243.1,550.9,239.9,551.7,236.2z
			 M513.3,236.2h-29.6c1.4,6.8,7.5,11.9,14.8,11.9S511.9,243,513.3,236.2z M503.4,308c0-2.4-1.4-4.5-3.5-5.5
			c-0.8-0.4-1.6-0.5-2.5-0.5c-1.3,0-2.5,0.4-3.5,1.1c-1.5,1.1-2.5,2.9-2.5,4.9s1,3.8,2.5,4.9c1,0.7,2.2,1.1,3.5,1.1
			c0.9,0,1.7-0.2,2.5-0.5C501.9,312.5,503.4,310.4,503.4,308z M493.9,339v-19.5c-4.9-1.5-8.5-6.1-8.5-11.5s3.6-10,8.5-11.5V277h-37
			v62H493.9z M475,236.2h-29.6c1.4,6.8,7.5,11.9,14.8,11.9C467.5,248.1,473.6,243,475,236.2z M451.4,27V6h-211v21H451.4z
			 M438.4,166.8V33h-185v138c5.6,6.9,8.9,15.7,8.9,25.3s-3.3,18.3-8.9,25.3v4.8c5-4.3,11.4-7,18.5-7c0.5,0,1,0,1.5,0V188
			c0-1.7,1.3-3,3-3h116.5l8-12.3V162H290c-1.7,0-3-1.3-3-3v-24h-11.2c-1.7,0-3-1.3-3-3V99c0-1.7,1.3-3,3-3h140c1.7,0,3,1.3,3,3v33
			c0,1.7-1.3,3-3,3H293v21h110.8c1.7,0,3,1.3,3,3v7.8H438.4z M436.6,236.2H407c1.4,6.8,7.5,11.9,14.8,11.9S435.2,243,436.6,236.2z
			 M412.9,129v-27h-134v27H412.9z M398.3,236.2h-29.6c1.4,6.8,7.5,11.9,14.8,11.9c1,0,2-0.1,3-0.3c2.2-0.4,4.2-1.4,6-2.7
			C395.4,243,397.5,239.8,398.3,236.2z M371.4,218l17.6-27H279.4v27H371.4z M386.5,339v-85.1c-1,0.1-2,0.2-3,0.2
			c-11.6,0-21.1-9.4-21.1-20.9c0-0.1,0-0.2,0-0.3c0-0.6,0.1-1.2,0.5-1.8l4.6-7.1h-80.2c7.7,5,12.8,13.7,12.8,23.6
			c0,12.9-8.8,23.8-20.6,27.1V339H316v-65c0-1.7,1.4-3,3-3h43c1.7,0,3,1.3,3,3v22.4c5.2,1.3,9,6,9,11.6s-3.8,10.3-9,11.6V339H386.5z
			 M367.9,308c0-2.2-1.2-4.2-3-5.2c-0.9-0.5-1.9-0.8-3-0.8s-2.1,0.3-3,0.8c-1.8,1-3,3-3,5.2s1.2,4.2,3,5.2c0.9,0.5,1.9,0.8,3,0.8
			s2.1-0.3,3-0.8C366.6,312.2,367.9,310.2,367.9,308z M358.9,339v-19.4c-5.2-1.3-9-6-9-11.6s3.8-10.3,9-11.6V277h-37v62H358.9z
			 M293.2,247.6c0-9.1-5.8-16.9-13.9-20c-1.9-0.7-3.9-1.2-6-1.3c-0.5,0-1-0.1-1.5-0.1c-7.9,0-14.8,4.3-18.5,10.7
			c-1.8,3.1-2.9,6.8-2.9,10.6c0,3.9,1,7.5,2.9,10.6c0.4,0.7,0.8,1.4,1.3,2l9.7-9.7c-0.3-0.8-0.5-1.8-0.5-2.7c0-4.4,3.6-8,8-8
			c0.5,0,1,0,1.5,0.1c2.8,0.5,5,2.5,6,5.1c0.3,0.9,0.5,1.8,0.5,2.8s-0.2,1.9-0.5,2.8c-1,2.6-3.2,4.5-6,5.1c-0.5,0.1-1,0.1-1.5,0.1
			c-1,0-1.9-0.2-2.7-0.5l-9.6,9.6c3.5,2.5,7.7,4,12.3,4c0.5,0,1,0,1.5-0.1c2.1-0.1,4.1-0.6,6-1.3
			C287.4,264.5,293.2,256.7,293.2,247.6z M273.4,339v-63.3c-0.5,0-1,0-1.5,0c-6.5,0-12.4-2.2-17.2-5.9l-1.3,1.3V339H273.4z
			 M255.5,196.3c0-4.1-0.7-8.1-2.1-11.7c-1.4-3.7-3.4-7.2-6-10.2c-6.2-7.2-15.3-11.8-25.5-11.8c-8.6,0-16.5,3.3-22.5,8.7
			c-2.3,2.1-4.3,4.5-6,7.1c-3.2,5.2-5.1,11.2-5.1,17.8c0,6.5,1.9,12.6,5.1,17.8c1.7,2.7,3.7,5.1,6,7.1c5.2,4.7,11.8,7.8,19.1,8.5
			v-19.4c-0.2,0-0.3-0.1-0.5-0.1c-5.8-1.7-10.1-7.1-10.1-13.4c0-7.7,6.3-14,14-14s14,6.3,14,14c0,6.6-4.5,12.1-10.6,13.6v19.4
			c8.8-0.9,16.6-5.2,22.1-11.6c2.6-3,4.6-6.4,6-10.2C254.7,204.4,255.5,200.4,255.5,196.3z M247.4,339v-61.9l-22.1,22.1V339H247.4z
			 M247.4,267.5v-6.1c-2.3-4.1-3.6-8.8-3.6-13.8s1.3-9.8,3.6-13.8v-6.1c-6.1,5-13.8,8.2-22.1,8.9v53L247.4,267.5z M224.8,204.3
			c3-1.2,5.1-4.1,5.1-7.4c0-4.4-3.6-8-8-8s-8,3.6-8,8c0,3,1.7,5.6,4.1,7c0.2,0.1,0.3,0.2,0.5,0.2c1,0.5,2.2,0.8,3.4,0.8
			c0.1,0,0.2,0,0.3,0C223.1,204.8,223.9,204.6,224.8,204.3z M218.5,339v-26.8l-19.1-19.1V339H218.5z M218.5,302.6v-66
			c-7-0.6-13.6-3-19.1-6.7v18.5c5.3,5.1,8.6,12.3,8.6,20.3c0,6.6-2.3,12.7-6.1,17.5L218.5,302.6z M201.2,268.6c0-3.1-0.7-6-1.9-8.7
			c-1.4-3.1-3.4-5.8-6-7.8c-3.7-3-8.4-4.8-13.5-4.8c-11.8,0-21.3,9.6-21.3,21.4c0,2.9,0.6,5.6,1.6,8.1c0.8,1.9,1.8,3.7,3.1,5.2
			c1.9,2.4,4.3,4.3,7,5.7c1.9,1,3.9,1.6,6,2c1.2,0.2,2.4,0.3,3.6,0.3c4.6,0,8.8-1.5,12.3-4l-9.6-9.6c-0.9,0.3-1.8,0.5-2.7,0.5
			c-1.3,0-2.6-0.3-3.7-0.9c-1.6-0.8-2.9-2.2-3.6-3.8c-0.4-1-0.7-2.1-0.7-3.2c0-4.4,3.6-8,8-8s8,3.6,8,8c0,1-0.2,1.9-0.5,2.7l6,6
			l3.7,3.7c0.9-1.2,1.7-2.6,2.3-4C200.5,274.6,201.2,271.7,201.2,268.6z M193.4,339v-45.8c-4,2.2-8.6,3.5-13.5,3.5
			c-1.2,0-2.4-0.1-3.6-0.2l0.3,42.5H193.4z M193.4,243.9v-19c-7.3-7.3-11.9-17.4-11.9-28.6c0-11.2,4.6-21.3,11.9-28.6v-50.6
			L64.9,177.3v51.9c9.7,7.4,15.9,19,15.9,32.1s-6.2,24.7-15.9,32.1V339h17v-61c0-1.2,0.7-2.3,1.8-2.8l87.7-37.2v-33.4l-85.3,38.1
			c-0.9,0.4-2,0.3-2.9-0.2s-1.4-1.5-1.4-2.5v-35c0-1.2,0.7-2.2,1.7-2.7l71-33c-0.2-0.8-0.3-1.7-0.3-2.5c0-6.6,5.4-12,12-12
			s12,5.4,12,12s-5.4,12-12,12c-3.6,0-6.8-1.6-9-4.1L87.7,207v28.4l85.3-38.1c0.9-0.4,2-0.3,2.9,0.2c0.9,0.6,1.4,1.5,1.4,2.5v40
			c0,0.2,0,0.4-0.1,0.5c0.8-0.1,1.7-0.1,2.6-0.1C184.7,240.4,189.3,241.7,193.4,243.9z M172.4,166.8c0-3.3-2.7-6-6-6s-5.9,2.6-6,5.9
			v0.1c0,2.2,1.2,4.1,2.9,5.1c0.9,0.6,2,0.9,3.1,0.9C169.7,172.8,172.4,170.1,172.4,166.8z M170.6,339l-0.3-44
			c-5.6-2-10.4-5.8-13.7-10.7l-24.9,9.2v14.9c4.1,1.3,7,5.1,7,9.5s-2.9,8.3-7,9.5V338c0,0.4-0.1,0.7-0.2,1H170.6z M158.9,249.9
			l-71,30.1v23.4l65.9-24.4c-1.3-3.2-2-6.8-2-10.4C151.7,261.4,154.4,254.8,158.9,249.9z M133.6,318c0-1.6-0.8-3.1-2-4
			c-0.8-0.6-1.9-1-3-1s-2.2,0.4-3,1c-1.2,0.9-2,2.4-2,4s0.8,3.1,2,4c0.8,0.6,1.9,1,3,1s2.2-0.4,3-1
			C132.8,321.1,133.6,319.6,133.6,318z M87.9,339h37.9c-0.1-0.3-0.2-0.6-0.2-1v-10.5c-4.1-1.3-7-5.1-7-9.5s2.9-8.3,7-9.5v-12.7
			l-37.8,14V339H87.9z M103.5,111.6c14.5-8.7,19.8-27.1,12.6-42L88.8,86l-2.1,1.2L60.5,103c4.5,6.1,10.9,10.5,18.4,12.3
			C87.3,117.4,96.1,116.1,103.5,111.6z M112.5,429.3c0-4.8-3.9-8.7-8.7-8.7s-8.7,3.9-8.7,8.7s3.9,8.7,8.7,8.7S112.5,434,112.5,429.3
			z M73.6,59.6c1.4-1.3,2.2-3.1,2.2-5.1c0-3.9-3.1-7-7-7s-7,3.1-7,7s3.1,7,7,7c0.4,0,0.8,0,1.2-0.1C71.4,61.2,72.7,60.5,73.6,59.6z
			 M58.9,339v-41.8c-4.6,2.4-9.7,3.9-15.1,4.4V339H58.9z"/>
		<g id="Wordmark_7_">
			<polygon class="st5" points="316.9,437.6 297.4,371.7 279.2,371.7 279.2,507.9 297.4,507.9 297.4,418.8 321.3,496.2 335.1,496.2 
				335.1,371.7 316.9,371.7 			"/>
			<path class="st5" d="M394.3,382h-13.6c-14.5,0-21.8,7.8-21.8,23.3v82.4H377v-41.4h20.9v61.6h18.2V405.3
				C416.1,389.8,408.8,382,394.3,382z M397.9,429.8H377v-23.3c0-5.3,2.7-8,8-8h4.9c5.3,0,8,2.6,8,8V429.8z"/>
			<path class="st5" d="M494.9,428.6v-23.3c0-15.5-7-23.3-20.9-23.3h-35.7v105.8h7.6v17.4c-1.8,0.5-3.2,2.1-3.2,4.1
				c0,2.4,1.9,4.3,4.3,4.3s4.3-1.9,4.3-4.3c0-2-1.3-3.6-3.1-4.1v-17.4h8.3v-34.9h11l11.9,55h17.3L484,451.2
				C491.2,448,494.9,440.5,494.9,428.6z M476.6,427.5c0,6.6-2.7,9.9-8.2,9.9h-11.9v-38.9h11.9c5.4,0,8.2,3.3,8.2,9.9V427.5z"/>
			<polygon class="st5" points="616.9,475.7 602.1,371.7 584.1,371.7 606.1,507.9 627.7,507.9 649.7,371.7 631.7,371.7 			"/>
			<polygon class="st5" points="727.3,371.7 709.1,371.7 709.1,481.5 752.3,481.5 752.3,465 727.3,465 			"/>
			<polygon class="st5" points="788.6,371.7 770.4,371.7 770.4,496.2 813.6,496.2 813.6,479.7 788.6,479.7 			"/>
			<path class="st5" d="M550.8,444.5c0,5.3-2.7,8-8,8h-4.9c-5.3,0-8-2.7-8-8V382h-18.2v63.6c0,14.7,6.5,22.5,19.5,23.2v39.1h18.2
				v-39.1c13-0.8,19.5-8.5,19.5-23.2V382h-18.2v62.5H550.8z"/>
			<path class="st5" d="M246.3,375.8c1.8-0.5,3.1-2.2,3.1-4.1c0-2.4-1.9-4.3-4.3-4.3s-4.3,1.9-4.3,4.3c0,2,1.3,3.6,3.1,4.1v17.9h-8
				v102.5h8v17.9c-1.8,0.5-3.1,2.2-3.1,4.1c0,2.4,1.9,4.3,4.3,4.3s4.3-1.9,4.3-4.3c0-2-1.3-3.6-3.1-4.1v-17.9h8V393.7h-8V375.8z"/>
			<path class="st5" d="M677.1,375.8c1.8-0.5,3.1-2.2,3.1-4.1c0-2.4-1.9-4.3-4.3-4.3c-2.4,0-4.3,1.9-4.3,4.3c0,2,1.3,3.6,3.1,4.1
				v17.9h-8v102.5h8v17.9c-1.8,0.5-3.1,2.2-3.1,4.1c0,2.4,1.9,4.3,4.3,4.3c2.4,0,4.3-1.9,4.3-4.3c0-2-1.3-3.6-3.1-4.1v-17.9h8V393.7
				h-8V375.8z"/>
			<path class="st5" d="M198.6,446.7v-1c8.7-1.8,13.1-6.6,13.1-14.4v-35c0-16.4-8.1-24.6-24.3-24.6h-48.2c-0.5-1.8-2.1-3.1-4.1-3.1
				c-2.4,0-4.3,1.9-4.3,4.3s1.9,4.3,4.3,4.3c2,0,3.6-1.3,4.1-3.1h17.1v66.7h-17.1c-0.5-1.8-2.1-3.1-4.1-3.1c-2.4,0-4.3,1.9-4.3,4.3
				s1.9,4.3,4.3,4.3c2,0,3.6-1.3,4.1-3.1h17.1v62.6h-17.1c-0.5-1.8-2.1-3.2-4.1-3.2c-2.4,0-4.3,1.9-4.3,4.3c0,2.4,1.9,4.3,4.3,4.3
				c2,0,3.6-1.3,4.1-3.1h17.1l0,0h36.6c13.8,0,20.7-6.8,20.7-20.3v-25.4C213.5,454.7,208.5,449.5,198.6,446.7z M174.5,388.2h10.8
				c5.4,0,8.2,3.3,8.2,9.9v30c0,6.6-3.5,9.9-10.4,9.9h-8.5v-49.8H174.5z M195.3,485.5c0,3.9-2.4,5.9-7.2,5.9h-13.6v-36.9h10
				c7.2,0,10.8,3.2,10.8,9.7V485.5z"/>
			<path class="st5" d="M898.2,495.4c-2,0-3.6,1.3-4.1,3.1h-17.3v-7.1h-26.9v-36.5h23.9v-16.5h-23.9v-50.2h26.9v-16.5h-45.1v7.1
				h-17.3c-0.5-1.8-2.2-3.1-4.1-3.1c-2.4,0-4.3,1.9-4.3,4.3s1.9,4.3,4.3,4.3c2,0,3.6-1.3,4.1-3.1h17.3V508h45.1v-7.1h17.3
				c0.5,1.8,2.2,3.1,4.1,3.1c2.4,0,4.3-1.9,4.3-4.3C902.5,497.3,900.6,495.4,898.2,495.4z"/>
		</g>
	</g>
</g>
</svg>
